<svg xmlns="http://www.w3.org/2000/svg" id="bell-off" class="icon icon-bell-off" viewBox="0 0 24 24">
  <path d="M0 0h24v24H0z" fill="none"></path>
  <path d="M22.27 22l-17-17h-.5c-1.38 0-2.5 1.22-2.5 2.7v9a2.3 2.3 0 002.55 2.29l1.2.1a4.978 4.978 0 009.95 0h2.74l-1 1 5 5.01 1.23-1.22zM18 11v6a3 3 0 01-5.97.16L12 17a2 2 0 00-1.45-1.95l1.75-1.75V11a6 6 0 015-5.91V5a2 2 0 114 0v.099A6.003 6.003 0 0118 11zm-3 6a4.978 4.978 0 01-3-.8v.8c0 .337.055.663.156.974l.52.52a1.992 1.992 0 002.781-.175A2.993 2.993 0 0015 17z"></path>
</svg>
