<svg xmlns="http://www.w3.org/2000/svg" viewBox="0 0 24 24" class="icon icon-camera-off">
    <path fill="none" d="M0 0h24v24H0z"/>
    <path d="M1.414 2.828l2.828 2.828V8h-2a1 1 0 0 1-1-1V3.414zM22 12.984V4a1 1 0 0 0-1-1h-8l1.828-1.828a1 1 0 0 0-1.414-1.414l-9.19 9.19a1 1 0 0 0 1.414 1.414L4 7.414V12a1 1 0 0 0 .883.993L5 13h6v3.585l5.707 5.707a1 1 0 0 0 1.414-1.414l-1.827-1.827H21a1 1 0 0 0 1-1v-4.618l-.992-.493L22 12.984zm-2 0v3.003l-2.030-2.03L20 12.984zM4 16a3 3 0 1 0 0-6 3 3 0 0 0 0 6zm0-2a1 1 0 1 0 0-2 1 1 0 0 0 0 2z"/>
</svg>
