<svg xmlns="http://www.w3.org/2000/svg" class="icon icon-cloud-drizzle">
  <path d="M20 17.01v-2a5 5 0 0 0-1.992-4.139A7 7 0 0 0 11 7.01a4.978 4.978 0 0 0-4 2.185A4.978 4.978 0 0 0 2 7.01a5 5 0 0 0 5-5 7 7 0 0 0-1 3.473 7 7 0 0 0 3.9 6.261A7 7 0 0 0 13 17.01h7z"/>
  <path d="M16 18.01H6a2 2 0 0 1-2-2V16h1.106a5 5 0 0 0 1.894-6.064 4.9 4.9 0 0 1 .25-.636A6 6 0 0 1 16 18.01z"/>
  <path d="M16 0a5.978 5.978 0 0 0-4 1.528A5.978 5.978 0 0 0 4 0a6 6 0 0 0-1 11.945V14a2 2 0 0 0 2 2h6a2 2 0 0 0 2-2v-1.05A5.973 5.973 0 0 0 16 0z"/>
</svg>

