<svg xmlns="http://www.w3.org/2000/svg" viewBox="0 0 24 24" fill="none" class="icon icon-cloud-snow">
  <path d="M16.9 16.6a4.6 4.6 0 01-9.2 0 3.72 3.72 0 01-2-.5 5.15 5.15 0 017.36-5.52A4.6 4.6 0 0116.9 16.6z"/>
  <path d="M12 22a1.5 1.5 0 01-1.5-1.5h3a1.5 1.5 0 01-1.5 1.5zm-1.5-2.5V21m2.858-1.964l1.789 1.036m-1.789-1.036L12.5 19m0 2.036l1.789-1.036"/>
  <path d="M15.5 17a1.5 1.5 0 01-1.5-1.5h3a1.5 1.5 0 01-1.5 1.5zm-1.5-2.5V16m2.858-1.964l1.789 1.036m-1.789-1.036L15 14m0 2.036l1.789-1.036"/>
  <path d="M8.5 17a1.5 1.5 0 01-1.5-1.5h3a1.5 1.5 0 01-1.5 1.5zm-1.5-2.5V16m2.858-1.964l1.789 1.036m-1.789-1.036L8 14m0 2.036l1.789-1.036"/>
</svg>
