<svg version="1.1" id="crosshair.svg" class="icon icon-crosshair" xmlns="http://www.w3.org/2000/svg" xmlns:xlink="http://www.w3.org/1999/xlink" x="0px" y="0px" viewBox="0 0 64 64" style="enable-background:new 0 0 64 64;" xml:space="preserve">
    <path fill="#000000" d="M32,21c6.1,0,11,4.9,11,11s-4.9,11-11,11s-11-4.9-11-11S25.9,21,32,21 M32,19c-7.2,0-13,5.8-13,13
	s5.8,13,13,13s13-5.8,13-13S39.2,19,32,19L32,19z"/>
    <path fill="#000000" d="M32,0c0.6,0,1,0.4,1,1v18c0,0.6-0.4,1-1,1s-1-0.4-1-1V1C31,0.4,31.4,0,32,0z"/>
    <path fill="#000000" d="M32,44c0.6,0,1,0.4,1,1v18c0,0.6-0.4,1-1,1s-1-0.4-1-1V45C31,44.4,31.4,44,32,44z"/>
    <path fill="#000000" d="M64,32H45c-0.6,0-1-0.4-1-1s0.4-1,1-1h19c0.6,0,1,0.4,1,1S64.6,32,64,32z"/>
    <path fill="#000000" d="M20,32H1c-0.6,0-1-0.4-1-1s0.4-1,1-1h19c0.6,0,1,0.4,1,1S20.6,32,20,32z"/>
</svg>
