<svg xmlns="http://www.w3.org/2000/svg" class="icon icon-figma" viewBox="0 0 24 24">
  <path d="M16,6.67c1.38,0 2.5,-1.12 2.5,-2.5c0,-1.38 -1.12,-2.5 -2.5,-2.5s-2.5,1.12 -2.5,2.5v5c0,1.106 -0.895,2 -2,2s-2,-0.894 -2,-2v-3.159c0,-0.198 -0.16,-0.359 -0.357,-0.359h-1.286c-0.197,0 -0.357,0.161 -0.357,0.359v3.159c0,1.106 -0.895,2 -2,2s-2,-0.894 -2,-2v-3.159c0,-0.198 -0.16,-0.359 -0.357,-0.359h-1.286c-0.197,0 -0.357,0.161 -0.357,0.359v5c0,1.106 -0.895,2 -2,2c-1.105,0 -2,-0.894 -2,-2v-3.159c0,-0.198 -0.16,-0.359 -0.357,-0.359h-1.286c-0.197,0 -0.357,0.161 -0.357,0.359v5c0,1.106 -0.895,2 -2,2s-2,-0.894 -2,-2v-3.159c0,-0.198 -0.16,-0.359 -0.357,-0.359h-1.286c-0.197,0 -0.357,0.161 -0.357,0.359v5c0,2.76 2.24,5 5,5s5,-2.24 5,-5v-5c0,-1.38 1.12,-2.5 2.5,-2.5s2.5,1.12 2.5,2.5v2.5h2.5v-5c0,-1.38 1.12,-2.5 2.5,-2.5s2.5,1.12 2.5,2.5v0c0,-2.76 -2.24,-5 -5,-5z"/>
</svg>
