<svg xmlns="http://www.w3.org/2000/svg" viewBox="0 0 24 24" class="icon icon-gear-cogs-icon">
  <path d="M12 2C6.48 2 2 6.48 2 12s4.48 10 10 10 10-4.48 10-10S17.52 2 12 2zm0 18c-4.41 0-8-3.59-8-8s3.59-8 8-8 8 3.59 8 8-3.59 8-8 8zm1-11h-2v2h2V9zm8.54 3.53l-1.41-1.41-2.83 2.83 1.41 1.41 2.83-2.83zM11 6.39V4h2v2.39c-.93-.33-1.94-.49-3-.49s-2.07.16-3 .49V4h2v2.39C7.07 6.64 6.64 7.07 6.39 7H4v2h2.39c.33.93.49 1.94.49 3s-.16 2.07-.49 3H4v2h2.39c.25.93.68 1.79 1.21 2.5.93-.33 1.94-.49 3-.49s2.07.16 3 .49c.52-.71.96-1.57 1.21-2.5H20v-2h-2.39c-.33-.93-.49-1.94-.49-2.99s.16-2.07.49-3H20v-2h-2.39c-.25-.93-.68-1.79-1.21-2.5-.92.33-1.94.48-2.96.48-.98 0-1.99-.15-2.91-.47zM13 22.61V20h-2v2.61c-.93-.33-1.82-.77-2.61-1.3l2-3.46 1.8 1.05 1.8-1.05 2 3.46c-.79.53-1.68.97-2.61 1.3zm6.54-2.97l-2-3.46-1.42 1.42-1.41-1.41-1.42 1.41-1.41-1.41-2 3.46c1.20.89 2.53 1.5 4 1.82v-2.03h2v2.03c1.47-.32 2.80-.93 4-1.82z"></path>
</svg>
