<svg xmlns="http://www.w3.org/2000/svg" viewBox="0 0 24 24" class="icon icon-github">
  <path d="M12 .5C5.3.5 0 5.8 0 12.5 0 17.7 3.4 22 8.2 23.5c.6.1.8-.3.8-.6v-2c-3.3.7-4-1.6-4-1.6C4 18.2 3.1 17.8 3.1 17.8c-1.1-.8.1-.8.1-.8 1.2 0 1.8 1.2 1.8 1.2 1.1 1.9 2.8 1.3 3.5 1 .1-.8.4-1.3.8-1.6-2.6-.3-5.3-1.3-5.3-5.9 0-1.3.5-2.4 1.2-3.2-.1-.3-.5-1.6.1-3.3 0 0 1-.3 3.3 1.2a11.5 11.5 0 0 1 6 0c2.2-1.6 3.3-1.2 3.3-1.2.6 1.7.2 3 .1 3.3.8.8 1.2 1.9 1.2 3.2 0 4.6-2.7 5.6-5.3 5.9.4.4.8 1 .8 2v3c0 .3.2.7.8.6C20.6 22 24 17.7 24 12.5 24 5.8 18.7.5 12 .5z"></path>
</svg>
