<svg xmlns="http://www.w3.org/2000/svg" viewBox="0 0 24 24" class="icon icon-globe">
  <path d="M12 2C6.48 2 2 6.48 2 12s4.48 10 10 10 10-4.48 10-10S17.52 2 12 2zm0 18c-1.13 0-2.26-.26-3.3-.77.84-1.18 1.3-2.52 1.3-3.95s-.46-2.78-1.3-3.95C9.75 6.26 10.87 6 12 6c1.13 0 2.24.26 3.27.77-.85 1.18-1.3 2.51-1.3 3.93 0 1.42.45 2.75 1.32 3.97-1.04.5-2.18.76-3.29.76-1.11 0-2.23-.26-3.27-.77.86-1.22 1.32-2.55 1.32-3.97 0-1.42-.45-2.75-1.3-3.93C9.74 6.26 10.87 6 12 6s2.24.26 3.3.77c-.86 1.17-1.32 2.52-1.32 3.95 0 1.43.46 2.77 1.3 3.95-1.04.51-2.17.77-3.28.77zm0-16c-1.33 0-2.67.26-3.93.76C10.33 7.03 12 9.24 12 12s-1.67 4.97-3.93 6.24C9.33 20.76 10.67 20.99 12 20.99c1.33 0 2.67-.23 3.93-.75-2.26-1.27-3.93-3.48-3.93-6.24s1.67-4.97 3.93-6.24C14.67 6.26 13.33 6.03 12 6.03z"/>
</svg>
