<svg xmlns="http://www.w3.org/2000/svg" class="icon icon-global-temperature" viewBox="0 0 24 24">
    <path d="M13 17.5A6.5 6.5 0 0 1 11.976 6.345a3.5 3.5 0 1 0-5.953-.344A6.5 6.5 0 1 1 13 17.5zm-7-12a2 2 0 1 1 2 2h-2zm0 4a4 4 0 1 1 4 4h-4z"></path>
    <path d="M4.002 6.181l1.821.084a2.5 2.5 0 0 0 3.985-2.053 2.5 2.5 0 0 0-2.8 2.133l-2.57.166A4.002 4.002 0 0 1 11 10v1a5.978 5.978 0 0 1-2.507 5.033 3.5 3.5 0 1 0 4.814 0A5.978 5.978 0 0 1 13 11v-1a6 6 0 1 0-12 0v1c0 1.981.94 3.735 2.469 4.876a2.5 2.5 0 1 0 1.143-.872A3.98 3.98 0 0 1 5 11v-1a3.989 3.989 0 0 1-1-2.819z"></path>
</svg>