<svg xmlns="http://www.w3.org/2000/svg" class="icon icon-grimreaper">
    <path d="M12.5,0C5.597,0,0,5.597,0,12.5S5.597,25,12.5,25S25,19.403,25,12.5S19.403,0,12.5,0z M12.5,23C6.149,23,1,17.851,1,11.5S6.149,0,12.5,0S24,5.149,24,11.5S18.851,23,12.5,23z"/>
    <path d="M16.086,16.543c-0.792,0-1.039-0.32-1.586-0.792c-0.977,0.457-2.031,0.712-3.168,0.712c-1.161,0-2.238-0.27-3.226-0.746c-0.498,0.401-0.749,0.581-1.468,0.581c-0.818,0-1.93-0.675-3.082-1.93C2.675,14.317,2,13.205,2,12.387c0-0.964,0.27-1.617,0.746-2.063C4.204,8.204,7.5,5.655,7.5,5.655S10.796,8.204,12.254,10.325C12.73,10.77,13,11.423,13,12.387c0,0.818-0.675,1.93-1.93,3.082c-1.255,1.152-1.93,2.264-1.93,3.082c0,0.498,0.18,0.75,0.582,1.248c0.476,0.988,1.066,1.801,1.82,2.422C11.01,21.324,11.641,22,12.459,22c0.964,0,1.617-0.27,2.063-0.746c2.121-1.458,4.67-4.754,4.67-4.754S18.796,17.957,16.086,16.543z"/>
</svg>