<svg xmlns="http://www.w3.org/2000/svg" viewBox="0 0 24 24" class="icon icon-books-shelf">
    <path d="M3 22h18v-2H3v2zm6-18.5V2H4v8h9.03A6.47 6.47 0 0112 .5z"></path>
    <path d="M22 10h-9.03A6.47 6.47 0 0113 12.5V22h7V10z"></path>
    <path d="M3 18h18v-2H3v2zm8-14h2v2h-2V4zm0 8h2v2h-2v-2zm.13-10h1.75c.38 0 .7.28.74.65l.01.1v1.5a.75.75 0 01-1.5.1v-1.6h-.2v1.5a.75.75 0 01-1.5.1v-1.5c0-.41.34-.75.75-.75zm0 8h1.75c.38 0 .7.28.74.65l.01.1v1.5a.75.75 0 01-1.5.1v-1.6h-.2v1.5a.75.75 0 01-1.5.1v-1.5c0-.41.34-.75.75-.75z"></path>
</svg>