<svg xmlns="http://www.w3.org/2000/svg" viewBox="0 0 24 24" class="icon icon-dragonfly">
    <path d="M12 22C6.477 22 2 17.523 2 12C2 6.477 6.477 2 12 2C17.523 2 22 6.477 22 12C22 17.523 17.523 22 12 22ZM12 20C16.418 20 20 16.418 20 12C20 7.582 16.418 4 12 4C7.582 4 4 7.582 4 12C4 16.418 7.582 20 12 20Z" />
    <path d="M10 9L12 10L14 9V7L12 6L10 7V9Z" />
    <path d="M9 14L11 15L13 14V12L11 11L9 12V14Z" />
    <path d="M7 7L9 8L11 7V5L9 4L7 5V7Z" />
    <path d="M6 12L8 13L10 12V10L8 9L6 10V12Z" />
</svg>