<svg xmlns="http://www.w3.org/2000/svg" viewBox="0 0 24 24" class="icon icon-abstract-galaxy">
    <path d="M11.99 2a10 10 0 110 20 10 10 0 010-20zm0-2C5.477 0 0 5.477 0 12s5.477 12 11.99 12C18.522 24 24 18.523 24 12S18.522 0 11.99 0zm-.45 3a9 9 0 00-2.406 17.582 1 1 0 01-.073-.521V15a1 1 0 012 0v1.07A7.002 7.002 0 015.516 9H7a1 1 0 010 2H6.050a9.001 9.001 0 005.49 4.582V15a1 1 0 012 0v2.051A9.004 9.004 0 0018.5 11V9a1 1 0 110-2h1.451A8.967 8.967 0 0013 5.437 1 1 0 0112.59 7a7 7 0 103.877-6.134A9.028 9.028 0 0011.538 3z" fill-rule="evenodd" />
</svg>