<svg xmlns="http://www.w3.org/2000/svg" class="icon icon-fishing-rod" viewBox="0 0 24 24">
    <path d="M21 3.672V1.328a.66.66 0 00-.191-.47.639.639 0 00-.451-.2h-2.7a.667.667 0 00-.64.47l-.891 2.481-3.119-2.67a2.63 2.63 0 00-1.788-.74H4.647a2.67 2.67 0 00-1.891.78A2.608 2.608 0 002 3.672v6.13c0 .7.26 1.32.78 1.8.51.49 1.141.74 1.861.74h6.23c.73 0 1.351-.25 1.87-.74a2.4 2.4 0 00.75-1.8V3.672h1.592l3.129 2.822-.891 2.542a.682.682 0 00.18.69.585.585 0 00.42.17h2.7c.18 0 .34-.06.48-.17a.66.66 0 00.211-.7l-.92-2.531 2.99-2.661c.12-.12.18-.27.18-.46z"/>
    <path d="M16.637 11.312a1.324 1.324 0 01-.941-.39 1.35 1.35 0 01-.4-.95V3.672h-2.649v6.3c0 .36-.13.67-.39.931-.26.25-.581.38-.941.38H4.647c-.36 0-.67-.13-.931-.38-.26-.26-.39-.571-.39-.931v-6.3H0v6.3a2.655 2.655 0 00.78 1.941c.52.521 1.151.78 1.861.78h3.009v10.411c0 .36.12.67.37.921.25.261.56.391.941.391h1.649c.37 0 .68-.13.931-.39a1.29 1.29 0 00.4-.932v-10.41h3.008c.73 0 1.35-.26 1.871-.78.51-.521.771-1.151.771-1.941v-6.3h-2.651v6.3c0 .36-.13.68-.38.95-.25.26-.571.39-.931.39z"/>
</svg>