<svg xmlns="http://www.w3.org/2000/svg" class="icon icon-icon-snowflake" viewBox="0 0 24 24">
  <path d="M12,2A1.5,1.5,0,0,1,13.5,3.5H16.5A1.5,1.5,0,1,1,16.5,6.5H15.2588L17.9766,9.2188A1.11048,1.11048,0,1,1,16.2812,10.9141L13.5,8.1328V15.8672L16.2812,13.0859A1.11048,1.11048,0,1,1,17.9766,14.7812L15.2588,17.5H16.5A1.5,1.5,0,1,1,16.5,20.5H13.5A1.5,1.5,0,0,1,12,22,1.5,1.5,0,0,1,10.5,20.5H7.5A1.5,1.5,0,1,1,7.5,17.5H8.7412L6.0234,14.7812A1.11048,1.11048,0,1,1,7.7188,13.0859L10.5,15.8672V8.1328L7.7188,10.9141A1.11048,1.11048,0,1,1,6.0234,9.2188L8.7412,6.5H7.5A1.5,1.5,0,1,1,7.5,3.5H10.5A1.5,1.5,0,0,1,12,2Z" fill="none" stroke="currentColor" stroke-linecap="round" stroke-linejoin="round" stroke-width="2"/>
</svg>
