<svg xmlns="http://www.w3.org/2000/svg" viewBox="0 0 24 24" class="icon icon-icon-gear">
  <path d="M22.31 11.95l-1.34-0.23c-0.17-0.58-0.38-1.13-0.65-1.65l0.81-1.12c0.58-0.81 0.58-1.94 0-2.75l-2.12-2.12c-0.81-0.58-1.94-0.58-2.75 0l-1.12 0.81c-0.52-0.26-1.08-0.48-1.65-0.65l-0.23-1.34c-0.08-0.88-0.8-1.52-1.69-1.52h-2.68c-0.88 0-1.61 0.65-1.69 1.52l-0.23 1.34c-0.58 0.17-1.13 0.39-1.65 0.65l-1.12-0.81c-0.81-0.58-1.94-0.58-2.75 0l-2.12 2.12c-0.58 0.81-0.58 1.94 0 2.75l0.81 1.12c-0.27 0.52-0.48 1.07-0.65 1.65l-1.34 0.23c-0.88 0.08-1.52 0.8-1.52 1.69v2.68c0 0.88 0.65 1.61 1.52 1.69l1.34 0.23c0.17 0.58 0.38 1.13 0.65 1.65l-0.81 1.12c-0.58 0.81-0.58 1.94 0 2.75l2.12 2.12c0.81 0.58 1.94 0.58 2.75 0l1.12-0.81c0.52 0.26 1.08 0.48 1.65 0.65l0.23 1.34c0.08 0.88 0.8 1.52 1.69 1.52h2.68c0.88 0 1.61-0.65 1.69-1.52l0.23-1.34c0.58-0.17 1.13-0.39 1.65-0.65l1.12 0.81c0.81 0.58 1.94 0.58 2.75 0l2.12-2.12c0.58-0.81 0.58-1.94 0-2.75l-0.81-1.12c0.27-0.52 0.48-1.07 0.65-1.65l1.34-0.23c0.88-0.08 1.52-0.8 1.52-1.69v-2.68c0-0.88-0.65-1.61-1.52-1.69z"></path>
</svg>
