<svg xmlns="http://www.w3.org/2000/svg" viewBox="0 0 24 24" class="icon icon-radioactive">
  <path d="M0 0h24v24H0z" fill="none"/>
  <path d="M12 13V5.07a8 8 0 0 0-3.25 2.41L6.7 11h10.6l-1.94-3.36A7.963 7.963 0 0 0 12 5.07V13zm-1.06 2.02a7 7 0 0 1 2.12 0l1.49 2.6a7.967 7.967 0 0 1-2.12 2.13l-1.49-2.6zm-2.31-4.38l1.11 1.94h4.52l1.1-1.94a8.04 8.04 0 0 0-6.73 0zM4.929 7.929A9.969 9.969 0 0 1 13 4.051V2a12 12 0 0 0-8.07 2.947l1.998 1.998zM2 13h2.051a9.95 9.95 0 0 1 3.877-8.07L2.929 4.929A11.985 11.985 0 0 0 2 13zm20 0a11.985 11.985 0 0 0-2.929-8.071l-1.998 1.998A9.95 9.95 0 0 1 19.95 13H22zm-2.071 8.071L19.95 19.07A9.95 9.95 0 0 1 13 19.949V22a11.985 11.985 0 0 0 6.929-2.929zM9.17 16.96l-1.49 2.6a8 8 0 0 0 2.83 1.46l1.47-2.56-2.81-.5zm-2.83-.78L4.051 13H2a12 12 0 0 0 2.947 8.07L6.34 16.18zm15.66 2.89A12 12 0 0 0 22 13h-2.051a9.965 9.965 0 0 1-3.877 8.07l1.998-1.998z" />
</svg>