<svg xmlns="http://www.w3.org/2000/svg" viewBox="0 0 24 24" class="icon icon-enchanted-rose">
  <path d="M12 22C6.477 22 2 17.523 2 12 2 6.478 6.477 2 12 2s10 4.478 10 10-4.477 10-10 10zm0-18c-4.41 0-8 3.59-8 8s3.59 8 8 8 8-3.59 8-8-3.59-8-8-8z"/>
  <path d="M12 6c-3.314 0-6 2.686-6 6s2.686 6 6 6 6-2.686 6-6-2.686-6-6-6zm0 10c-2.209 0-4-1.791-4-4s1.791-4 4-4 4 1.791 4 4-1.791 4-4 4z"/>
  <path d="M12 8c-2.209 0-4 1.791-4 4s1.791 4 4 4 4-1.791 4-4-1.791-4-4-4zm0 6c-1.105 0-2-.895-2-2s.895-2 2-2 2 .895 2 2-.895 2-2 2z"/>
</svg>