<svg xmlns="http://www.w3.org/2000/svg" class="icon icon-cattail" viewBox="0 0 24 24">
  <path d="M12 2C6.486 2 2 6.486 2 12s4.486 10 10 10 10-4.486 10-10S17.514 2 12 2zm0 18c-4.411 0-8-3.589-8-8s3.589-8 8-8 8 3.589 8 8-3.589 8-8 8z"/>
  <path d="M12 22c-1.191 0-2.383-.288-3.447-.857l-1.34-.675 1.34-.447C9.02 19.654 10.481 20 12 20s2.981-.347 4.447-1.077l1.34.447-1.34.675C14.385 21.713 13.192 22 12 22z"/>
  <path d="M8.309 14.524l-1.33-.447C8.409 12.613 10.13 11 12 11s3.592 1.613 5.021 3.077l-1.33.447C14.202 13.96 13.151 13 12 13s-2.202.96-3.691 1.524z"/>
</svg>