<svg xmlns="http://www.w3.org/2000/svg" viewBox="0 0 24 24" class="icon icon-coral-reef">
    <path d="M4.75,5.49a1,1,0,1,0-1-1,1,1,0,0,0,1,1Zm4.5,3.5a1.92,1.92,0,0,0,1.92-1.92H6.33A1.92,
    1.92,0,0,0,9.25,8.99Zm-5.46,3.94a1,1,0,1,0-1,1,1,1,0,0,0,1-1Zm7.16-4a1,1,0,1,
    0,1,1A1,1,0,0,0,10.95,8.93Zm6.29,3.53a.59,.59,0,1,0,.59,.59A.59,.59,0,0,0,17.24,
    12.46Zm.71,3.66a.59,.59,0,1,0,.59,.59A.59,.59,0,0,0,17.95,16.12Zm1.42-2.12a.59,.59,
    0,1,0,.59,.59A.59,.59,0,0,0,19.37,14Zm5,4a.59,.59,0,1,0,.59,.59A.59,.59,0,0,0,24.37,
    18Zm-3.42-6a.59,.59,0,1,0-.59-.59A.59,.59,0,0,0,20.95,12Zm-9.16,6a1.89,1.89,0,0,0,
    1.89-1.89H9.76A1.89,1.89,0,0,0,11.79,18Zm3.42,0a2,2,0,1,0-2,2A2,2,0,0,0,15.21,18Zm-5,
    4a1,1,0,1,0-1,1A1,1,0,0,0,10.21,22Zm3.58,0a1,1,0,1,0,1,1A1,1,0,0,0,13.79,22Zm3.58-2a1,
    1,0,1,0,1,1A1,1,0,0,0,17.37,20Z" />
</svg>
