<svg version="1.1" id="icon-megaphone-08" xmlns="http://www.w3.org/2000/svg" xmlns:xlink="http://www.w3.org/1999/xlink" x="0px" y="0px" viewBox="0 0 512 512" style="enable-background:new 0 0 512 512;" xml:space="preserve" class='icon icon-megaphone-08'>
    <path d="M383.667,42.667v192c0,8.997,7.332,16.002,16.33,16.002h21.336v36.668h-6.668c-47.997,0-86.998,39.003-86.998,86.997v50.667
h-97.333H42.667v-384h341V42.667z M466.337,315.732c-12-8.398-29.34-5.599-37.736,5.399c-8.398,11.998-5.601,29.336,5.398,37.734
c50.941,40.805,58.269,113.202,17.469,166.136h27.669C518.803,434.934,512.72,368.168,466.337,315.732z M123.733,234.667H42.667v-21.335
h81.066V234.667z M123.733,170.666H42.667v-21.333h81.066V170.666z M123.733,106.666H42.667v-21.332h81.066V106.666z"/>
</svg>