<svg viewBox="0 0 24 24" class="icon icon-icon-rocket">
<path d="M12 2C6.3 2 2 6.3 2 12s4.3 10 10 10 10-4.3 10-10S17.7 2 12 2zm-2 14.5c-.8284 0-1.5-.6716-1.5-1.5s.6716-1.5 1.5-1.5 1.5.6716 1.5 1.5-.6716 1.5-1.5 1.5zm6.99-2.475l-.5116-.875H13.5c-.8284 0-1.5-.6716-1.5-1.5v-2H10v2c0 .8284-.6716 1.5-1.5 1.5H7.522l-.5127.875C6.3884 14.8619 6.6961 15.9548 7.363 16.6218l4.2427 4.2426c.6749.6747 1.7678.9743 2.7882.6063 0 0-2.1514-1.0607-2.8301-1.7394L10.5 17H9v-1.5c0-.8284-.6716-1.5-1.5-1.5H5V13h2.5c.828 0 1.5-.6716 1.5-1.5v-2H10v2c0 .8284.6716 1.5 1.5 1.5h2.5c.8284 0 1.5.6716 1.5 1.5V17h-1.378l-1.0566 1.0934c-.6788.6788-2.8302 1.7396-2.8302 1.7396 1.0204.368 2.1133.0683 2.7882-.6064l4.2426-4.2426c.6666-.6667.9743-1.7596.6063-2.78z"></path>
</svg>
