<svg xmlns="http://www.w3.org/2000/svg" viewBox="0 0 128 128" class="icon icon-nebula-cloud">
  <path d="M64 30c15.463 0 28 12.536 28 28s-12.537 28-28 28-28-12.536-28-28 12.537-28 28-28zm0 50c12.131 0 22-9.869 22-22s-9.869-22-22-22-22 9.869-22 22 9.869 22 22 22z"/>
  <path d="M84.077 47.885c10.05 0 18.192 8.142 18.192 18.192 0 10.05-8.141 18.192-18.192 18.192s-18.192-8.141-18.192-18.192c0-10.05 8.142-18.192 18.192-18.192zm0 31.385c7.261 0 13.192-5.93 13.192-13.192s-5.931-13.192-13.192-13.192-13.192 5.93-13.192 13.192 5.931 13.192 13.192 13.192z"/>
  <path d="M18.192 66.077c0-10.05 8.142-18.192 18.192-18.192s18.192 8.142 18.192 18.192-8.141 18.192-18.192 18.192S18.192 76.127 18.192 66.077zm31.385 0c0-7.261-5.93-13.192-13.192-13.192S23.192 58.815 23.192 66.077s5.93 13.192 13.192 13.192 13.192-5.93 13.192-13.192z"/>
</svg>