<svg xmlns="http://www.w3.org/2000/svg" class="icon icon-escalator-upward" viewBox="0 0 24 24">
    <path d="M0 0h24v24H0z" fill="none"/>
    <path d="M20.283 13.366l-3.316-3.316a1 1 0 0 0-1.414 0l-.93.93-3.109-3.109a1 1 0 0 0-1.414 0l-.93.93-1.515-1.515a1 1 0 0 0-1.414 0L6.8 6.8l-1.769-1.768a1 1 0 0 0-1.414 0l-.404.404a1 1 0 0 0 0 1.414l1.768 1.768.33-.33a1 1 0 0 1 1.414 0l3.118 3.118L9.7 13.7a1 1 0 0 0 0 1.414l3.118 3.118a1 1 0 0 1 0 1.414l-.922.922a1 1 0 0 0 0 1.414l.403.403a1 1 0 0 0 1.414 0l1.768-1.768-1.47-1.47a1 1 0 0 1 0-1.414l3.109-3.109.93.93a1 1 0 0 0 1.414 0l3.316-3.316a1 1 0 0 0 0-1.414l-.404-.403a1 1 0 0 0-1.414 0z"/>
</svg>