<svg xmlns="http://www.w3.org/2000/svg" viewBox="0 0 24 24" class="icon icon-cloud-synch">
    <path d="M0 0h24v24H0z" fill="none"/>
    <path d="M4.516 14.022a5.978 5.978 0 0 0 0 1.821L1.897 13l2.619-2.87a5.978 5.978 0 0 0 0 1.86 5.978 5.978 0 0 0 4.693 2.278 3.5 3.5 0 0 1 6.138 2.354l2-.15A5.5 5.5 0 0 0 9.5 10H7.959a8.001 8.001 0 0 1-.743-2.94V6a6 6 0 0 1 11.945-.165l1.7-.567A7.992 7.992 0 0 0 15 5c-3.315 0-6.144 2.014-7.26 4.904a4.978 4.978 0 0 0-1.532-.272 4.978 4.978 0 0 0-1.693.328z" />
</svg>