<svg xmlns="http://www.w3.org/2000/svg" class="icon icon-checkers" viewBox="0 0 24 24">
    <rect x="1" y="1" width="4" height="4" style="fill:none;stroke:black;stroke-width:2" />
    <rect x="5" y="1" width="4" height="4" style="fill:black;stroke:black;stroke-width:2" />
    <rect x="9" y="1" width="4" height="4" style="fill:none;stroke:black;stroke-width:2" />
    <rect x="13" y="1" width="4" height="4" style="fill:black;stroke:black;stroke-width:2" />
    <rect x="1" y="5" width="4" height="4" style="fill:black;stroke:black;stroke-width:2" />
    <rect x="5" y="5" width="4" height="4" style="fill:none;stroke:black;stroke-width:2" />
    <rect x="9" y="5" width="4" height="4" style="fill:black;stroke:black;stroke-width:2" />
    <rect x="13" y="5" width="4" height="4" style="fill:none;stroke:black;stroke-width:2" />
    <rect x="1" y="9" width="4" height="4" style="fill:none;stroke:black;stroke-width:2" />
    <rect x="5" y="9" width="4" height="4" style="fill:black;stroke:black;stroke-width:2" />
    <rect x="9" y="9" width="4" height="4" style="fill:none;stroke:black;stroke-width:2" />
    <rect x="13" y="9" width="4" height="4" style="fill:black;stroke:black;stroke-width:2" />
    <rect x="1" y="13" width="4" height="4" style="fill:black;stroke:black;stroke-width:2" />
    <rect x="5" y="13" width="4" height="4" style="fill:none;stroke:black;stroke-width:2" />
    <rect x="9" y="13" width="4" height="4" style="fill:black;stroke:black;stroke-width:2" />
    <rect x="13" y="13" width="4" height="4" style="fill:none;stroke:black;stroke-width:2" />
</svg>