<svg width="24" height="24" viewBox="0 0 24 24" fill="none" xmlns="http://www.w3.org/2000/svg" class="icon icon-hieroglyphics">
    <path d="M2 2H22V22H2V2Z" fill="#888"/>
    <path d="M4 4H20V20H4V4Z" fill="#CCC"/>
    <path d="M6 6H8V8H6V6Z" fill="#888"/>
    <path d="M10 6H12V8H10V6Z" fill="#888"/>
    <path d="M14 6H16V8H14V6Z" fill="#888"/>
    <path d="M6 10H8V12H6V10Z" fill="#888"/>
    <path d="M10 10H12V12H10V10Z" fill="#888"/>
    <path d="M14 10H16V12H14V10Z" fill="#888"/>
    <path d="M6 14H8V16H6V14Z" fill="#888"/>
    <path d="M10 14H12V16H10V14Z" fill="#888"/>
    <path d="M14 14H16V16H14V14Z" fill="#888"/>
</svg>