<svg xmlns="http://www.w3.org/2000/svg" class="icon icon-green-architecture icon-orbit">
  <path fill-rule="evenodd" d="M12 2C6.48 2 2 6.48 2 12s4.48 10 10 10 10-4.48 10-10S17.52 2 12 2zm0 18c-4.41 0-8-3.59-8-8s3.59-8 8-8 8 3.59 8 8-3.59 8-8 8zm0-14c-2.21 0-4 1.79-4 4 0 .89.29 1.71.78 2.38l5.62-5.62C13.71 6.29 12.89 6 12 6zm3.06.11L8.12 11.06l5.78 5.78c.67-.49 1.13-1.21 1.28-2.05l-2.12-2.12zm4.78 9.56l-5.68-5.68-2.1 2.1c.29 1.33 1.26 2.44 2.54 3.01v.01l5.24-5.24c-.33.95-.98 1.73-1.76 2.33l1.76 1.77 5.68-5.69c-.61-.79-1.42-1.44-2.36-1.84l-1.46 1.46zm2.13-9.18c-.1-.03-.21-.05-.32-.07l-2.17 2.17 2.1 2.1 2.51-2.51c-.46-.98-1.12-1.83-1.94-2.55l-.18-.24z"/>
</svg>