<svg xmlns="http://www.w3.org/2000/svg" class="icon icon-mechanical-gear" viewBox="0 0 24 24">
    <path d="M12 9c1.66 0 3 1.34 3 3s-1.34 3-3 3-3-1.34-3-3 1.34-3 3-3zm7.94 3c-.46-2.17-1.32-4.17-2.83-5.94l1.42-1.42c2 2.02 3.36 4.88 3.38 8.36h-2zm-13.89 0h-2c0-3.21 1.11-6.35 3.06-8.47l1.14 1.14c-2.38 2.38-2.91 5.77-1.59 8.33zm-2.05 2h2.02c1.31 2.56 3.89 4.13 7.02 4.29v2l3-3-3-3v2.01c-2.05-.13-3.77-1.03-4.81-2.44l-1.5 1.5c1.38 1.5686 3.58 2.63 6.29 2.7-1.34 1.13-3 1.83-4.74 1.92l.05-2.23c-2.76 0-5-2.24-5-5zm13.95 0c-.68 1.667-2 2.834-3.47 3.12l.02-2.18c-3.09-.14-5.55-2.76-5.55-5.94s2.46-5.8 5.56-5.94l-.03-2.13 3.01 3.01-3.01 3.01v-2c1.47.28 2.79 1.44 3.46 3.11l1.5-1.5c1.13 1.65 1.66 3.65 1.29 5.56z"/>
</svg>