<svg xmlns="http://www.w3.org/2000/svg" viewBox="0 0 24 24" class="icon icon-vegan-diet">
  <path d="M3,19H21a1,1,0,0,0,1-1V4a1,1,0,0,0-1-1H3A1,1,0,0,0,2,4V18A1,1,0,0,0,3,19ZM22,2A2,2,0,0,1,24,4V18a2,2,0,0,1-2,2H3A2,2,0,0,1,1,18V4A2,2,0,0,1,3,2Z"/>
  <path d="M12,7a1,1,0,1,0-1-1A1,1,0,0,0,12,7Z"/>
  <path d="M8,11a1,1,0,1,0-1-1A1,1,0,0,0,8,11Z"/>
  <path d="M16,11a1,1,0,1,0-1-1A1,1,0,0,0,16,11Z"/>
  <path d="M7,17a5,5,0,1,0,5-5A5,5,0,0,0,7,17Zm1-8a3,3,0,0,1,3,3A3,3,0,0,1,8,15,3,3,0,0,1,8,9Z"/>
  <path d="M17,17a5,5,0,1,0,5-5A5,5,0,0,0,17,17Zm1-8a3,3,0,0,1,3,3A3,3,0,0,1,18,15,3,3,0,0,1,18,9Z"/>
</svg>