<svg xmlns="http://www.w3.org/2000/svg" viewBox="0 0 24 24" class="icon icon-steampunk-goggles">
  <path d="M12.5,6.5c-3.31,0-6,2.69-6,6s2.69,6,6,6s6-2.69,6-6S15.81,6.5,12.5,6.5z M12.5,17.5c-2.21,0-4-1.79-4-4s1.79-4,4-4s4,1.79,4,4
    S14.71,17.5,12.5,17.5z"/>
  <path d="M6.5,12.5c0-3.31-2.69-6-6-6s-6,2.69-6,6s2.69,6,6,6S6.5,15.81,6.5,12.5z M-3.5,12.5c0-2.21,1.79-4,4-4s4,1.79,4,4
    s-1.79,4-4,4S-3.5,14.71,-3.5,12.5z"/>
  <path d="M12.5,-3.5c-3.31,0-6,2.69-6,6s2.69,6,6,6s6-2.69,6-6S15.81,-3.5,12.5,-3.5z M12.5,7.5c-2.21,0-4-1.79-4-4s1.79-4,4-4
    s4,1.79,4,4S14.71,7.5,12.5,7.5z"/>
</svg>