<svg xmlns="http://www.w3.org/2000/svg" viewBox="0 0 24 24" class="icon icon-unmanned-drone">
    <path d="M12,2C6.486,2,2,6.486,2,12s4.486,10,10,10s10-4.486,10-10S17.514,2,12,2z M16.949,7.373c1.372,1.371,1.372,3.589,0,4.96 l-1.414-1.414c0.586-0.586,0.586-1.536,0-2.121c-0.586-0.586-1.536-0.586-2.121,0l-1.414-1.414C13.361,5.999,15.58,5.999,16.949,7.373z M9.707,13.293c-0.586,0.586-0.586,1.536,0,2.121c0.586,0.586,1.536,0.586,2.121,0l1.414,1.414c-1.371,1.371-3.59,1.371-4.96,0 c-1.371-1.371-1.371-3.589,0-4.96L9.707,13.293z M7.05,6.627c-1.37,1.371-1.371,3.589,0,4.96l1.414-1.414 c-0.586-0.586-0.586-1.536,0-2.121s1.536-0.586,2.121,0l1.414-1.415C10.639,5.256,8.42,5.256,7.05,6.627z M16.949,16.627 c-1.37,1.371-3.589,1.37-4.96,0l1.414-1.414c0.586,0.586,1.536,0.586,2.121,0s0.586-1.535,0-2.121l1.415,1.414 C18.319,13.039,18.319,15.257,16.949,16.627z"/>
</svg>