<svg xmlns="http://www.w3.org/2000/svg" viewBox="0 0 24 24" class="icon icon-icon-rocket">
    <path d="M16.6 11.28l2.57-2.57c-.413-1.838-1.463-3.464-3-4.64V1.5c0-.83-.67-1.5-1.5-1.5h-4c-.83 0-1.5.67-1.5 1.5v2.66c-1.533 1.18-2.586 2.8-3 4.64l2.57 2.57c-.02.17-.07.33-.07.52s.05.35.07.52l-2.57 2.57c1.416 1.99 3.62 3.196 6 3.196s4.586-1.2 6-3.196l-2.57-2.57c-.02-.17-.07-.33-.07-.52s.05-.35.07-.52zM12 22c-1.66 0-3-.89-4-2.22.99-2.26 4-3.78 4-3.78s3.01 1.52 4 3.78c-1 .33-2.34 2.22-4 2.22zm-1.5-19h3v2h-3v-2zm1.5 3c-3.31 0-6 2.69-6 6 0 1.01.25 1.94.69 2.77.1.2.27.39.44.57l.37.37s1.6 2.03 1.7 2.1c.39.39 1.02.39 1.41 0 .1-.1.93-.994 1.4-1.5.1-.1.2-.2.2-.2l.4-.4c.17-.17.36-.34.56-.44.83-.44 1.76-.69 2.77-.69 3.31 0 6-2.69 6-6s-2.69-6-6-6z"/>
</svg>
