<svg xmlns="http://www.w3.org/2000/svg" viewBox="0 0 24 24" class="icon icon-dove-of-peace">
    <path d="M12.68 2.077a1 1 0 0 1 .632.926v.822l.905-.319a3 3 0 0 1 2.963 1.906l.824 2.467a.5.5 0 0 1-.431.692l-1.25-.3a1 1 0 0 1-.75-.666L15 7.16v3.549c1.664.164 3 1.52 3 3.24v5.012a1 1 0 1 1-2 0v-5.012a1 1 0 0 0-1-.991L10 7V6h1c1.5 0 3-1 3-2.5s-1.5-.5-3-.5H7c-4 0-5 2-5 5v.5h2V8c0-1.5 1-2.5 2.5-2.5 1 0 2 .5 2 1.5s-1 1.5-2 1.5H4v1l8.68 2.16z"/>
    <path fil-rule="evenodd" d="M16.924 9.13a1 1 0 0 1 .911.582l1.25 3a1 1 0 1 1-1.824.823L16 10.67l-.227.793a1 1 0 0 1-1.283.643l-2.264-.68a1 1 0 0 1 .57-1.912l2.265.68.836-2.508a1 1 0 0 1 .743-.655zm.655 4.508a1 1 0 0 0-.405 1.284l.6 1.8a1 1 0 0 0 1.286.6l1.8-.6a1 1 0 0 0 .6-1.286l-.6-1.8a1 1 0 0 0-1.286-.6l-1.8.6z"/>
</svg>