<svg xmlns="http://www.w3.org/2000/svg" viewBox="0 0 24 24" class="icon icon-dove">
    <path d="M0 0h24v24H0z" fill="none"/>
    <path d="M16 11V7a4 4 0 00-4-4 4 4 0 00-2 .6A4.978 4.978 0 0010 7v4c-1.5 0-3 .55-4 1.5V17a6 6 0 0012 0v-4.5c-1-.95-2.5-1.5-4-1.5z"/>
    <path d="M6 13v7a8 8 0 008-8V7c-.108-.664-.232-1.326-.36-2a5.978 5.978 0 00-.64 2v4a6 6 0 01-.12 1 19.978 19.978 0 01-.68 2 19.978 19.978 0 01-.88 2l-.1.18v.32zM16 7a5.978 5.978 0 01-.36 2 19.913 19.913 0 01-.64-2 19.913 19.913 0 01-.36-2V4a6 6 0 01.72 0v3z"/>
    <path d="M10 30h4v2h-4v-2z"/>
</svg>