<svg xmlns="http://www.w3.org/2000/svg" class="icon icon-saguaro" viewBox="0 0 32 32">
  <path d="M16 0C7.16 0 0 7.16 0 16s7.16 16 16 16 16-7.16 16-16S24.84 0 16 0zm4.48 4c3.68-.02 6.48 3.44 6.4 7.27-.11 4.89-3.23 7.18-6.8 7.17-2.33 0-4.18-1.86-4.18-4.16h-3.55c.02 2.3-1.86 4.17-4.18 4.17-3.59 0-6.71-2.29-6.81-7.18C5.01 7.45 7.81 4.02 11.49 4h9.98zm0 2.6h-9.97c-2.66.03-4.8 2.69-4.79 5.67.02 3.43 2.52 4.73 4.98 4.71 1.37 0 2.47-1.09 2.49-2.45h3.55c.02 1.36 1.11 2.45 2.48 2.45 2.48 0 4.98-1.3 5-4.73-.01-3-2.14-5.66-4.75-5.66z"/>
</svg>