<svg xmlns="http://www.w3.org/2000/svg" class="icon icon-rudder" viewBox="0 0 24 24">
  <path d="M12 2C6.48 2 2 6.48 2 12s4.48 10 10 10 10-4.48 10-10S17.52 2 12 2zm1 17h-2v-2h2v2zm2.31-2.9l-1.42-1.42L15.17 12h-2.87l-1.25 1.26L9.7 11.3 13 7.98 14.48 9.46 17.42 6.5 13.99 3.07l-1.41 1.41-1.13-1.13L2.1 4.92 3.5 6.33 6.54 9.37l1.41-1.41 1.37 1.37-4.19 4.19 1.41 1.41 2.13-2.12 2.12 2.12-1.41 1.41 2.83-2.83L13 12.17l1.31 1.31-.99.99 1.42 1.42 2.13-2.12 1.41 1.41-2.12 2.13 1.41 1.41 4.24-4.24-.85-2.03-1.2 1.19z"/>
</svg>