<svg xmlns="http://www.w3.org/2000/svg" viewBox="0 0 24 24" class="icon icon-planet-gears">
  <path d="M12,2C6.47,2,2,6.47,2,12c0,5.53,4.47,10,10,10c5.53,0,10-4.47,10-10C22,6.47,17.53,2,12,2z M10.83,15.14c1.18,0.01,2.36,0,3.54,0.01c0.89,0.58,1.87,0.98,2.92,1.21c-0.22,0.68-0.52,1.32-0.87,1.91c-0.34,0-0.68,0-1.02,0c-1.18,0-2.36,0-3.54,0c-0.22-0.68-0.39-1.37-0.52-2.07C10.84,15.8,10.84,15.47,10.83,15.14z M12,4c3.92,0,7.14,2.72,7.86,6.43C17.56,10.08,14.88,9.12,12,9.12c-2.87,0-5.54,0.97-7.57,2.57C4.85,6.72,8.08,4,12,4z"/>
  <path d="M15.04,17c-0.13,0.41-0.31,0.79-0.54,1.14C14.97,17.76,15,17.38,15.01,17L15.04,17L15.04,17z"/>
  <circle cx="9" cy="13" r="1.33"/>
  <circle cx="15" cy="9" r="1.33"/>
  <circle cx="9" cy="9" r="1.33"/>
</svg>