<svg xmlns="http://www.w3.org/2000/svg" class="icon icon-gear-06" viewBox="0 0 24 24">
  <path d="M12 14c1.105 0 2-.895 2-2s-.895-2-2-2-2 .895-2 2 .895 2 2 2zm6.963-2.671l1.482-1.349-1.5-2.598-1.342.823c-.752-.647-1.61-1.145-2.57-1.469l-.23-1.634h-3l-.23 1.634c-.96.324-1.818.822-2.57 1.469l-1.342-.823-1.5 2.598 1.482 1.349c-.011.229-.022.458-.022.696s.011.467.022.696l-1.482 1.349 1.5 2.598 1.342-.823c.752.647 1.61 1.145 2.57 1.469l.23 1.634h3l.23-1.634c.96-.324 1.818-.822 2.57-1.469l1.342.823 1.5-2.598-1.482-1.349c.011-.229.022-.458.022-.696s-.011-.467-.022-.696zm-6.963 4c-2.209 0-4-1.791-4-4s1.791-4 4-4 4 1.791 4 4-1.791 4-4 4z"/>
</svg>