<svg xmlns="http://www.w3.org/2000/svg" viewBox="0 0 24 24" class="icon icon-casserole">
  <path fill="none" d="M0 0h24v24H0z"/>
  <path d="M2.385 9.741l1.356-3.389a1 1 0 0 1 1.2-.6l8.395 2.25a5.5 5.5 0 0 1 3.064 7.45l-1.431-.477a3.5 3.5 0 0 0-2.035-4.238L3.35 9.982l-.965.758zM21.08 11.922l-2.83-.754a1 1 0 0 1-.724-.961V6a1 1 0 0 0-1-1h-5.525a1 1 0 0 1-1-1V4a1 1 0 0 1 1-1H18a2 2 0 0 1 2 2v4.168a1 1 0 0 1 .725 .962l.341 2.763a4.992 4.992 0 0 1 .014.917v.125a5.5 5.5 0 0 1-6.329 5.393L4 21h16.5a2.5 2.5 0 0 0 2.5-2.5v-2a5.989 5.989 0 0 0-.92-3.078z"/>
</svg>