<svg version="1.1" id="icon-digital-advertising" class="icon icon-digital-advertising" xmlns="http://www.w3.org/2000/svg" xmlns:xlink="http://www.w3.org/1999/xlink" x="0px" y="0px"
	 viewBox="0 0 48 48" style="enable-background:new 0 0 48 48;" xml:space="preserve">
<style type="text/css">
	.st0{fill:#333333;}
</style>
<path class="st0" d="M35,5H5C4.7,5,4.5,5.2,4.5,5.5v31c0,0.3,0.2,0.5,0.5,0.5h30c0.3,0,0.5-0.2,0.5-0.5V5.5C35.5,5.2,35.3,5,35,5L35,5z"/>
<path class="st0" d="M30.5,20h-13c-0.3,0-0.5,0.2-0.5,0.5v17c0,0.3,0.2,0.5,0.5,0.5h13c0.3,0,0.5-0.2,0.5-0.5v-17
	C31,20.2,30.8,20,30.5,20L30.5,20z"/>
<path class="st0" d="M29,24h-9c-0.3,0-0.5,0.2-0.5,0.5v7c0,0.3,0.2,0.5,0.5,0.5h9c0.3,0,0.5-0.2,0.5-0.5v-7
	C29.5,24.2,29.3,24,29,24L29,24z"/>
</svg>