<svg xmlns="http://www.w3.org/2000/svg" viewBox="0 0 24 24" class="icon icon-hyperloop">
    <path d="M2 12c0-5.524 4.476-10 10-10s10 4.476 10 10-4.476 10-10 10S2 17.524 2 12zm14.828-1H18v2h-1.172c-.445.722-1.11 1.374-1.964 1.928l.621 1.071-1.415 1.415-1.408-1.405c-.513.298-1.072.54-1.662.71V20h-2v-2.166c-.59-.17-1.15-.412-1.662-.71l-1.408 1.405-1.415-1.415.621-1.071c-.854-.554-1.519-1.206-1.964-1.928H6v-2h1.172c.445-.722 1.11-1.374 1.964-1.928L8.515 6.07l1.415-1.415 1.408 1.405c.513-.298 1.072-.54 1.662-.71V4h2v2.166c.59.17 1.15.412 1.662.71l1.408-1.405 1.415 1.415-.621 1.071c.854.554 1.519 1.206 1.964 1.928z"></path>
</svg>