<svg xmlns="http://www.w3.org/2000/svg" class="icon icon-fairy" viewBox="0 0 64 64">
<path d="M32 2C21.6706 2 14 9.67057 14 20C14 25.0714 17.0571 29.4843 22 31.3431V38L16 44L18 50L24 45L30 50V31.3431C34.9429 29.4843 38 25.0714 38 20C38 9.67057 30.3294 2 20 2Z"/>
<path d="M20 20C20 15.5817 23.5817 12 28 12C32.4183 12 36 15.5817 36 20C36 24.4183 32.4183 28 28 28C23.5817 28 20 24.4183 20 20Z"/>
<path d="M28 12C31.3137 12 34 9.31371 34 6C34 2.68629 31.3137 0 28 0C24.6863 0 22 2.68629 22 6C22 9.31371 24.6863 12 28 12Z"/>
<path d="M28 40C31.3137 40 34 37.3137 34 34C34 30.6863 31.3137 28 28 28C24.6863 28 22 30.6863 22 34C22 37.3137 24.6863 40 28 40Z"/>
<path d="M28 64C31.3137 64 34 61.3137 34 58C34 54.6863 31.3137 52 28 52C24.6863 52 22 54.6863 22 58C22 61.3137 24.6863 64 28 64Z"/>
</svg>