<svg xmlns="http://www.w3.org/2000/svg" class="icon icon-nautical-knot" viewBox="0 0 24 24">
    <path d="M12 2C6.486 2 2 6.486 2 12s4.486 10 10 10 10-4.486 10-10S17.514 2 12 2zm3 15c-1.065 0-2-.935-2-2 0-1.657 1.343-3 3-3s3 1.343 3 3-1.343 3-3 3z"></path>
    <path d="M13 12c0-1.065-.935-2-2-2s-2 .935-2 2 .935 2 2 2 2-.935 2-2z"></path>
    <path d="M9 7c1.065 0 2 .935 2 2s-.935 2-2 2-2-.935-2-2 .935-2 2-2z"></path>
    <path d="M15 7c1.065 0 2 .935 2 2s-.935 2-2 2-2-.935-2-2 .935-2 2-2z"></path>
    <path d="M7 12c0 1.065-.935 2-2 2s-2-.935-2-2 .935-2 2-2 2 .935 2 2z"></path>
</svg>