<svg xmlns="http://www.w3.org/2000/svg" viewBox="0 0 24 24" class="icon icon-aloe-vera">
  <path d="M12,2C6.48,2,2,6.48,2,12s4.48,10,10,10s10-4.48,10-10S17.52,2,12,2z M12,20c-4.41,0-8-3.59-8-8s3.59-8,8-8 s8,3.59,8,8S16.41,20,12,20z"/>
  <path d="M7.59,7.59C8.08,7.1,8.52,6.64,9,6.21C9.48,5.78,10,5.38,10.55,5L9.75,6.1C9.27,6.58,8.82,7.1,8.33,7.66 C7.85,8.23,7.33,8.85,6.79,9.5L7.59,7.59z"/>
  <path d="M12.45,5l-0.8,1.1c0.57,0.4,1.09,0.85,1.59,1.35c0.51,0.5,0.96,1.05,1.39,1.65l0.8-1.1 C13.4,6.75,12.91,6.24,12.45,5z"/>
</svg>