<svg xmlns="http://www.w3.org/2000/svg" viewBox="0 0 24 24" class="icon icon-circuit-board.svg icon-global-network">
 <path d="M0 0h24v24H0z" fill="none"/>
 <path d="M12.41 13.26l-1.66-1.66L8 15h5V9l-3.67 3.26-1.5-1.5 3.74-4.2H8V3h8v5.59l5.33 6.67L20.67 12 19 6V5h-2v1l-4.46 5.59-1.96-2.33L16 6V5h2v1l1.67 2-5.33 6.67-2.79-3.13zM2 11v2h5v2H4a2 2 0 0 0-2-2zm0-6a2 2 0 0 0 2 2h3V5H2v2zm0 12a2 2 0 0 0 2 2h3v-2H2v-2h5v-2H2v2zm16 0a2 2 0 0 0 2-2h-5v2h3zm2-6a2 2 0 0 0-2 2h5v-2h-3zm0-6a2 2 0 0 0-2 2h5V5h-3z"/>
</svg>