<svg xmlns="http://www.w3.org/2000/svg" viewBox="0 0 24 24" class="icon icon-obelisk.svg icon-rocket-launch">
    <path d="M0 0h24v24H0z" fill="none"/>
    <path d="M5 4l2.68 2.816A12.02 12.02 0 0 0 12 6a12.03 12.03 0 0 0 4.32 .816L19 4a2 2 0 0 1 2 2v14a2 2 0 0 1-2 2h-1v-2h1V8.243l-2.662 2.757a4 4 0 0 1 -1.68.553 4.02 4.02 0 0 1 -1.837-.46l-.335-.223-.31.255a4.04 4.04 0 0 1 -1.96 1.118 4.04 4.04 0 0 1 -1.96-1.118l-.31-.255-.336.224a4.02 4.02 0 0 1 -1.836.459 4 4 0 0 1 -1.68-.552L5 8.243V20h1v2H5a2 2 0 0 1 -2 -2V6a2 2 0 0 1 2 -2z" />
</svg>