<svg xmlns="http://www.w3.org/2000/svg" viewBox="0 0 24 24" class="icon icon-ship-wheel">
  <path fill="none" stroke="currentColor" stroke-linecap="round" stroke-linejoin="round" stroke-width="2" d="M12 2C6.48 2 2 6.48 2 12s4.48 10 10 10 10-4.48 10-10S17.52 2 12 2zm0 16a6 6 0 100-12a6 6 0 000 12z"></path>
  <path fill="none" stroke="currentColor" stroke-linecap="round" stroke-linejoin="round" stroke-width="2" d="M12 6v6M16.24 7.76l-4.24 4.24M7.76 7.76l4.24 4.24m.96-4.24a4.006 4.006 0 014.24-.96M7.04 11.04A3.982 3.982 0 017 8m10 2a3.982 3.982 0 01-.96 3.04"></path>
</svg>