<svg xmlns="http://www.w3.org/2000/svg" viewBox="0 0 24 24" class="icon icon-footprint">
  <path d="M12,0C5.373,0,0,5.373,0,12s5.373,12,12,12s12-5.373,12-12S18.627,0,12,0z M16.778,7.667c0.688,0.688,0.688,1.801,0,2.489  c-0.694,0.694-1.8,0.694-2.494,0c-0.692-0.688-0.692-1.805,0-2.489C14.979,6.973,16.085,6.973,16.778,7.667z M7.714,7.667  c0.694,0.688,0.694,1.801,0,2.489c-0.693,0.694-1.799,0.694-2.492,0c-0.694-0.688-0.694-1.805,0-2.489  C5.915,6.973,7.021,6.973,7.714,7.667z M14.106,17.512c-1.59,1.044-3.675,1.688-5.889,1.688c-0.105,0-0.212-0.004-0.317-0.009  c-2.212-0.146-3.964-1.013-5.175-2.056c-0.449-0.388-0.82-0.829-1.098-1.313c0.653-0.387,1.44-0.637,2.34-0.743v0.086c0,2.212,1.626,4,3.631,4  c0.835,0,1.602-0.274,2.22-0.73c0.09-0.126,0.184-0.248,0.278-0.374c0.337,0.154,0.694,0.282,1.063,0.382  c0,0,0.843,0.272,1.828,0.272c2.006,0,3.633-1.788,3.633-4H15c0.9,0.106,1.687,0.356,2.341,0.744  C14.926,16.683,14.555,17.124,14.106,17.512z"/>
</svg>