<svg xmlns="http://www.w3.org/2000/svg" class="icon icon-moon-crater" viewBox="0 0 24 24">
    <path d="m11.61 2.004c-2.137 0-4.146.829-5.657 2.34a7.975 7.975 0 0 0 -1.018 1.12 8.008 8.008 0 0 0 -1.767-.19c-4.418.29-7.92 4.07-7.92 8.574 0 4.18 3.07 7.669 7.23 8.49a7.968 7.968 0 0 0 1.48-.137 7.975 7.975 0 0 0 .97 1.028 7.975 7.975 0 0 0 6.986-2.7 7.975 7.975 0 0 0 1.3-1.96 8.037 8.037 0 0 0 2.728-.58c.62-4.35-2.5-8.18-6.67-8.485a8.027 8.027 0 0 0 -1.462-.09zm6.01 4.996c1.1 0 1.99.9 1.99 2a2 2 0 1 1 -2-2z"></path>
</svg>