<svg xmlns="http://www.w3.org/2000/svg" class="icon icon-inkwell-writing" viewBox="0 0 24 24">
  <path d="M12 2C6.48 2 2 6.48 2 12s4.48 10 10 10 10-4.48 10-10S17.52 2 12 2zM7.41 7.84c.78-.78 2.05-.78 2.83 0l.71.71.71-.71c.78-.78 2.05-.78 2.83 0 .78.78.78 2.05 0 2.83l-3.54 3.54c-.39.39-1.02.39-1.41 0L7.41 10.67c-.78-.77-.78-2.04 0-2.83zM13 12.12L14.88 10.25c.39-.39.39-1.02 0-1.41-.39-.39-1.02-.39-1.41 0L12 9.12l-1.46-1.47c-.39-.39-1.02-.39-1.41 0-.39.39-.39 1.02 0 1.41L11 12.12 7.29 15.83c-.39.39-.39 1.02 0 1.41.39.39 1.02.39 1.41 0L12 14.41l3.29 2.83c.39.39 1.02.39 1.41 0 .39-.39.39-1.02 0-1.41L13 12.12z"/>
</svg>