<svg xmlns="http://www.w3.org/2000/svg" class="icon icon-solar-flare" viewBox="0 0 24 24">
  <path d="M12 4a8 8 0 1 0 0 16 8 8 0 0 0 0-16zm0 14a6 6 0 1 1 0-12 6 6 0 0 1 0 12zm10-7h-4a4.978 4.978 0 0 1 1 3 5.978 5.978 0 0 1-1 3h4a2 2 0 0 0 2-2 2.006 2.006 0 0 0-2-2zm-2 11a2 2 0 0 0 2-2v-4a5.978 5.978 0 0 1-1 3 4.978 4.978 0 0 1-1 3zm-2-20a2 2 0 0 0-2 2v4a4.978 4.978 0 0 1 1-3 5.978 5.978 0 0 1 1-3zm-12 2a2 2 0 0 0 2-2h-4a2 2 0 0 0 2 2zm0 16a5.978 5.978 0 0 1-1-3 4.978 4.978 0 0 1 1-3v4a2 2 0 0 0 2 2zm-2-8a4.978 4.978 0 0 1 3-1 5.978 5.978 0 0 1 3 1h-6zm14 0a4.978 4.978 0 0 1 3-1 5.978 5.978 0 0 1 3 1h-6z"/>
</svg>