<svg xmlns="http://www.w3.org/2000/svg" viewBox="0 0 24 24" class="icon icon-rocket-launcher">
    <path d="M0 0h24v24H0z" fill="none"/>
    <path d="M5 4v2a1 1 0 0 0 1 1h.5v1l1.104 1.447a5.5 5.5 0 0 1 6.792 6.791L13 17.5v.5a1 1 0 0 0 1 1h2v5h2v-5a1 1 0 0 0 1-1v-.5l1.447-1.104a5.5 5.5 0 0 1 6.791-6.792L19.5 7V6.5a1 1 0 0 0 1-1V4h-2V2h-4v2h-2V2H7v2H5zm2 2h14a3 3 0 0 1 3 3 5.5 5.5 0 0 1-3.255 4.9l-1.92-1.92-.87.87 1.25 1.25a1 1 0 0 0 1.32 0l2.224-2.224a1 1 0 0 0 0-1.414l-1.414-1.414-4.95 4.95a3 3 0 0 1-1.32 .776l2.618 2.618a5.475 5.475 0 0 1-6.094.44A1 1 0 0 0 11 18s-1 .045-1 1v2H7v-2a1 1 0 0 0-1-1 5.475 5.475 0 0 1-.433-6.095L9.19 9.189c-.308-.43-.546-.9-.709-1.41a3 3 0 0 1 .926-3.134l1.2-.827-1.068-1.068-.827 1.2A3 3 0 0 1 7 6z"/>
</svg>