<svg xmlns="http://www.w3.org/2000/svg" viewBox="0 0 24 24" class="icon icon-fortune-cookie">
    <path d="M12 2C6.467 2 2 6.392 2 11.735V12c0 5.343 4.467 9.735 10 9.735 5.532 0 10-4.392 10-9.735v-.265C22 6.392 17.532 2 12 2zm4.458 14.36c.193.592.287 1.206.287 1.843 0 .675-.109 1.335-.302 1.972-.222.822-.55 1.603-.972 2.364-.412-.78-.748-1.57-.972-2.4A9.478 9.478 0 0112 18.18c-.675 0-1.33-.104-1.986-.302-.822-.223-1.6-.551-2.374-.973.762-.412 1.543-.75 2.372-.973.654-.192 1.311-.302 1.986-.302.637 0 1.251.093 1.843.287.378.207,.77,.48,1.387,.873zM12 4.687a8.332 8.332 0 014.142 1.275 8.9 8.9 0 001.37 1.928 8.405 8.405 0 00-1.372 1.926A8.343 8.343 0 0112 9.767a8.343 8.343 0 01-4.14-1.275 8.405 8.405 0 00-1.372-1.926 8.898 8.898 0 001.372-1.928A8.332 8.332 0 0112 4.687z"/>
</svg>