<svg xmlns="http://www.w3.org/2000/svg" viewBox="0 0 24 24" class="icon icon-bioluminescence">
  <path d="M12,22C6.48,22,2,17.52,2,12C2,9.24,3.5898438,6.8007813,6,5.8408203V6c0,1.1044922,0.8955078,2,2,2H7c1.1044922,0,2-0.8955078,2-2V2
	h4v4c0,1.1044922,0.8955078,2,2,2h1c1.1044922,0,2-0.8955078,2-2v0.8408203c2.4101563,0.9599609,4,3.3994141,4,5.1591797
	C22,17.52,17.52,22,12,22z"/>
  <path d="M7,12c1.1044922,0,2,0.8955078,2,2s-0.8955078,2-2,2s-2-0.8955078-2-2S5.8955078,12,7,12z"/>
  <path d="M12,12c1.1044922,0,2,0.8955078,2,2s-0.8955078,2-2,2s-2-0.8955078-2-2S10.8955078,12,12,12z"/>
  <path d="M17,12c1.1044922,0,2,0.8955078,2,2s-0.8955078,2-2,2s-2-0.8955078-2-2S15.8955078,12,17,12z"/>
</svg>