<svg xmlns="http://www.w3.org/2000/svg" class="icon icon-flaming-chalice" width="24" height="24" viewBox="0 0 24 24">
  <path d="M12 23c3.866 0 7-3.582 7-8 0-3.186-1.5-4-3-4.466V5.5a3.5 3.5 0 0 0-7 0V10.54C6.5 11.01 5 11.82 5 15c0 4.42 3.134 8 7 8z" />
  <path d="M11 10.05V12m0 0v2m0-2h2" />
  <path d="M8.022 8.233l1.273-1.273A7.025 7.025 0 0 1 12 5c.692 0 1.36.104 2 .305M16.577 9.008l-1.027 1.393A4.983 4.983 0 0 1 18 15c0 .924-.242 1.784-.665 2.536" />
  <path d="M8.022 8.233a5.978 5.978 0 0 0-.344 7.348M15.206 6.304a6 6 0 0 1 .371 7.653" />
</svg>