<svg xmlns="http://www.w3.org/2000/svg" viewBox="0 0 24 24" class="icon icon-globenetwork">
    <path d="M0 0h24v24H0z" fill="none"/>
    <path d="M22 12h-2c-0.1 2.2-0.6 4.3-1.5 6.2l1.5 0.6c1.1-2.5 1.7-5.2 1.7-8v-1h-2v1zm-20 0h2c0.1-2.2 0.6-4.3 1.5-6.2l-1.5-0.6c-1.1 2.5-1.7 5.2-1.7 8v1zm18-8l-1.5-0.6c-1.5 1.9-3.5 3.4-5.8 4.3v2c2.3 0.9 4.3 2.4 5.8 4.3l1.5-0.6c-1-1.8-1.5-3.9-1.6-6h2c0 2.1 0.6 4 1.5 5.8l-1.4 0.6c-1.5-1.9-3.5-3.3-5.8-4.2v-2.3c2.3-0.9 4.3-2.3 5.8-4.2l1.4 0.6c-0.9 1.7-1.5 3.7-1.5 5.8h-2c0.1-2.1 0.6-4 1.6-5.8zm-14 0l1.5-0.6c1.5 1.9 3.4 3.4 5.8 4.3v2c-2.3 0.9-4.3 2.4-5.8 4.3l-1.5-0.6c1-1.8 1.5-3.9 1.6-6h-2c0 2.1-0.6 4-1.5 5.8l1.4 0.6c1.5-1.9 3.5-3.3 5.8-4.2v-2.3c-2.3-0.9-4.3-2.3-5.8-4.2l-1.4 0.6c0.9 1.7 1.5 3.7 1.5 5.8h2c-0.1-2.1-0.6-4-1.6-5.8zm10 10c1.3-1 2.3-2.3 2.8-3.8l-1.4-0.6c-0.3 1-0.8 1.9-1.4 2.6v2m-4-2v-2c0.6-0.7 1.1-1.6 1.4-2.6l1.4 0.6c-0.5 1.5-1.5 2.8-2.8 3.8v1m-4-1c-1.3-1-2.3-2.3-2.8-3.8l1.4-0.6c0.3 1 0.8 1.9 1.4 2.6v2m4-2v-2c-0.6-0.7-1.1-1.6-1.4-2.6l-1.4 0.6c0.5 1.5 1.5 2.8 2.8 3.8v1z"/>
</svg>