<svg xmlns="http://www.w3.org/2000/svg" class="icon icon-fish-chips" viewBox="0 0 24 24">
  <path d="M8.003 5.86c-0.14 0.021-0.267 0.106-0.343 0.22-1.023 1.497-4.509 2.521-6.662 1.944-0.064 0.356-0.108 0.717-0.118 1.084 2.395-0.744 5.775 0.413 6.892 1.804 0.265-0.031 0.543-0.018 0.831 0.044-1.294 1.100-4.792 1.93-6.914 1.57-0.014 0.364 0.037 0.726 0.139 1.077 2.213 0.531 5.847-0.615 7.079-1.771 0.47 0.023 0.929 0.144 1.358 0.348-0.731 1.144-3.483 2.028-5.665 1.656-0.185 0.339-0.334 0.687-0.447 1.045 2.273 0.352 5.238-0.84 6.015-1.986 0.625 0.077 1.256 0.14 1.872 0.158-0.5 0.985-2.604 1.79-4.736 1.531 0.034 0.359 0.128 0.711 0.261 1.047 2.128-0.231 4.226-1.417 4.84-2.577 0.933 0.031 1.873-0.046 2.813-0.235 0.62 0.84 1.677 1.656 2.939 2.187-0.401 0.316-0.867 0.581-1.383 0.79 1.605 0.397 3.277-0.195 4.423-1.615-0.401-0.316-0.871-0.561-1.372-0.741 1.506-0.437 2.569-1.533 3.004-2.812-0.405-0.317-0.868-0.566-1.368-0.744 1.402-0.524 2.335-1.631 2.728-3.055-0.404-0.316-0.873-0.567-1.375-0.739 1.253-0.634 2.036-1.739 2.335-3.138-0.405-0.316-0.875-0.567-1.38-0.739 1.064-0.776 1.686-1.861 1.899-3.198-0.41-0.316-0.891-0.559-1.408-0.722 0.811-0.95 1.219-2.068 1.216-3.279z"/>
</svg>