<svg class="icon icon-humanoid-robot-svg icon-flamingo" xmlns="http://www.w3.org/2000/svg" viewBox="0 0 24 24">
  <path d="M0 0h24v24H0z" fill="none"/>
  <path d="M12 22c.622 0 1 .446 1 1 0 .554-.446 1-.998 1H11c-.554 0-.998-.446-.998-1 0-.554.446-1 1-1zm-2.433-1.187L18 17V4a2 2 0 0 0-2-2H5a2 2 0 0 0-2 2v13l8.433 3.313a4.962 4.962 0 0 1 1.134-.733L4 16.333V4h15v12.5l-7.117 2.82a4.962 4.962 0 0 1-.316-.507zm.69-2.26l-.25-.034a2.998 2.998 0 0 0-.69-.15 2.998 2.998 0 0 0-.69.15l-.25.034L3 15.737V14a1 1 0 0 1 1-1h15a1 1 0 0 1 1 1v1.737l-6.057-2.184zM12 10a2 2 0 1 1 0-4 2 2 0 0 1 0 4zm0 2a4 4 0 1 0 0-8 4 4 0 0 0 0 8zm0-10a8 8 0 1 1 0 16 8 8 0 0 1 0-16z"/>
</svg>