<svg xmlns="http://www.w3.org/2000/svg" class="icon icon-hive" viewBox="0 0 24 24">
  <poligon points="2,2 6,2 8,6 6,10 2,10" fill="none" stroke="black"/>
  <poligon points="6,2 10,2 12,6 10,10 6,10" fill="none" stroke="black"/>
  <poligon points="10,2 14,2 16,6 14,10 10,10" fill="none" stroke="black"/>
  <poligon points="14,2 18,2 20,6 18,10 14,10" fill="none" stroke="black"/>
  <poligon points="18,2 22,2 24,6 22,10 18,10" fill="none" stroke="black"/>
  <poligon points="2,10 6,10 8,14 6,18 2,18" fill="none" stroke="black"/>
  <poligon points="6,10 10,10 12,14 10,18 6,18" fill="none" stroke="black"/>
  <poligon points="10,10 14,10 16,14 14,18 10,18" fill="none" stroke="black"/>
  <poligon points="14,10 18,10 20,14 18,18 14,18" fill="none" stroke="black"/>
  <poligon points="18,10 22,10 24,14 22,18 18,18" fill="none" stroke="black"/>
</svg>