<svg xmlns="http://www.w3.org/2000/svg" class="icon icon-bonsai-tree" viewBox="0 0 24 24">
    <path d="M12,2C8.13,2,5,5.13,5,9c0,2.38,1.19,4.47,3,5.74V18H7v2h4v-2h2v2h4v-2h-1V14.74c1.81-1.27,3-3.36,3-5.74
    C19,5.13,15.87,2,12,2z" fill="none" stroke="currentColor" stroke-linecap="round" stroke-linejoin="round" stroke-width="2"/>
    <line x1="12" y1="9" x2="12" y2="9" fill="none" stroke="currentColor" stroke-linecap="round" stroke-linejoin="round" stroke-width="2"/>
    <path d="M8.53,13.53C9.31,12.61,10.58,12,12,12c1.42,0,2.69,0.61,3.47,1.53l1.77-1.77L18,12l3,3l-3,3
    l-1.76-1.77l-1.77,1.77C14.69,16.39,13.42,17,12,17c-1.42,0-2.69-0.61-3.47-1.53l-1.77,1.77L6,18l-3-3l3-3l1.76,1.77L8.53,13.53z"
    fill="none" stroke="currentColor" stroke-linecap="round" stroke-linejoin="round" stroke-width="2"/>
</svg>