<svg xmlns="http://www.w3.org/2000/svg" viewBox="0 0 24 24" class="icon icon-cosmos">
  <path d="M12 2C6.48 2 2 6.48 2 12s4.48 10 10 10 10-4.48 10-10S17.52 2 12 2zm.76 18.64c-1.66-.02-3.22-.54-4.56-1.44.96-1.36 2.56-2.24 4.36-2.24 1.81 0 3.4.89 4.36 2.24a7.967 7.967 0 01-4.16 1.44zm5.99-4.21C18.57 16.06 17.18 16.96 16 18V10c1-1 2-2 4-2v-2c-3 0-5 2-6 4-1-2-3-4-6-4v2c2 0 3 1 4 2v8c-1.18-1.04-2.57-1.94-4.15-2.66A8.013 8.013 0 014 12c0-1.33.26-2.61.74-3.77.1-.24.26-.45.45-.65.1-.09.2-.19.32-.27a7.982 7.982 0 0110.98 0c.11.08.21.18.32.27.18.2.35.41.45.65.48 1.16.74 2.44.74 3.77 0 1.33-.26 2.61-.74 3.77z"/>
</svg>