<svg xmlns="http://www.w3.org/2000/svg" class="icon icon-anti-aging" viewBox="0 0 24 24">
    <path d="M12 1C5.92487 1 1 5.92487 1 12C1 18.0751 5.92487 23 12 23C18.0751 23 23 18.0751 23 12C23 5.92487 18.0751 1 12 1ZM12 3C17.5228 3 22 7.47715 22 13C22 18.5228 17.5228 23 12 23C6.47715 23 2 18.5228 2 13C2 7.47715 6.47715 3 12 3Z"/>
    <path d="M17.6569 6.34315C16.4614 5.14767 14.7694 4.51472 13 4.51472V2.51472C15.6131 2.51472 18.0742 3.87369 19.6569 5.65685C21.2396 7.44002 21.9904 9.94668 21.9003 12.5147H19.9003C19.9401 10.6569 19.201 8.83858 17.6569 6.34315Z"/>
    <path d="M13 7.51472V9.51472H15V11.5147H13V13.5147H11V11.5147H9V9.51472H11V7.51472H13Z"/>
</svg>