<svg xmlns="http://www.w3.org/2000/svg" viewBox="0 0 24 24" class="icon icon-moai-statue"> 
  <path d="M12 2C6.48 2 2 6.48 2 12s4.48 10 10 10 10-4.48 10-10S17.52 2 12 2zm0 18c-4.41 0-8-3.59-8-8s3.59-8 8-8 8 3.59 8 8-3.59 8-8 8zm-3.5-13C7.67 7 7 7.67 7 8.5S7.67 10 8.5 10 10 9.33 10 8.5 9.33 7 8.5 7zm6 0c-.83 0-1.5 .67-1.5 1.5s.67 1.5 1.5 1.5 1.5-.67 1.5-1.5-.67-1.5-1.5-1.5zm-6 6C7.67 13 7 13.67 7 14.5S7.67 16 8.5 16 10 15.33 10 14.5 9.33 13 8.5 13zm6 0c-.83 0-1.5 .67-1.5 1.5s.67 1.5 1.5 1.5 1.5-.67 1.5-1.5-.67-1.5-1.5-1.5z"/>
</svg>
