<svg xmlns="http://www.w3.org/2000/svg" viewBox="0 0 24 24" class="icon icon-polar-bear">
  <path d="M12 2C6.48 2 2 6.48 2 12s4.48 10 10 10 10-4.48 10-10S17.52 2 12 2zm0 18c-1.7 0-3.28-.56-4.58-1.54l1.07-1.79c.42.27.87.5 1.37.67L12 17l2.14-1.66c.5-.17.95-.4 1.37-.67l1.07 1.79c-1.3.98-2.88 1.54-4.58 1.54zm-6-14c.76 1.94 2.84 3.21 5 3.14v2.23L8.82 9.8c-.4-.26-.92-.1-1.17.3l-.75 1.3 3.3.71L12 14l1.8-1.8 3.3-.71-.75-1.3c-.26-.4-.77-.56-1.17-.3L12 7.37V5.14c2.16.07 4.24-1.19 5-3.14-2.36.43-4.93-.17-6.7-1.67-1.77 1.5-4.34 2.1-6.7 1.67z"/>
</svg>