<svg xmlns="http://www.w3.org/2000/svg" class="icon icon-pet-dinosaur" viewBox="0 0 24 24">
  <path d="M 12 0 C 5.372 0 0 5.372 0 12 C 0 18.628 5.372 24 12 24 C 18.628 24 24 18.628 24 12 C 24 5.372 18.628 0 12 0 z M 12 2 C 17.532 2 22 6.468 22 12 C 22 17.532 17.532 22 12 22 C 6.468 22 2 17.532 2 12 C 2 6.468 6.468 2 12 2 Z M 9 7 C 8.448 7 8 7.448 8 8 C 8 8.552 8.448 9 9 9 C 9.552 9 10 8.552 10 8 C 10 7.448 9.552 7 9 7 Z M 15 7 C 14.448 7 14 7.448 14 8 C 14 8.552 14.448 9 15 9 C 15.552 9 16 8.552 16 8 C 16 7.448 15.552 7 15 7 Z M 12 10 C 11.448 10 11 10.448 11 11 C 11 11.552 11.448 12 12 12 C 12.552 12 13 11.552 13 11 C 13 10.448 12.552 10 12 10 Z M 13 14 L 11 14 L 11 16 L 13 16 L 13 14 Z" />
</svg>