<svg xmlns="http://www.w3.org/2000/svg" viewBox="0 0 24 24" class="icon icon-photonics">
  <path d="M17.5,13.5h-2a.5.5,0,0,1,0-1h2a.5.5,0,0,1,0,1Z"></path>
  <path d="M15.5,13.5h-2a.5.5,0,0,1,0-1h2a.5.5,0,0,1,0,1Z"></path>
  <path d="M13.5,13.5h-2a.5.5,0,0,1,0-1h2a.5.5,0,0,1,0,1Z"></path>
  <path d="M11.5,13.5h-2a.5.5,0,0,1,0-1h2a.5.5,0,0,1,0,1Z"></path>
  <path d="M9.5,13.5h-2a.5.5,0,0,1,0-1h2a.5.5,0,0,1,0,1Z"></path>
  <path d="M7.5,13.5h-2a.5.5,0,0,1,0-1h2a.5.5,0,0,1,0,1Z"></path>
  <path d="M5.5,13.5h-2A.5.5,0,0,1,3,13V12a.5.5,0,0,1,.5-.5h2a.5.5,0,0,1,0,1h-2"></path>
  <path d="M3.5,11.5h2a.5.5,0,0,1,0,1h-2a.5.5,0,0,1,0-1Z"></path>
  <path d="M5.5,11.5h2a.5.5,0,0,1,0,1h-2a.5.5,0,0,1,0-1Z"></path>
  <path d="M7.5,11.5h2a.5.5,0,0,1,0,1h-2a.5.5,0,0,1,0-1Z"></path>
  <path d="M9.5,11.5h2a.5.5,0,0,1,0,1h-2a.5.5,0,0,1,0-1Z"></path>
  <path d="M11.5,11.5h2a.5.5,0,0,1,0,1h-2a.5.5,0,0,1,0-1Z"></path>
  <path d="M13.5,11.5h2a.5.5,0,0,1,0,1h-2a.5.5,0,0,1,0-1Z"></path>
  <path d="M15.5,11.5h2a.5.5,0,0,1,0,1h-2a.5.5,0,0,1,0-1Z"></path>
  <path d="M17.5,11.5h2a.5.5,0,0,1,0,1h-2a.5.5,0,0,1,0-1Z"></path>
</svg>
