<svg xmlns="http://www.w3.org/2000/svg" class="icon icon-cherry-blossom" viewBox="0 0 24 24">
  <path fill="none" d="M0 0h24v24H0z"/>
  <path d="M2.4 14c0 4.418 3.582 8 8 8s8-3.582 8-8c0-2.746-1.39-5.162-3.528-6.5A9.956 9.956 0 0 0 22 2.5V2a10 10 0 1 0-11.577 9.408A7.975 7.975 0 0 0 2.4 14z"/>
  <path d="M11.816 10.057a3 3 0 1 0 4.368 4.368L16 17.656l1.284-1.285a3 3 0 1 0 4.368 4.368L22.656 22l1.285-1.284a3 3 0 1 0-4.368-4.368L18 16.343l-1.284 1.285a3 3 0 1 0-4.368-4.368L10 14.343l-1.286 1.286a3 3 0 1 0-4.367-4.369l1.286-1.284-1.286-1.285a3 3 0 1 0 4.368 4.368L8.686 12 7.4 10.714a3 3 0 1 0 4.368 4.368L12 11.686l1.816 1.816z"/>
</svg>