<svg xmlns="http://www.w3.org/2000/svg" class="icon icon-rainbow" viewBox="0 0 24 24">
    <path d="M117.4,14.1c-0.5,0.4-1.1,0.6-1.8,0.6h0 c-0.7,0-1.3-0.2-1.8-0.6c-1-0.8-1.6-2-1.6-3.3s0.6-2.5,1.6-3.3c0.5-0.4,1.1-0.6,1.8-0.6l0-6c-2.1,0-4.1,0.8-5.6,2.2 C107.5,5,106,7.4,106,10.2s1.5,5.1,3.4,6.9c1.5,1.4,3.4,2.2,5.6,2.2c1.1,0,2.1-0.2,3.1-0.6V14.1z"/>
    <path d="M128.6,14.1h0c-0.7,0-1.3-0.2-1.8-0.6c-1-0.8-1.6-2-1.6-3.3 s0.6-2.5,1.6-3.3c0.5-0.4,1.1-0.6,1.8-0.6h0V0c-2.1,0-4.1,0.8-5.6,2.2c-1.9,1.8-3.4,4.2-3.4,6.9s1.5,5.1,3.4,6.9c1.5,1.4,3.5,2.2,5.6,2.2 c1.1,0,2.1-0.2,3.1-0.6V14.1z"/>
    <path d="M140.2,14.1h0c-0.7,0-1.3-0.2-1.8-0.6c-1-0.8-1.6-2-1.6-3.3c0-1.3,0.6-2.5,1.6-3.3 c0.5-0.4,1.1-0.6,1.8-0.6h0V0c-2.1,0-4.1,0.8-5.6,2.2c-1.9,1.8-3.4,4.2-3.4,6.9s1.5,5.1,3.4,6.9c1.5,1.4,3.5,2.2,5.6,2.2c1,-0.2,2-0.6,3-1 V14.1z"/>
</svg>