<svg xmlns="http://www.w3.org/2000/svg" viewBox="0 0 24 24" class="icon icon-pizza-slice">
  <path d="M22.21 3.34A16.004 16.004 0 0 0 12 2a15.89 15.89 0 0 0-4 .57 1 1 0 0 0-.64 1.24 1 1 0 0 0 .95.68 13.97 13.97 0 0 1 7.41-3 13.92 13.92 0 0 1 6.31 3.76z"/>
  <path d="M12 2a15.43 15.43 0 0 0-4.21.57 4.12 4.12 0 0 1 3.41 3.1A2 2 0 0 0 14 8h7.76A15.06 15.06 0 0 0 12 2z"/>
  <circle cx="8" cy="9" r="1"/>
  <circle cx="12" cy="14" r="1"/>
  <circle cx="15" cy="10" r="1"/>
  <circle cx="10" cy="10" r="1"/>
  <path d="M13.66 22h.07a1 1 0 0 0 .92-.8 14.15 14.15 0 0 0 .58-5.56 1 1 0 0 0-2 0A12.27 12.27 0 0 1 12.27 21a1 1 0 0 0 .06 2z"/>
</svg>