<svg viewBox="0 0 24 24" class="icon icon-dove-peace">
    <path d="M12.068,2.154c-1.755,0.455-3.238,1.887-3.959,3.79C5.279,7.305,3,10.696,3,14.5C3,19.299,6.701,24,12,24s9-4.701,9-9.5 c0-2.263-0.68-4.355-1.826-6.056c-1.625,0.428-3.287,0.683-5.06,0.758C13.419,3.646,12.758,2.77,12.068,2.154z M14.38,7.863 c1.993,0.146,3.826,0.594,5.444,1.32C14.813,8.906,14.667,9,14.5,9l0,0L14.38,7.863z M12,4.202c1.438,0.956,2.67,2.279,3.57,3.874 C13.188,7.676,12.61,7,12,7S10.813,7.676,8.43,8.077C9.33,6.481,10.562,5.158,12,4.202z M12,14c-1.657,0-3-1.343-3-3s1.343-3,3-3 s3,1.343,3,3S13.657,14,12,14z"/>
</svg>