<svg xmlns="http://www.w3.org/2000/svg" class="icon icon-carnival-mask.svg icon-satellite" viewBox="0 0 24 24">
  <g>
    <path d="M3.8,9.5c-1.3,0-2.3-1.7-2.3-3.8s1-3.8,2.3-3.8s2.3,1.7,2.3,3.8S5.1,9.5,3.8,9.5z"/>
    <path d="M8.5,9.5c-1.3,0-2.3-1.7-2.3-3.8s1-3.8,2.3-3.8s2.3,1.7,2.3,3.8S9.8,9.5,8.5,9.5z"/>
    <path d="M20.5,9.5c-1.3,0-2.3-1.7-2.3-3.8s1-3.8,2.3-3.8s2.3,1.7,2.3,3.8S21.8,9.5,20.5,9.5z"/>
  </g>
  <g>
    <path d="M12,2C6.5,2,2,6.5,2,12s4.5,10,10,10s10-4.5,10-10S17.5,2,12,2z M12,20c-4.4,0-8-3.6-8-8s3.6-8,8-8s8,3.6,8,8  S16.4,20,12,20z"/>
  </g>
  <g>
    <path d="M16,8.5c0,2.2-1.8,4-4,4s-4-1.8-4-4s1.8-4,4-4S16,6.3,16,8.5z"/>
  </g>
</svg>