<svg xmlns="http://www.w3.org/2000/svg" viewBox="0 0 24 24" class="icon icon-dandelion-wind">
  <path d="M6 22a6 6 0 016-6 5.978 5.978 0 016.832 3H22v2h-3.168A5.978 5.978 0 0112 22a6 6 0 01-6-6h2a4 4 0 004 4 3.978 3.978 0 003.598-2.509l.536-.636-.786-.928A3.978 3.978 0 0010 14a4 4 0 00-4 4H2a6 6 0 014-5.657V4a2 2 0 1 1 4 0v7.342A5.982 5.982 0 0112 11a5.982 5.982 0 012 10.342V4a2 2 0 1 1 4 0v12.657A5.978 5.978 0 0122 16h2a7.942 7.942 0 00-2-5.657V2a2 2 0 1 0-4 0v2.342a7.942 7.942 0 00-2-2.342V2a2 2 0 1 0-4 0v14.343A7.962 7.962 0 006 16h2a5.982 5.982 0 014-1.658V2a2 2 0 1 0-4 0v14.343A7.962 7.962 0 002 16h2a6 6 0 016-6 5.978 5.978 0 014 1.658V2a2 2 0 1 1 4 0v3.343A7.962 7.962 0 0016 2a7.962 7.962 0 00-2-2V2a2 2 0 1 1 4 0v10.343z"></path>
</svg>