<svg xmlns="http://www.w3.org/2000/svg" class="icon icon-phoenix-rebirth" viewBox="0 0 24 24">
    <path fill="none" d="M0 0h24v24H0z"/>
    <path d="M16.625 3a9.5 9.5 0 0 0-8.5 7A4.499 4.499 0 0 0 1 13.5a4.5 4.5 0 0 0 6.059 4.05A9.5 9.5 0 1 0 16.5
             2.5v.125zM2 13.5a2.5 2.5 0 0 1 4.33-1.914A7.499 7.499 0 0 1 12 22l.09-.001a7.65 7.65 0 0 1-1.878-.272 3 3 0 0 1 
             -1.406-.536 2.502 2.502 0 0 1-1.156-1.316 2.51 2.51 0 0 1-.28-1.259L7 18l-5 .002a2.5 2.5 0 0 1 0-5.001z"/>
</svg>