<svg xmlns="http://www.w3.org/2000/svg" class="icon icon-cipher.svg icon-radar" viewBox="0 0 24 24">
    <path d="M0 0h24v24H0z" fill="none"/>
    <circle cx="12" cy="12" r="2" fill="currentColor"/>
    <path d="M2 12h2a10 10 0 0120 0h2a12 12 0 00-24 0z" fill="currentColor"/>
    <path d="M4 12h2a8 8 0 0116 0h2a10 10 0 00-20 0z" fill="currentColor"/>
    <path d="M6 12h2a6 6 0 0112 0h2a8 8 0 00-16 0z" fill="currentColor"/>
    <path d="M8 12h2a4 4 0 018 0h2a6 6 0 00-12 0z" fill="currentColor"/>
    <circle cx="12" cy="12" r="1" fill="currentColor"/>
</svg>