<svg xmlns="http://www.w3.org/2000/svg" class="icon icon-alien" viewBox="0 0 24 24">
  <path d="M12 2C6.48 2 2 6.48 2 12s4.48 10 10 10 10-4.48 10-10S17.52 2 12 2zm0 18c-4.41 0-8-3.59-8-8 0-1.85.63-3.55 1.69-4.9.2-.25.51-.4.86-.4.7 0 1.34.45 1.91 1.17.24.31.61.48 1 .48s.76-.17 1-.48c.57-.72 1.21-1.17 1.91-1.17s1.34.45 1.91 1.17c.24.31.61.48 1 .48s.76-.17 1-.48c.57-.72 1.21-1.17 1.91-1.17.35 0 .65.15.86.4 1.06 1.36 1.69 3.05 1.69 4.9 0 4.41-3.59 8-8 8zm-4-5h8c0 2.21-1.79 4-4 4s-4-1.79-4-4z"/>
</svg>