<svg xmlns="http://www.w3.org/2000/svg" viewBox="0 0 24 24" class="icon icon-giant-squid">
  <path d="M12 2C6.48 2 2 6.48 2 12s4.48 10 10 10 10-4.48 10-10S17.52 2 12 2zm0 18c-4.41 0-8-3.59-8-8s3.59-8 8-8 8 3.59 8 8-3.59 8-8 8z"/>
  <path d="M15.5 12c0 .28-.22.5-.5.5h-5c-.28 0-.5-.22-.5-.5s.22-.5.5-.5h5c.28 0 .5.22.5.5zm-1-2c.83 0 1.5-.67 1.5-1.5S15.33 7 14.5 7s-1.5.67-1.5 1.5S13.67 10 14.5 10zm-5 0c.83 0 1.5-.67 1.5-1.5S10.33 7 9.5 7 8 7.67 8 8.5 8.67 10 9.5 10zm0 1c-1.11 0-2 .89-2 2s.89 2 2 2 2-.89 2-2-.89-2-2-2zm5 0c-1.11 0-2 .89-2 2s.89 2 2 2 2-.89 2-2-.89-2-2-2z"/>
</svg>