<svg xmlns="http://www.w3.org/2000/svg" class="icon icon-multi-language" viewBox="0 0 50 50"> 
  <path d="M25,1A24,24,0,1,0,49,25,24,24,0,0,0,25,1Zm0,45.48A21.48,21.48,0,1,1,46.48,25,21.5,21.5,0,0,1,25,46.48Z"/> 
  <path d="M33.59,16h-6.92l-1.69-4.84A1,1,0,0,0,24.12,10h-0.24a1,1,0,0,0-.96,1.16l.04,0.24L26.07,16h-7.44l-1.74-4.84A1,1,0,0,0,15.12,10h-0.24a1,1,0,0,0-.96,1.16l.03,0.24L16.33,16h-6.92a1,1,0,0,0-.95,1.22l0.05,0.24,6.92,20A1,1,0,0,0,16.91,38h0.24a1,1,0,0,0,.96-1.16l-.05-0.24L14.93,32h10.34l-1.72,4.84A1,1,0,0,0,24.85,38h0.3a1,1,0,0,0,.96-1.16l-.06-0.24-1.72-4.84h10.34l-1.71,4.84a1,1,0,0,0,.92,1.4h0.3a1,1,0,0,0,.96-1.16l-.06-0.24-1.71-4.84,6.92-20a1,1,0,0,0-.95-1.22ZM25,26.4,22.62,34h4.76Z"/> 
</svg>