<svg xmlns="http://www.w3.org/2000/svg" class="icon icon-droneDelivery" viewBox="0 0 24 24">
    <path d="M0 0h24v24H0z" fill="none"/>
    <path d="M4 10a1 1 0 0 0 0 2h2.5l-1.547 7.624a4 4 0 1 0 1.994.652L9.5 12H15l2.047 7.276a4 4 0 1 0 1.994-.652L16.5 12H19a1 1 0 1 0 0-2h-1.846a2 2 0 0 0-1.788-1.106L14 6a2 2 0 0 0-1.106-.39L10.638 7.5L9.056 6.702a2 2 0 0 0-1.106.39L6.634 9A2 2 0 0 0 4.846 10H4zm-1 9a2 2 0 1 0 0 4 2 2 0 0 0 0-4zm14 0a2 2 0 1 0 0 4 2 2 0 0 0 0-4zM6 5a1 1 0 0 1 1-1h1.846a2 2 0 0 1 1.785 1.106l1.823 1.823L11.695 8H12.3l-.76-1.071L13.15 5A2 2 0 0 1 14.154 4H16a1 1 0 0 1 1 1 1 1 0 0 1-1 1h-1.846a2 2 0 0 1-1.785-1.106L10.3 2.681 9.684 4.3 8.846 5H7a1 1 0 0 1-1-1z"/>
</svg>