<svg xmlns="http://www.w3.org/2000/svg" viewBox="0 0 24 24" class="icon icon-alien-spaceship">
  <path d="M12 2C6.486 2 2 6.486 2 12c0 3.185 1.57 6.097 4.051 7.931-0.021-.064-0.051-0.129-0.051-0.2 0-1.103 0.897-2 2-2h1c1.103 0 2 0.897 2 2v1.931C8.07 20.484 9.907 22 12 22s3.93-1.516 4.949-4.069V16c0-1.103 0.897-2 2-2h1c1.103 0 2 0.897 2 2 0 0.071-0.03 0.136-0.051 0.2C20.429 18.097 22 15.185 22 12c0-5.514-4.486-10-10-10zm0 14c-1.103 0-2-0.897-2-2s0.897-2 2-2 2 0.897 2 2-0.897 2-2 2zm0-8c-1.103 0-2-0.897-2-2s0.897-2 2-2 2 0.897 2 2-0.897 2-2 2zm0-4C9.794 4 8 5.794 8 8s1.794 4 4 4 4-1.794 4-4-1.794-4-4-4z"/>
</svg>
