<svg xmlns="http://www.w3.org/2000/svg" viewBox="0 0 24 24" class="icon icon-key-code">
    <path d="M14.5 10.5c-0.422 0-0.769-0.174-1.027-0.438l-7.066 4.07c0.064 0.137 0.106 0.285 0.106 0.445 0 0.828-0.673 1.5-1.5 1.5s-1.5-0.672-1.5-1.5 0.673-1.5 1.5-1.5c0.173 0 0.334 0.038 0.483 0.092l7.066-4.071c-0.058-0.138-0.092-0.286-0.092-0.446 0-0.828 0.673-1.5 1.5-1.5s1.5 0.672 1.5 1.5-0.673 1.5-1.5 1.5z"></path>
     <path d="M13 15.074l-1.398-1.398-1.105 1.072 2.207 2.207 4.699-4.699-1.106-1.072-3.297 3.296z"></path>
    <path d="M3 21h18v-2h-18v2z"></path>
</svg>