<svg xmlns="http://www.w3.org/2000/svg" class="icon icon-nanoBot" viewBox="0 0 24 24">
    <path d="M12,0C5.4,0,0,5.4,0,12s5.4,12,12,12s12-5.4,12-12S18.6,0,12,0z M12,22C6.5,22,2,17.5,2,12S6.5,2,12,2s10,4.5,10,10
              S17.5,22,12,22z"/>
    <path d="M15,9c-0.6,0-1,0.4-1,1v4c0,0.6,0.4,1,1,1s1-0.4,1-1v-4C16,9.4,15.6,9,15,9z"/>
    <path d="M9,9c-0.6,0-1,0.4-1,1v4c0,0.6,0.4,1,1,1s1-0.4,1-1v-4C10,9.4,9.6,9,9,9z"/>
    <path d="M12,14c-0.6,0-1,0.4-1,1v1c0,0.6,0.4,1,1,1s1-0.4,1-1v-1C13,14.4,12.6,14,12,14z"/>
</svg>