<svg xmlns="http://www.w3.org/2000/svg" class="icon icon-icon-umbrella" viewBox="0 0 24 24">
    <path d="M12,2C6.5,2,2,6.5,2,12c0,1.33,0.26,2.61,0.74,3.77C2.1,16.37,2,17,2,17.5C2,18.88,3.12,20,4.5,20h15
    c1.38,0,2.5-1.12,2.5-2.5c0-0.5-0.1-1.13-0.74-1.73C21.74,14.61,22,13.33,22,12C22,6.5,17.5,2,12,2z M4.5,18
    c-0.83,0-1.5-0.67-1.5-1.5c0-0.17,0.02-0.34,0.07-0.5h3.43H17h3.43c0.04,0.16,0.07,0.33,0.07,0.5c0,0.83-0.67,1.5-1.5,1.5H4.5z
     M16.5,12c0-0.83-0.67-1.5-1.5-1.5h-2V3.5h-2V10h-2c-0.83,0-1.5,0.67-1.5,1.5H16.5z"/>
</svg>
