<svg xmlns="http://www.w3.org/2000/svg" class="icon icon-scroll icon-data-cloud">
  <title>icon-scroll icon-data-cloud</title>
  <g>
    <path d="M2,3.5C2.8,3.5,3.5,2.8,3.5,2S2.8,0.5,2,0.5S0.5,1.2,0.5,2S1.2,3.5,2,3.5z"/>
    <path d="M10,15.5V14c-0.6,0-1-0.4-1-1s0.4-1,1-1h1.5v-2H10c-0.6,0-1-0.4-1-1s0.4-1,1-1h2.5c0.3,0,0.5-0.2,0.5-0.5V7.5H10c-0.6,0-1-0.4-1-1V6H7.5C7,6,6.5,6.4,6.5,7V8.5H5C4.5,8.5,4,8.9,4,9.5s0.5,1,1,1h1v2H5c-0.6,0-1,0.4-1,1s0.4,1,1,1v1.5H2.5V15C2.5,15.6,2.9,16,3.5,16H5v1.5c0,0.6,0.4,1,1,1s1-0.4,1-1V16h2v1.5c0,0.6,0.4,1,1,1s1-0.4,1-1V16h1.5c0.6,0,0.4-0.4,1-1S12,14,12,13.5S12,12.4,11.5,12H10z"/>
  </g>
</svg>