<svg xmlns="http://www.w3.org/2000/svg" viewBox="0 0 24 24" class="icon icon-veganism">
    <path d="M12 2C6.48 2 2 6.48 2 12s4.48 10 10 10 10-4.48 10-10S17.52 2 12 2zm0 18c-4.41 0-8-3.59-8-8s3.59-8 8-8 8 3.59 8 8-3.59 8-8 8z"/>
    <path d="M0 0h24v24H0z" fill="none"/>
    <path d="M6.55 11.11c.74-.74 1.8-1.23 2.94-1.45.1-.57.29-1.11.55-1.62-2.72.59-4.99 2.97-5.22 5.77.56-.18 1.17-.26 1.73-.26 1.06 0 2.11.26 3- .74zm3.04-1.78c-.23.46-.37.96-.43 1.49.92-.13 1.8-.54 2.5-1.13- .78-.4-1.64-.61-2.57-.36zm4.55 1.78c-.74-.74-1.8-1.23-2.94-1.45-.1-.57-.29-1.11-.55-1.62 2.72.59 4.99 2.97 5.22 5.77-.56-.18-1.17-.26-1.73-.26-1.06 0-2.11.26-3-.74zm-3.04-1.78c.23.46.37.96.43 1.49-.92-.13-1.8-.54-2.5-1.13.78-.4 1.64-.61 2.57-.36z"/>  
</svg>