<svg xmlns="http://www.w3.org/2000/svg" class="icon icon-healthcare-worker" viewBox="0 0 24 24">
    <path d="M12 2C6.48 2 2 6.48 2 12s4.48 10 10 10 10-4.48 10-10S17.52 2 12 2zm0 18c-4.41 0-8-3.59-8-8s3.59-8 8-8 8 3.59 8 8-3.59 8-8 8z"/>
    <path d="M0 0h24v24H0z" fill="none"/>
    <path d="M9 10v2a3 3 0 0 0 6 0v-2a1 1 0 0 0-1-1H10a1 1 0 0 0-1 1zm-1 2v2h8v-2a4 4 0 1 0-8 0z"/>
    <path d="M12 12v1m0-3.75v.75"/>
    <path d="M10.385 9.615h1.23A3.975 3.975 0 0 0 12 9c.657 0 1.26.171 1.385.615h1.23A2.978 2.978 0 0 1 15 12c0 .366-.05.716-.134 1.055-.28.116-.58.185-.893.207L10.385 9.615zM14 14h2v2h-2v-2z"/>
</svg>