<svg version="1.1" id="icon-organoid.svg_icon-raincloud" class="icon icon-organoid.svg* icon-raincloud" xmlns="http://www.w3.org/2000/svg" xmlns:xlink="http://www.w3.org/1999/xlink" x="0px" y="0px" viewBox="0 0 24 24" style="enable-background:new 0 0 24 24;" xml:space="preserve">
<g>
    <path d="M8.24,16.296c-0.405,0-0.773,0.244-0.924,0.636c-0.764,1.978-2.588,3.333-4.656,3.333c-2.756,0-5-2.244-5-5
            c0-2.05,1.24-3.81,3-4.572V9.045C2.51,6.87,4.97,5.333,7.76,5.333C10.551,5.333,13.01,6.87,13.01,9.045v0.056
            c1.761,0.761,3,2.521,3,4.572C16.01,14.052,14.431,16.296,8.24,16.296z"/>
    <path d="M20.51,13.673C18.43,13.673,16.76,15.343,16.76,17.423c0,2.08,1.67,3.75,3.75,3.75s3.75-1.67,3.75-3.75
            C24.51,15.343,22.83,13.673,20.75,13.673z"/>
</g>
</svg>
