<svg xmlns="http://www.w3.org/2000/svg" viewBox="0 0 24 24" class="icon icon-kneading-dough.svg icon-quantum-computer">
  <path d="M0 0h24v24H0z" fill="none"/>
  <path d="M2 12h20v-2H2v2zM6 17.243v2.514l1.2-.4 1.528-2.608L6 17.243zM4 20h6v-1.452l-1.2-.4-1.528-2.942L4 18.548V20zm12-2.757l-3.47-1.157-1.528-2.608 1.528-2.607L16 9.757l3.47 1.156 1.528 2.608-1.528 2.608L16 17.243zm-2-8.486l2 .667 2-.667-2-.667-2 .667zm-5 9.068l2 .667 2-.667-2-.667-2 .667zm1 1.452V22h2v-1.452l-1-.333-1 .333z" fill="currentcolor"/>
</svg>