<svg xmlns="http://www.w3.org/2000/svg" viewBox="0 0 24 24" fill="none" stroke="currentColor" stroke-width="2" stroke-linecap="round" stroke-linejoin="round" class="icon icon-scubadiver">
    <circle cx="12" cy="8" r="2"></circle>
    <polyline points="12 10 12 12 15 15 18 12 18 10"></polyline>
    <path d="M5 20h14a1 1 0 0 1 1 1v1a1 1 0 0 1-1 1H5a1 1 0 0 1-1-1v-1a1 1 0 0 1 1-1z"></path>
    <path d="M2 20V10a1 1 0 0 1 1-1h2"></path>
    <path d="M2 14V11.5a.5 .5 0 0 1 .5-.5h2.5v1h-2a.5 .5 0 0 0-.5 .5v1a.5 .5 0 0 0 .5 .5h2.5v1H2.5a.5 .5 0 0 1-.5-.5z"></path>
</svg>