<svg xmlns="http://www.w3.org/2000/svg" viewBox="0 0 24 24" class="icon icon-plasma-ball">
  <path d="M12 2C6.48 2 2 6.48 2 12s4.48 10 10 10 10-4.48 10-10S17.52 2 12 2zm0 18c-4.41 0-8-3.59-8-8s3.59-8 8-8 8 3.59 8 8-3.59 8-8 8zM8.5 8C7.67 8 7 8.67 7 9.5S7.67 11 8.5 11 10 10.33 10 9.5 9.33 8 8.5 8zM12 6c-.83 0-1.5.67-1.5 1.5S11.17 9 12 9s1.5-.67 1.5-1.5S12.83 6 12 6zm0 11c-1.1 0-2-.9-2-2s.9-2 2-2 2 .9 2 2-.9 2-2 2zm5.5-1.5c-.83 0-1.5.67-1.5 1.5s.67 1.5 1.5 1.5 1.5-.67 1.5-1.5-.67-1.5-1.5-1.5z"/>
</svg>