<svg xmlns="http://www.w3.org/2000/svg" viewBox="0 0 24 24" fill="none" stroke="currentColor" stroke-width="2" stroke-linecap="round" stroke-linejoin="round" class="icon icon-fingerprint-scan">
  <path d="M22 13v6a2 2 0 0 1 -2 2h-16a2 2 0 0 1 -2 -2v-6"></path>
  <path d="M6 9v-3a2 2 0 0 1 2 -2h.589a1 1 0 0 0 .706 -.293l1.828 -1.828a2 2 0 0 1 2.828 0l1.828 1.828a1 1 0 0 0 .706 .293h.584a2 2 0 0 1 2 2v3"></path>
  <line x1="12" y1="22" x2="12" y2="22"></line>
  <path d="M18 15a1 1 0 0 0 -1 -1h-10a1 1 0 0 0 -1 1"></path>
</svg>
