<svg xmlns="http://www.w3.org/2000/svg" viewBox="0 0 24 24" class="icon icon-jigsaw-piece">
  <path d="M17.073 8.107l4.394.482-.89 4.5-4.423-.494c-.62.23-1.287.445-2 .645v3.46c.713.2 1.38.415 2 .645l4.423-.494.89 4.5-4.394.482c-.213.667-.46 1.32-.745 1.953l3.038 3.32-3.18 2.5-3.105-3.456c-.635-.285-1.288-.532-1.963-.745l-.482 4.394-4.5-.89-.494-4.423c-.23-.62-.445-1.287-.645-2h-3.46c-.2.713-.415 1.38-.645 2l.494 4.423-.89 4.5-4.394-.482c-.667-.213-1.32-.46-1.953-.745l-3.32 3.038-2.5-3.18 3.456-3.105c.285-.635.532-1.288.745-1.963l-4.394-.482.89-4.5.494-4.423c.62-.23 1.287-.445 2-.645v-3.46c-.713-.2-1.38-.415-2-.645l-.494 4.423-.89 4.5 4.394.482c.213-.667.46-1.32.745-1.953l-3.038-3.32 3.18-2.5 3.105 3.456c.635.285 1.288.532 1.963.745l.482-4.394 4.5.89 4.423.494c.23-.62.445-1.287.645-2h3.46c.2.713.415 1.38.645 2z"/>
</svg>