<svg xmlns="http://www.w3.org/2000/svg" class="icon icon-cloudsyncronization" viewBox="0 0 24 24">
    <g>
        <path d="M 16.98 11 a 5.5 5.5 0 0 1 5.27 7 l -1.65 -1.65 a 3.5 3.5 0 0 0 -4.71 -4.71 l -1.47 1.47 A 2.5 2.5 0 0 1 12 16.5 a 2.5 2.5 0 0 1 2.5 -2.5 a 2.5 2.5 0 0 1 2.5 2.5 l .01 .02 a 5.5 5.5 0 0 1 -4.15 2.34 a 3.001 3.001 0 0 1 -4.27 -2.96 a 3 3 0 0 1 2.75 -3.04 A 5.5 5.5 0 0 1 16.97 11 z"></path>
        <path d="M 12 22 a 8 8 0 0 1 -7.458 -10.838 l 1.722 1.723 A 5.002 5.002 0 0 0 7 19 a 5.5 5.5 0 0 0 5.994 -5.266 A 5.5 5.5 0 0 0 12 13.5l .253 -.01 a 8 8 0 0 1 -.253 8.51 z"></path>
    </g>
</svg>