<svg xmlns="http://www.w3.org/2000/svg" class="icon icon-speed-skating" viewBox="0 0 24 24">
    <path d="M9.77,17.43a1,1,0,0,1,.71-.29h.28l2.54-.8a1,1,0,0,1,1,.06l1,1.79a1,1,0,0,0,1.2,.35l3.28-1.32a1,1,0,0,0,.55-1.11l-.38-2.33L17,11.42l1.6-1.6a1,1,0,0,1,1.41,1.41l-1,1V12a1,1,0,0,0,.29,.71l2.71,2.72a1,1,0,0,1-1.41,1.41l-1.7-1.7a1,1,0,0,0-1.56-.26l-3.18,2.91a1,1,0,0,1-1,.04l-2.33-1.17a1,1,0,0,0-1.16.39Z"></path>
    <circle cx="12" cy="8" r="3"></circle>
    <path d="M3.21,3.72a1,1,0,1,0,1.58-1l-4-7a1,1,0,0,0-1.74,1Z"></path>
</svg>