<svg xmlns="http://www.w3.org/2000/svg" class="icon icon-remote-work" viewBox="0 0 24 24">
    <path d="M2.75,19.75 L21.25,19.75 C21.6642136,19.75 22,20.0857864 22,20.5 C22,20.9142136 21.6642136,21.25 21.25,21.25 L2.75,21.25 C2.33578644,21.25 2,20.9142136 2,20.5 C2,20.0857864 2.33578644,19.75 2.75,19.75 Z M12.012,13.132 L11.858,13.048 C10.126,12.168 8.171,12.056 6.544,12.858 L6.38,12.932 C4.843,13.65 4.029,15.303 4.398,16.817 L4.459,17.052 L4.505,17.079 C5.546,17.582 6.757,17.18 7.272,16.139 L7.318,16.012 L10.57,9.239 L10.674,9.046 C11.054,8.382 12.048,8.236 12.711,8.616 L12.844,8.691 L19.617,11.943 L19.81,12.047 C20.474,12.428 20.62,13.422 20.24,14.085 L20.166,14.218 L13.392,19.99 L13.191,20.121 C12.374,20.628 11.266,20.47 10.759,19.653 L10.628,19.452 L10.505,19.405 C10.055,19.244 9.68,18.916 9.442,18.484 C9.204,18.052 9.131,17.545 9.24,17.06 L9.162,16.779 C9.033,15.916 9.703,15.155 10.566,15.025 C10.729,15.002 10.894,15.017 11.051,15.068 L11.197,15.126 C11.977,15.455 12.756,15.22 13.132,14.44 L13.194,14.272 L16.018,9.171 L16.124,8.977 C16.356,8.544 16.872,8.301 17.402,8.425 C17.926,8.547 18.334,8.988 18.408,9.513 L18.47,9.795 L18.584,9.96 C18.899,10.364 18.931,10.905 18.672,11.34 L18.541,11.558 L12.153,18.080 L12.012,18.244 L11.856,18.179 C11.137,17.833 10.578,17.277 10.253,16.558 L10.212,16.462 L10.861,15.152 C11.012,14.852 11.252,14.599 11.546,14.432 C11.807,14.289 12.154,14.26 12.432,14.355 L12.587,14.412 C13.367,14.741 14.146,14.506 14.522,13.726 L14.584,13.558 L17.408,8.457 L17.515,8.263 C17.895,7.598 18.889,7.452 19.554,7.833 C20.218,8.213 20.363,9.208 19.983,9.872 L19.908,10.005 L13.134,15.777 L12.934,15.908 C12.117,16.416 11.01,16.257 10.502,15.44 L10.372,15.24 L10.249,15.193 C9.798,15.032 9.423,14.704 9.186,14.272 C9.062,14.054 8.996,13.813 8.996,13.567 C8.996,13.312 9.066,13.064 9.195,12.853 L12.012,13.132 Z"></path>
</svg>