<svg xmlns="http://www.w3.org/2000/svg" class="icon icon-cybersecurity" viewBox="0 0 24 24">
  <path d="M12 2C6.5 2 2 6.5 2 12s4.5 10 10 10 10-4.5 10-10S17.5 2 12 2zM9.8 17c-1.6-0.5-3-1.4-4-2.7 1-1.3 2.5-2.1 4.1-2.6v5.3zM14 19.2V14c-0.2 0-0.4 0.1-0.7 0.1 -0.3 0-0.5 0-0.8-0.1v5.2c1.6-0.4 3-1.3 4.2-2.5 -0.8 0.6-1.8 1.1-2.7 1.3zM14 13.1c0.2-0.1 0.4-0.1 0.7-0.1 0.3 0 0.5 0 0.8 0.1V4.8c-1.6 0.2-3 1.1-4.1 2.3 0.8 0.6 1.8 1.1 2.6 1.3V13.1zM12 13c-1.4 0-2.7 0.5-3.7 1.3 -1.1-1.4-1.7-3.2-1.7-5.3 0-0.5 0-1.1 0.1-1.6v6.3c0.2 0 0.5 0.1 0.7 0.1s0.5 0 0.8-0.1V4.8c1.6-0.2 3-1.1 4.1-2.3 0.8 0.6 1.7 1.1 2.7 1.3v8.2c-0.2-0.1-0.4-0.1-0.7-0.1 -0.3 0-0.5 0-0.8 0.1v5.2c1.6 0.4 3.1 1.2 4.3 2.5 -0.9 0.6-2 1-3.1 1.2 -1.1 0.2-2.3 0.2-3.4 0 -1-0.2-2-0.5-2.9-1C9.9 13.5 10.9 13 12 13L12 13L12 13z"/>
</svg>