<svg xmlns="http://www.w3.org/2000/svg" class="icon icon-crumpled-paper" viewBox="0 0 24 24">
    <path d="M20.1,2.7c-1.03,-0.92 -2.32,-1.45 -3.7,-1.3c-0.75,0.1 -1.47,0.38 -2.1,0.8c-0.65,-0.31 -1.36,-0.55 -2.1,-0.7c-2.26,-0.43 -4.67,0.33 -6.1,2c-1.22,1.44 -1.55,3.45 -0.9,5.1c-0.38,0.62 -0.67,1.31 -0.85,2c-0.67,2.4 0.45,4.9 2.8,5.9c0.93,0.4 1.93,0.5 2.9,0.3c0.65,0.24 1.34,0.4 2.05,0.5c2.66,0.4 5.43,-1.15 6.3,-3.7c0.3,-0.87 0.4,-1.77 0.3,-2.67c0.73,-0.62 1.34,-1.44 1.7,-2.36c1.1,-2.76 -0.7,-5.73 -2.9,-6.53z" />
    <path d="M10.8,7.1c0,-0.62 0.23,-1.21 0.63,-1.66c0.81,-0.88 2.22,-0.94 3.15,-0.15c0.45,0.38 0.7,0.91 0.7,1.49c0,0.24 -0.04,0.47 -0.13,0.7c-0.21,0.62 -0.82,1.07 -1.47,1.07c-0.21,0 -0.41,-0.03 -0.61,-0.11c-0.64,-0.22 -1.26,0.16 -1.47,0.78c-0.08,0.24 -0.13,0.48 -0.13,0.72c0,0.57 0.24,1.08 0.68,1.46c0.88,0.78 2.23,0.7 3.07,-0.16c0.4,-0.41 0.64,-0.96 0.64,-1.56c0,-0.25 -0.05,-0.5 -0.14,-0.73c-0.24,-0.64 0.15,-1.34 0.77,-1.58c0.63,-0.25 1.33,0.16 1.58,0.77c0.1,0.26 0.14,0.54 0.14,0.82c0,1.37 -0.84,2.57 -2.07,3.13c-0.62,0.27 -1.3,0.4 -1.98,0.4c-0.68,0 -1.36,-0.13 -1.98,-0.4c-1.23,-0.56 -2.07,-1.76 -2.07,-3.13c0,-0.29 0.05,-0.58 0.15,-0.86c0.25,-0.61 1.05,-0.91 1.67,-0.65z" />
</svg>