<svg xmlns="http://www.w3.org/2000/svg" viewBox="0 0 24 24" class="icon icon-expedition-map">
    <path d="M12, 2c-5.5, 0-10, 4.5-10, 10s4.5, 10, 10, 10s10-4.5, 10-10S17.5, 2, 12, 2z M12, 20c-4.4, 0-8-3.6-8-8s3.6-8, 8-8s8, 3.6, 8, 8 S16.4, 20, 12, 20z"/>
    <path d="M12 7c-1.7 0-3 1.3-3 3s1.3 3 3 3 3-1.3 3-3-1.3-3-3-3zm0 4c-.6 0-1-.4-1-1s.4-1 1-1 1 .4 1 1-.4 1-1 1z"/>
    <path d="M19.5 11H18c-.3 0-.5.2-.5.5v1c0 .3.2.5.5.5h1.5c.3 0 .5-.2.5-.5v-1c0-.3-.2-.5-.5-.5zm-2.6 0h-1.9c-.3 0-.5.2-.5.5v1c0 .3.2.5.5.5h1.9c.3 0 .5-.2.5-.5v-1c0-.3-.2-.5-.5-.5zm-3.8 0H9c-.3 0-.5.2-.5.5v1c0 .3.2.5.5.5h1.1c.3 0 .5-.2.5-.5v-1c0-.3-.2-.5-.5-.5zm-2.6 0H5c-.3 0-.5.2-.5.5v1c0 .3.2.5.5.5h1.1c.3 0 .5-.2.5-.5v-1c0-.3-.2-.5-.5-.5z"/>
</svg>
