<svg xmlns="http://www.w3.org/2000/svg" class="icon icon-biometricaccess" viewBox="0 0 32 32">
    <path d="M16,2c7.732,0,14,6.268,14,14S23.732,30,16,30S2,23.732,2,16S8.268,2,16,2 M16,0C7.163,0,0,7.163,0,16s7.163,16,16,16  s16-7.163,16-16S24.837,0,16,0L16,0z"/>
    <path d="M16,7c-4.963,0-9,4.038-9,9c0,1.056,0.186,2.073,0.54,3.014C9.312,18.161,12.489,19,16,19s6.688-0.839,8.46-1.986  C24.814,16.073,25,15.056,25,14C25,11.243,22.757,9,20,9S15,11.243,15,14s2.243,5,5,5c1.374,0,2.602-0.552,3.465-1.438  C18.851,16.988,18.528,17,18.2,17c-3.309,0-6-2.691-6-6C12.2,9.596,13.802,7,16,7 M16,5C12.141,5,9,8.141,9,12s3.141,7,7,7s7-3.141,7-7  S19.859,5,16,5L16,5z"/>
</svg>