<svg class="icon icon-figurative-language" xmlns="http://www.w3.org/2000/svg" viewBox="0 0 24 24">
    <path d="M6,2C4.897,2,4,2.897,4,4c0,0.434,0.142,0.839,0.376,1.186L6.7,2.861C6.464,2.742,6.24,2.706,6.079,2.706C6.199,2.859,6.199,2.859,6.079,3.012C6.079,3.012,5.839,3.12,5.839,3.12C5.75,3.152,5.706,3.077,5.706,3.077C5.706,3.077,5.617,3.12,5.617,3.12C5.528,3.048,5.483,3.012,5.483,3.012C5.439,2.956,5.394,2.917,5.327,2.861L7.183,4.148C7.183,4.148,7.316,4.081,7.316,4.081C7.316,4.081,7.357,4.043,7.357,4.008C7.357,3.959,7.316,3.921,7.316,3.872C6.826,3.724,6.4,3.492,6,3.17V4C6,4.552,6.448,5,7,5h1c0.552,0,1-0.448,1-1s-0.448-1-1-1H6z M18,2.948c-0.372,0.143-0.689,0.332-1,0.56V2c0-1.103-0.897-2-2-2h-1C13.448,0,13,0.448,13,1s0.448,1,1,1h1c0.552,0,1,0.448,1,1v1.474c0.372,0.639,0.809,1.257,1.327,1.862l1.316-1.474C18.683,2.109,18.371,2.638,18,2.948z M9,7c-1.103,0-2,0.897-2,2s0.897,2,2,2s2-0.897,2-2S10.103,7,9,7z M15,7c-1.103,0-2,0.897-2,2s0.897,2,2,2s2-0.897,2-2S16.103,7,15,7z M12,11c-2.206,0-3.794,1.794-4,4v3h8v-3C15.794,12.794,14.206,11,12,11z"/>
</svg>