<svg xmlns="http://www.w3.org/2000/svg" viewBox="0 0 24 24" class="icon icon-turbine">
  <path d="M12 2C6.48 2 2 6.48 2 12s4.48 10 10 10 10-4.48 10-10S17.52 2 12 2zm0 18c-4.41 0-8-3.59-8-8s3.59-8 8-8 8 3.59 8 8-3.59 8-8 8z"/>
  <path d="M13.89 8.05c-.5-.38-1.21-.28-1.54.24l-.85 1.47-1.47-.1c-.62-.04-1.18-.35-1.47-.85-.38-.62-.24-1.4.23-1.8l1.17-.9V4c0-.66.68-1.14 1.3-.86l1.2.6 1.4-.8c.62-.36 1.39-.07 1.49.66.09.62-.26 1.22-.81 1.4l-1.69.5 1.48 1.48c.55.55.63 1.41.24 2.06-.4.54-1.06.73-1.64.57l-1.69-.57-.6 1.69c-.16.58-.71.95-1.29.95-.16 0-.32-.02-.47-.05-.47-.09-.85-.47-.95-1l-.2-1.5-1.5.2c-.57.1-1.16-.16-1.38-.71-.22-.55.05-1.14.56-1.4l1.4-.8-.85-1.47c-.2-.35-.18-.77.05-1.12z"/>
</svg>