<svg xmlns="http://www.w3.org/2000/svg" viewBox="0 0 24 24" class="icon icon-jigsawPuzzle">
<path d="M12 22c-1.105 0-2 .895-2 2h8c0-1.105-.895-2-2-2h-4zM6 6c-1.105 0-2 .895-2 2v4c0 1.105.895 2 2 2h4c1.105 0 2-.895 2-2V8c0-1.105-.895-2-2-2H6zm12 0c-1.105 0-2 .895-2 2v4c0 1.105.895 2 2 2h4c1.105 0 2-.895 2-2V8c0-1.105-.895-2-2-2h-4zm-12 6c-1.105 0-2 .895-2 2v4c0 1.105.895 2 2 2h4c1.105 0 2-.895 2-2v-4c0-1.105-.895-2-2-2H6zm12 0c-1.105 0-2 .895-2 2v4c0 1.105.895 2 2 2h4c1.105 0 2-.895 2-2v-4c0-1.105-.895-2-2-2h-4z"/>
</svg>