<svg xmlns="http://www.w3.org/2000/svg" viewBox="0 0 24 24" class="icon icon-finger-print-authentication">
    <path d="M12 2C6.48 2 2 6.48 2 12c0 4.22 2.66 7.79 6.4 9.4V23h3v-1.22c.97-.14 1.9-.39 2.78-.75V23h3v-1.59c3.75-1.61 6.4-5.18 6.4-9.4 0-5.52-4.48-10-10-10zm6.32 12.09c-.59 2.84-2.66 5.18-5.33 5.91v-2.07c1.43-.46 2.68-1.32 3.57-2.46 1.4-.18 2.68-.88 3.58-1.95-.2.3-.46.57-.76.82-.6.52-1.33.9-2.14 1.07v2.03c.82-.16 1.59-.52 2.23-1.02.75-.59 1.32-1.37 1.58-2.28-.26.2-.55.38-.88.53zm-2.69 2.27v-2c1.03-.21 1.97-.64 2.69-1.27-.34.57-.86 1.03-1.46 1.36-.5.26-1.06.41-1.64.49v1.42c.59-.02 1.15-.17 1.65-.52.32-.18.62-.42.88-.71-.88.67-1.97 1.04-3.11 1.19v2.03c1.14-.14 2.22-.52 3.1-1.18.37-.28 .68-.61 .99-.94-.7.63-1.57.99-2.5 1.2v2.02c1.43-.2 2.73-.89 3.68-1.88.34-.35 .64-.73 .91-1.14-.64.58-1.43.96-2.27 1.18v2.05c1.81-.22 3.42-1.11 4.5-2.51.16-.21 .3-.44 .43-.68-.71.61-1.58.99-2.51 1.19v2.03c2.05-.2 3.88-1.26 4.94-2.96.1-.16 .19-.33 .27-.51-1.17 1.38-2.92 2.19-4.72 2.31v2.09c2.74-.11 5.17-1.45 6.56-3.64.09-.14 .17-.29 .25-.43-1.39 2.05-3.69 3.33-6.25 3.42v1.96h-3c-.98-.34-1.89-.92-2.66-1.66-.51.35-1.08.66-1.68.91v2.02c2.66-.75 4.73-3.07 5.32-5.91h-2.03c-.44 1.43-1.53 2.56-2.8 3.03v2.03c1.71-.47 3.1-1.8 3.6-3.38h-2.02c-.52 1.11-1.5 1.97-2.69 2.32v2.05c1.98-.35 3.57-1.73 4.15-3.56h-2.02c-.44 1.05-1.33 1.84-2.35 2.12v2.05c1.77-.28 3.22-1.38 3.86-2.85h-2.02c-.33 1.02-1.1 1.83-2.02 2.24v2.08c1.51-.41 2.73-1.46 3.22-2.8h-2.03c-.2 1.01-1.02 1.78-2.02 2.12v2.04c1.3-.35 2.38-1.16 2.89-2.28h-2.05z"/>
</svg>