<svg xmlns="http://www.w3.org/2000/svg" class="icon icon-recursive-fractal" viewBox="0 0 24 24">
    <path d="M12 22c-1.1 0-2-.9-2-2 0-.552.448-1 1-1s1 .448 1 1c0 .552-.448 1-1 1zm1-6c0 .552-.448 1-1 1s-1-.448-1-1v-1c0-.552.448-1 1-1s1 .448 1 1v1zm0-4c0 .552-.448 1-1 1s-1-.448-1-1v-1c0-.552.448-1 1-1s1 .448 1 1v1zm0-4c0 .552-.448 1-1 1s-1-.448-1-1v-1c0-.552.448-1 1-1s1 .448 1 1v1zm0-4c0 .552-.448 1-1 1s-1-.448-1-1v-1c0-.552.448-1 1-1s1 .448 1 1v1zm4 16h-2c-.552 0-1-.448-1-1s.448-1 1-1h2c.552 0 1 .448 1 1s-.448 1-1 1zm-8 0h-2c-.552 0-1-.448-1-1s.448-1 1-1h2c.552 0 1 .448 1 1s-.448 1-1 1z"/>
</svg>