<svg xmlns="http://www.w3.org/2000/svg" class="icon icon-satellite.svg icon-sandglass" viewBox="0 0 24 24">
  <path d="M0 0h24v24H0z" fill="none"/>
  <path d="M11 2v7.591A8.978 8.978 0 0 0 1 16.5L3 18a6.978 6.978 0 0 1 6-1.528A8.978 8.978 0 0 0 13 22v8l2-1-9-4 4-2 1-2h7a4.978 4.978 0 0 1-.222-2H8a2.996 2.996 0 0 1 1.528-4.86A4.978 4.978 0 0 1 11 11h7V2h-7zm-1 15H8l-1 1v1h1l3 1.724A4.992 4.992 0 0 1 14 18v-2a2.99 2.99 0 0 1-.001-.243L10 15zm0-8h4V4h-4v5zm-4 4h9.528A4.978 4.978 0 0 1 14 14H6a3 3 0 0 1 1-2z"/>
</svg>