<svg xmlns="http://www.w3.org/2000/svg" class="icon icon-cogs">
  <path d="M12 6c-3.31 0-6 2.691-6 6 0 3.309 2.689 6 6 6 3.309 0 6-2.691 6-6 0-3.309-2.691-6-6-6zm0 10.5c-2.48 0-4.5-2.021-4.5-4.5s2.02-4.5 4.5-4.5 4.5 2.021 4.5 4.5-2.02 4.5-4.5 4.5zM28.5 24h-5.086c-.464-1.879-1.979-3.334-3.914-3.832v-5.086c1.879-.464 3.334-1.979 3.832-3.914h5.086v13.832zM27 18c0-2.48-2.021-4.5-4.5-4.5s-4.5 2.021-4.5 4.5 2.021 4.5 4.5 4.5 4.5-2.019 4.5-4.5zM6 16.5h-5.086c-.464-1.879-1.979-3.334-3.914-3.832v-5.086c1.879-.464 3.334-1.979 3.832-3.914h5.086v13.832zM4.5 10c-2.48 0-4.5 2.021-4.5 4.5s2.021 4.5 4.5 4.5 4.5-2.021 4.5-4.5-2.020-4.5-4.5-4.5z"/>
</svg>