<svg xmlns="http://www.w3.org/2000/svg" viewBox="0 0 24 24" class="icon icon-virtual-reality-gaming.svg icon-data-cloud">
  <path d="M12 6c-2.4 0-4.318 1.72-4.906 4H2c-.553 0-1 .447-1 1v6c0 .553.447 1 1 1h4v-2H4v-4h2c0 2.21 1.79 4 4 4s4-1.79 4-4h8v2h-2v2h4c.553 0 1-.447 1-1v-6c0-.553-.447-1-1-1h-5.094C16.318 7.72 14.4 6 12 6zm0 6c-.553 0-1-.447-1-1s.447-1 1-1 1 .447 1 1-.447 1-1 1zm-4-4c.553 0 1 .447 1 1s-.447 1-1 1-1-.447-1-1 .447-1 1-1zm8 0c.553 0 1 .447 1 1s-.447 1-1 1-1-.447-1-1 .447-1 1-1z"/>
</svg>