<svg xmlns="http://www.w3.org/2000/svg" class="icon icon-hexagonal-pattern" viewBox="0 0 24 24">
  <path d="M2.5 10.409L10 12.988l7.5-2.579-7.5-2.579L2.5 10.409zm0 5L10 18.988l7.5-2.579-7.5-2.579L2.5 15.409zm0-10L10 8.988l7.5-2.579L10 3.828 2.5 5.409zm10 12.569l7.5-2.579 2.5 1.739v3.458l-10-3.479zm-10 0l9.5 3.479v-2.289l-7.5-2.578-2 1.388zm17.5-5.569l2.5 1.74v3.457l-9.5-3.479 7-1.718zm-17.5-1.74l9.5 3.48v-2.289l-7.5-2.578-2 1.387zm17.5-5.57l2.5 1.74v3.456l-9.5-3.477 7-1.719zM10 21.968l7.5-2.58 2.5 1.741v1.87l-10-1.031zm-2-4.56l-2.5-1.74-2.5 1.74v1.869l5-1.869zm2.5-5l7.5 2.58v1.87l-10-3.45 2.5-1zm-2.5-4.56l-2.5-1.739-2.5 1.739V11.41l5-1.87zm2.5-5l7.5 2.579v1.871l-10-3.45 2.5-1z"></path>
</svg>