<svg xmlns="http://www.w3.org/2000/svg" class="icon icon-merman.svg icon-data-cloud">
    <!-- data cloud design -->
    <path d="M36.285,47.496H16.142c-4.268,0-7.714-3.427-7.714-7.666c0-1.619,0.508-3.133,1.37-4.38c0.956-0.796,2.18-1.29,3.52-1.29c0.195,0,0.388,0.006,0.578,0.019c3.924-5.75,10.645-9.36,18.25-9.36c11.046,0,20,8.954,20,20c0,3.018-0.842,5.82-2.279,8.159c-0.802,0.933-1.872,1.618-3.112,1.98c-1.758,0.033-3.45,0.722-4.78,1.867"/>
    <!-- merman design -->
    <path d="M22.892,39.958c-4.779-3.446-5.13-10.56-0.783-14.339c4.347-3.779,11.461-3.428,14.217,0.351c2.756,3.779,2.405,10.894-1.942,14.672C32.356,42.832,27.671,43.404,22.892,39.958"/>
</svg>