<svg xmlns="http://www.w3.org/2000/svg" viewBox="0 0 24 24" class="icon icon-blockchain-technology">
    <path d="M5 12.5C5 14.485 6.515 16 8.5 16S12 14.485 12 12.5 10.485 9 8.5 9 5 10.515 5 12.5zm10 0c0 1.985 1.515 3.5 3.5 3.5s3.5-1.515 3.5-3.5-1.515-3.5-3.5-3.5-3.5 1.515-3.5 3.5zM5 12c0-1.02.335-1.955.88-2.71C7.9 11.605 9.5 13.78 9.5 16.5c0 .376-.04.745-.11 1.11C7.035 17.445 6 14.935 6 12.5 6 12.34 6.01 12.18 6.03 12H5zm10 0c0-1.02-.335-1.955-.88-2.71C16.1 11.605 15.5 13.78 15.5 16.5c0 .376.04.745.11 1.11c2.355-.595 3.39-3.105 3.39-5.11 0-.16-.01-.32-.03-.5h-1.03z"/>
</svg>