<svg xmlns="http://www.w3.org/2000/svg" viewBox="0 0 24 24" class="icon icon-galactic-empire">
    <path d="M12 20.296V0C5.56 1.082 0 6.4 0 12.48c0 1.637.387 3.18 1.08 4.568l10.05 5.653.725-.408.725.408L22.92 17.048a10.973 10.973 0 0 0 1.08-4.568C24 6.4 18.44 1.082 12 0zm-2.11 17.296l-8.68-5.057A8.914 8.914 0 0 1 3 12.478a9.032 9.032 0 0 1 3-6.934v5.365l7.5 12.179-2.61-1.792zM14.11 17.6l2.608 1.786-7.5-12.177V5.544a9.032 9.032 0 0 1 3 6.934c0 1.164-.28 2.262-.776 3.247l2.668 1.875zm7.41-9.25A9.025 9.025 0 0 1 14.11 17.6l2.625 1.807 5.105-2.872a8.816 8.816 0 0 1-1.32-6.785z"></path>
</svg>