<svg xmlns="http://www.w3.org/2000/svg" class="icon icon-bluewhale" viewBox="0 0 24 24">
    <path d="M18.9 14.1c-1.7 0-2.5-1.3-2.5-1.3S15 12.8 12 12.8c-3 0-4.4 1.9-4.4 1.9s-.8 1.3-2.5 1.3c-1.7 0-2.6-.9-2.6-2 1.4 0 2.8-1 4.1-2.5 1.8-2 4-2.5 5.4-2.5s3.6 .5 5.4 2.5c1.3 1.6 2.7 2.5 4.1 2.5 0 1.1-.9 2-2.6 2z" fill="#0000FF" />
    <path d="M14.8 12.5c-.3 0-.5-.2-.5-.5s.2-.5.5-.5 .5 .2 .5 .5-.2 .5-.5 .5zm-5.6 0c-.3 0-.5-.2-.5-.5s.2-.5.5-.5 .5 .2 .5 .5-.2 .5-.5 .5zm2.8 2.8c-1.2 0-2.2-.7-2.7-1.7 0 .1 0 .1 0 0 .5 1 1.4 1.7 2.7 1.7s2.2-.7 2.7-1.7c0 .1 0 .1 0 0-.5 1-1.5 1.7-2.7 1.7z" fill="#0000FF" />
</svg>