<svg xmlns="http://www.w3.org/2000/svg" class="icon icon-skull-top-hat" viewBox="0 0 24 24">
    <path d="M12 2C6.48 2 2 6.48 2 12C2 16.41 5.27 20 9 20V22H15V20C18.73 20 22 16.41 22 12C22 6.48 17.52 2 12 2M12 5C14.21 5 16 6.79 16 9S14.21 13 12 13 8 11.21 8 9 9.79 5 12 5M17 14H7C5.34 14 4 15.34 4 17H20C20 15.34 18.66 14 17 14M9 7C8.45 7 8 7.45 8 8S8.45 9 9 9 10 8.55 10 8 9.55 7 9 7M15 7C14.45 7 14 7.45 14 8S14.45 9 15 9 16 8.55 16 8 15.55 7 15 7Z" />
    <path d="M13 1C13.7843 1 14.5118 1.2945 15.0711 1.85355C15.6302 2.41264 15.925 3.14016 15.925 3.925V5.925C15.925 6.70984 15.6302 7.43736 15.0711 7.99645C14.5118 8.55555 13.7843 8.85 13 8.85C12.2157 8.85 11.4882 8.55555 10.9289 7.99645C10.3698 7.43736 10.075 6.70984 10.075 5.925V3.925C10.075 3.14016 10.3698 2.41264 10.9289 1.85355C11.4882 1.2945 12.2157 1 13 1Z"/>
</svg>