<svg xmlns="http://www.w3.org/2000/svg" viewBox="0 0 24 24" class="icon icon-sphinx-egypt">
    <path d="M2.442 19.468h2.443v2.443h-2.443v-2.443zm4.886-1.222h2.442v2.443h-2.442v-2.443zm4.885-3.425h2.443v2.443h-2.443v-2.443zm4.885 1.221h2.443v2.443h-2.443v-2.443zm4.886 3.425h2.442v2.443h-2.442v-2.443zm0-4.886H24v2.443h-2.442V18.39zm-9.77-1.221h2.443v2.442h-2.443v-2.442zm-4.885 0h2.442v2.442h-2.442v-2.442zm0-9.77h2.442v2.443h-2.442v-2.443zm14.64 0h2.442v2.443h-2.442v-2.443zm0 4.886h2.442v2.442h-2.442v-2.442zm-14.64 0h2.442v2.442h-2.442v-2.442zm4.885 4.886H9.77v2.443h-2.442v-2.443zm4.885 0H14.655v2.443h-2.442v-2.443zm4.885 4.886H19.53v2.442h-2.442v-2.442z"/>
</svg>