<svg version="1.1" id="icon-interstellar-travel" class="icon icon-interstellar-travel" xmlns="http://www.w3.org/2000/svg" xmlns:xlink="http://www.w3.org/1999/xlink" x="0px" y="0px"
	 viewBox="0 0 512 512" style="enable-background:new 0 0 512 512;" xml:space="preserve">
<path d="M256,0C114.843,0,0,114.843,0,256c0,141.157,114.843,256,256,256s256-114.843,256-256C512,114.843,397.157,0,256,0z M256,480
	c-123.514,0-224-100.486-224-224S132.486,32,256,32s224,100.486,224,224S379.514,480,256,480z"/>
<path d="M386.784,125.216l-128,64c-2.121,1.061-4.688,0.686-6.393-0.842l-64-64C186.75,122.725,184.412,122.794,182.784,125.216
	S181.919,130.539,183.784,132.216l64,64c1.061,2.121,0.686,4.688-0.842,6.393l-64,128c-1.532,3.07-0.463,6.409,2.284,8.157
	c1.144,0.727,2.447,1.095,3.74,1.095c1.702,0,3.409-0.685,4.57-2C197.442,338.539,199.472,336.284,200,336l128-64
	c2.121-1.061,4.688-0.686,6.393,0.842l64,64c2.748,2.747,7.081,2.818,9.899,0.163c0.707-0.664,1.29-1.412,1.696-2.327
	c1.187-2.673,0.018-5.775-2.57-7.362l-64-64c-1.061-2.121-0.686-4.688,0.842-6.393l64-128C391.525,130.91,389.905,127.278,386.784,125.216z"/>
</svg>