<svg xmlns="http://www.w3.org/2000/svg" class="icon icon-circuit-board" viewBox="0 0 24 24">
    <path d="M21.3,8.1h-1.8V6.5c0-.5-.4-.9-.9-.9h-3.6V2.7c0-.5-.4-.9-.9-.9H6.9c-.5,0-.9,.4-.9,.9v1.8H2.7c-.5,0-.9,.4-.9,.9v3.6H.3c-.5,0-.9,.4-.9,.9v5.5c0,.5,.4,.9,.9,.9h1.8v1.8c0,.5,.4,.9,.9,.9h3.6v1.8c0,.5,.4,.9,.9,.9h5.5c.5,0,.9-.4,.9-.9v-1.8h3.6c.5,0,.9-.4,.9-.9v-3.6h1.8c.5,0,.9-.4,.9-.9V8.1C22.2,8.6,21.8,8.1,21.3,8.1z M6,6h2v2H6V6z M6,12h2v2H6V12z M12,12h2v2h-2V12z M12,6h2v2h-2V6z M18,6h2v2h-2V6z M18,12h2v2h-2V12z"/>
</svg>