<svg xmlns="http://www.w3.org/2000/svg" class="icon icon-multifactor-authentication.svg icon-virtual-reality">
  <path d="M5 3v4h4v-4H5zm14 0v4h4v-4h-4zM12 0v4h4V0h-4zM5 9v4h4V9H5zm14 0v4h4V9h-4zM17 21c-0.552 0-1-0.448-1-1s0.448-1 1-1s1 0.448 1 1s-0.448 1-1 1"></path>
  <path d="M17 15c-0.552 0-1-0.448-1-1s0.448-1 1-1s1 0.448 1 1s-0.448 1-1 1"></path>
  <path d="M10 15c-0.552 0-1-0.448-1-1s0.448-1 1-1s1 0.448 1 1s-0.448 1-1 1"></path>
  <path d="M6 15c-0.552 0-1-0.448-1-1s0.448-1 1-1s1 0.448 1 1s-0.448 1-1 1"></path>
  <path d="M3 15c-0.552 0-1-0.448-1-1s0.448-1 1-1s1 0.448 1 1s-0.448 1-1 1"></path>
</svg>