<svg xmlns="http://www.w3.org/2000/svg" class="icon icon-alien icon-meteor-shower" viewBox="0 0 24 24">
    <path d="M12,2A10,10,0,1,0,22,12,10,10,0,0,0,12,2Zm-2,14.75a.75.75,0,1,1,.75-.75A.75.75,0,0,1,10,16.75Zm4,0a.75.75,0,1,1,.75-.75A.75.75,0,0,1,14,16.75Zm-4-2.5a1.25,1.25,0,1,1,1.25-1.25A1.25,1.25,0,0,1,10,14.25Zm4,0a1.25,1.25,0,1,1,1.25-1.25A1.25,1.25,0,0,1,14,14.25Zm-2,5.75a5.46,5.46,0,0,1-4-1.67,1,1,0,0,1,1.38-1.49A3.46,3.46,0,0,0,12,18a3.46,3.46,0,0,0,2.63-1.21,1,1,0,1,1,1.37,1.5A5.46,5.46,0,0,1,12,20Z">
    </path>
</svg>