<svg xmlns="http://www.w3.org/2000/svg" viewBox="0 0 24 24" class="icon icon-nanotech-gears">
    <path d="M12,2C6.48,2,2,6.48,2,12c0,5.52,4.48,10,10,10s10-4.48,10-10C22,6.48,17.52,2,12,2z M7.34,4.93
	c1.17,1.17,1.4,2.98,0.7,4.4C8.03,9.33,8,9.17,8,9c0-1.66,1.34-3,3-3s3,1.34,3,3c0,0.11-0.02,0.22-0.03,0.33c0.79,1.31,0.5,3.01-0.7,4.18
	c-1.17,1.17-2.98,1.4-4.4,0.7C8.67,16.97,8.83,17,9,17c1.66,0,3-1.34,3-3s-1.34-3-3-3c-0.11,0-0.22,0.02-0.33,0.03
	c-1.31,0.79-3.01,0.5-4.18-0.7c-1.17-1.17-1.4-2.98-0.7-4.4C4.03,7.33,4,7.17,4,7c0-1.66,1.34-3,3-3S10,5.34,10,7
	c0,0.11-0.02,0.22-0.03,0.33C9.18,6.55,8.89,4.85,10.05,3.67C10.59,3.13,11.28,2.78,12,2.78c0.72,0,1.41,0.34,1.93,0.88
	c1.17,1.17,1.4,2.98,0.7,4.4C14.03,7.33,14,7.17,14,7c0-1.66,1.34-3,3-3s3,1.34,3,3c0,0.11-0.02,0.22-0.03,0.33
	c0.79,1.31,0.5,3.01-0.7,4.18c-1.17,1.17-2.98,1.4-4.4,0.7C15.67,16.97,15.83,17,16,17c1.66,0,3-1.34,3-3s-1.34-3-3-3
	c-0.11,0-0.22,0.02-0.33,0.03c-1.31,0.79-3.01,0.5-4.18-0.7c-1.17-1.17-1.4-2.98-0.7-4.4C13.97,5.67,13.83,5,13,5
	c-1.66,0-3,1.34-3,3S11.34,11,13,11c0.11,0,0.22-0.02,0.33-0.03c1.31,0.79,3.01,0.5,4.18-0.7c1.17-1.17,1.4-2.98,0.7-4.4
	C16.67,5.03,16.83,5,17,5c1.66,0,3-1.34,3-3s-1.34-3-3-3c-1.11,0-2.08,0.58-2.65,1.44C13.06,3.58,12.56,3,12,3C11.44,3,10.93,3.58,10.65,4.44
	c-0.58-0.87-1.54-1.44-2.65-1.44C7.34,3,6,4.34,6,6C6,5.83,6.03,5.67,6.03,5.33C5.33,6.55,5.61,8.24,6.78,9.41z"/>
</svg>