<svg xmlns="http://www.w3.org/2000/svg" class="icon icon-satellites" viewBox="0 0 24 24">
  <path d="M13.5 11c1.38 0 2.5-1.12 2.5-2.5s-1.12-2.5-2.5-2.5S11 7.12 11 8.5 12.12 11 13.5 11zm0-2c.28 0 .5.22.5.5s-.22.5-.5.5-.5-.22-.5-.5.22-.5.5-.5zM3 13c0 .83.67 1.5 1.5 1.5S6 13.83 6 13V3.5C6 2.67 5.33 2 4.5 2S3 2.67 3 3.5V13zm1.5-1C4.22 12 4 12.22 4 12.5s.22.5.5.5.5-.22.5-.5v-8C5 3.22 4.78 3 4.5 3S4 3.22 4 3.5V12zm17-5c-.83 0-1.5.67-1.5 1.5V22c0 .83.67 1.5 1.5 1.5s1.5-.67 1.5-1.5V8.5c0-.83-.67-1.5-1.5-1.5zm0 15c-.28 0-.5-.22-.5-.5V14c0-.28.22-.5.5-.5s.5 .22.5 .5v8c0 .28-.22.5-.5.5z"/>
</svg>