<svg xmlns="http://www.w3.org/2000/svg" viewBox="0 0 24 24" class="icon icon-genie-lamp">
  <path d="M0 0h24v24H0V0z" fill="none"/>
  <path d="M12 2C6.48 2 2 6.48 2 12s4.48 10 10 10 10-4.48 10-10S17.52 2 12 2zm1 14h-2v-2h2v2zm2.07-7.75l-.9.92c-.26.27-.37.63-.37 1.01V12h2v-.03c0-.55.45-1 .99-1h.01c.55 0 1 .45 1 .99 0 .56-.45.99-1 1h-.74l.92.92c.39.39.39 1.02 0 1.41l-.01.01c-.39.39-1.02.39-1.41 0L13 14.41l-1.59 1.59c-.39.39-1.02.39-1.41 0l-.01-.01a.996.996 0 0 1 0-1.41l.92-.92h-.74c-.55 0-1-.45-1-.99v-.01c-.01-.55.45-.99 1-1h.01c.55 0 1-.45 1.01-.99v-.83c0-.37.11-.74.37-1.01l.9-.92c.39-.39 1.02-.39 1.41 0 .38.39.38 1.02 0 1.41l-.92.92h2.33c.42 0 .75-.34.75-.75s-.33-.76-.75-.76h-2.34l.92-.92c.38-.38.38-1.01 0-1.4z"/>
</svg>