<svg xmlns="http://www.w3.org/2000/svg" viewBox="0 0 24 24" class="icon icon-starburst">
    <path d="M0 0h24v24H0z" fill="none"/>
    <path d="M12 2a1 1 0 011 1v3a1 1 0 01-2 0V3a1 1 0 011-1zm0 18a1 1 0 011 1v3a1 1 0 01-2 0v-3a1 1 0 011-1zm-10-9a1 1 0 011 1h3a1 1 0 010 2H3a1 1 0 01-1-1 1 1 0 011-1zm20 0a1 1 0 011 1h3a1 1 0 010 2h-3a1 1 0 01-1-1 1 1 0 011-1zM2.929 17.071a1 1 0 011.414 0l2.12-2.121a1 1 0 010 1.414l-2.12 2.121A1 1 0 012.93 17.07zm16.97 0a1 1 0 010 1.414l-2.12-2.121a1 1 0 011.414-1.414l2.12 2.12zM4.343 4.343a1 1 0 011.415 0l2.12-2.12a1 1 0 010 1.414L5.758 5.757A1 1 0 014.343 4.343zm14.242 0A1 1 0 0120 5.757L17.879 3.636a1 1 0 011.414-1.414l2.12 2.121z"/>
</svg>