<svg xmlns="http://www.w3.org/2000/svg" viewBox="0 0 24 24" class="icon icon-plasma">
    <path d="M12 4c4.41 0 8 3.59 8 8s-3.59 8-8 8-8-3.59-8-8 3.59-8 8-8zm0 2.68c-1.72 0-3.41 1.15-4.32 2.58 1.67-.42 3.31.4 4.32 1.62 1.01-1.22 2.66-2.04 4.32-1.62-.92-1.43-2.6-2.58-4.32-2.58zM4 12c0-1.66 1.34-3 3-3 .48 0 .94.13 1.34.36-.65 1.66.26 3.44 1.66 4.37 1.41-.93 2.32-2.71 1.66-4.37.4-.23.86-.36 1.34-.36 1.66 0 3 1.34 3 3s-1.34 3-3 3c-.48 0-.94-.13-1.34-.36.65-1.66-.26-3.44-1.66-4.37-1.41.93-2.32 2.71-1.66 4.37-.4.23-.86.36-1.34.36-1.66 0-3-1.34-3-3zm8 3.32c1.72 0 3.41-1.15 4.32-2.58-1.67.42-3.31-.4-4.32-1.62-1.01 1.22-2.66 2.04-4.32 1.62.92 1.43 2.6 2.58 4.32 2.58zm2.68 1c1.22-1.01 2.04-2.66 1.62-4.32 1.43.92 2.58 2.6 2.58 4.32 0 1.66-1.34 3-3 3-.48 0-.94-.13-1.34-.36zm-1.78 2.68c1.66.65 3.44-.26 4.37-1.66-.93 1.41-2.71 2.32-4.37 1.66zm-2.36-1c.23.4.36.86.36 1.34 0 1.66-1.34 3-3 3s-3-1.34-3-3c0-.48.13-.94.36-1.34.6 1.93 2.63 3.1 4.64 2.64zm-1.56-2.68c-1.02 0-2.04.4-2.78 1.14-.73-.73-1.76-1.14-2.78-1.14 1.01-1.72.4-3.61-1.02-4.63 1.42-.91 3.1-.58 4.03.85.93-1.43 2.61-1.76 4.03-.85-1.42.91-2.03 2.8-1.02 4.63z"></path>
</svg>