<svg xmlns="http://www.w3.org/2000/svg" viewBox="0 0 24 24" class="icon icon-neural-network.svg icon-data-cloud">
    <path d="M12,2A10,10,0,1,0,22,12,10.01,10.01,0,0,0,12,2Zm0,3.64a2.729,2.729,0,0,1,2.73,2.72V8.64l-.557,6.07.7-.69a.913.913,0,0,1,.828-.31h0.007a.921.921,0,0,1,.679.43l.419,.61a2.729,2.729,0,1,1-4.8,.84l-.42-.61a.921.921,0,0,1,.68-.43h0.007a.913.913,0,0,1,.827.31l.7,.69ZM12,9.27A2.729,2.729,0,1,0,9.27,12,2.73,2.73,0,0,0,12,9.27Z"/>
    <path d="M11.5,8h1a.5.5,0,0,1,.5,.5V16a.5.5,0,0,1-.5.5h-1a.5.5,0,0,1-.5-.5V8.5A.5.5,0,0,1,11.5,8Z"/>
    <path d="M12,6.5a1,1,0,0,1,1,1v7a1,1,0,0,1-2,0v-7A1,1,0,0,1,12,6.5Z"/>
</svg>