<svg xmlns="http://www.w3.org/2000/svg" class="icon icon-alarm-clock" viewBox="0 0 24 24">
    <path d="M12 2C6.48 2 2 6.48 2 12c0 5.52 4.48 10 10 10s10-4.48 10-10c0-5.52-4.48-10-10-10zm0 18c-4.41 0-8-3.59-8-8s3.59-8 8-8 8 3.59 8 8-3.59 8-8 8zm1-13h-2v6l5.25 3.15.75-1.23-4.5-2.67zM17.36 2.59c1.77 1.77 2.17 4.37 1.02 6.18l-1.43-1.43c-.45-.45-1.18-.45-1.63 0-.45.45-.45 1.18 0 1.63l1.43 1.43c-1.8 1.14-4.41 .75-6.18-1.02-1.77-1.77-2.17-4.37-1.02-6.18l1.43 1.43c.45.45 1.18.45 1.63 0 .44-.45 .44-1.18 0-1.63L8.8 1.78c1.8-1.14 4.41-.75 6.18 1.02z"/>
</svg>
