<svg xmlns="http://www.w3.org/2000/svg" viewBox="0 0 24 24" class="icon icon-infinity-knot">
  <path fill="none" stroke="currentColor" stroke-width="2" d="M4 11a2 2 0 0 1 2 -2a2 2 0 0 1 2 2a2 2 0 1 1 -4 0a2 2 0 0 1 2 -2a2 2 0 0 1 2 2a2 2 0 0 1 -2 2a2 2 0 0 1 -2 -2a2 2 0 0 1 2 -2a2 2 0 0 1 2 2a2 2 0 0 1 -2 2a2 2 0 0 0 -2 2a2 2 0 0 0 2 2a2 2 0 0 0 2 -2a2 2 0 0 0 -2 -2a2 2 0 0 0 -2 2a2 2 0 0 0 2 2a2 2 0 0 0 2 -2a2 2 0 0 0 -2 -2a2 2 0 0 0 -2 2a2 2 0 0 0 2 2a2 2 0 0 0 2 -2a2 2 0 0 0 -2 -2a2 2 0 1 1 -2 -2m20 2a2 2 0 0 1 -2 -2a2 2 0 0 1 -2 2a2 2 0 0 1 2 2a2 2 0 0 1 2 -2a2 2 0 0 1 -2 -2a2 2 0 0 1 -2 2a2 2 0 0 1 2 2a2 2 0 0 1 2 -2a2 2 0 0 1 2 2a2 2 0 0 1 -2 -2a2 2 0 0 0 2 -2a2 2 0 0 0 -2 -2a2 2 0 0 0 -2 2a2 2 0 0 0 2 2a2 2 0 0 0 2 -2a2 2 0 0 0 2 2a2 2 0 0 0 -2 -2a2 2 0 0 0 -2 2a2 2 0 0 0 2 2a2 2 0 0 0 -2 -2a2 2 0 0 1 2 -2a2 2 0 0 1 -2 -2m0 4a2 2 0 0 1 -2 -2a2 2 0 0 1 2 -2"/>
</svg>