<svg xmlns="http://www.w3.org/2000/svg" viewBox="0 0 24 24" class="icon icon-quantum-entanglement.svg icon-global-communication">
  <path d="M12 0C5.4 0 0 5.4 0 12C0 16.1 2.5 19.6 6 21.4C6.5 21.5 7 21.3 7.2 20.8C7.3 20.6 7.4 20.4 7.4 20.2C7.4 20 7.3 19.7 7.3 19.5C7 18.4 6.8 17.2 6.8 16C6.8 15.2 7 14.4 7.2 13.6C8.4 14.4 9.9 15 11.6 15C12 15 12.4 15 12.8 14.9C14 15.7 15.6 16.2 17.3 16C16.4 17.6 15 19 13.4 20C14.1 20.5 15 21 15.8 21.5C16.2 21.2 16.6 20.9 16.9 20.6C18.6 19.7 20 18.4 21 17C21 17 21 17 21 17C22.1 15.9 23 14.5 23 13C23 6.4 17.6 0 11 0C14.1 0 6.9 0 8.9 0C10.9 0 9.5 0 12 0Z" />
</svg>