<svg xmlns="http://www.w3.org/2000/svg" class="icon icon-blockchain icon-satellite" viewBox="0 0 24 24">
  <path d="M3.25 13.25C4.33 13.25 5.25 14.17 5.25 15.25C5.25 16.33 4.33 17.25 3.25 17.25C2.17 17.25 1.25 16.33 1.25 15.25C1.25 14.17 2.17 13.25 3.25 13.25ZM5.25 9.25C5.25 10.33 4.33 11.25 3.25 11.25C2.17 11.25 1.25 10.33 1.25 9.25C1.25 8.17 2.17 7.25 3.25 7.25C4.33 7.25 5.25 8.17 5.25 9.25ZM3.25 5.25C4.33 5.25 5.25 4.33 5.25 3.25C5.25 2.17 4.33 1.25 3.25 1.25C2.17 1.25 1.25 2.17 1.25 3.25C1.25 4.33 2.17 5.25 3.25 5.25ZM3.25 3.25H11.25V5.25H3.25V3.25ZM3.25 1.25H11.25V3.25H3.25V1.25ZM3.25 7.25V9.25H11.25V7.25H3.25ZM3.25 9.25V11.25H11.25V9.25H3.25ZM3.25 11.25V13.25H11.25V11.25H3.25ZM3.25 15.25V17.25H11.25V15.25H3.25ZM5.25 15.25H11.25V17.25H5.25V15.25ZM5.25 13.25H11.25V15.25H5.25V13.25Z"/>
  <path d="M13.25 9.25C14.33 9.25 15.25 10.17 15.25 11.25C15.25 12.33 14.33 13.25 13.25 13.25C12.17 13.25 11.25 12.33 11.25 11.25C11.25 10.17 12.17 9.25 13.25 9.25ZM13.25 7.25C14.33 7.25 15.25 8.17 15.25 9.25C15.25 10.33 14.33 11.25 13.25 11.25C12.17 11.25 11.25 10.33 11.25 9.25C11.25 8.17 12.17 7.25 13.25 7.25Z"/>
</svg>