<svg xmlns="http://www.w3.org/2000/svg" class="icon icon-cherry-blossom.svg icon-ship-wheel" viewBox="0 0 24 24">
    <!-- Cherry Blossom -->
    <path d="M13.8,9c-1.83,0.65-0.345,3.7-2.7,3.6c-1.214-0.051-1.482-1.69-2.3-2.6C10.2,7.65,8.663,7.35,7.7,8.4
    c-0.6,0.65-0.415,1.732-1.4,1c-0.269-0.2-0.269-0.7-0.7-0.7c-0.133,0-0.232,0.049-0.3,0.1C4.053,8.597,3.148,8.8,2,8.8
    c1.514-0.562,1.514-1.863,2-3C4.563,6.237,6.88,6.1,6.9,7.4c0.021,1.299,2.6,1.414,2.6,0.2c0-0.484,0.383-0.878,0.9-1
    c-1.514,0.562-2.943,1.537-2.9,2.7c0.021,0.579,0.144,1.136,0.4,1c0.484-0.261,1-0.784,1-1C8.9,7.6,9.687,7.4,10,8
    c0.313,0.6,1.116,0.4,1.1,1c-0.012,0.579-0.516,0.738-1,1c0.859,0.676,1.385,1.723,1.4,3c0.007,0.618-0.079,1.227-0.3,1.8
    c0.357-0.073,0.7-0.226,1-0.5c0.6-0.537,1.844-0.3,2.2,0.4c0.12,0.239,0.19,0.496,0.2,0.8c0.638-0.159,1.262-0.386,1.8-0.7
    c0.484-0.284,1.477-0.187,1.8,0.3c0.232,0.342,0.284,0.774,0.2,1.2c0.547-0.178,1.1-0.421,1.5-0.8c0.6-0.569,1.75-0.4,2.3,0
    c0.269,0.195,0.481,0.45,0.7,0.7c0.579-0.853,1.339-1.619,2.2-2.3c0.687-0.541,1.735-0.514,2.4,0c0.358,0.277,0.637,0.634,0.8,1
    c0.37-0.651,0.77-1.287,1.3-1.8c0.1-0.1,0.2-0.2,0.3-0.3c0-0.3-0.481-0.844-1-0.7c0.616-0.392,0.8-1.147,0.7-1.8
    c-0.075-0.478-0.316-0.904-0.7-1.2c0.215,0.344,0.336,0.725,0.3,1.1c-0.065,0.676-0.442,1.286-1,1.6c0.859-0.899,1.183-2.166,1-3.4
    c-0.133-0.896-0.6-1.696-1.3-2.3c0.193,0.386,0.309,0.798,0.3,1.2c-0.016,0.713-0.243,1.384-0.7,1.9c0.833-0.979,1.152-2.26,1-3.5
    c-0.089-0.729-0.374-1.406-0.8-2C22.547,4.913,22.788,5.8,23,6.7c0.212,0.898-0.232,1.769-1,2.3c0.414-0.783,0.658-1.647,0.7-2.6
    c0.02-0.454-0.059-0.908-0.2-1.3C22.575,5.252,22.788,5.652,23,6.1C23.052,6.468,23,6.842,23,7.2c0,0.228-0.04,0.454-0.1,0.7
    c-0.469-0.876-1.135-1.634-2-2.3C20.678,5.226,20.352,5.049,20,4.9C19.352,5.549,18.525,6,17.6,6c0.358,0.612,0.558,1.309,0.6,2
    c0.016,0.228-0.016,0.454-0.1,0.7c-0.42-0.945-1.043-1.796-2-2.5c-0.952-0.703-2.143-1.1-3.4-1.1c-0.269,0-0.537,0.021-0.8,0.1
    c0.784,0.671,1.332,1.558,1.5,2.6c0.078,0.484-0.046,0.971-0.3,1.4c-0.051-0.029-0.119-0.049-0.2-0.1c0.392-0.714,0.668-1.486,0.8-2.3
    c0.17-1.052-0.144-2.093-0.8-3c-0.1-0.139-0.2-0.269-0.3-0.4c-0.843,0.819-1.274,1.95-1.2,3.1c0.051,0.774,0.313,1.515,0.7,2.2
    C13.1,8.579,13.456,8.779,13.8,9z"/>

    <!-- Ship Wheel -->
    <path d="M12,2a10,10 0 1 0 10,10A10,10 0 0 0 12,2zm0,18a8,8 0 1 1 8-8A8,8 0 0 1 12,20zM10,12H6a1,1 0 0 1 0-2h4a1,1 0 0 1 0,2zm8,0h-4a1,1 0 0 1 0-2h4a1,1 0 0 1 0,2zm-8,2a1,1 0 0 1 1-1h2a1,1 0 0 1 1,1v4a1,1 0 0 1 -1,1h-2a1,1 0 0 1 -1,-1zm0,-8a1,1 0 0 1 1-1h2a1,1 0 0 1 1,1v4a1,1 0 0 1 -1,1h-2a1,1 0 0 1 -1,-1zM16.91,6.08a1,1 0 0 1 -1.41,-0.13l-2.83,2.82a1,1 0 1 1 -1.41,-1.41l2.82,-2.83a1,1 0 0 1 1.41,1.41zm-9.66,9.66a1,1 0 1 1 -1.41,-1.41l2.83,-2.82a1,1 0 0 1 1.41,1.41zM16.91,17.49a1,1 0 0 1 -1.41,-1.41l2.83,-2.82a1,1 0 0 1 1.41,1.41zM7.085,7.64a1,1 0 0 1 1.32,0.08l2.83,2.83a1,1 0 1 1 -1.4,1.4L7,9.12a1,1 0 0 1,.08,-1.48z"/>
</svg>