<svg xmlns="http://www.w3.org/2000/svg" class="icon icon-ocean-wave" viewBox="0 0 24 24">
<path d="M2 16.1c2.289-1.377 5.669-2.623 9-2.978v-2.946c-4.508 0.455-8 2.704-8 4.827 0 0.719 0.593 1.302 1.326 1.534 0.615-0.949 1.527-1.7 2.674-2.121zM22 16c0-2.121-3.582-4.326-8-4.873v-2.123c4.341 0.573 7 2.671 7 4.77 0 0.992-0.879 1.725-2 1.995 1.186-0.723 2-1.77 2-2.996 0-1.657-3.582-3.826-8-4.37v-2.11c4.396 0.593 7 2.671 7 4.649 0 1.186-0.917 2.154-2.139 2.651 1.476-0.664 2.139-1.778 2.139-2.704 0-1.558-3.582-3.662-8-4.167v-2.8c4.486 0.573 8 2.672 8 4.594 0 1.39-1.013 2.6-2.487 3.278 1.65-0.834 2.487-2.101 2.487-3.555 0-1.933-3.626-3.94-8.089-4.45l0.089-0.001zm-11-13.876v2.945c5.569 0.479 10 2.781 10 5.083 0 0.446-0.318 0.859-0.795 1.159 0.59-0.455 0.795-1.037 0.795-1.659 0-2.138-4.649-4.35-10-4.854zm-1 2.931v2.946c4.331 0.354 7.711 1.6 10 2.978-0.733-0.232-1.326-0.815-1.326-1.534 0-2.123-3.492-4.372-8-4.827zm-1-2.931c5.351 0.51 9 2.516 9 4.447 0 0.926-0.663 2.04-2.141 2.705 1.224-0.497 2.141-1.465 2.141-2.651 0-1.978-2.604-4.056-9-4.649z"/>
</svg>