<svg xmlns="http://www.w3.org/2000/svg" class="icon icon-augmented-reality.svg* icon-satellite" viewBox="0 0 24 24">
  <path d="M12 22c1.1 0 2-.9 2-2h-4c0 1.1.9 2 2 2zm9-20.4l-1 1.7c-1.1-.4-2.3-.7-3.5-.9l.5-2.3c1.6.2 3.1.6 4 .9zm-15.6 1.7l-1-1.7c1-.3 2.4-.7 4-.9l.5 2.3c-1.2.2-2.4.5-3.5.9zm.6 2.4l-2.1-.5 1.4 1.2c-.3.6-.5 1.2-.6 1.9l-2 .2c.1 1 .4 1.9.7 2.8l1.8-.8c.3.7.7 1.3 1.1 1.9l-1.6 1.1 1.5 1.3 1.2-1.7c.6.4 1.3.8 2 1.1l-.2 2 1.9-.7c.9.5 1.9.9 2.9 1.2l.4 2.1h2l.4-2.1c1-.3 1.9-.7 2.9-1.2l1.9.7-.2-2c.7-.3 1.4-.7 2-1.1l1.2 1.7 1.5-1.3-1.6-1.1c.4-.6.8-1.2 1.1-1.9l1.8.8c.3-.9.6-1.8.7-2.8l-2-.2c-.1-.7-.3-1.3-.6-1.9l1.4-1.2-2.1.5c-1.1-.6-2.3-1.1-3.6-1.4l.5-2.3c-1.2-.2-2.5-.3-3.8-.3s-2.6.1-3.8.3l.5 2.3c-1.3.3-2.5.8-3.6 1.4zm7.6 3.9c1.7 0 3 1.3 3 3s-1.3 3-3 3-3-1.3-3-3 1.3-3 3-3z"/>
</svg>