<svg xmlns="http://www.w3.org/2000/svg" class="icon icon-entropy.svg icon-flamingo">
    <!-- The shape of a flamingo -->
    <path d="M20.84,7.64c2.42,2.35,4.18,5.15,4.26,8.51a1.67,1.67,0,1,1-3.33,0,5.68,5.68,0,0,0-1.93-4.19A7,7,0,0,0,13.48,9.3a1.66,1.66,0,0,1-.9-2.05,7.35,7.35,0,0,0,.9-4.72,1.66,1.66,0,1,1,3.31-.35,4,4,0,0,1-.66,2.61c1.34-.08,2.68,.34,3.81,1.15Z" fill="#ff4081"/>
    <path d="M15,19.42a1.67,1.67,0,0,0-1.66,1.67v8.07a2.5,2.5,0,0,0,5,0V21.09a1.66,1.66,0,0,0-1.67-1.67Z" fill="#ff4081"/>
</svg>