<svg xmlns="http://www.w3.org/2000/svg" viewBox="0 0 24 24" class="icon icon-beaker">
  <path d="M6,2 L6,22 C6,22.5522847 5.55228475,23 5,23 L3,23 C2.44771525,23 2,22.5522847 2,22 L2,2 L6,2 Z M22,2 L22,22 C22,22.5522847 21.5522847,23 21,23 L19,23 C18.4477153,23 18,22.5522847 18,22 L18,2 L22,2 Z M16,2 L16,22 C16,22.5522847 15.5522847,23 15,23 L13,23 C12.4477153,23 12,22.5522847 12,22 L12,2 L16,2 Z M10,2 L10,22 C10,22.5522847 9.55228475,23 9,23 L7,23 C6.44771525,23 6,22.5522847 6,22 L6,2 L10,2 Z M4,2 L20,2 L20,0 L4,0 L4,2 Z"/>
</svg>