<svg xmlns="http://www.w3.org/2000/svg" class="icon icon-chupacabra" viewBox="0 0 24 24">
<path d="M12 2C6.48 2 2 6.48 2 12s4.48 10 10 10 10-4.48 10-10S17.52 2 12 2zM9 11c0-1.66 1.34-3 3-3s3 1.34 3 3-1.34 3-3 3-3-1.34-3-3zm9.12 6.47c-.76-.24-1.57-.47-2.42-.67.89-.16 2.17-.98 2.59-2.8.27-.06.53-.14.78-.24.63-2.14-.48-4.81-3.14-5.86C15.94 6.21 14.04 6 12 6s-3.94.21-5.88.59C2.5 7.77 3.63 10.44 4.27 12.59c.25.1.51.18.78.24.43 1.82 1.7 2.64 2.59 2.8-.85.2-1.66.43-2.42.67C3.5 17.54 4.92 20 7.38 20H16.62C19.08 20 20.5 17.54 18.12 17.47z"></path>
</svg>