<svg xmlns="http://www.w3.org/2000/svg" class="icon icon-solar-power" viewBox="0 0 24 24">
  <path d="M12 6a6 6 0 1 1-6 6 6 6 0 0 1 6-6m0-4a10 10 0 1 0 10 10A10 10 0 0 0 12 2z"/>
  <path d="M12 22h3a1 1 0 0 1 1 1 1 1 0 0 1-1 1h-3a1 1 0 0 1-1-1 1 1 0 0 1 1-1z"/>
  <path d="M4.67 5.84l2.14-2.14a1 1 0 0 1 1.41 0 1 1 0 0 1 0 1.41l-2.14 2.14a1 1 0 0 1-1.41 0 1 1 0 0 1 0-1.41z"/>
  <path d="M2 11h3a1 1 0 0 1 0 2H2a1 1 0 0 1 0-2z"/>
  <path d="M5.83 18.34l-2.14 2.14a1 1 0 0 1-1.41 0 1 1 0 0 1 0-1.41l2.14-2.14a1 1 0 0 1 1.41 0 1 1 0 0 1 0 1.41z"/>
  <path d="M11 21v-3a1 1 0 0 1 2 0v3a1 1 0 0 1-2 0z"/>
  <path d="M18.34 18.33l2.13 2.15a1 1 0 0 1 0 1.41 1 1 0 0 1-1.41 0l-2.13-2.15a1 1 0 0 1 0-1.41 1 1 0 0 1 1.41 0z"/>
  <path d="M19 13a1 1 0 0 1-1 1h-3a1 1 0 0 1 0-2h3a1 1 0 0 1 1 1z"/>
  <path d="M18.34 5.68l2.14-2.14a1 1 0 0 1 1.41 0 1 1 0 0 1 0 1.41l-2.14 2.14a1 1 0 0 1-1.41 0 1 1 0 0 1 0-1.41z"/>
</svg>