<svg xmlns="http://www.w3.org/2000/svg" viewBox="0 0 24 24" class="icon icon-quasar">
    <path d="M8.24 15.59l4.16-7.24 4.17 7.24H8.24zm4.16-11.66l4.16 7.24-4.17 7.22L4.07 4.93l4.16 7.24h4.16l-4.16 7.24 8.35-14.45-8.36-7.24 8.36 14.46h-4.17L12.4 3.93zm0 14.44l-4.17-7.22h8.35l-4.17 7.22zm0 0l4.16-7.22h-8.33l4.16 7.22zm4.16-7.22l-8.32 0 4.17-7.23 4.16 7.23zm-8.33 0h8.34L8.23 4.93l4.17 7.23zm0 0L12.4 4.93 0 18.38l12.4-6.22zm0 0L0 18.37l12.4-6.21 0 6.21zm0-6.2L12.4 3.93l.01 11.89-12.4 6.2zm0 0L0 15.12l12.41-6.21.01 6.21zm.01 0h.01l-12.41-6.21 12.4 6.21zm0-6.2L12.4 3.93l.01 11.89L.02 8.81zm0 0h.01l-12.4-4.88v.01l12.39 4.87zm.01-4.89l12.38 4.88L.03 3.93zm12.38 4.89L12.4 3.93l.01 4.88zm-12.37 0L12.4 3.93l.01 4.88z"/>
</svg>