<svg xmlns="http://www.w3.org/2000/svg" viewBox="0 0 24 24" class="icon icon-hybrid-vehicle">
  <path d="M3 16c-1.66 0-3 1.34-3 3s1.34 3 3 3 3-1.34 3-3-1.34-3-3-3zm18.66-2.94l-2.13-2.13c-.17-.17-.45-.17-.64 0L18 11V7c0-1.1-.9-2-2-2h-2V3c0-.55-.45-1-1-1s-1 .45-1 1v2H9c-1.1 0-2 .9-2 2v4l-1.93 1.93c-.17 .17-.17 .45 0 .64l2.76 3.3c.33 .39 .96 .59 1.55 .59h1v3c0 .45 .35 1 1 1s1-.55 1-1v-3h2v3c0 .45 .35 1 1 1s1-.55 1-1v-3h1c.59 0 1.22-.2 1.55-.59l2.76-3.3c.16-.19 .16-.47-.01-.65zM14 14H8v-5h6v5zm-4.5-7c.83 0 1.5 .67 1.5 1.5S10.33 10 9.5 10 8 9.33 8 8.5 8.67 7 9.5 7zM3 21c-.55 0-1-.45-1-1s.45-1 1-1 1 .45 1 1-.45 1-1 1zm16-2h-1.83l-1.55-1.84c-.09-.11-.26-.16-.42-.16s-.33 .05-.42 .16L12 19H10.83c-.41-1.17-1.52-2-2.83-2s-2.42 .83-2.83 2H3v-2h1.17c.41 1.17 1.52 2 2.83 2s2.42-.83 2.83-2h2.34c.41 1.17 1.52 2 2.83 2s2.42-.83 2.83-2H19v2z"/>
</svg>