<svg xmlns="http://www.w3.org/2000/svg" viewBox="0 0 24 24" class="icon icon-radiation">
  <path d="M0 0h24v24H0z" fill="none"/>
  <path d="M4.906 4.906l2.517 4.708c.66 1.235 1.674 2.23 2.856 2.764L3.5 12l-1 1.618 6.829.803c-1.5.973-2.64 2.454-3.18 4.132l-4.527-2.623L2.5 22l1.406-1.405c2.317.762 4.895.762 7.212 0L12 22l.882-1.382 4.484 2.598c-.542-1.678-1.688-3.152-3.186-4.126l6.701-.787L20.5 12l1-1.382-4.773-.88a6.5 6.5 0 002.527-2.764l2.517-4.708L18.592.408l-3.408 2.64c-1.82-.67-3.872-.67-5.691 0L5.408.408 4.906 4.906zM2 12l2.517-.01.933 1.629L2 12zm18.55 0L21 12l-3.45.618.933-1.629L20.549 12zM11 2.05V5.07c-1.352.07-2.69.343-3.974 1.01l2.307-3.583L11 2.049zm2 0l1.666 4.03-2.307 3.583c1.282-.67 2.621-.942 3.973-1.012L13 2.049zm-2 9.72V12h-2v-.23h2zm2 0V12h-2v-.23h2zm-2 2.46v.23h-2v-.23h2zm2 0v.23h-2v-.23h2z"/>
</svg>