<svg xmlns="http://www.w3.org/2000/svg" viewBox="0 0 24 24" class="icon icon-broccoli">
    <path d="M12 2C6.48 2 2 6.48 2 12s4.48 10 10 10 10-4.48 10-10S17.52 2 12 2zm0 18c-4.41 0-8-3.59-8-8s3.59-8 8-8 8 3.59 8 8-3.59 8-8 8z"/>
    <path d="M16.5 13c-1.31 0-2.37 1.01-2.48 2.3c-.83-.43-1.77-.7-2.76-.82c.28-.89 1-1.61 1.96-1.98c.43-1.12 1.65-1.89 3-1.89c1.66 0 3 1.34 3 3c0 1.31-1.01 2.37-2.3 2.48c-.43.83-.7 1.77-.82 2.76c-.89-.28-1.61-1-1.98-1.96C13.01 14.63 12.34 16.4 11 16.4c-1.66 0-3-1.34-3-3c0-1.31 1.01-2.37 2.3-2.48c.43-.83.7-1.77.82-2.76C8.64 10.72 7.96 12.05 7 12.05c-1.66 0-3-1.34-3-3c0-1.31 1.01-2.37 2.3-2.48c.43-.83.7-1.77.82-2.76C6.39 5.96 7.07 7.29 8 7.29c1.66 0 3-1.34 3-3s-1.34-3-3-3S5 1.34 5 3c0 1.31-1.01 2.37-2.3 2.48c-.83.43-1.77.7-2.76.82c.28.89 1 1.61 1.96 1.98C3.37 9.01 2.4 10 2 11.3C2.83 11.57 3.5 12 4 12.5C3.5 13 2.83 13.43 2 13.7C2.4 15 3.37 16 5 16c1.66 0 3-1.34 3-3s-1.34-3-3-3S3 11.34 3 13c0 1.31-1.01 2.37-2.3 2.48c-.83.43-1.77.7-2.76.82c1.18 1.17 2.8 1.92 4.58 1.98C5.59 18 8 20.41 8 23c1.66 0 3-1.34 3-3s-1.34-3-3-3s-3 1.34-3 3c0 1.66 1.34 3 3 3c0-1.66 1.34-3 3-3s3 1.34 3 3c0-1.66 1.34-3 3-3s3 1.34 3 3c0-1.66 1.34-3 3-3s3 1.34 3 3c0-2.21-1.79-4-4-4c-.83-.43-1.5-.9-2-1.4c.5-.5 1.17-.9 2-1.3c1.63-.39 2.76-1.82 2.97-3.48c-.83-.43-1.77-.7-2.76-.82C15.01 14.63 14.34 16.4 13 16.4c-1.66 0-3-1.34-3-3s1.34-3 3-3s3 1.34 3 3c0-1.66 1.34-3 3-3s3 1.34 3 3c0-1.31-1.01-2.37-2.3-2.48c-.43-.83-.7-1.77-.82-2.76C19.36 10.72 20.04 12.05 21 12.05c1.66 0 3-1.34 3-3s-1.34-3-3-3s-3 1.34-3 3c0-1.31-1.01-2.37-2.3-2.48c-.83-.43-1.77-.7-2.76-.82c.28-.89 1-1.61 1.96-1.98C17.63 5.37 18.6 4.4 20 4c-.83-.43-1.5-.9-2-1.4c.5-.5 1.17-.9 2-1.3c1.63-.39 2.76-1.82 2.97-3.48z"/>
</svg>