<svg xmlns="http://www.w3.org/2000/svg" class="icon icon-tyrannosaurus-rex" viewBox="0 0 24 24">
    <path d="M13.242 2.184A2.97 2.97 0 0011 2h-2c-1.507 0-2.714.829-3.243 2A4.978 4.978 0 004 9v3l2-2 2 2v-6h1c.27 0 .52-.114.707-.293L13.414 7H21v8h-7s-1 2-2 2h-2l-1 1h3l1 1h5v2H8s-2-1-2-2V9a2.99 2.99 0 011-2.184A3.103 3.103 0 019 9v.999L7 11V9a4.978 4.978 0 01.757-2.816A2.97 2.97 0 009 6h2a4.978 4.978 0 011.414 2.816A2.99 2.99 0 0013 9v.999l-2 1.001V9s1-3 2-3 2 3 2 3l2-1.999V6h-5.586L13.242 2.184z"></path>
</svg>