<svg xmlns="http://www.w3.org/2000/svg" class="icon icon-dandelion-seed" viewBox="0 0 24 24">
    <path d="M12 2C6.48 2 2 6.48 2 12s4.48 10 10 10 10-4.48 10-10S17.52 2 12 2zm0 18c-4.41 0-8-3.59-8-8s3.59-8 8-8 8 3.59 8 8-3.59 8-8 8z"></path>
    <path d="M6.95 6.95c1.89-.62 4-.42 5.68.88.1.08.21.15.31.23l2.42-2.42a.996.996 0 10-1.41-1.41l-2.42 2.42c-.08-.1-.15-.21-.23-.31a7.962 7.962 0 00-.88-5.68c2.05-.5 4.24-.28 5.99.99a7.982 7.982 0 00-.99 5.99c-.71-1.75-2.34-3.07-4.33-3.07-2 0-3.63 1.27-4.33 3.07zm-2.23-.88c1.75-.71 3.94-.5 5.99.99a7.962 7.962 0 00-.88 5.68c-.08-.1-.15-.21-.23-.31L4.41 8.59a.996.996 0 10-1.41 1.41l2.42 2.42c-.1-.08-.21-.15-.31-.23-.62-1.89-.42-4 .88-5.68z"></path>
</svg>