<svg xmlns="http://www.w3.org/2000/svg" class="icon icon-welding-mask icon-meteor-shower" viewBox="0 0 24 24">
  <path d="M12,0C5.372,0,0,5.373,0,12s5.372,12,12,12s12-5.373,12-12S18.628,0,12,0z M12,22C6.486,22,2,17.514,2,12
    S6.486,2,12,2s10,4.486,10,10S17.514,22,12,22z"/>
  <path d="M9.9,8.1C9.7,8.4,9.3,8.5,9,8.4C8.7,8.3,8.5,8,8.6,7.7c0,0,2.6-4,7.4-4c0.4,0,0.7,0.3,0.7,0.7S16.3,5,15.9,5
    C13.4,5,11,6.9,9.9,8.1z"/>
  <path d="M6,17h2v1H6V17z"/>
  <path d="M9,17h2v1H9V17z"/>
  <path d="M12,17h2v1h-2V17z"/>
  <path d="M15,17h2v1h-2V17z"/>
  <path d="M18,17h2v1h-2V17z"/>
</svg>