<svg xmlns="http://www.w3.org/2000/svg" class="icon icon-globe-world" viewBox="0 0 24 24">
    <path d="M12 2C6.48 2 2 6.48 2 12s4.48 10 10 10 10-4.48 10-10S17.52 2 12 2zm0 18c-4.41 0-8-3.59-8-8 0-1.53.46-2.94 1.24-4.14.1.23.26.45.45.65l1.11 1.11c.2.2.51.2.71 0 .2-.2.2-.51 0-.71L5.51 9.81A5.902 5.902 0 016 12c0 3.31 2.69 6 6 6s6-2.69 6-6c0-1.64-.64-3.13-1.65-4.17-.34.26-.71.47-1.11.65-.2.09-.34.26-.45.45-.2.2-.2.51 0 .71 .2.2.51.2.71 0l1.11-1.11c.2-.2.2-.51 0-.71-.09-.2-.26-.34-.45-.45-.46-.29-.96-.53-1.5-.71C17.06 6.12 18 8.89 18 12c0 4.41-3.59 8-8 8-1.89 0-3.63-.73-4.95-1.91.32.05.65.09.99.14l2.33-2.33c-.59-.35-1.27-.57-2-.57-1.1 0-2 .9-2 2s.9 2 2 2c.59 0 1.12-.26 1.48-.65l-2.22-2.22c-.08.33-.13.67-.16 1.01C5.34 16.64 7.58 20 10.6 20c.86 0 1.68-.15 2.43-.37l-1.5-1.5c-.59-.59-.59-1.54 0-2.12.59-.59 1.54-.59 2.12 0l3.54 3.54c-1.3.58-2.73.95-4.26.95-2.79 0-5.28-1.14-7.07-2.92C5.12 19.86 8.51 22 12 22c4.41 0 8-3.59 8-8 0-1.33-.26-2.61-.74-3.77-.59.13-1.2.23-1.82.31.1.42.16.86.16 1.31 0 1.66-1.34 3-3 3s-3-1.34-3-3 1.34-3 3-3c.33 0 .65.05.96.14A8.038 8.038 0 0012 4c0 .34-.04.67-.1 1-.46-.31-.96-.57-1.46-.78C10.94 4.08 11.47 4 12 4c1.1 0 2 .9 2 2s-.9 2-2 2c-.59 0-1.12-.26-1.48-.65l2.22-2.22c.08-.33.13-.67.16-1.01.59.13 1.2.23 1.82.31-.1-.42-.16-.86-.16-1.31 0-1.66 1.34-3 3-3s3 1.34 3 3-1.34 3-3 3c-.33 0-.65-.05-.96-.14-.1.23-.26.45-.45.65l-1.11 1.11c-.2.2-.51.2-.71 0-.2-.2-.2-.51 0-.71l1.11-1.11c.2-.2.51-.2.71 0 .09.2.26.34.45.45.32.2.67.33 1.04.44-.39.93-1.05 1.74-1.89 2.33l-1.78-1.78c-.2-.2-.51-.2-.71 0-.2.2-.2.51 0 .71l1.78 1.78c-.59.35-1.27.57-2 .57-1.1 0-2-.9-2-2s.9-2 2-2c.59 0 1.12-.26 1.48-.65l-2.22-2.22c-.08.33-.13.67-.16 1.01.59-.13 1.2-.23 1.82-.31-.1-.42-.16-.86-.16-1.31 0-1.66 1.34-3 3-3s3 1.34 3 3-1.34 3-3 3c-.33 0-.65-.05-.96-.14C16.86 7.42 16 5.3 16 3c-.86 0-1.68.15-2.43.37l1.5 1.5c
.59.59.59 1.54 0 2.12-.59.59-1.54.59-2.12 0L7.41 3.77C8.71 3.19 10.14 3 11.67 3c2.79 0 5.28 1.14 7.07 2.92-.8.74-1.42 1.63-1.83 2.64A7.96 7.96 0 0012 6c-.34 0-.67.04-1 .1.46.31.96.57 1.46.78-.52.07-1.06.15-1.57.24l1.5-1.5c.59-.59 1.54-.59 2.12 0 .59.59.59 1.54 0 2.12l-1.5 1.5c.39.93 1.05 1.74 1.89 2.33l1.78-1.78c.2-.2.51-.2.71 0 .2.2.2.51 0 .71l-1.78 1.78c.59.35 1.27.57 2 .57 1.1 0 2-.9 2-2s-.9-2-2-2c-.59 0-1.12.26-1.48.65l2.22 2.22c.08-.33.13-.67.16-1.01-.59.13-1.2.23-1.82.31.1.42.16.86.16 1.31 0 1.66-1.34 3-3 3s-3-1.34-3-3c0-.33.05-.65.14-.96-.23-.1-.45-.26-.65-.45l-1.11-1.11c-.2-.2-.51-.2-.71 0-.2.2-.2.51 0 .71l1.11 1.11c.2.2.51.2.71 0 .2-.09.34-.26.45-.45.29-.46.53-.96.71-1.5C19.88 14.94 20 16.47 20 18c0 4.41-3.59 8-8 8-1.89 0-3.63-.73-4.95-1.91.32.05.65.09.99.14l2.33-2.33c-.29-.2-.58-.43-.84-.71l-2.27 2.27c.32.05.65.09.99.14A11.992 11.992 0 0012 24c6.63 0 12-5.37 12-12S18.63 0 12 0C7.58 0 3.76 2.51 2.06 6.06c2.92-1.64 6.52-2.06 10.35-1.22z"/>
</svg>