<svg xmlns="http://www.w3.org/2000/svg" class="icon icon-clock-alarm" viewBox="0 0 24 24">
    <path d="M12 2C6.48 2 2 6.48 2 12s4.48 10 10 10 10-4.48 10-10S17.52 2 12 2zm1 14h-2v-2h2v2zm0-4h-2V7h2v5z"/>
    <path d="M3.7 7.7a.996.996 0 0 0 0 1.41l1.37 1.37-1.37 1.37a.996.996 0 1 0 1.41 1.41l1.37-1.37 1.37 1.37a.996.996 0 1 0 1.41-1.41L7.48 10.48l1.37-1.37a.996.996 0 1 0-1.41-1.41L6.1 9.1 4.72 7.72a.996.996 0 0 0-1.41 0z"/>
    <path d="M20.29 7.71a.996.996 0 0 0 0 1.41l-1.37 1.37 1.37 1.37a.996.996 0 1 0-1.41 1.41l-1.37-1.37-1.37 1.37a.996.996 0 1 0-1.41-1.41l1.37-1.37-1.37-1.37a.996.996 0 0 0 0-1.41.996.996 0 0 0 0-1.41.996.996 0 0 0 1.41 0l1.37 1.36 1.37-1.36c.4-.4 1.04-.4 1.42 0z"/>
</svg>