<svg version="1.1" id="Layer_1" xmlns="http://www.w3.org/2000/svg" xmlns:xlink="http://www.w3.org/1999/xlink" x="0px" y="0px" viewBox="0 0 512 512" style="enable-background:new 0 0 512 512;" xml:space="preserve" class="icon icon-social-networking">
  <path d="M256,0C114.6,0,0,114.6,0,256c0,141.4,114.6,256,256,256s256-114.6,256-256C512,114.6,397.4,0,256,0z M178.8,330.6
    C134,313.2,105,269,105,218c0-66.3,53.8-120,120-120s120,53.7,120,120c0,51-29,95.2-73.8,112.6C312,345,400,437,400,437S224,345,178.8,330.6z"/>
</svg>