<svg xmlns="http://www.w3.org/2000/svg" class="icon icon-spacestation" viewBox="0 0 24 24">
  <path d="M12 2C6.48 2 2 6.48 2 12s4.48 10 10 10 10-4.48 10-10S17.52 2 12 2zm0 18c-4.41 0-8-3.59-8-8s3.59-8 8-8 8 3.59 8 8-3.59 8-8 8zm-.59-14.41c-.78-.78-2.05-.78-2.83 0-.78.78-.78 2.05 0 2.83.78.78 2.05.78 2.83 0 .78-.78.78-2.04 0-2.83zM7.76 7.76c-.78-.78-2.05-.78-2.83 0-.78.78-.78 2.05 0 2.83.78.78 2.05.78 2.83 0 .78-.78.78-2.04 0-2.83zm6.48 6.48c-.78-.78-2.05-.78-2.83 0-.78.78-.78 2.05 0 2.83.78.78 2.05.78 2.83 0 .78-.78.78-2.04 0-2.83zm6.48-6.48c-.78-.78-2.05-.78-2.83 0-.78.78-.78 2.05 0 2.83.78.78 2.05.78 2.83 0 .78-.78.78-2.04 0-2.83z"/>
</svg>