<svg xmlns="http://www.w3.org/2000/svg" class="icon icon-robot.svg icon-globe-analytics" viewBox="0 0 24 24">
    <path d="M0 0h24v24H0z" fill="none"/>
    <path d="M12 2a10 10 0 0 1 10 10 10.001 10.001 0 0 1-10 10A10 10 0 0 1 2 12A10 10 0 0 1 12 2zm0 2a8 8 0 0 0-6 14.32A9.0009.0009 0 0 1 12 22a9.0009 9.0009 0 0 1 6-5.68A8 8 0 0 0 12 4zm0 3a2 2 0 0 1 1 1.732V12a2 2 0 0 1-1 1.732A2 2 0 0 1 11 12V8.732A2 2 0 0 1 12 7zm0 8a3.5 3.5 0 0 1 1.473.352l2.532 4.387A4.992 4.992 0 0 1 12 20a4.992 4.992 0 0 1-4.005-1.261l2.532-4.387A3.5 3.5 0 0 1 12 15z"/>
</svg>
