<svg xmlns="http://www.w3.org/2000/svg" viewBox="0 0 24 24" class="icon icon-foam-hand">
  <path d="M12 2C8.69288 2 6 4.69288 6 8V16C6 17.6569 9.36 19 12 19C14.64 19 18 17.6569 18 16V8C18 4.69288 15.3071    2 12 2ZM10 7C10.5523 7 11 7.44772 11 8C11 8.55228 10.5523 9 10 9C9.44772 9 9 8.55228 9 8C9 7.44772 9.44772 7 10   7ZM14 7C14.5523 7 15 7.44772 15 8C15 8.55228 14.5523 9 14 9C13.4477 9 13 8.55228 13 8C13 7.44772 13.4477 7 14 7ZM12 11C11.4477 11 11 11.4477 11 12V13C11 13.5523 11.4477 14 12 14C12.5523 14 13 13.5523 13 13V12C13 11.4477 12.5523 11 12 11Z" />
</svg>