<svg xmlns="http://www.w3.org/2000/svg" class="icon icon-alien-ship" viewBox="0 0 24 24">
    <path d="M12 2C6.48 2 2 6.48 2 12s4.48 10 10 10 10-4.48 10-10S17.52 2 12 2zm0 18c-4.41 0-8-3.59-8-8s3.59-8 8-8 8 3.59 8 8-3.59 8-8 8zm1-13h-2v2h2V7zm2.31 7.45l-1.08-1.02c-.39-.36-.92-.58-1.48-.58H11v-2H9v2H7v2h2v2h2v-2h1.75c.13 0 .26-.02.38-.07l1.62-1.4-.44-.93zm-.18-3.72l1.53-.63-1-1.73-1.72 1-1-1.73-1.72 1-1-1.73-1.73 1-1.72-1-1.73 1-1.73-1-1.73 1 1 1.73-1.72 1-1.72-1-1.73 1 1 1.73-1.72 1-1.73-1-1.72 1 1 1.73-1.73 1 1 1.73-1.72 1-1.73-1-1.72 1 1 1.73L7.6 10.73l1-1.73 1.72 1 1-1.73 1.72 1 1-1.73 1.73 1 1.72-1 1.73 1 1.72-1 1.73 1 1 1.73-1.73-.64z"/>
</svg>