<svg xmlns="http://www.w3.org/2000/svg" class="icon icon-surf-wave" viewBox="0 0 24 24">
  <path d="M2.01 16c.01-.27.05-.53.1-.79C4.1 12.38 8.14 10 12.5 10c2.26 0 4.34.77 5.98 2.02C21.24 9.61 22 7.95 22 6a4 4 0 00-8 0c0 1 .4 1.91 1.03 2.57-.58-.58-1.37-1.07-2.24-1.41A4.98 4.98 0 0012.5 6a5 5 0 00-5 5c0 .73.2 1.4.55 2-.66-.25-1.33-.41-2.04-.41C4.33 12 2 14.23 2 17c0 .34.03.67.09 1H2a4 4 0 010-8c0-.34.03-.67.01-1zM2 20a2 2 0 100-4 2 2 0 000 4zm18.5-2a3.5 3.5 0 11-7 0 3.5 3.5 0 017 0zm-7.5-9a3.5 3.5 0 117 0 3.5 3.5 0 01-7 0z"/>
</svg>