<svg xmlns="http://www.w3.org/2000/svg" viewBox="0 0 24 24" class="icon icon-alien-creature">
    <path fill="none" d="M0 0h24v24H0z"></path>
    <path d="M12 2a8 8 0 0 0-6.328 13.527A4.499 4.499 0 1 0 1.5 20H23a4.499 4.499 0 0 0-5.335-5.545A10.211 10.211 0 0 0 12 15a10.211 10.211 0 0 0-2.25-.284A7.978 7.978 0 0 0 12 2zm5 10a2 2 0 1 1-4 0h4zm-9.646.94l.895-.523a1.5 1.5 0 0 0-1.789 0l.894.523zm2.302-.793l2 1.2 2-1.2V9.371A7.975 7.975 0 0 0 12 9a7.975 7.975 0 0 0-1.344-.068v1.016zM11 12H7a2 2 0 1 1 4 0z"></path>
</svg>