<svg version="1.1" id="icon-xylophone" class="icon icon-xylophone" xmlns="http://www.w3.org/2000/svg" xmlns:xlink="http://www.w3.org/1999/xlink" x="0px" y="0px" viewBox="0 0 32 32" enable-background="new 0 0 32 32" xml:space="preserve">
    
   <g>
      <path d="M13.2,6.4c0,0,2.4-2.4,5.6-2.4s7.2,3.2,7.2,3.2C20.8,4.8,14.4,2.4,13.2,6.4z"/>
      <path d="M22.4,11.2c0,0-1.6,2.4-4.8,2.4s-6.4-1.6-6.4-1.6C18.4,10.4,23.2,11.2,22.4,11.2z"/>
      <path d="M18,16c0,0-1.6-1.6-4-1.6s-5.6,2.4-5.6,2.4C12,15.2,18.8,16.8,18,16z"/>
      <path d="M15.2,19.2c0,0-4,0.8-4.8,0S7.2,19.2,7.2,19.2C11.6,20,15.2,19.2,15.2,19.2z"/>
      <path d="M24.8,9.6c0,0-4.8-1.6-8,0C18.4,8,24.8,9.6,24.8,9.6z"/>
      <path d="M20.8,14.4c0,0-4.8-0.8-8.8,0C14.4,13.6,20.8,14.4,20.8,14.4z"/>
      <path d="M18.4,18.4c0,0-6.4,0-8.8,0C12,17.6,18.4,18.4,18.4,18.4z"/>
      <rect x="10.4" y="21.6" width="1.6" height="8"/>
   </g>

</svg>