<svg xmlns="http://www.w3.org/2000/svg" class="icon icon-postal-pigeon.svg* icon-astrology" viewBox="0 0 24 24">
    <path d="M12 0C5.37 0 0 5.37 0 12s5.37 12 12 12 12-5.37 12-12S18.63 0 12 0zm0 22C6.48 22 2 17.52 2 12S6.48 2 12 2s10 4.48 10 10-4.48 10-10 10z"/>
    <path d="M12.5 7h-1v6l5.25 3.15.75-1.23-4.5-2.67V7z"/>
    <path d="M19.07 4.93c-3.9-3.9-10.24-3.9-14.14 0-3.9 3.9-3.9 10.24 0 14.14 3.9 3.9 10.24 3.9 14.14 0 3.91-3.9 3.91-10.24 0-14.14zm-1.41 12.72L12 15.41l-5.66 5.66-1.41-1.41 5.66-5.66-5.66-5.66 1.41-1.41 5.66 5.66 5.66-5.66 1.41 1.41-5.66 5.66 5.66 5.66-1.41 1.42z"/>
</svg>