<svg xmlns="http://www.w3.org/2000/svg" viewBox="0 0 24 24" class="icon icon-rapier">
<path d="M12.828,6.172A5.006,5.006,0,0,1,22,12.343,4.947,4.947,0,0,1,17.657,17H6.343A4.947,4.947,0,0,1,2,12.343,5.006,5.006,0,0,1,11.172,6.172ZM7,16H17a3.04,3.04,0,0,0,2.121-.879,3.04,3.04,0,0,0,.879-2.121,3.007,3.007,0,0,0-5.151-2.121L12,12.1l-.849-.848A3.007,3.007,0,0,0,6,12.343,3.04,3.04,0,0,0,6.879,14.464,3.04,3.04,0,0,0,7,16Z"></path>
<path d="M22,4a2.006,2.006,0,0,0-2-2H4A2.006,2.006,0,0,0,2,4V20a2.006,2.006,0,0,0,2,2H20a2.006,2.006,0,0,0,2-2Zm-2,0H4V20H20Z"></path>
</svg>