<svg xmlns="http://www.w3.org/2000/svg" class="icon icon-robotics.svg icon-meteor" viewBox="0 0 24 24">
  <path d="M21.5,1a10.5,10.5,0,0,1,1,5.4l-1,.6A8.9,8.9,0,0,1,16.3,3.7l.6-1A10.5,10.5,0,0,1,21.5,1Z"/>
  <path d="M24,5.8l-2.1,3.6,1.4,2.4A11.8,11.8,0,0,1,24,5.8Z"/>
  <path d="M18.4,15l2.4,1.4-3.6,2.1A11.8,11.8,0,0,1,18.4,15Z"/>
  <path d="M14.2,10.6L12.8,12,11,10.2l1.4-1.4a1,1,0,0,1,1.4,0A1,1,0,0,1,14.2,10.6Z"/>
  <path d="M11.7,14.2l1.4-1.4a1,1,0,0,1,1.4,0,1,1,0,0,1,0,1.4L13.1,15.6A1,1,0,0,1,11.7,14.2Z"/>
  <circle cx="15.5" cy="8.5" r="1.5"/>
  <circle cx="8.5" cy="15.5" r="1.5"/>
</svg>