<svg xmlns="http://www.w3.org/2000/svg" class="icon icon-virtual-reality.svg icon-digital-watch" viewBox="0 0 24 24">
    <path d="M0 0h24v24H0z" fill="none"/>
    <path d="M4 18c1.304 0 2.402-.839 2.833-2H17.18c.39 1.161 1.499 2 2.82 2 1.657 0 3-1.343 3-3v-3h-2v3c0 .552-.448 1-1 1s-1-.448-1-1V7c0-.552-.448-1-1-1s-1 .448-1 1v3h-2V7c0-.552-.448-1-1-1s-1 .448-1 1v3h-2V7c0-.552-.448-1-1-1s-1 .448-1 1v3h-2V7c0-.552-.448-1-1-1s-1 .448-1 1v3h-2v3c0 1.657 1.343 3 3 3zm-1-5a1 1 0 100-2 1 1 0 000 2zm8-2h2v3h-2v-3zm8-1a1 1 0 100-2 1 1 0 000 2z"/>
</svg>
