<svg xmlns="http://www.w3.org/2000/svg" class="icon icon-biometric-fingerprint" viewBox="0 0 24 24">
  <path d="M12 1C5.9 1 1 5.9 1 12C1 14.5 2 16.7 4 18.2V22H20V18.2C22 16.7 23 14.5 23 12C23 5.9 18.1 1 12 1ZM12 3C17.5 3 22 7.6 22 13.2C22 14.8 21.2 16.3 20 17.3V20H4V17.3C2.8 16.3 2 14.8 2 13.2C2 7.6 6.5 3 12 3ZM12 5C8.1 5 5.2 7.3 4.3 10.5C6 10.9 7.9 12 9.7 13.6C10.6 14.4 11.3 15.5 11.8 17H12.2C12.7 15.5 13.4 14.4 14.3 13.6C16.1 12 18 10.9 19.7 10.5C18.8 7.3 15.9 5 12 5ZM12 7C14.3 7 16.4 8 17.9 10C16.1 10.4 14.8 11.6 13.9 13.2C13.5 14 13.3 15 13.2 16H10.8C10.7 15 10.5 14 10.1 13.2C9.2 11.6 7.9 10.4 6.1 10C7.6 8 9.7 7 12 7ZM12 9C13.5 9 15 9.8 16 11.3C15.7 11.7 15.3 12 14.9 12.4C14 13.3 13.4 14.6 13.2 16H10.8C10.6 14.6 10 13.3 9.1 12.4C8.7 12 8.3 11.7 8 11.3C9 9.9 10.5 9 12 9Z"/>
</svg>