<svg xmlns="http://www.w3.org/2000/svg" class="icon icon-robotics.svg icon-avocado" viewBox="0 0 24 24">
    <path d="M0 0h24v24H0z" fill="none"/>
    <path d="M5.33 10.537a7.522 7.522 0 0 1 6.684-4.7 4.5 4.5 0 0 1 5.352 5.355 7.518 7.518 0 0 1 1.249 4.978v1.185a1.76 1.76 0 0 1-1.397 1.721l-1.615.323a4.992 4.992 0 0 1-1.13-.887 3.501 3.501 0 0 0-1.885-.915 5.013 5.013 0 0 1-1.517-.617 5.013 5.013 0 0 1-1.516-.616 3.5 3.5 0 0 1-1.944-1.98 5.013 5.013 0 0 1-1.236-.759l-4.14-.39V15a2 2 0 0 1 2-2h.388z"/>
</svg>