<svg xmlns="http://www.w3.org/2000/svg" viewBox="0 0 24 24" class="icon icon-futuristic-car-svg icon-pressure-cooker">
  <path d="M2 16a4 4 0 0 1 4 -4h8v4h-1a3 3 0 0 1 -6 0h-1a4 4 0 0 1 -4 4h14a2 2 0 0 0 2 -2v-5h3a1 1 0 0 0 1 -1v-5a1 1 0 0 0 -1 -1h-3v-2a1 1 0 0 0 -1 -1h-14a2 2 0 0 0 -2 2v6a2 2 0 0 0 2 2"></path>
  <circle cx="7" cy="16" r="2"></circle>
  <circle cx="17" cy="16" r="2"></circle>
  <path d="M12 9h4a2 2 0 0 1 2 2v5a2 2 0 0 1 -2 2h-4a2 2 0 0 1 -2 -2v-5a2 2 0 0 1 2 -2"></path>
  <path d="M2 9h3"></path>
  <path d="M19 9h3"></path>
</svg>