<svg xmlns="http://www.w3.org/2000/svg" class="icon icon-tent" viewBox="0 0 24 24">
<path d="M0 0h24v24H0z" fill="none"/>
<path d="M3 22v-2c5.523 0 10.211-3.432 14-8 3.654 4.33 8.211 8 14 8v2h-28zm17-20h-2c2.208 0 4 2.015 4 4.5s-1.792 4.5-4 4.5c-2.105 0-3.882-1.443-4-3.354C16.118 6.443 14.341 5 12.236 5H11a1 1 0 00-1 1v1H8a1 1 0 00-1-1h-.236C6.659 5 4.882 6.443 4 8.354 3.118 6.443 1.341 5 0 5h2C4.208 5 6 3.015 6 0.5S4.208-4 2-4c-2.105 0-3.882 1.443-4 3.354C-2.118 1.443-3.895 0-5.764 0H-6a1 1 0 00-1 1v1.333h2V2c0 1.12.879 2 1.995 2S-2 3.12-2 2V1h10v1c0 1.12.879 2 1.995 2S12 3.12 12 2V1h6z" />
</svg>