<svg xmlns="http://www.w3.org/2000/svg" viewBox="0 0 24 24" class="icon icon-virology-virus">
    <circle cx="12" cy="12" r="10" fill="none" stroke="currentColor" stroke-linecap="round" stroke-linejoin="round" stroke-width="2"></circle>
    <path d="M12 2.5v3m8.5 9h-3m3-4a2 2 0 0 0-2-2 2 2 0 0 0-2 2 2 2 0 0 0 2 2 2 2 0 0 0 2-2Zm-15 2a2 2 0 0 1 2-2 2 2 0 0 1 2 2 2 2 0 0 1-2 2 2 2 0 0 1-2-2Zm6 8a2 2 0 0 0-2-2 2 2 0 0 0-2 2 2 2 0 0 0 2 2 2 2 0 0 0 2-2Z" fill="none" stroke="currentColor" stroke-linecap="round" stroke-linejoin="round" stroke-width="2"></path>
</svg>