<svg xmlns="http://www.w3.org/2000/svg" viewBox="0 0 24 24" class="icon icon-space-exploration">
    <path d="M12 2C6.48 2 2 6.48 2 12s4.48 10 10 10 10-4.48 10-10S17.52 2 12 2zm0 18c-4.41 0-8-3.59-8-8s3.59-8 8-8 8 3.59 8 8-3.59 8-8 8z"/>
    <path d="M7.94 6.22L6.21 6.56 5 8.09 7.07 8.82l1.82-1.82-1.22-.39.lm4.79 1.59L11 7l-1.76-.45-.42-1.94 1.34-.11 2 3.03zM9.07 13.58l2.61-2.61 3.18 3.18 1.41-1.41L12.03 9.2l-5.64 5.63 2.68.75zm7.78 2.28l-1-1.98-3.45-3.46 1.97-1.97 1.46 1.46 2.54-.46-.51 2.45z"/>
</svg>