<svg xmlns="http://www.w3.org/2000/svg" class="icon icon-biometric-data" viewBox="0 0 24 24">
    <path d="M12 2C6.48 2 2 6.48 2 12c0 1.33.26 2.61.74 3.77.1.24.26.47.41.71.65 1 1.66 2.58 2.98 2.98.71 0 1.42-.33 2.13-.67.33-.16.65-.33.98-.54.71-.42 1.45-.88 2.24-1.05.56-.12 1.12-.18 1.68-.18.56 0 1.12.06 1.68.18.79.17 1.53.63 2.24 1.05.33.21.65.38.98.54.71.34 1.42.67 2.13.67 1.32 0 2.33-1.98 2.98-2.98.15-.24.31-.47.41-.71.48-1.16.74-2.44.74-3.77C22 6.48 17.52 2 12 2zm0 3c1.66 0 3 1.34 3 3s-1.34 3-3 3-3-1.34-3-3 1.34-3 3-3zm0 14.2c-2.5 0-4.71-1.28-6-3.22.03-1.99 4-3.08 6-3.08 1.99 0 5.97 1.09 6 3.08-1.29 1.94-3.5 3.22-6 3.22z"/>
</svg>