<svg xmlns="http://www.w3.org/2000/svg" class="icon icon-lunarkey" viewBox="0 0 24 24">
  <path d="M21 8a5 5 0 0 0-9.975-1.975A7.527 7.527 0 0 0 7 8c-4.07 0-7.436 3.141-7.98 7.113a5.025 5.025 0 0 0 4.675 3.636l1.193-.106a5 5 0 0 0 8.215 2.256A9.98 9.98 0 0 0 12 22C6.477 22 2 17.523 2 12a9.98 9.98 0 0 0 1.177-4.113A7.527 7.527 0 0 0 4 9c3.314 0 6-2.686 6-6 0-1.06-.217-2.07-.612-3H12c4.418 0 8 3.582 8 8s-3.582 8-8 8a7.527 7.527 0 0 0-1.98-.223c3.225-.444 5.774-3 5.774-6.64V9a5 5 0 0 0 1-.124A4.978 4.978 0 0 0 21 8z" />
</svg>