<svg xmlns="http://www.w3.org/2000/svg" viewBox="0 0 24 24" class="icon icon-ginkgo-leaf">
    <path d="M12.41,0C12.89,2.56,12.06,4.87,10,6.59C9.18,6.05,8.61,5.13,8.29,4H1.74C2.78,7.19,5.42,9.73,8.82,10.83C7.47,12.78,9.56,15.25,12.59,15.25C15.63,15.25,17.71,12.78,16.36,10.83C19.76,9.73,22.4,7.19,23.44,4H16.89C16.57,5.13,16,6.05,15.18,6.59C13.12,4.87,12.29,2.56,12.41,0Z" />
    <path d="M12.41,24C11.93,21.44,12.76,19.13,14.82,17.41C15.64,17.95,16.21,18.87,16.53,20H23.08C22.04,16.81,19.4,14.27,16,13.17C17.35,11.22,15.26,8.75,12.23,8.75C9.19,8.75,7.11,11.22,8.46,13.17C5.06,14.27,2.42,16.81,1.38,20H7.93C8.25,18.87,8.82,17.95,9.64,17.41C11.7,19.13,12.53,21.44,12.41,24Z" />
</svg>