<svg xmlns="http://www.w3.org/2000/svg" class="icon icon-drone-delivery" viewBox="0 0 24 24">
   <path d="M0 0h24v24H0z" fill="none"/>
   <path d="M4 10a1 1 0 0 1 1-1h2V7a1 1 0 0 1 1-1h2.339a1 1 0 0 0 .978-.727l1.774-7.094A1.516 1.516 0 0 1 12.822 0h2.356a1.516 1.516 0 0 1 1.428 1.179l1.774 7.094a1 1 0 0 0 .978.727H19a1 1 0 0 1 1 1v2h2a1 1 0 0 1 1 1v1H3v-1zm3 1h2v2a1 1 0 0 0 1 1h.339a1 1 0 0 1 .978.727l1.774 7.094a1.5 1.5 0 0 0 2.858 0l1.774-7.094A1 1 0 0 1 18.661 14H19a1 1 0 0 0 1-1v-2h2v3a1 1 0 0 1-1 1H4a1 1 0 0 1-1-1v-3zm10-8a2 2 0 0 0 -1.995 1.85L12 4a2 2 0 0 0 2-2z"/>
 </svg>