<svg xmlns="http://www.w3.org/2000/svg" viewBox="0 0 24 24" class="icon icon-self-driving-car">
  <path d="M4,12.3V14a1,1,0,0,0,1,1H5.14A2,2,0,0,0,7.06,16h9.88a2,2,0,0,0,1.92-1H19a1,1,0,0,0,1-1v-1.7l1.45-1.8a1,1,0,0,0-.85-1.56H3.4a1,1,0,0,0-.84,1.58Z"></path>
  <path d="M7,10V11H17V10a3,3,0,0,0-3-3H10A3,3,0,0,0,7,10Z"></path>
  <circle cx="7.5" cy="14.5" r="1.5"></circle>
  <circle cx="16.5" cy="14.5" r="1.5"></circle>
  <path d="M16,5a1,1,0,0,1,1,1v3a1,1,0,0,1-2,0V6A1,1,0,0,1,16,5Z"></path>
  <path d="M8,5a1,1,0,0,1,1,1v3a1,1,0,0,1-2,0V6A1,1,0,0,1,8,5Z"></path>
  <path d="M12,0a6,6,0,0,1,6,6v5H6V6A6,6,0,0,1,12,0Z"></path>
</svg>