<svg xmlns="http://www.w3.org/2000/svg" viewBox="0 0 24 24" class="icon icon-space-station">
    <path d="M12 2C6.47 2 2 6.47 2 12s4.47 10 10 10 10-4.47 10-10S17.53 2 12 2zM12 20c-4.42 0-8-3.58-8-8s3.58-8 8-8 8 3.58 8 8-3.58 8-8 8z"/>
    <path d="M12.5 9V4a1 1 0 1 1 2 0v5a1 1 0 1 1-2 0zm7.53 1.5l-3.6-1.2a1 1 0 1 1 .6-1.9l3.6 1.2a1 1 0 1 1-.6 1.9zm-12.46 0l-3.6-1.2a1 1 0 0 1 .6-1.9l3.6 1.2a1 1 0 1 1-.6 1.9zm12.46 5l-3.6 1.2a1 1 0 1 1-.6-1.9l3.6-1.2a1 1 0 1 1 .6 1.9zm-12.46 0l-3.6 1.2a1 1 0 1 1 .6-1.9l3.6-1.2a1 1 0 0 1 .6 1.9zM12.5 15V20a1 1 0 1 1-2 0v-5a1 1 0 1 1 2 0z"/>
</svg>