<svg xmlns="http://www.w3.org/2000/svg" class="icon icon-palette" viewBox="0 0 24 24">
  <path d="M12 2C6.48 2 2 6.48 2 12c0 5.52 4.48 10 10 10 5.52 0 10-4.48 10-10 0-5.52-4.48-10-10-10zm-1 14.92c-2.97-.34-5-2.98-5-5.92 0-.62.08-1.21.21-1.79l.99.17c-.11.5-.19 1.01-.19 1.62 0 2.21 1.79 4.01 4 4.44v1.48zM7.1 10H6c-.41-1.17-1.6-2-3-2v2c1.4 0 2.49 1.13 2.85 2.5h1.21l.04-.42v-.08h2V10zM16 6c-1.1 0-2 .9-2 2s.9 2 2 2 2-.9 2-2-.9-2-2-2zm-6 0c-1.1 0-2 .9-2 2s.9 2 2 2 2-.9 2-2-.9-2-2-2zm3 14.92v-1.44c2.37-.41 4.24-2.52 4.24-5.05 0-.62-.08-1.23-.24-1.81l.96-.18c.18.61.28 1.26.28 1.92 0 3.03-2.13 5.64-5 6.06zM18.9 10h-2V8.79l-.02-.02-.02-.02h-1.64c-.14-.98-.5-1.9-1.02-2.7 1.19-.68 2.58-1.08 4.1-1.15v2.08c-1.34 0-2.44 1.08-2.79 2.5h1.23l.06.42z"/>
</svg>