<svg xmlns="http://www.w3.org/2000/svg" viewBox="0 0 24 24" class="icon icon-dutch-windmill">
  <path d="M12.717,1.056a1.591,1.591,0,0,0-1.484,0L4.3,5.7V13.087c0,.467.256,0.9,0.66,1.118l9.178,5.3a1.6,1.6,0,0,0,1.564,0l9.178-5.3A1.323,1.323,0,0,0,24.7,13.087V5.7Z"></path>
  <path d="M2.9,13.385v2.212a1.323,1.323,0,0,0,.66,1.117l4.606,2.659v-5.988Z"></path>
  <path d="M2.9,16.714v2.211a1.323,1.323,0,0,0,.66,1.118l4.606,2.659v-5.988Z"></path>
  <polygon points="12 5.7 12 5.7 12 5.7 7.4 8.4 12 11.1 12 11.1 12 11.1 16.6 8.4 12 5.7 12 5.7 12 5.7"></polygon>
  <rect x="11.2" y="14.494" width="1.6" height="6.514"></rect>
  <rect x="7.253" y="16.178" transform="rotate(-45, 8.043, 19.435)" width="1.6" height="6.514"></rect>
  <rect x="13.157" y="16.178" transform="rotate(-45, 13.947, 19.435)" width="1.6" height="6.514"></rect>
</svg>