<svg xmlns="http://www.w3.org/2000/svg" viewBox="0 0 24 24" class="icon icon-diamond-ring">
	<path d="M17.175 10.869c-.191-.12-.393-.226-.604-.319l3.176-6.731a1 1 0 0 0-.87-1.45H5.123a1 1 0 0 0-.87 1.45l3.176 6.731a8.06 8.06 0 0 0-.604.319L2.715 11.884c-.515.182-.715 0-.715-.08v8.901c0 .08.4.7 2.288.575l16.419-1.244c1.889-.125 2.288-.496 2.288-.575v-8.901c0 .08-.201.262-.716.08l-4.814-1.015zM15 16a3.5 3.5 0 1 1-1.977-3.165l.084-.178a4.992 4.992 0 0 1-.877-.51 1 1 0 0 0-.168-.089l-2.403-1.008a.998.998 0 0 0-.586 0l-2.403 1.008a1.005 1.005 0 0 0-.168.09c-.296.228-.56.49-.79.775A3.501 3.501 0 1 1 6 16h9zm-2.5-4a2.5 2.5 0 1 0 0 5 2.5 2.5 0 0 0 0-5z">
	</path>
</svg>