<svg xmlns="http://www.w3.org/2000/svg" class="icon icon-axe" viewBox="0 0 24 24">
    <path d="M15.32 2.094c-1.293.151-2.672.132-3.702.96-2.21 1.78-1.157 4.413.345 5.914 1.604 1.66 4.367 2.06 6.456 1.595 1.463-.327 2.47-1.39 3.58-2.38.827-.738.906-2.022.367-2.98-1.117-1.975-4.316-2.678-6.352-2.98a.06.06 0 0 0-.694.891zm-1.2 6.531c-1.954 2.004-3.02 4.767-2.65 7.59.19 1.451 1.22 2.714 2.5 3.307 1.367.633 2.82.553 4.14-.199 1.141-.65 1.674-1.904 1.957-3.15.383-1.678-.089-3.372-.848-4.83-.972-1.858-2.776-3.405-4.65-4.24a2.47 2.47 0 0 0-1.133.2.05.05 0 0 0 .03.092z"/>
</svg>