<svg xmlns="http://www.w3.org/2000/svg" viewBox="0 0 24 24" class="icon icon-escapologist">
    <path d="M12 2C6.48 2 2 6.48 2 12s4.48 10 10 10 10-4.48 10-10S17.52 2 12 2zm0 3c.55 0 1 .45 1 1v2c0 .55-.45 1-1 1s-1-.45-1-1V6c0-.55.45-1 1-1zm1 14h-2v-2h2v2zm2.07-7.75l-.9.92c-.26.27-.43.64-.51 1.07H11c-.55 0-1 .45-1 1s.45 1 1 1h2v2h2v-2.59c0-1.12.68-2.14 1.67-2.46.1-.04.19-.09.28-.14l-1.42-1.43c-.38-.39-.39-1.02-.01-1.41.39-.39 1.02-.38 1.41.01l2.18 2.2c.39.39.39 1.01 0 1.4l-2.18 2.19c-.39.39-1.02.39-1.41 0-.38-.38-.38-1.01 0-1.4z"/>
</svg>