<svg xmlns="http://www.w3.org/2000/svg" class="icon icon-sailing-ship" viewBox="0 0 24 24">
  <path d="M2 20h20v2H2zm6-16c0 1.104.427 2.09 1 2.83V12a8 8 0 0 0 10.385 6.43 2.95 2.95 0 0 1-1.317-.43 6 6 0 0 1-11.615-1.364L10 15V6.83c.573-.74 1-1.726 1-2.83a4 4 0 1 0-8 0z"/>
  <path d="M15 2a4 4 0 1 1-4 4h1.858a2.983 2.983 0 0 0-.377-1.507l-.038-.034a1 1 0 0 1 .098-1.535A2.987 2.987 0 0 0 12 4h1.858A4 4 0 0 1 15 2zM4 8h1.878L6 6H5.121L4 8zm11.385 8H8.6l3.448 1.724a.4.4 0 0 0 .38 0L15.385 16zM4.53 9.25l.761-.82-1.674.572.913.248zM7.19 16l2.632 3 2.632-3H7.19z"/>
</svg>