<svg xmlns="http://www.w3.org/2000/svg" viewBox="0 0 24 24" class="icon icon-electron">
  <path d="M12 2C6.48 2 2 6.48 2 12s4.48 10 10 10 10-4.48 10-10S17.52 2 12 2zm0 18c-4.42 0-8-3.58-8-8s3.58-8 8-8 8 3.58 8 8-3.58 8-8 8z"/>
  <path d="M7 12c0 .69.41 1.32 1 1.66V13.5c0 .89 1.08 1.34 1.71.71l2-2a.999.999 0 10-1.38-1.44l-1.42 1.41V11c0-1.1-.9-2-2-2a2 2 0 000 4zm10 0c0-1.1-.9-2-2-2a2 2 0 000 4c.59 0 1.1-.26 1.42-.66l-1.13-1.13a.999.999 0 101.41-1.41l2.41 2.41c.37-.63.29-1.47-.2-2.02-.5-.55-1.37-.47-1.82.12a.991.991 0 00.13 1.39c.44.44 1.2.44 1.64 0a.996.996 0 000-1.41z"/>
</svg>