<svg xmlns="http://www.w3.org/2000/svg" viewBox="0 0 24 24" class="icon icon-aquaticlife">
    <path d="M12,2C6.48,2,2,6.48,2,12s4.48,10,10,10s10-4.48,10-10S17.52,2,12,2z M12,20c-4.41,0-8-3.59-8-8s3.59-8,8-8  c4.41,0,8,3.59,8,8S16.41,20,12,20z"/>
    <path d="M12,6c-1.1,0-2,0.9-2,2s0.9,2,2,2s2-0.9,2-2S13.1,6,12,6z"/>
    <path d="M13,15.39V11c0-0.55-0.45-1-1-1s-1,0.45-1,1v4.39c-1.39-0.74-3-0.52-4.11,0.37c-1.37,1.09-1.6,3.01-0.52,4.37  c0.45,0.57,1.07,1,1.82,1.22c0.83,0.24,1.7,0.08,2.43-0.39c0.81-0.53,1.33-1.33,1.52-2.26H13z"/>
</svg>