<svg xmlns="http://www.w3.org/2000/svg" viewBox="0 0 24 24" class="icon icon-brainstorm">
    <path d="M12 2C6.48 2 2 6.48 2 12s4.48 10 10 10 10-4.48 10-10S17.52 2 12 2zM6.5 13C5.67 13 5 12.33 5 11.5S5.67 10 6.5 10 8 10.67 8 11.5 7.33 13 6.5 13zm11.28 2.56l-.76-.76c-.2-.2-.51-.2-.71 0l-.76.76a.996.996 0 10-1.41-1.41l.76-.76c.2-.2.2-.51 0-.71l-.76-.76a.996.996 0 111.41-1.41l.76 .76c.2 .2.51 .2 .71 0l.76-.76a.996.996 0 111.41 1.41l-.76 .76c-.2 .2-.2 .51 0 .71l.76 .76a.996.996 0 11-1.41 1.41zm-7.62 0C9 14.7 8.3 14 7.5 14s-1.5 .7-1.5 1.5 1.5 1.5 1.5 1.5 1.5-1.5 1.5-1.5zM11 8H9c-1.1 0-2 .9-2 2s.9 2 2 2h2v-2c0-1.1 .9-2 2-2s2 .9 2 2v2h2c1.1 0 2-.9 2-2s-.9-2-2-2h-2V6h-2v2z"/>
</svg>