<svg xmlns="http://www.w3.org/2000/svg" viewBox="0 0 24 24" class="icon icon-fingerprint-identification">
    <path d="M12 2C6.48 2 2 6.48 2 12s4.48 10 10 10 10-4.48 10-10S17.52 2 12 2zm0 18c-4.41 0-8-3.59-8-8s3.59-8 8-8 8 3.59 8 8-3.59 8-8 8z"/>
    <path d="M14.28 12.34l1.42-1.42-1.42-1.42-1.41 1.42 1.41 1.42zm-4.56 0l-1.42-1.42-1.41 1.42 1.41 1.42 1.42-1.42zm8.56-3.68l-1.41-1.41-1.41 1.41 1.41 1.41 1.41-1.41zm-12.56 0l-1.41 1.41 1.41 1.41 1.41-1.41-1.41-1.41zm12.28 7.56l1.41-1.41-1.41-1.41-1.41 1.41 1.41 1.41zm-12.56 0l-1.41-1.41-1.42 1.41 1.42 1.42 1.41-1.42zm11.14-2.83l1.42-1.41-1.42-1.42-1.41 1.41 1.41 1.42zm-9.14 0l-1.42-1.41-1.41 1.41 1.41 1.42 1.42-1.42z"/>
</svg>