<svg xmlns="http://www.w3.org/2000/svg" viewBox="0 0 24 24" class="icon icon-solarpanel">
  <path d="M21,11H9a1,1,0,0,0,0,2H21a1,1,0,0,0,0-2Z" />
  <path d="M15,7H9a1,1,0,0,0,0,2H15a1,1,0,0,0,0-2Z" />
  <path d="M21,3H9A1,1,0,0,0,9,5H21a1,1,0,0,0,0-2Z" />
  <path d="M8,21H6a1,1,0,0,0,0,2H8a1,1,0,0,0,0-2Z" />
  <path d="M8,15H6a1,1,0,0,0,0,2H8a1,1,0,0,0,0-2Z" />
  <path d="M8,9H6A1,1,0,0,0,6,11H8A1,1,0,0,0,8,9Z" />  
  <rect x="2" y="4" width="20" height="16" fill="none" stroke="currentColor" stroke-width="2" />
</svg>