<svg xmlns="http://www.w3.org/2000/svg" class="icon icon-sundial-svg icon-oculus-goggles" viewBox="0 0 24 24">
  <path d="M0 0h24v24H0V0z" fill="none"/>
  <path d="M12 2C6.49 2 2 6.49 2 12s4.49 10 10 10 10-4.49 10-10S17.51 2 12 2zm0 18c-4.41 0-8-3.59-8-8s3.59-8 8-8 8 3.59 8 8-3.59 8-8 8z"/>
  <path d="M6.5 10.25h-2v1.5h2zM4 7.75h2v1.5H4zM9.5 5.5h-2v1.5h2zM16 17.25h-2v1.5h2zM14.5 14.75h-2v1.5h2zM16.5 12.25h-2v1.5h2z"/>
  <path d="M12.5 8.75h-1v2h1zM12 6.25h-1v1.5h1zM15.5 7.25h-2v1.5h2zM13 15.75h-2v1.5h2zM16 20.5h-2v1.5h2z"/>
</svg>