<svg xmlns="http://www.w3.org/2000/svg" class="icon icon-kimono" viewBox="0 0 24 24">
  <path d="M12,2C6.486,2,2,6.486,2,12s4.486,10,10,10s10-4.486,10-10S17.514,2,12,2z M15,4
  c0.55,0,1,0.45,1,1s-0.45,1-1,1s-1-0.45-1-1S14.45,4,15,4z M9,4c0.55,0,1,0.45,1,1s-0.45,1-1,1S8,5.55,8,5S8.45,4,9,4z M17,11H7
  c-0.55,0-1-0.45-1-1s0.45-1,1-1h10c0.55,0,1,0.45,1,1S17.55,11,17,11z M16,14H8c-0.55,0-1-0.45-1-1s0.45-1,1-1h8c0.55,0,1,0.45,1,1
  S16.55,14,16,14z M15,17H9c-0.55,0-1-0.45-1-1s0.45-1,1-1h6c0.55,0,1,0.45,1,1S15.55,17,15,17z"/>
</svg>