<svg xmlns="http://www.w3.org/2000/svg" class="icon icon-coil-spring" viewBox="0 0 24 24">
    <path d="M12,2C6.5,2,2,6.5,2,12s4.5,10,10,10s10-4.5,10-10S17.5,2,12,2z M12,20c-4.4,0-8-3.6-8-8s3.6-8,8-8s8,3.6,8,8 S16.4,20,12,20z"/>
    <path d="M12,4c-4.4,0-8,3.6-8,8c0,1.2,0.3,2.3,0.8,3.3C7,16.9,9.5,20,12,20s5-3.1,7.1-4.7c0.5-1,0.9-2.1,0.9-3.3 C20,7.6,16.4,4,12,4z"/>
    <path d="M9.5,10.9c-0.1,0-0.3,0-0.4-0.1C7.9,10.6,6.5,9.9,5.6,8.9C6.5,7.8,7.8,7.1,9.2,7.1c1.5,0,2.8,1,3.2,2.4l-1.3,1.3 C10.8,10.9,10.2,10.9,9.5,10.9z"/>
    <path d="M14.5,13.1c0.1,0,0.3,0,0.4,0.1c1.3,0.3,2.6,0.9,3.5,1.9c-0.9,1-2.3,1.8-3.6,1.8c-1.5,0-2.8-1-3.2-2.4l1.3-1.3 C13.2,13.1,13.9,13.1,14.5,13.1z"/>
</svg>