<svg xmlns="http://www.w3.org/2000/svg" viewBox="0 0 24 24" class="icon icon-satellitedish">
    <path d="M11.993 2c1.3 0 3.065.259 4.448 1.685l-2.89 2.89a4 4 0 0 0-5.66 5.66l-2.896 2.896a9.172 9.172 0 0 1 6.007-2.143c1.022 0 2.1.076 3.124.451L18.51 9.844c1.34 1.696 1.622 3.528 1.486 4.657l2.25 2.25a12 12 0 0 1-18 0l2.25-2.25A11.978 11.978 0 0 1 11.998 2zM12 6a2 2 0 0 1 2 2 2 2 0 0 1-2 2 2 2 0 0 1-2-2 2 2 0 0 1 2-2zm10 10a8 8 0 0 0-11.95-7.11l-2.89 2.89a8 8 0 0 0 11.95 11.95l2.89-2.89A7.965 7.965 0 0 0 22 16zm-1.532 2.643L18.364 20a6 6 0 0 1-8.485-8.485l.657-.657 2.828 2.828a4 4 0 0 0 5.66 5.66l2.828-2.828-.657.657z" />
</svg>