<svg xmlns="http://www.w3.org/2000/svg" class="icon icon-facial-recognition" viewBox="0 0 24 24">
  <path d="M12 2C6.48 2 2 6.48 2 12s4.48 10 10 10 10-4.48 10-10S17.52 2 12 2zm1 14.93c-2.833-.478-5-2.942-5-5.93 0-.336.042-.663.12-.98.032-.13.135-.22.27-.22h.02c.15 0 .282.11.31.26.366 1.933 1.934 3.668 3.866 4.19.753.01 1.507-.15 2.18-.47.14-.07.31-.01.38.13.02.04.04.08.04.13-.06.41-.1.83-.1 1.27v1.63zm3.02-2.49c-.574-.457-.794-1.144-.59-1.78.13-.04.27-.07.41-.1 1.56-.41 2.72-1.944 2.99-3.16.03-.14.17-.24.32-.24.02 0 .036 0 .05.01.15.033.263.153.263.303-.033 1.64-.84 3.14-2.1 3.92-.26.33-.66.52-1.07.52-.2 0-.4-.05-.59-.14zM20 12c0 .13-.01.25-.02.38-.04.14-.18.24-.33.22a.497.497 0 01-.16-.02c-2.07-.82-3.5-2.86-3.5-5.19 0-.15.01-.3.03-.45.03-.15.17-.25.33-.22.02 0 .04.01.06.01.14.03.25.14.28.29.46 1.9 1.96 3.47 3.61 4.01zM12 22c-5.52 0-10-4.48-10-10S6.48 2 12 2s10 4.48 10 10-4.48 10-10 10zm-4.11-6.04c-.11-.04-.19-.14-.19-.26 0-1.04.08-2.07.22-3.08.03-.14.16-.24.31-.21.01 0 .02 0 .04.01.15.02.26.14.28.29.12 1.1.58 2.11 1.3 2.86-.52.23-1.12.33-1.76.39z"/>
</svg>