<svg xmlns="http://www.w3.org/2000/svg" class="icon icon-saurus">
  <path d="M2.002 154.998c-59.912-2.205-41.622-79.103-3.002-98.998 29.652-15.307 91.352-.695 98-6 28.848-22.819 25.667-52.808 0-70 .038 16.288-.521 34.577 7 48 24.931 44.292 82.065 22.285 108 11 51.398-22.426 57.85-71.25 47-110-5.953-21.228-2.451-42.978 12-59.002 30.799-34.112 110.67-25.44 141.002-2 19.71 15.22 39.22 34.129 59.002 48.998 16.509 12.396 33.854 18.612 51.002 28.998 24.058 14.604 43.614 37.604 66 54 2.406 1.778 6.624 3.961 8 6 .852 1.265-1.158 3.612-2 4-7.598 3.508-18.346-1.922-26-3.002-8.695-1.221-16.362 1.793-24.002 3-17.989 2.847-35.673-2.491-52.002-4-18.324-1.688-37.68 2.02-55.002 0-33.18-3.885-64.822-12.468-98-15.998-17.724-1.884-35.628.302-52.002-2-12.274-1.719-24.222-5.221-37-5.002-4.426.076-9.17 1.899-14 3-4.296 1.235-8.449 3.136-14 3-6-.106-7.838-.862-12-2-6.28-.75-13.784.785-18.002 0-3.45-.644-6.398-2.845-11-2-3.784.149-8.216 0-12.002 0-4.962.962-9.402 2-14.002 1.197-5.314-.854-10.673 0-15.002 0-8.374 2.649-15.308 6.002-22.002 4.78-9.542 11.574-18.428 18-26.002 9.784-10.862 21.571-19.571 33.008-29.004 12.188-10.078 26.306-18.393 40.008-26.004 16.769-9.31 34.69-17.78 53.01-25.004 27.898-10.991 57.913-20.008 89.02-26.004 12.376-2.388 25.038-3.757 38.01-4.002 4.177-.078 9.477.665 12.002-1 7.674-5.093 5.93-18.402 9.002-27.006 1.078-3.008 3.365-5.738 5-8.502 3.21-5.43 5.629-11.076 8.502-17.004 3.319-6.902 6.303-14.021 10.502-20.004h4.002c4.868 8.648 8.32 18.354 13.002 27.006 2.063 3.814 5.54 6.587 7.502 10.502 1.028 2.042 1.465 5.409 3.002 7.002 6.216 6.458 21.301 6.717 32.008 10.502 5.129 1.81 9.731 4.544 14.002 7.002 7.811 4.499 14.711 10.423 22.006 16.004 12.897 9.866 29.389 16.826 43.01 26.006 6.166 4.156 12.627 8.827 19.004 13.002 7.858 5.149 15.799 10.177 23.006 16.004s15.149 10.855 23.006 16.004c7.843 5.168 15.774 10.192 23.006 16.004 7.191 5.771 14.514 11.373 22.006 17.004 20.935 15.725 42.288 32.081 61.014 50.012 11.729 11.282 25.459 20.586 37.008 31.008 4.688 4.23 8.467 9.192 13.002 14.002 4.487 4.762 10.685 8.398 15.004 13.002 11.43 12.191 15.128 29.874 22.006 47.011.125.311.255.617.376.928.784 1.984-1.152 5.187-.376 7.002-.623.416-1.26.835-1.876 1.264-5.519-2.815-10.448-.379-15.652 2.745-3.098 1.86-6.382 4.315-9.377 6.503-5.555 4.059-10.181 9.517-16.003 14.003-6.666 5.126-13.501 9.872-20.005 15.003-18.992 14.92-27.213 37.922-50.011 49.012-19.028 9.26-43.36 8.96-71.017 15.003-13.31 2.918-24.802 7.574-39.009 8.502-13.733.896-25.641-.641-38.009-2-18.939-2.084-36.877-7.24-58.014-6.001-37.002 2.151-63.34 18.084-96.019 27.007-19.718 5.383-40.584 6.941-63.015 8.501-20.266 1.412-42.599-.579-61.014 2-9.923 1.383-18.888 5.933-29.007 7.002-19.435 2.058-39.625-1.528-59.014 2-11.7 2.121-20.713 7.226-32.007 9.502-25.313 5.131-52.188 3.101-79.018 6.001-33.275 3.586-65.212 10.468-101.019 11.502-20.801.601-42.378-1.537-61.014 1-30.148 4.094-54.553 16.383-87.018 20.004-12.622 1.408-25.771-.259-39.009 0-21.997.429-42.03 5.373-65.016 6.002-15.988.439-31.489-1.144-48.011 0-12.992 0-25.984 0-38.976 0-13.393 1.744-27.896-1.001-40.009-2-14.588-2.794-27.798-6.001-40.009-8.502C127.824 148.038 79.881 149.317 2.002 154.998z"></path>
</svg>