<svg xmlns="http://www.w3.org/2000/svg" viewBox="0 0 24 24" class="icon icon-SpaceExploration">
    <path fill="none" d="M0 0h24v24H0z"/>
    <path d="M3.898 2.143l13.405 4.4a1 1 0 0 1 .652 .654l4.4 13.405a8 8 0 0 1-10.71 10.71l-13.405-4.4a1 1 0 0 1-.654-.654l-4.4-13.405a8 8 0 0 1 10.71-10.71zM9.261 14.586a2.998 2.998 0 0 1 4.233 0 3 3 0 0 1 0 4.237l1.416 1.417-4.948 1.62-1.62-4.948L9.26 14.586zM7.757 6.1l-.687-.686a6 6 0 0 0-1.49 1.49l.686 .687a4.5 4.5 0 0 1 1.491-1.491zM4.615 9.24l-.687-.687a6 6 0 0 0-.707 1.777l.686 .686a4.5 4.5 0 0 1 .708-1.776zM5.878 14.182a2 2 0 1 1 2.829-2.829 2 2 0 0 1-2.829 2.83z"/>
</svg>