<svg xmlns="http://www.w3.org/2000/svg" class="icon icon-fossil-ammonite" viewBox="0 0 24 24">
  <path d="M12 2C6.486 2 2 6.486 2 12c0 5.514 4.486 10 10 10s10-4.486 10-10c0-5.514-4.486-10-10-10zm-2 14.723v-2.89a4.977 4.977 0 0 0-2 .723v2.167a7.963 7.963 0 0 1 2-1.11zm0-4.612V9.056c-1.336 .392-2 1.745-2 3.055s.664 2.663 2 3.056zm2-3.166V7c-3.309 0-6 2.691-6 6s2.691 6 6 6c3.309 0 6-2.691 6-6v-1.889c-1.336-.392-2-1.745-2-3.055s.664-2.663 2-3.056zm6-.778c0 1.309-.665 2.662-2 3.055v2.89a4.982 4.982 0 0 0 2 .722V9.056a7.962 7.962 0 0 1-2 1.11zm-2 6.5v2.167a7.963 7.963 0 0 1 2-1.11v-2.89a4.979 4.979 0 0 0-2 .723z"/>
</svg>