<svg xmlns="http://www.w3.org/2000/svg" class="icon icon-icon-star-lightbulb" viewBox="0 0 24 24">
   <path fill="none" d="M0 0h24v24H0V0z"/>
   <path d="M6 2a1 1 0 0 0-1 1v3.268a2.99 2.99 0 0 0-1 .768V3a2 2 0 0 1 2-2h6a2 2 0 0 1 2 2v1a2 2 0 0 1-2 2h-1c.828 0 1.584-.488 2-1.22V14l-1.5-1.32L12 16l-1.5-3.32L9 14V4a2 2 0 0 1 2-2h2a1 1 0 0 0 1 1v.72a2.99 2.99 0 0 0-1 .769V3a1 1 0 0 0-1-1H6zm2 7h2a1 1 0 0 0 1-1h2v4h-2v-1a1 1 0 0 0-2 0v1H8v-4zm8.5-3a1.5 1.5 0 0 1 1.409 1H22a1 1 0 0 1 1 1v1a1 1 0 0 1-1 1h-.591A1.5 1.5 0 1 1 18.5 9zm0 2a.5.5 0 1 0-.001-1.001A.5.5 0 0 0 18.5 11z"/>
</svg>
