<svg xmlns="http://www.w3.org/2000/svg" class="icon icon-pulsar.svg icon-satellite-dish" viewBox="0 0 24 24">
  <path d="M12 0C5.373 0 0 5.373 0 12s5.373 12 12 12 12-5.373 12-12S18.627 0 12 0zm0 22C6.486 22 2 17.514 2 12S6.486 2 12 2s10 4.486 10 10-4.486 10-10 10zm1-14h-2v6H8l6 6v-6h2l-6-6z"/>
  <circle cx="12" cy="12" r="3" fill="none" stroke="currentColor" stroke-width="2"/>
  <path d="M20.488 18.836l-1.511-2.614a9.025 9.025 0 01-7.476 4.276v3.014l2.202-.787c.964.578 2.064.94 3.238 1.06l1.079 2.367c3.952-1.684 6.826-5.643 6.826-10.59 0-1.31-.265-2.563-.72-3.714l2.362-.1c.567 1.33.881 2.746.881 4.181.005 1.213-.151 2.433-.581 3.613z"/>
</svg>