<svg xmlns="http://www.w3.org/2000/svg" xmlns:xlink="http://www.w3.org/1999/xlink" class="icon icon-santa-claus-head" viewBox="0 0 24 24">
  <defs>
    <path id="a" d="M0 0h24v24H0z"/>
  </defs>
  <use xlink:href="#a" fill="#000" fill-opacity=".5"/>
  <path  fill="none" stroke="#fff" stroke-width="2" 
    d="M3 6c2.3-1.7 5-2 7-2s4.7 .3 7 2l1 4c.6 2.4.1 5-2 7a9 9 0 01-8 3l-.5-.5a2.2 2.2 0 01-2.6 .5C3.7 16.1 2 13.8 3 11V6z"/>
  <path  fill="#fff" 
    d="M12 3a7 7 0 017 7v1c.6 3-2 6-7 6s-7.6-3-7-6V9a7 7 0 017-7z"/>
  <circle cx="12" cy="12" r="3" stroke="#fff" fill="#000"/>
</svg>