<svg xmlns="http://www.w3.org/2000/svg" viewBox="0 0 24 24" class="icon icon-satellite-network.svg icon-raincloud">
  <path fill="none" stroke="currentColor" stroke-width="2" d="M12 6C10.343 6 9 7.343 9 9c0 1.103-.897 2-2 2-1.657 0-3 1.343-3 3s1.343 3 3 3h12c1.657 0 3-1.343 3-3s-1.343-3-3-3H14c0-1.105-0.895-2-2-2zm0-6C7.582-0 4 3.582 4 8 2.897 8 2 8.897 2 10s0.897 2 2 2c-1.103 0-2-.897-2-2 0-2.206 1.794-4 4-4s4 1.794 4 4v2"/>
  <path fill="currentColor" d="M7 16c0 2.206-1.794 4-4 4s-4-1.794-4-4 1.794-4 4-4 4 1.794 4 4zm5 0c0 2.206-1.794 4-4 4s-4-1.794-4-4 1.794-4 4-4 4 1.794 4 4zm5 0c0 2.206-1.794 4-4 4s-4-1.794-4-4 1.794-4 4-4 4 1.794 4 4z"/>
</svg>