<svg xmlns="http://www.w3.org/2000/svg" class="icon icon-black-hole icon-cloudcomputing" viewBox="0 0 24 24">
  <path d="M0 0h24v24H0z" fill="none"/>
  <path d="M13.05 17a3.5 3.5 0 0 0 5.478 2.795 3.501 3.501 0 0 1-1.975-4.327l1.386-.992a3.5 3.5 0 1 0-1.71-1.168l-2.193 1.57a3.5 3.5 0 0 1-1.43-.252l-1.202-1.202c.34-.08.678-.189 1-.315l1.202 1.201a3.5 3.5 0 0 0 1.961.43 3.55 3.55 0 0 0 1.118-.328l-1.5-1.5a3.524 3.524 0 0 1-.628-.219l-2.66-.38-2.912-2.912-.38-2.66a3.508 3.508 0 0 1-.218-.628l1.5 1.5a3.5 3.5 0 1 0-1.168-1.709l-.992 1.386A3.5 3.5 0 0 0 2.5 16a3.5 3.5 0 0 0 3.444-4.036 3.5 3.5 0 0 1 1.108 1.928 3.5 3.5 0 0 0 5.996.12l2.502 2.503z"/>
</svg>