<svg xmlns="http://www.w3.org/2000/svg" viewBox="0 0 24 24" class="icon icon-paddleboard">
    <path d="M12 2C8.13401 2 5 5.13401 5 9C5 11.5913 6.80495 13.8357 9.17627 14.6507C7.61349 15.8722 6 18.1706 6 21H8C8 18.7949 8.79492 17 10 17H14C15.2051 17 16 18.7949 16 21H18C18 18.1706 16.3865 15.8722 14.8237 14.6507C17.195 13.8357 19 11.5913 19 9C19 5.13401 15.866 2 12 2ZM12 4C14.7614 4 17 6.23858 17 9C17 11.0257 15.7678 12.6689 14 13.582V12H16V10H14V8H16V6H14V4H12V6H10V4H8V6H10V8H8V10H10V12H8V13.582C6.23221 12.6689 5 11.0257 5 9C5 6.23858 7.23858 4 10 4H12Z"/>
</svg>