<svg xmlns="http://www.w3.org/2000/svg" class="icon icon-pencil-writing" viewBox="0 0 24 24">
  <path d="M21 3a2.992 2.992 0 00-1 5.823l.176.185-12.053 11.912a1 1 0 00-.263.464l-1 7a1 1 0 001.11 1.11l7-1a1 1 0 00.464-.263l11.912-12.053.185.176A2.993 2.993 0 0021 3zm0-2c1.654 0 3 1.346 3 3s-1.346 3-3 3a2.995 2.995 0 01-2.823-2h-.176l-13.912 13.912-.185-.176A2.993 2.993 0 013 21c0-1.654 1.346-3 3-3a2.995 2.995 0 012 5.823v.176l13.912-13.912.176.185c.327-.37.762-.66 1.235-.824A2.9 2.9 0 0121 1z"/>
</svg>