<svg xmlns="http://www.w3.org/2000/svg" class="icon icon-satellite-dish icon-data-cloud" viewBox="0 0 24 24">
  <path d="M0 0h24v24H0z" fill="none"/>
  <path d="M5 4.5A9.996 9.996 0 0112 2c5.591 0 7.675 4.839 7.912 11.643l2.005-.386C21.566 6.661 16.5 3 12 3 8.031 3 4.864 5.151 3 8.5V5a1 1 0 012 0v4l.176.447A7 7 0 0112 14c3.527 0 6.917-1.994 7.83-5.32l1.32.99a9 9 0 01-9.049 5.943 4.978 4.978 0 00-4.406-3.064 5.5 5.5 0 00-5.241 4.113l1.714.445a4 4 0 013.952-2.777 6 6 0 00.272-1.342L5 9.5v-5z"/>
</svg>