<svg xmlns="http://www.w3.org/2000/svg" class="icon icon-cypress" viewBox="0 0 24 24">
  <path fill="none" d="M0 0h24v24H0z"/>
  <path d="M15.456 9.678l-.142-.326a5.475 5.475 0 0 0-2.39-.56c-1.717 0-3.392 1-4.064 2.421a5.5 5.5 0 0 0-3.392-1.068C3.58 10.147 1 12.8 1 16.027 1 18.482 3.02 20 5.482 20h13.036c2.463 0 4.482-1.518 4.482-3.973 0-3.221-2.58-5.877-5.877-5.877-1.152 0-2.248.355-3.166 1l-.502-.65c.895-.745 1.96-1.22 3.169-1.22 2.738 0 5.127 2.152 5.546 5.049l2.026-.332c-.633-3.654-3.666-6.497-7.392-6.497-1.87 0-3.605.721-4.863 2.02z"/>
</svg>