<svg xmlns="http://www.w3.org/2000/svg" class="icon icon-fallen-leaf" viewBox="0 0 24 24">
<path d="M12 2C8.13 2 5 2.5 5 5.32c0 1.4 1.72 3.61 5.04 5.41a16.008 16.008 0 0 1-6.57-.92C5.5 11.11 7.03 13 9 13c1 0 2-.37 3-1v6c-1 0-6 1.28-6 6h6c0-2.5 1.5-6 4-8v-2c1 .63 2 1 3 1 1.97 0 3.5-1.89 3.57-4.18-5.36.95-9.57.1-9.57-1.49C14.93 2.5 15.87 2 18 2c2.13 0 3 2.5 3 5.5s-1.5 3.5-3 3.5v6c0 2.5-1.5 6-4 8h6c0-4.5-5-6-6-6v-2c-.63 1-1.37 1-2 1-1.97 0-3.5-1.89-3.57-4.19 5.36.95 9.57.1 9.57-1.49C9.07 7.5 8.13 5 6 5 3.87 5 3 7.5 3 10.5S4.5 14 6 14c-2.13 0-3 2.5-3 5.5s1.5 3.5 3 3.5-3 2.5-3 5.5 5.5-.5 8-2v-6c-1 0-2-.37-3-1-1.97 0-3.5-1.89-3.57-4.18 5.36.95 9.57.1 9.57-1.49C14.93 16.5 15.87 14 18 14c2.13 0 3 2.5 3 5.5s-1.5 3.5-3 3.5-3 2.5-3 5.5 5.5-.5 8-2v-6c-1 0-2-.37-3-1-1.97 0-3.5-1.89-3.56-4.19 5.35.96 9.56.1 9.56-1.49C20 16 22 14 22 11s-2-2-2-2 2-2 2-5 0-3-2-3 0-2-2-2-2 2-2 2 0-3-2-3-2 2-2 2zm-1 15v2.13c-2.39 1.15-4 2.61-4 4.36h6c0-1.72-1.5-3.5-2-4.5z"/>
</svg>