<svg xmlns="http://www.w3.org/2000/svg" viewBox="0 0 24 24" class="icon icon-umbrella-tree">
  <path d="M12,2 C6.48,2 2,6.48 2,12 C2,15.36 4.19,18.22 7,19.54 V22 H9 V19.08 C9.33,19.04 9.66,19 10,19 C10.34,19 10.67,19.04 11,19.08 V22 H13 V19.54 C15.81,18.22 18,15.36 18,12 C18,6.48 13.52,2 8,2 Z M8,4 C11.31,4 14,6.69 14,10 C14,10.55 13.55,11 13,11 C12.45,11 12,10.55 12,10 C12,7.79 10.21,6 8,6 C7.45,6 7,5.55 7,5 C7,4.45 7.45,4 8,4 Z M6,12 L8,12 L8,14 L6,14 L6,12 Z M10,12 L12,12 L12,14 L10,14 L10,12 Z M14,12 L16,12 L16,14 L14,14 L14,12 Z"></path>
</svg>