<svg xmlns="http://www.w3.org/2000/svg" class="icon icon-medical-syringe" viewBox="0 0 24 24">
    <path d="M0 0h24v24H0z" fill="none"/>
    <path d="M17 4.69V2h1v6h-1V6.69l-1.137-.942a1.5 1.5 0 0 1-.477-1.106V2h-2v3.283a1.5 1.5 0 0 1-.217.723L12.326 7l1.896 1.316a1.5 1.5 0 0 1 .588 1.189V14H13v2.141a1.5 1.5 0 0 1-.325.894l-1.704 1.962a4.992 4.992 0 0 0 7.034-.036l1.392-1.512A1.5 1.5 0 0 1 20 16.066V11h1V9h-1V7.35a1.5 1.5 0 0 1-.68-1.23l-1.581-1.888L17 4.69z">
    </path>
    <path d="M4 10v2h1v6a2 2 0 0 0 2 2h2a2 2 0 0 0 2-2v-6h1v-2H4z">
    </path>
</svg>