<svg xmlns="http://www.w3.org/2000/svg" viewBox="0 0 24 24" class="icon icon-light-spectrum">
    <path d="M12 2C6.48 2 2 6.48 2 12s4.48 10 10 10 10-4.48 10-10S17.52 2 12 2zm0 18c-4.41 0-8-3.59-8-8s3.59-8 8-8 8 3.59 8 8-3.59 8-8 8z"/>
    <path d="M4.06 14.06C4.52 15.1 5.23 16 6.18 16.83 7.06 17.66 8.13 18.26 9.3 18.6l1.44-5.07-2.83-2.83-3.85 3.36z"/>
    <path d="M14.97 10.97l-2.83 2.83 5.07 1.44c.35 1.17.94 2.24 1.76 3.12.83.94 1.73 1.66 2.78 2.11l3.36-3.85-5.14-5.15z"/>
    <path d="M6.18 7.17C5.23 8.01 4.52 8.9 4.06 9.94l3.85 3.36 2.83-2.83-5.07-1.44c-.16-.6-.25-1.23-.32-1.86-.02-.2-.03-.39-.05-.57-.1-.85-.1-1.7 0-2.53.02-.2.05-.4.08-.61.07-.64.2-1.26.38-1.87L6.18 7.17 6.18 7.17 6.18 7.17z"/>
    <path d="M7.16 4.06c.98-.53 2.07-.92 3.22-1.18.46-.1.93-.18 1.4-.25.95-.13 1.92-.2 2.88-.2s1.93.07 2.88.2c.47.07.94.15 1.4.25 1.15.26 2.24.65 3.22 1.18l-3.33 3.86-2.88-2.88-2.88 2.88L7.16 4.06z"/>
</svg>