<svg xmlns="http://www.w3.org/2000/svg" viewBox="0 0 24 24" class="icon icon-Nanotechnology">
    <path d="M12 2C6.48 2 2 6.48 2 12s4.48 10 10 10 10-4.48 10-10S17.52 2 12 2zM9.27 7.76c.35-.1.71-.17 1.09-.19.1-.4.31-.77.62-1.06C9.47 6.96 8.5 7.95 8.23 9.12c.7-.13 1.41-.11 2.08.08-.37-.39-.61-.91-.62-1.44zm4.19-1.23c.4.28.7.65.88 1.07.38.02.76.09 1.11.22-.27-1.18-1.11-2.22-2.33-2.66.14.39.2.8.19 1.21-.61-.18-1.25-.28-1.92-.31.33.42.54.95.57 1.47zm2.34 1.86c-.63-.2-1.32-.29-2.02-.27.03-.51-.1-1.01-.37-1.45.73.15 1.39.45 1.96.86-.46-1.31-1.74-2.26-3.21-2.42.07.44.06.89-.04 1.33-.37-.26-.79-.45-1.24-.56.28.47.44 1.01.44 1.57 0 .18-.02.35-.05.52-.14-.1-.3-.18-.47-.26.19.15.37.33.52.52-.31-.13-.64-.23-.98-.28.16.17.29.36.39.57-.4-.1-.82-.15-1.24-.15-.18 0-.35.01-.53.04.16.14.3.3.41.48-.35-.04-.7-.04-1.06 0 .13.15.29.28.41.43-.31 0-.62.04-.92.11.12.12.26.23.37.36-.27.04-.54.11-.8.2.1.11.21.21.33.31-.22.11-.44.24-.65.39.09.08.19.16.3.23-.2.16-.39.33-.57.52.08.05.16.11.24.16-.17.18-.33.38-.46.59.07.03.14.06.22.09-.14.21-.26.42-.36.64.07.02.14.03.22.04-.12.23-.21.47-.28.72.06.01.12.02.19.02-.05.26-.07.52-.07.79.05 0 .1 0 .16-.01-.02.25-.01.51.03.76.04-.01.08-.01.12-.01 0 .27.05.53.13.78.05-.01.09-.02.14-.02.09.28.22.54.38.78.04-.01.08-.02.12-.03.18.26.39.5.62.72.03-.01.05-.02.08-.03.24.24.5.46.78.65.02 0 .05-.01.07-.02.28.2.58.38.89.53 0 0 .02-.01.03-.01.31.16.64.29.98.39 0 0 .01 0 .02-.01.33.11.68.19 1.03.24 0 0 .01 0 .02-.01.35.06.71.08 1.07.08 0 0 .01 0 .02-.01.36 0 .71-.02 1.07-.08 0 0 .01 0 .02.01.35-.05.7-.13 1.03-.24 0 0 .01 0 .02.01.34-.1.67-.23.98-.39 0 0 .02.01.03.01.31-.15.61-.33.89-.53 0 0 .03.01.07.02.28-.19.54-.41.78-.65 0 0 .05.01.08.03.23-.22.44-.46.62-.72.04.01.08.02.12.03.16-.24.29-.5.38-.78.05.01.09.02.14.02.08-.25.13-.51.13-.78.04 0 .08 0 .12.01.04-.25.05-.51.03-.76.06 0 .11 0 .16.01 0-.27-.02-.53-.07-.79.06 0 .12-.01.19-.02-.07-.25-.16-.49-.28-.72.07-.01.14-.02.22-.04-.1-.22-.22-.43-.36-.64.07-.03.14-.06.22-.09-.13-.21-.29-.41-.46-.59.08-.05.16-.11.24-.16-.18-.19-.37-.36-.57-.52.1-.07.21-.15.3-.23-.21-.15-.43-.28-.65-.39.11-.1.23-.2.33-.31-.26-.09-.53-.16-.8-.2.11-.13.25-.24.37-.36-.3-.07-.61-.11-.92-.11.13-.15.29-.28.41-.43-.36-.04-.71-.04-1.06 0 .11-.18.25-.34.41-.48-.18-.03-.35-.04-.53-.04-.42 0-.84.05-1.24.15.1-.21.23-.4.39-.57-.34.05-.67.15-.98.28.15-.19.33-.37.52-.52-.17.08-.33.16-.47.26-.03-.17-.05-.34-.05-.52 0-.56.16-1.1.44-1.57-.45.11-.87.3-1.24.56-.1-.44-.11-.89-.04-1.33-1.47.16-2.75 1.11-3.21 2.42.57-.41 1.23-.71 1.96-.86-.27-.44-.4-.94-.37-1.45-.7-.02-1.39.07-2.02.27.73-.76 1.82-1.2 3.02-1.2s2.29.44 3.02 1.2c.73-.76 1.82-1.2 3.02-1.2s2.29.44 3.02 1.2z"></path>
</svg>