<svg xmlns="http://www.w3.org/2000/svg" viewBox="0 0 24 24" class="icon icon-dna-strand">
    <path d="M12,2C6.487,2,2,6.487,2,12s4.487,10,10,10s10-4.487,10-10S17.513,2,12,2z M12,20c-4.411,0-8-3.589-8-8s3.589-8,8-8
    s8,3.589,8,8S16.411,20,12,20z"/>
    <path d="M12,10c-1.107,0-2,.892-2,2s.893,2,2,2s2-.892,2-2S13.107,10,12,10z"/>
    <path d="M8,14c-2.209,0-4,1.791-4,4s1.791,4,4,4s4-1.791,4-4S10.209,14,8,14z M8,20c-1.107,0-2-.892-2-2s.893-2,2-2s2,.892,2,2
    S9.107,20,8,20z"/>
    <path d="M16,8c-2.209,0-4,1.791-4,4s1.791,4,4,4s4-1.791,4-4S18.209,8,16,8z M16,14c-1.107,0-2-.892-2-2s.893-2,2-2s2,.892,2,2
    S17.107,14,16,14z"/>
</svg>