<svg xmlns="http://www.w3.org/2000/svg" viewBox="0 0 24 24" class="icon icon-mind-reading">
  <circle cx="12" cy="12" r="10" class="primary"/>
  <path class="secondary" d="M12 2a9 9 0 0 1 3 17.4c-1.3 0-2.5-.47-3.5-1.26-1 .8-2.2 1.27-3.5 1.27A9 9 0 1 1 12 2zm0 11a2 2 0 1 0 0-4 2 2 0 0 0 0 4z"/>
  <path class="primary" d="M12 14a3 3 0 0 1-3-3c0-.8.32-1.55.84-2.1-.52-.56-.84-1.3-.84-2.1a3 3 0 0 1 6 0c0 .8-.32 1.54-.84 2.1.52.55.84 1.3.84 2.1a3 3 0 0 1-3 3z"/>
  <path class="secondary" d="M13.09 17.75a6.47 6.47 0 0 0 3.41-2.56 10 10 0 0 1-3.5 2.79 10 10 0 0 1-3.5-2.8 6.46 6.46 0 0 0 3.4 2.56 3.98 3.98 0 0 0 4.47-.72c-.68.57-1.57.94-2.62.97-.23-.01-.45-.03-.68-.04z"/>
</svg>