<svg xmlns="http://www.w3.org/2000/svg" class="icon icon-globe-globe" viewBox="0 0 24 24">
  <path d="M12 2C6.477 2 2 6.477 2 12s4.477 10 10 10 10-4.477 10-10S17.523 2 12 2zm9.446 6h-4.065c-.526-2.334-2.487-4-4.708-4-1.761 0-3.29.898-4.154 2.219a9.98 9.98 0 00-3.442-.719v2c1.7 0 3.254.689 4.354 1.785l.599.589a2.978 2.978 0 012.2-.533A3 3 0 1115 14v1.69c1.333-.319 2.53-1.034 3.446-2V8zM4 12c0 1.042.156 2.053.451 3h3.092a13.577 13.577 0 01-.25-1 5 5 0 01.25-1H4.451A9.956 9.956 0 014 12zm6.03-5H7.554a9.965 9.965 0 00-1 3h3.029a3 3 0 011-3zm3.64 5h-2.956a3 3 0 011-3h2.956a3 3 0 01-1 3zm1 .5A3.5 3.5 0 0112.5 15h-1a3.5 3.5 0 01-3.501-3.5A1.5 1.5 0 018 12v1a1 1 0 002 0v-1c0-.284-.223-.5-.5-.5h-1a.5.5 0 110-1h1A1.5 1.5 0 0110 10.5V11a1 1 0 102 0v-.5a1.5 1.5 0 01.5-.5c.878 0 1.584.494 1.874 1.086a2.99 2.99 0 011.029-.117c1.386 0 2.354.862 2.866 2H19.4a9.965 9.965 0 00-.73-3h-2.6z"/>
</svg>