<svg xmlns="http://www.w3.org/2000/svg" class="icon icon-alien-invasion">
<path fill-rule="evenodd" d="M10.406 3.322a2 2 0 11-1 3.636 2 2 0 011-3.636zM7.05 10.885a3.517 3.517 0 016.899 0H7.05zM16 17.5c1.333-1.938 3-3.333 3-5C19 10.806 18.02 10 16.725 10a1 1 0 00-.962.725A4.688 4.688 0 0116 11.5v6zm-2.5-6v6h-11v-6C3 12.162 4.835 10.5 6.275 10a1 1 0 00-.962-.725C4.981 10 4 10.806 4 12.5c0 1.667 1.667 3.062 3 5zM8 7c0-1.104-.895-2-2-2s-2 .896-2 2 .895 2 2 2 2-.896 2-2zm10 0c0-1.104-.895-2-2-2s-2 .896-2 2 .895 2 2 2 2-.896 2-2z"></path>
</svg>