<svg xmlns="http://www.w3.org/2000/svg" class="icon icon-sustainable-living" viewBox="0 0 24 24">
    <path d="M5 13h14v7H5v-7z"/>
    <path d="M19 0H5C3.3 0 2 1.3 2 3v7h20V3c0-1.7-1.3-3-3-3z"/>
    <path d="M7 3h10v5H7V3zm13 6H4v11c0 1.7 1.3 3 3 3h10c1.7 0 3-1.3 3-3V9zm-8 6c1.1 0 2-.9 2-2s-.9-2-2-2-2 .9-2 2 .9 2 2 2z"/>
    <path d="M7 9.5c0-1.7 1.3-3 3-3s3 1.3 3 3-1.3 3-3 3-3-1.3-3-3zM16 .5c1.4 0 2.5 1.1 2.5 2.5S17.4 5.5 16 5.5 13.5 4.4 13.5 3 14.6 .5 16 .5zM8 16.5c0 1.7 1.3 3 3 3s3-1.3 3-3H8z"/>
</svg>