<svg xmlns="http://www.w3.org/2000/svg" viewBox="0 0 24 24" class="icon icon-cogwheel-mechanism">
    <path d="M12 2C6.48 2 2 6.48 2 12s4.48 10 10 10 10-4.48 10-10S17.52 2 12 2zm0 18c-4.41 0-8-3.59-8-8s3.59-8 8-8 8 3.59 8 8-3.59 8-8 8z"/>
    <path d="M22.5 10.75h-2.69c-.17-.82-.58-1.55-1.19-2.16l1.9-1.9l-2.46-2.46l-1.9 1.9A6.004.72 5.06 0 0 0 12 6.5V4.5C15.03 4.5 17.72 6.61 18.93 10h-2.43c-.75-2.13-2.76-3.65-5.5-3.65s-4.75 1.52-5.5 3.65H5.07C6.28 6.61 8.97 4.5 12 4.5v2c-.83 0-1.62.16-2.35.5l-1.9-1.9l-2.47 2.47l1.9 1.9c-.61.61-1.01 1.35-1.19 2.16h-2.7v2.49h2.7c.17.82.58 1.54 1.19 2.16l-1.9 1.9l2.46 2.46l1.9-1.9c.73.33 1.52.5 2.35.5v2c-3.03 0-5.72-2.11-6.93-5.49h2.43c.75 2.13 2.76 3.65 5.5 3.65s4.75-1.52 5.5-3.65h2.43c-1.2 3.38-3.9 5.49-6.93 5.49v-2c.83 0 1.61-.16 2.35-.5l1.9 1.9l2.46-2.46l-1.9-1.9c.61-.61 1.02-1.34 1.2-2.16h2.69V10.75z"/>
</svg>