<svg xmlns="http://www.w3.org/2000/svg" viewBox="0 0 24 24" class="icon icon-gooseberry">
    <path d="M12 2C6.48 2 2 6.48 2 12s4.48 10 10 10 10-4.48 10-10S17.52 2 12 2zm0 18c-4.41 0-8-3.59-8-8s3.59-8 8-8 8 3.59 8 8-3.59 8-8 8z"/>
    <path d="M4 12H2v2h2v-2zm18 0h-2v2h2v-2zm-2-7h-2v2h2V5zm-15 0H4v2h2V5zm8 15h-2v2h2v-2zm-5-4H7v2h2v-2zm12 0h-2v2h2v-2zm-10 0H7v2h2v-2zm12-10h-2v2h2V5zm-8 15h-2v2h2v-2zm5-4h-2v2h2v-2zM7 7H5v2h2V7zm15 0h-2v2h2V7zm-5 12h-2v2h2v-2zM5 12H3v2h2v-2zm15 0h-2v2h2v-2zm-8 5H9v2h2v-2zm5-12H9v2h2V7zm5 0h-2v2h2V7z"/>
</svg>