<svg xmlns="http://www.w3.org/2000/svg" class="icon icon-confetti-cannon.svg icon-lightbulb-idea" viewBox="0 0 24 24">
    <path d="M11 2L12 2L12 8L11 8L11 2Z" stroke="none"/>
    <path d="M9 22V13H15V22H9Z" stroke="none"/>
    <path d="M7 9H17V11H7V9Z" stroke="none"/>
    <path d="M6 14H6.01H6Z" stroke="none"/>
    <path d="M18 14H18.01H18Z" stroke="none"/>
    <path d="M7 22C7 22.5523 7.44772 23 8 23H8.01H8C8.55228 23 9 22.5523 9 22H9.01H9C9 21.4477 8.55228 21 8 21H8.01H8C7.44772 21 7 21.4477 7 22Z" stroke="none"/>
    <path d="M15 22C15 22.5523 15.4477 23 16 23H16.01H16C16.5523 23 17 22.5523 17 22H17.01H17C17 21.4477 16.5523 21 16 21H16.01H16C15.4477 21 15 21.4477 15 22Z" stroke="none"/>
    <path d="M9 4H15C15.5523 4 16 4.44771 16 5V6H8V5C8 4.44772 8.44771 4 9 4Z" stroke="none"/>
</svg>