<svg xmlns="http://www.w3.org/2000/svg" viewBox="0 0 24 24" class="icon icon-oil-lamp">
    <path d="M12 2C6.48 2 2 6.48 2 12c0 1.33.26 2.61.74 3.77.1.24.26.47.45.68l4.42 4.42c.41.41 1.08.41 1.49 0 .41-.41.41-1.08 0-1.49L5.12 15c-.5-.66-.88-1.41-1.11-2.2-.12-.41.15-.82.57-.93.35-.09.73.05.93.35.34 1.14 1.07 2.14 2.1 2.8.83.56 1.83.87 2.86.87s2.02-.31 2.86-.86c1.04-.66 1.77-1.65 2.1-2.8.09-.28.35-.46.65-.46.06 0 .12.01.17.03.41.12.68.52.57.93-.23.79-.61 1.54-1.12 2.2l-3.77 3.77c-.41.41-.41 1.08 0 1.49.41.41 1.08.41 1.49 0l4.42-4.42c.2-.2.36-.43.46-.67C21.74 14.61 22 13.33 22 12 22 6.48 17.52 2 12 2zm0 14c-2.76 0-5-2.24-5-5s2.24-5 5-5 5 2.24 5 5-2.24 5-5 5z"/>
</svg>