<svg xmlns="http://www.w3.org/2000/svg" viewBox="0 0 24 24" class="icon icon-wireless-charging">
  <path d="M12 4C8.13401 4 5 7.13401 5 11C5 12.6569 6.34315 14 8 14C8.55228 14 9 13.5523 9 13C9 12.4477 8.55228 12 8 12C9.65685 12 11 10.6569 11 9C11 8.44772 10.5523 8 10 8C10.5523 8 11 7.55228 11 7C11 5.34315 9.65685 4 8 4C8.55228 4 9 3.55228 9 3C9 2.44772 8.55228 2 8 2C6.34315 2 5 3.34315 5 5C5 6.65685 6.34315 8 8 8C7.44772 8 7 8.44772 7 9C7 10.6569 8.34315 12 10 12C9.44772 12 9 12.4477 9 13C9 14.6569 10.3431 16 12 16C11.4477 16 11 16.4477 11 17C11 18.6569 12.3431 20 14 20C13.4477 20 13 20.4477 13 21C13 22.6569 14.3431 24 16 24C14.3431 24 13 22.6569 13 21C13 19.3431 14.3431 18 16 18C15.4477 18 15 17.5523 15 17C15 15.3431 16.3431 14 18 14C17.4477 14 17 13.5523 17 13C17 11.3431 18.3431 10 20 10C19.4477 10 19 9.55228 19 9C19 7.34315 17.6569 6 16 6C17.6569 6 19 7.34315 19 9C19 10.6569 17.6569 12 16 12C16.5523 12 17 12.4477 17 13C17 14.6569 15.6569 16 14 16C15.6569 16 17 17.3431 17 19C17 20.6569 15.6569 22 14 22C16.7614 22 19 19.7614 19 17C19 14.2386 16.7614 12 14 12C16.7614 12 19 14.2386 19 17C19 19.7614 16.7614 22 14 22C11.2386 22 9 19.7614 9 17C9 14.2386 11.2386 12 14 12C11.2386 12 9 14.2386 9 17C9 19.7614 11.2386 22 14 22C16.7614 22 19 19.7614 19 17C19 14.2386 16.7614 12 14 12C16.7614 12 19 9.23858 19 6C19 2.68629 16.3137 0 13 0C9.68629 0 7 2.68629 7 6C7 9.31371 9.68629 12 13 12C16.3137 12 19 9.31371 19 6C16.3137 6 14 3.68629 14 0Z"/>
</svg>