<svg xmlns="http://www.w3.org/2000/svg" viewBox="0 0 24 24" class="icon icon-electric-car-charger icon-satellite">
    <path d="M18 2c-4.477 0-8 3.56-8 8.941 0 2.838 4.26 3.515 6 2.116V20h2V12.057c1.675 1.4 6 0.707 6-2.116C26 5.561 22.477 2 18 2zm-1 9.348V10h-2v1.348a6.006 6.006 0 01-1-.483v1.269L14 13l-.437-.147V8.865a5.992 5.992 0 01-1 .405V10h-2v1.348a5.972 5.972 0 01-1-.858 7.963 7.963 0 003 .641 7.948 7.948 0 003-.641zM4 8.5C4 7.673 4.673 7 5.5 7h13c.827 0 1.5.673 1.5 1.5v2c0 .827-.673 1.5-1.5 1.5h-13C4.673 12 4 11.327 4 10.5v-2zm2 0a.5.5 0 00-.5.5v2a.5.5 0 001 0v-2a.5.5 0 00-.5-.5zm10.5-5a.5.5 0 00-.5.5v2a.5.5 0 001 0v-2a.5.5 0 00-.5-.5z"/>
</svg>