<svg xmlns="http://www.w3.org/2000/svg" class="icon icon-volcano.svg icon-molecule" viewBox="0 0 24 24">
    <path d="M12 2C6.48 2 2 6.48 2 12s4.48 10 10 10 10-4.48 10-10S17.52 2 12 2zm-2 14.5c-1.1 0-2-.9-2-2 0-.59.26-1.13.68-1.48l2.1-2.1-1.18-1.16-1.42 1.42c-.39.39-1.02.39-1.41 0-.39-.39-.39-1.02 0-1.41l2.83-2.83c.39-.38 1.02-.38 1.41.01.11.11.2.23.28.36.42-.15.86-.26 1.32-.31l-.06-.33-2.83 2.83 1.42 1.42 2.83-2.83 1.79 1.79c-.67.98-.98 2.14-.98 3.33 0 3.31 2.69 6 6 6 .2 0 .39-.01.59-.03-.46-1.11-1.48-1.97-2.71-2-1.1 0-2 .9-2 2 0 .59.26 1.13.68 1.48l2.1 2.1-1.18 1.16-1.42-1.42c-.39-.39-1.02-.39-1.41 0-.39.39-.39 1.02 0 1.41l2.83 2.83c.39.39 1.02.39 1.41 0a7.04 7.04 0 00.28-.36c.42.15.86.26 1.32.31l.06.33-2.83-2.83 1.42-1.42-2.83 2.83-1.79-1.79c.67-.98.98-2.14.98-3.33 0-3.31-2.69-6-6-6z"/>
</svg>