<svg xmlns="http://www.w3.org/2000/svg" class="icon icon-metronome" viewBox="0 0 24 24">
  <path d="M12 2C6.48 2 2 6.48 2 12s4.48 10 10 10 10-4.48 10-10S17.52 2 12 2zm0 2c3.32 0 6.45 1.72 7.9 4.42-.03-.16-.06-.33-.1-.49C19.09 6.07 15.83 4 12 4zm-4 4h8v2H8v-2zm1.03 10.61c.59-.74 1.27-1.39 2-1.91l2.14 2.15 1.41-1.41-12-12-.71.71 2.54 2.54 9.19 9.19-1.41 1.41-2.16-2.15c-.54.75-1.33 1.37-2.1 1.85l-.47.26c.84.45 1.77.69 2.76.69 3.87 0 7-3.13 7-7 0-.16-.01-.31-.04-.46C18.08 17.15 15.32 20 12 20c-.5 0-.99-.05-1.47-.15l.5.76z"/>
</svg>