<svg xmlns="http://www.w3.org/2000/svg" class="icon icon-message-bird icon-potion-bottle" viewBox="0 0 24 24">
    <path d="M15.25,11.5V20c-2-2.5-4-5-4-5-2.5,2-5,4-5,4v-8.5C9.25,9.5,14.25,6.5,14.25,6.5"/>
    <path d="M8.75,4.5c-4,4-4,10-4,10C7.75,16.5,8.75,12.5,8.75,12.5s1,4,4,7.5c3-3.5,4-7.5,4-7.5S19.75,8.5,15.75,4.5,8.75,4.5,8.75,4.5"/>
    <path d="M6.5,14c0.5-0.5,1.5-0.5,2,0c0.5,0.5,0.5,1.5,0,2"/>
    <path d="M14,14c0.5-0.5,1.5-0.5,2,0c0.5,0.5,0.5,1.5,0,2"/>
    <path d="M12,7c-1,1-1,2.5-1,2.5S11,9.5,12,9.5s1,0.5,1,0S13,8,12,7"/>
    <path d="M12.5,2v2"/>
    <path d="M11.5,2v2"/>
    <path d="M7.5,9h1"/>
    <path d="M15.5,9h1"/>
</svg>