<svg xmlns="http://www.w3.org/2000/svg" viewBox="0 0 24 24" class="icon icon-quill-scroll">
    <path d="M2,5 L2,19 C2,20.1 2.9,21 4,21 L20,21 C21.1,21 22,20.1 22,19 L22,5 C22,3.9 21.1,3 20,3 L4,3 C2.9,3 2,3.9 2,5 Z"></path>
    <circle cx="8" cy="9" r="2"></circle>
    <path d="M16,21 L16,17"></path>
    <path d="M17,16 L19,16 L19,20 C19,20.6 18.6,21 18,21" fill="none"></path>
    <line x1="18" y1="16" x2="18" y2="16"></line>
    <path d="M4,13 L14,13"></path>
    <line x1="2" y1="4" x2="8" y2="10" stroke="#000" stroke-width="2"></line>
    <line x1="3" y1="5" x2="9" y2="11" stroke="#000" stroke-width="2"></line>
</svg>
