<svg xmlns="http://www.w3.org/2000/svg" class="icon icon-thumb-up-feedback" viewBox="0 0 24 24">
<path d="M0 0h24v24H0z" fill="none"/>
<path d="M2 9h3V6a3 3 0 0 1 3-3h5.5c1.539 0 2.749.696 3.5 1.744V3a2 2 0 0 1 2-2 1 1 0 0 1 1 1v7.223l-1.612.45a4.008 4.008 0 0 1-.674-.28l-.446-.328a5.99 5.99 0 0 0-2.372-1.07L15 8h-2V6h-3v3L2 12v2h6.708a5.985 5.985 0 0 0 3.25 1.795l1.086.326a4.002 4.002 0 0 1 1.684 1.748L15 19v2a1 1 0 0 1-1 1 2.5 2.5 0 0 1-2.5-2.5V14H9v8H2v1a1 1 0 1 1-2 0v-4a1 1 0 0 1 1-1v-2a3 3 0 0 1 1-2.235V9z"/>
</svg>