<svg xmlns="http://www.w3.org/2000/svg" viewBox="0 0 24 24" class="icon icon-feather-feather">
    <path d="M7 1c0 5.523 4.477 10 10 10 3.866 0 7.032-1.68 7.999-4.185 0-.522-.228-1.022-.643-1.432l-9.356-9.383c-.4-.416-.9-.647-1.415-.647-.528 0-1.032.228-1.436.632-.41.41-.643.915-.643 1.443L7 1z"></path>
    <path d="M21.304 6.696C21.31 6.696 21.317 6.699 21.324 6.705l2.671 2.671c.41.41.643.915.643 1.443 0 .528-.228 1.032-.632 1.436l-5.266 5.275-4.343-4.344 5.265-5.275a2.045 2.045 0 01.338-.21z"></path>
</svg>