<svg xmlns="http://www.w3.org/2000/svg" viewBox="0 0 24 24" class="icon icon-ticket-booking">
  <path d="M21.9,5.1H2.1C1.5,5.1,1,5.6,1,6.2v11.5c0,0.6,0.5,1.1,1.1,1.1h19.8c0.6,0,1.1-0.5,1.1-1.1V6.2C23,5.6,22.5,5.1,21.9,5.1z"></path>
  <path d="M20.4,7.4h-1.9v-1c0-0.6-0.5-1.1-1.1-1.1h-3.4c-0.6,0-1.1,0.5-1.1,1.1v1H3.6c-0.6,0-1.1,0.5-1.1,1.1v2.2h18v-2.2C21.5,7.9,21,7.4,20.4,7.4z"></path>
  <path d="M12,10.6c-0.6,0-1.1,0.5-1.1,1.1v4.4c0,0.6,0.5,1.1,1.1,1.1s1.1-0.5,1.1-1.1v-4.4C13.1,11.1,12.6,10.6,12,10.6z"></path>
  <circle cx="12" cy="12.7" r="1"></circle>
</svg>