<svg xmlns="http://www.w3.org/2000/svg" viewBox="0 0 24 24" class="icon icon-infrared">
  <path d="M12 2C6.48 2 2 6.48 2 12s4.48 10 10 10 10-4.48 10-10S17.52 2 12 2zm0 18c-4.41 0-8-3.59-8-8s3.59-8 8-8 8 3.59 8 8-3.59 8-8 8z"/>
  <path d="M16.5 13c-0.42 0-0.83-0.04-1.24-0.11l-1.85-1.85c-0.2-0.2-0.38-0.31-0.76-0.31-0.55 0-1 .45-1 1v3.5c0 .55-.45 1-1 1s-1-.45-1-1V7.21c0-.45.45-.67.85-.35l2.94 2.94c.45.45 1.15.45 1.65 0 .45-.45.45-1.1 0-1.66l-3-2.93c-.59-.58-1.55-.58-2.12 0-.59.58-.59 1.54 0 2.12.59.59 1.53.59 2.12 0l1.59-1.59v3.89c0 .96 1.09 1.43 1.71.71l1.88-1.88c.34-.34.51-.79.51-1.3 0-1.31-1.15-2.2-2.5-2.2s-2.5.89-2.5 2.2v5.3c0 1.31 1.19 2.2 2.5 2.2s2.5-.89 2.5-2.2c0-.78-.38-1.47-0.96-1.85-.12-.08-.25-.12-.39-.17v.01c.31.26.5.62.5 1.01 0 .83-.67 1.5-1.5 1.5z"/>
</svg>