<svg xmlns="http://www.w3.org/2000/svg" viewBox="0 0 24 24" class="icon icon-arctic-wolf">
  <path d="M12 2C6.485 2 2 6.486 2 12s4.485 10 10 10 10-4.486 10-10S17.515 2 12 2zm0 18c-4.411 0-8-3.589-8-8s3.589-8 8-8 8 3.589 8 8-3.589 8-8 8zm-.5-13.5c-1.38 0-2.5 1.12-2.5 2.5s1.12 2.5 2.5 2.5 2.5-1.12 2.5-2.5-1.12-2.5-2.5-2.5zm0 13c-2.485 0-4.5-2.014-4.5-4.5 0-.276.224-.5.5-.5h2.5v2.5c0 .276-.224.5-.5.5s-.5-.224-.5-.5v-1h-1v1c0 1.93 1.57 3.5 3.5 3.5s3.5-1.57 3.5-3.5-1.57-3.5-3.5-3.5zm0-4.5c-1.93 0-3.5 1.57-3.5 3.5h1c0-1.38 1.12-2.5 2.5-2.5 1.38 0 2.5 1.12 2.5 2.5s-1.12 2.5-2.5 2.5-2.5-1.12-2.5-2.5h-1c0 1.93 1.57 3.5 3.5 3.5 1.93 0 3.5-1.57 3.5-3.5s-1.57-3.5-3.5-3.5z"/>
</svg>