<svg xmlns="http://www.w3.org/2000/svg" class="icon icon-dice-dice" viewBox="0 0 24 24">
    <path d="M0 0h24v24H0z" fill="none"/>
    <path d="M11 11V8a1 1 0 0 1 1-1h2a1 1 0 0 1 1 1v3h3a1 1 0 0 1 1 1v2a1 1 0 0 1-1 1h-3v3a1 1 0 0 1-1 1h-2a1 1 0 0 1-1-1v-3H8a1 1 0 0 1-1-1v-2a1 1 0 0 1 1-1h3z" />
    <path d="M5 5H4a1 1 0 0 0-1 1v1a1 1 0 0 0 1 1h1a1 1 0 0 0 1-1V6a1 1 0 0 0-1-1z"/>
    <path d="M20 5h-1a1 1 0 0 0-1 1v1a1 1 0 0 0 1 1h1a1 1 0 0 0 1-1V6a1 1 0 0 0-1-1z"/>
    <path d="M5 20H4a1 1 0 0 1-1-1v-1a1 1 0 0 1 1-1h1a1 1 0 0 1 1 1v1a1 1 0 0 1-1 1z"/>
    <path d="M20 20h-1a1 1 0 0 1-1-1v-1a1 1 0 0 1 1-1h1a1 1 0 0 1 1 1v1a1 1 0 0 1-1 1z"/>
</svg>