<svg xmlns="http://www.w3.org/2000/svg" class="icon icon-lightbulb">
  <path d="M12 1C8.13 1 5 4.13 5 8c0 2.37 1.16 4.47 3 5.74V15h6v-1.26c1.84-1.27 3-3.37 3-5.74C19 4.13 15.87 1 12 1zM8.92 11c-.57-1.02-.92-2.21-.92-3.5 0-2.21 1.79-4 4-4s4 1.79 4 4c0 1.29-.35 2.48-.92 3.5H8.92zM12 20h-2v-2h2v2zm6.3-6h-2.69c.15-.45.24-.94.24-1.47 0-.83-.2-1.62-.55-2.32C16.13 9.82 16 9.33 16 8.73 16 6.78 14.22 5 12 5s-4 1.78-4 4v1c0 .19-.13.37-.33.47A3.505 3.505 0 007 13c0 .33.06.65.15 1H4.7A8.522 8.522 0 0012 20h2c1.76 0 3.39-.58 4.7-1.57A8.522 8.522 0 0018.3 14z"/>
</svg>