<svg xmlns="http://www.w3.org/2000/svg" class="icon icon-dark-matter" viewBox="0 0 24 24">
    <path d="M12 2C6.48 2 2 6.48 2 12s4.48 10 10 10 10-4.48 10-10S17.52 2 12 2zm0 18c-4.41 0-8-3.59-8-8s3.59-8 8-8 8 3.59 8 8-3.59 8-8 8z"/><path d="M0 0h24v24H0z" fill="none"/>
    <path d="M7.595 4.68c.876-.873 2.247-.84 3.123.037l.15.15c.875-.876 2.248-.91 3.122-.035l.152.15c.875-.876 2.248-.91 3.123-.036l.15.15c.876-.875 2.248-.911 3.123-.036l.151.15V2.517S14 2.014 12 2.014 4.5 2.5 4.5 2.5v2.264c.883-.86 2.276-.886 3.096-.084zm.757 14.972l-.156-.156c-.875.875-2.248.91-3.121.036l-.152-.15-.15.15c-.874.874-2.247.838-3.121-.037l-.15-.15V21.5s7.5.5 9.5.5 9.5-.5 9.5-.5v-2.258l-.15.15c-.874.874-2.247.839-3.122-.036l-.151-.152-.152.152c-.875.875-2.248.909-3.122.035l-.151-.151zm7.194-10.378V6.764l-2.546 2.51L12 9.257l-.757-.75L8.705 6.79v2.488L12 11.225l3.546-3.475z"/>
</svg>