<svg xmlns="http://www.w3.org/2000/svg" viewBox="0 0 24 24" class="icon icon-pancake">
  <path d="M12 22C16.97 22 21 17.97 21 13C21 12.3524 20.9167 11.7179 20.7593 11.1065L20.7071 10.8284L20.2929 10.4142C19.9024 10.0237 19.9024 9.39053 20.2929 9L21.2929 8C21.6834 7.60948 21.6834 6.97631 21.2929 6.58579L20.7929 6.08579C20.4007 5.69366 19.7752 5.69366 19.3831 6.08579L18.1876 7.28127C17.8002 6.88746 17.4004 6.52093 16.9794 6.18531L16.7071 5.96683L16.4087 5.75736C15.987 5.42174 15.5412 5.12532 15.0781 4.87402L14.7803 4.69996L14.4639 4.52295C13.9771 4.2588 13.4707 4.03601 12.9504 3.85736L12.6446 3.73277L12.3 3.6C11.7309 3.39919 11.1434 3.25826 10.5421 3.17592L10.226 3.12227L9.90039 3.05736C9.27866 2.95096 8.64266 2.88492 8 2.8592C7.35534 2.88492 6.71583 2.95096 6.09161 3.05736L5.77401 3.12227L5.45788 3.17592C4.85656 3.25826 4.26907 3.39919 3.70001 3.6L3.35537 3.73277L3.04957 3.85736C2.52923 4.03601 2.02288 4.2588 1.53613 4.52295L1.21967 4.69996L0.92188 4.87402C0.458791 5.12532 0.0129693 5.42174 -0.40867 5.75736L-0.707107 5.96683L-0.97944 6.18531C-1.4004 6.52093 -1.8002 6.88746 -2.18755 7.28127L-2.38307 6.08579C-2.7752 5.69366 -3.40067 5.69366 -3.79289 6.08579L-4.29289 6.58579C-4.68342 6.97631 -4.68342 7.60948 -4.29289 8L-3.29289 9C-2.90237 9.39053 -2.90237 10.0237 -3.29289 10.4142L-3.70711 10.8284L-3.75928 11.1065C-3.91671 11.7179 -4 12.3524 -4 13C-4 17.97 1.03 22 6 22H12Z"></path>
</svg>