<svg xmlns="http://www.w3.org/2000/svg" viewBox="0 0 24 24" class="icon icon-icon-rocket">
  <path d="M0 0h24v24H0z" fill="none"/>
  <path d="M13 7V1a1 1 0 0 1 2 0v6l2.243 1.152a1 1 0 0 1 .442 1.3l-2.052 6.162a4.992 4.992 0 0 0-1.116-.88l1.74-5.242-2.666-1.37L9.877 14a4.992 4.992 0 0 0-1.463.72l-2.7-2.7a1 1 0 0 1 .32-1.766L13 7zm.341 7.566a6.04 6.04 0 0 1 2.56 2.56l-2.264-.45 5.63-1.316-.45-2.265a6.04 6.04 0 0 1 2.56 2.56l.45-.45-1.316 5.63-2.265-.45a6.04 6.04 0 0 1 2.56-2.56l-.45-2.265-1.316 5.63-.45-2.264zM15 11h2v2h-2v-2z"/>
</svg>
