<svg xmlns="http://www.w3.org/2000/svg" viewBox="0 0 24 24" class="icon icon-climate-change">
    <path d="M12 1a9 9 0 0 1 8.75 7.15h1.05a1 1 0 0 1 .99 1v1a1 1 0 0 1-.99 1h-1.48l-1.33 1.2a5 5 0 0 1-6.94 0l-1.32-1.2H3.99a1 1 0 0 1-.98-1v-1a1 1 0 0 1 .99-1h1.03A9 9 0 0 1 12 1zm0 2a7 7 0 0 0-5.56 8.22l.32.37.38.41A3 3 0 0 0 12 16a3 3 0 0 0 2.86-2H7.1a5 5 0 0 1 9.8 0h-4.9A3 3 0 0 0 12 14a2 2 0 0 1-1.4-.57l-.4-.44-.32-.37A7 7 0 0 0 12 3zm0 6a4 4 0 0 1 3.8 2.39 4.73 4.73 0 0 1 .2 .61H8a5 5 0 0 1 4-4.92V9zm0-2a1 1 0 0 1 1 1h-2a1 1 0 0 1 1-1z"/>
</svg>