<svg xmlns="http://www.w3.org/2000/svg" viewBox="0 0 24 24" class="icon icon-yeti-footprint">
  <path d="M12 2C6.5 2 2 6.5 2 12s4.5 10 10 10 10-4.5 10-10S17.5 2 12 2zm1 14h-2v-1h2v1zm2.31-2.6l-1.15-1c-.36.3-.79.5-1.27.6v2h-1.77v-2c-.48-.1-.9-.29-1.26-.6l-1.15 1c-.37-.42-.59-.95-.6-1.5.57-.63.92-1.41 1-2.3.5-.14 1-.4 1.45-.8l1.45 1v-2h1.77v2l1.44-1c.45.4.94.67 1.44.81.09.89.42 1.66 1 2.3-.01.55-.24 1.08-.61 1.5zM16 7c-.55 0-1-.45-1-1s.45-1 1-1 1 .45 1 1-.45 1-1 1zm-8 0c-.55 0-1-.45-1-1s.45-1 1-1 1 .45 1 1-.45 1-1 1z"/>
</svg>