<svg xmlns="http://www.w3.org/2000/svg" class="icon icon-self-driving-car icon-microscope" viewBox="0 0 32 32">
    <!--Icon for self-driving car-->
    <path d="M11 10h10v9h-1.34l2.68 7.61-1.2.6L20 19h-8l-1.14 3.21-1.2-.6L10.34 19H9v-9zm5 8c1.1 0 2.28.89 2.28 2s-1.18 2-2.28 2-2.28-.89-2.28-2 1.18-2 2.28-2zm7-10H9c-1.1 0-2 .8-2 2v2h1v-1h16v1h1v-2c0-1.2-.9-2-2-2z"/>
    <!--Icon for microscope-->
    <path d="M16,0C9.37,0,4,5.37,4,12v8h8v12h4v-12h8v-8C28,5.37,22.63,0,16,0z M16,15c-1.66,0-3-1.34-3-3s1.34-3,3-3s3,1.34,3,3S17.66,15,16,15z"/>
</svg>