<svg xmlns="http://www.w3.org/2000/svg" viewBox="0 0 24 24" class="icon icon-underwatercity">
  <path d="M12,2C11.447,2,11,2.447,11,3v8H8c-0.553,0-1,0.447-1,1v3c0,0.553,0.447,1,1,1h3v2h-2c-0.553,0-1,0.447-1,1v3c0,0.553,0.447,1,1,1h3c0.553,0,1-0.447,1-1v-3c0-0.553-0.447-1-1-1h-2v-2h3c0.553,0,1-0.447,1-1v-3c0-0.553-0.447-1-1-1h-2V3C13,2.447,12.553,2,12,2z"/>
  <path d="M3,8v11c0,0.553,0.447,1,1,1h1c0.553,0,1-0.447,1-1V8H3z"/>
  <path d="M20,8v11c0,0.553-0.447,1-1,1h-1c-0.553,0-1-0.447-1-1V8H20z"/>
</svg>