<svg xmlns="http://www.w3.org/2000/svg" viewBox="0 0 24 24" class="icon icon-waving-flag">
  <path d="M15.732 5.089a1 1 0 1 1-1.465-1.354A11.976 11.976 0 0 1 22 12a11.976 11.976 0 0 1-7.732 8.265 1 1 0 1 1-.536-1.928A9.976 9.976 0 0 0 20 12a9.976 9.976 0 0 0-4.268-6.911 1 1 0 0 1 0-1.445l.41-.355A5.978 5.978 0 0 1 22 6V5a4.978 4.978 0 0 0-3.636-4.899 1 1 0 1 1 .732-1.934A6.978 6.978 0 0 1 24 5v1c0 1.555-.66 3.069-1.809 4.088l-.195.167zm-4.774.196A5.978 5.978 0 0 1 14 6v1a4.978 4.978 0 0 0-2.364 4.235 1 1 0 0 1-1.989-.283c.18-2.321 1.437-4.328 3.311-5.667zM5 8a4 4 0 0 1 4-4h1.339a1 1 0 0 1 .627 1.779l-2.868 2.56A5.99 5.99 0 0 0 9 12c0 1.3.52 2.48 1.354 3.333a4.978 4.978 0 0 0-2.087 4.064 1 1 0 0 1-1.978-.428A5.978 5.978 0 0 1 7 16v-1a4 4 0 0 1-4-4 1 1 0 1 1 2 0 2 2 0 0 0 2 2v1a3.978 3.978 0 0 0 1.775 3.316 3.988 3.988 0 0 0-.482-2.223C5.913 14.979 7 13.63 7 12a3.981 3.981 0 0 0-1.646-3.316l2.64-2.44H9a2 2 0 0 0-2-2 1 1 0 0 1 0-2z"></path>
</svg>