<svg xmlns="http://www.w3.org/2000/svg" class="icon icon-zeppelin icon-globe-grid" viewBox="0 0 24 24">
  <path d="M0 0h24v24H0z" fill="none"/>
  <path d="M12 1a8.5 8.5 0 0 0-8.5 8.5v5A8.5 8.5 0 0 0 12 23a8.5 8.5 0 0 0 8.5-8.5v-5A8.5 8.5 0 0 0 12 1zm0 2a6.5 6.5 0 0 1 6.5 6.5v5a6.5 6.5 0 0 1-13 0v-5A6.5 6.5 0 0 1 12 3zm0 8a3.5 3.5 0 0 0-3.5 3.5h2A1.5 1.5 0 0 1 12 13.5h5a3.5 3.5 0 0 0-5-2.5zm0 2a1.5 1.5 0 0 0-1.5 1.5v.5h3v-.5a1.5 1.5 0 0 0-1.5-1.5zm4 3a1.5 1.5 0 0 1-.117 3H8.117A1.499 1.499 0 0 1 8 16.5h8z"/>
</svg>