<svg xmlns="http://www.w3.org/2000/svg" class="icon icon-fingerprintverification" viewBox="0 0 24 24">
  <path d="M12 2C6.48 2 2 6.48 2 12c1.33-4.06 5.58-4.63 9-6.92 3.42 2.29 7.67 2.87 9 6.92 0-5.52-4.48-10-10-10zm-7 10c0-3.87 3.13-7 7-7s7 3.13 7 7c-1.83-3.18-5.49-3.47-7-6.13-1.51 2.65-5.17 2.95-7 6.13zm13.2 2.8c.8 1.81 1.2 3.86 1.2 6.2h-2c0-2.34-.4-4.39-1.2-6.2l1.6-1.59 1.6 1.59zM4 12h2c0 2.34.4 4.39 1.2 6.2l-1.6 1.59L4 18.2v-6.2zM8.8 22c.8-1.81 1.2-3.86 1.2-6.2h2c0 2.34-.4 4.39-1.2 6.2l-1.6 1.59L8.8 22zm10.4 0l-1.6-1.59-1.6 1.59c.8-1.81 1.2-3.86 1.2-6.2h2c0 2.34-.4 4.39-1.2 6.2zM12 22h2c0-2.34-.4-4.39-1.2-6.2l1.6-1.59L14 18.2v3.8zM11.2 14.8c.8 1.81 1.2 3.86 1.2 6.2H10c0-2.34.4-4.39 1.2-6.2l1.6-1.59L11.2 14.8z"/>
</svg>