<svg xmlns="http://www.w3.org/2000/svg" class="icon icon-jetpack" viewBox="0 0 24 24">
    <path d="M12 2C6.48505 2 2 6.48505 2 12C2 17.5149 6.48505 22 12 22C17.5149 22 22 17.5149 22 12C22 6.48505 17.5149 2 12 2ZM9.29395 7.29394L12 9.70711L14.7061 7.29394C15.0971 6.90297 15.7308 6.90297 16.1218 7.29394C16.5127 7.68491 16.5127 8.31858 16.1218 8.70955L12.7071 12.1243C12.3161 12.5153 11.6839 12.5153 11.2929 12.1243L7.87817 8.70955C7.4872 8.31858 7.4872 7.68491 7.87817 7.29394C8.26914 6.90297 8.90281 6.90297 9.29378 7.29394Z"/>
</svg>