<svg xmlns="http://www.w3.org/2000/svg" class="icon icon-bottlemessage" viewBox="0 0 24 24">
    <path d="M12.001,2C8.14,2,5,5.14,5,8.999C5,10.403,5.617,11.716,6.688,12.688L12,18.001l5.311-5.313C18.382,11.715,19,10.403,19,8.999C19,5.14,15.861,2,12.001,2z"></path>
    <path d="M12.001,11.585l-3.882-3.882C7.516,7.217,7,7.999,7,8.999C7,11.144,8.857,13,12.001,13s5-1.856,5-4c0-0.999-0.516-1.782-1.119-2.296L12.001,11.585z"></path>
    <path d="M16.199,7.404C16.641,7.769,17,8.349,17,8.999c0,1.62-1.38,3-3.999,3S9,10.619,9,8.999c0-0.649,0.359-1.23,0.801-1.594l0.199-0.156l1.598,1.598l1.598-1.598L16.199,7.404z"></path>
</svg>