<svg xmlns="http://www.w3.org/2000/svg" viewBox="0 0 24 24" class="icon icon-moonstone">
    <path d="M12,2C6.48,2,2,6.48,2,12s4.48,10,10,10s10-4.48,10-10S17.52,2,12,2z M12,20c-4.41,0-8-3.59-8-8s3.59-8,8-8s8,3.59,8,8 S16.41,20,12,20z"/>
    <path d="M7,10.5C7,9.67,7.67,9,8.5,9S10,9.67,10,10.5S9.33,12,8.5,12S7,11.33,7,10.5z"/>
    <path d="M10.5,14C11.33,14,12,13.33,12,12.5S11.33,11,10.5,11S9,11.67,9,12.5S9.67,14,10.5,14z"/>
    <path d="M13.5,16C14.33,16,15,15.33,15,14.5S14.33,13,13.5,13S12,13.67,12,14.5S12.67,16,13.5,16z"/>
</svg>