<svg xmlns="http://www.w3.org/2000/svg" viewBox="0 0 24 24" class="icon icon-social-network">
    <path d="M12,2A9,9,0,0,1,21,11a9.09,9.09,0,0,1-1.67,5.38l-1.41,1.41A10.88,10.88,0,0,1,12,23a10.88,10.88,0,0,1-5.92-1.76l-1.66-1.41A9.09,9.09,0,0,1,3,11,9,9,0,0,1,12,2Zm0,2A7,7,0,0,0,5,11a7.33,7.33,0,0,0,1.89,4.91L12,22l5.11-4.19A7.33,7.33,0,0,0,19,11,7,7,0,0,0,12,4ZM8.5,10A1.5,1.5,0,1,1,10,11.5,1.5,1.5,0,0,1,8.5,10Zm3,0A1.5,1.5,0,1,1,13,11.5,1.5,1.5,0,0,1,11.5,10Zm3,0A1.5,1.5,0,1,1,16,11.5,1.5,1.5,0,0,1,14.5,10Z"/>
</svg>