<svg xmlns="http://www.w3.org/2000/svg" viewBox="0 0 24 24" class="icon icon-robotic-surgery">
    <path d="M21 6h-2.267c-.185 2.352-2.045 4.212-4.397 4.397V8h-1v2.397c-2.352-.185-4.212-2.045-4.397-4.397H3V5h2.267C5.455 2.648 7.315.788 9.667.603V2h1V.603c2.352.185 4.212 2.045 4.398 4.397H21zM11 8h2v3h-2zm10 3v2h-3v-2z"/>
    <path d="M10 18c-2.207 0-4 1.793-4 4 0 1.104.897 2 2 2s2-.896 2-2h-1c0 1.104.897 2 2 2s2-.896 2-2-1.793-4-4-4zm-1 1h2v2h-2zM21 15h-3c0 2.207-1.793 4-4 4s-4-1.793-4-4h-3v-2h3c0-2.207 1.793-4 4-4s4 1.793 4 4h3zm-7 0c-1.104 0-2 .896-2 2s.896 2 2 2 2-.896 2-2-.896-2-2-2z"/>
</svg>