<svg xmlns="http://www.w3.org/2000/svg" viewBox="0 0 24 24" class="icon icon-honey-bee">
  <path d="M9.4,20.5,7.8,21.9c-.4,.4-1.1,.4-1.5,0l-6-6c-.4-.4-.4-1.1,0-1.5L2.8,13.5c.4-.4,1.1-.4,1.5,0l1.6,1.6v-3.2L3.9,10.7c-.4-.4-.4-1.1,0-1.5L5.3,8.1c.4-.4,1.1-.4,1.5,0L7.8,9.4v-3.2L6.2,5.3c-.4-.4-.4-1.1,0-1.5l1.6-1.6c.4-.4,1.1-.4,1.5,0L11,3.2v1.6h2V3.2l1.7-1.7c.4-.4,1.1-.4,1.5,0l1.6,1.6c.4,.4,.4,1.1,0,1.5L16.2,6.2v3.2l1.6-1.6c.4-.4,1.1-.4,1.5,0l1.7,1.7c.4,.4,.4,1.1,0,1.5L18.1,11v3.2l1.7-1.7c.4-.4,1.1-.4,1.5,0L22.2,13c.4,.4,.4,1.1,0,1.5l-6,6c-.4,.4-1.1,.4-1.5,0L13,18.9v-1.6h-2v1.6Z"/>
</svg>