<svg xmlns="http://www.w3.org/2000/svg" viewBox="0 0 24 24" class="icon icon-electric-bike">
  <path d="M7.5 15.5c-1.4 0-2.5-1.1-2.5-2.5s1.1-2.5 2.5-2.5 2.5 1.1 2.5 2.5-1.1 2.5-2.5 2.5zm0-4c-.8 0-1.5.7-1.5 1.5s.7 1.5 1.5 1.5 1.5-.7 1.5-1.5-.7-1.5-1.5-1.5zm10 4c-1.4 0-2.5-1.1-2.5-2.5s1.1-2.5 2.5-2.5 2.5 1.1 2.5 2.5-1.1 2.5-2.5 2.5zm0-4c-.8 0-1.5.7-1.5 1.5s.7 1.5 1.5 1.5 1.5-.7 1.5-1.5-.7-1.5-1.5-1.5zm-10 4c-2.2 0-4 1.8-4 4s1.8 4 4 4 4-1.8 4-4-1.8-4-4-4zm0 6.5c-1.4 0-2.5-1.1-2.5-2.5s1.1-2.5 2.5-2.5 2.5 1.1 2.5 2.5-1.1 2.5-2.5 2.5zm10-2c-2.2 0-4 1.8-4 4s1.8 4 4 4 4-1.8 4-4-1.8-4-4-4zm0 6.5c-1.4 0-2.5-1.1-2.5-2.5s1.1-2.5 2.5-2.5 2.5 1.1 2.5 2.5-1.1 2.5-2.5 2.5z"/>
  <path d="M8.5 10.5h-5v-1h5v1z"/>
  <path d="M18.5 8h-8.8c-.4 0-.7.3-.7.7l-1 10c0 .4.3.7.7.7h2.1c.4 0 .7-.3.7-.7l-.3-3h7.3l-.3 3c0 .4.3.7.7.7h2.1c.4 0 .7-.3.7-.7l-1-10c0-.4-.3-.7-.7-.7z"/>
</svg>