<svg xmlns="http://www.w3.org/2000/svg" class="icon icon-BioHacking.svg icon-global-network" viewBox="0 0 24 24">
  <path d="M12,2C6.48,2,2,6.48,2,12s4.48,10,10,10s10-4.48,10-10 S17.52,2,12,2z M12,22C6.98,22,3,18.02,3,12S6.98,2,12,2s9,4.98,9,9 S17.02,22,12,22z M7.07,7.34C6.36,8.26,6,9.38,6,10.59V12c0,0.72,0.1,1.39,0.26,2h3.32C9.07,13.45,8,12.79,8,12V11 c0-0.35,0.07-0.69,0.2-1H7.07z M14.93,16.66c0.64-0.91,1-2.03,1-3.25v-0.02h-2.14c-0.1,0.69-0.6,1.25-1.2,1.66L12,15l0.59-0.59 C13.06,14.04,14,13.1,14,12h-2v-1h2V9.81c-0.32-0.07-0.66-0.11-1-0.11s-0.68,0.04-1,0.11V11h-2v-1.05c-0.32-0.07-0.66-0.11-1-0.11 s-0.69,0.04-1,0.11V10h2v1h-2v0.58c0,0.72,0.1,1.39,0.26,2h2.73c0.64,0.91,1,2.03,1,3.25v0.01H14.93z M12,7c0.55,0,1,0.45,1,1 v2h2c0.55,0,1,0.45,1,1s-0.45,1-1,1h-2v2c0,0.55-0.45,1-1,1s-1-0.45-1-1v-2h-2c-0.55,0-1-0.45-1-1s0.45-1,1-1h2V8 C11,7.45,11.45,7,12,7z"/>
</svg>