<svg xmlns="http://www.w3.org/2000/svg" viewBox="0 0 24 24" class="icon icon-disco-ball">
  <circle cx="12" cy="12" r="10" fill="none" stroke="currentColor" stroke-width="2"/>
  <g stroke="currentColor" stroke-width="1" fill="none">
    <rect x="12" y="2" width="2" height="2"/>
    <rect x="16" y="2" width="2" height="2"/>
    <rect x="8" y="2" width="2" height="2"/>
    <rect x="4" y="2" width="2" height="2"/>
    <rect x="2" y="4" width="2" height="2"/>
    <rect x="2" y="8" width="2" height="2"/>
    <rect x="2" y="12" width="2" height="2"/>
    <rect x="2" y="16" width="2" height="2"/>
    <rect x="4" y="18" width="2" height="2"/>
    <rect x="8" y="18" width="2" height="2"/>
    <rect x="12" y="18" width="2" height="2"/>
    <rect x="16" y="18" width="2" height="2"/>
    <rect x="18" y="16" width="2" height="2"/>
    <rect x="18" y="12" width="2" height="2"/>
    <rect x="18" y="8" width="2" height="2"/>
    <rect x="18" y="4" width="2" height="2"/>
    <rect x="16" y="6" width="2" height="2"/>
    <rect x="12" y="6" width="2" height="2"/>
    <rect x="8" y="6" width="2" height="2"/>
    <rect x="4" y="6" width="2" height="2"/>
    <rect x="6" y="8" width="2" height="2"/>
    <rect x="6" y="12" width="2" height="2"/>
    <rect x="6" y="16" width="2" height="2"/>
    <rect x="10" y="8" width="2" height="2"/>
    <rect x="10" y="12" width="2" height="2"/>
    <rect x="10" y="16" width="2" height="2"/>
    <rect x="14" y="8" width="2" height="2"/>
    <rect x="14" y="12" width="2" height="2"/>
    <rect x="14" y="16" width="2" height="2"/>
  </g>
</svg>