<svg xmlns="http://www.w3.org/2000/svg" viewBox="0 0 24 24" fill="none" stroke="currentColor" stroke-width="2" stroke-linecap="round" stroke-linejoin="round" class="icon icon-cloud-lightning">
  <path d="M16 5a4 4 0 0 1 3.995 3.8L20 9a6 6 0 0 1 1.364 3.769l.022.209a2 2 0 0 1-1.516 1.961l-.15.018a2.5 2.5 0 0 0-1.256 4.238l.072.083-2.223-2.879a2 2 0 0 1-.881-.176l-.114-.059a4.992 4.992 0 0 1-2.74-.087l-.337-.11a6.992 6.992 0 0 1-3.998-6.292L7 12a4 4 0 0 1 3.8-3.995L11 8h3.273a2 2 0 0 1 1.984-1.716L16 6a4 4 0 0 1 4 4v.105a4.972 4.972 0 0 1 .878-.41L21 9.573a4 4 0 0 0-3.8-4.764L17 5a4 4 0 0 1 1 7.995V13a2.5 2.5 0 0 0-2.336-2.497L15.5 10.5"></path>
</svg>