<svg xmlns="http://www.w3.org/2000/svg" viewBox="0 0 24 24" class="icon icon-octopusintelligence">
  <path d="M12,2A10,10,0,0,0,2,12a10,10,0,0,0,20,0A10,10,0,0,0,12,2Zm0,18A8,8,0,0,1,4,12,8,8,0,0,1,12,4a8,8,0,0,1,8,8,8,8,0,0,1-8,8Z"></path>
  <circle cx="12" cy="8" r="2"></circle>
  <path d="M9,12a1,1,0,0,0,1,1h4a1,1,0,0,0,0-2H10A1,1,0,0,0,9,12Z"></path>
  <path d="M9.43,15.72l1.27-1.01a1,1,0,0,0-1.27,1.01Z"></path>
  <path d="M14.3,14.71l1.27,1.01a1,1,0,0,0-1.27-1.01Z"></path>
  <path d="M8,17a1,1,0,0,0,.57-.19l1-0.8a1,1,0,0,0,.22-1.09A1,1,0,0,0,9,14H8a1,1,0,0,0-1,1v1A1,1,0,0,0,8,17Z"></path>
  <path d="M16,14H15a1,1,0,0,0-.79,.38,1,1,0,0,0,.22,1.09l1,.8A1,1,0,0,0,16,14Z"></path>
  <path d="M6.41,11H4a1,1,0,0,0,0,2H6.41a1,1,0,0,0,0-2Z"></path>
  <path d="M20,11H17.59a1,1,0,0,0,0,2H20a1,1,0,0,0,0-2Z"></path>
</svg>