<svg xmlns="http://www.w3.org/2000/svg" viewBox="0 0 24 24" class="icon icon-astronaut">
    <path d="M12.01 2C6.47 2 2 6.48 2 12C2 16.41 5.72 20.24 10 20.91V22H14V20.91C18.27 20.24 22 16.41 22 12C22 6.48 17.53 2 12.01 2ZM9.17 20H4.69C3.86 18.34 3.35 16.37 3.29 14.31L6 14.76V16H9.17V20ZM14.83 20V16H18V14.67L21.64 14C21.42 16.65 18.43 18.84 15 19.48V22H14.83ZM12 4C14.76 4 17 6.24 17 9H7C7 6.24 9.24 4 12 4ZM3.26 6.83L5.5 10H9C8.45 7.9 8.27 5.65 9 4L3.26 6.83ZM15 4C15.73 5.65 15.55 7.9 15 10H18.5L20.74 6.83L15 4Z" />
</svg>