<svg xmlns="http://www.w3.org/2000/svg" xmlns:xlink="http://www.w3.org/1999/xlink" version="1.1" class="icon icon-moon-phases.svg icon-gears-mechanism" viewBox="0 0 32 32">
  <path d="M16 2C8.28 2 2 8.28 2 16s6.28 14 14 14 14-6.28 14-14S23.72 2 16 2zm0 26C9.38 28 4 22.62 4 16S9.38 4 16 4s12 5.38 12 12-5.38 12-12 12z"/>
  <path d="M25.07 8.5c-3.06 3.06-8 3.06-11.06 0 3.06 3.06 8 3.06 11.06 0-3.06-3.06-3.06-8 0-11.06 3.06 3.06 8 3.06 11.06 0z"/>
  <path d="M18.93 14.5c-1.54 1.54-4.02 1.54-5.56 0 1.54 1.54 4.02 1.54 5.56 0z"/>
  <path d="M16 2v14v-14zM16 30v-14v14zM30 16h-14h14zM2 16h14h-14z"/>
</svg>