<svg xmlns="http://www.w3.org/2000/svg" class="icon icon-hummingbird" viewBox="0 0 24 24">
    <path d="M12.42,2.21A1.50,1.50,0,0,0,10.88.72a10.14,10.14,0,0,0-2.57.66,7.06,7.06,0,0,1,.66,2.41A9.73,9.73,0,0,0,6.89,4.7,1.50,1.50,0,0,0,5.25,6.23,7.64,7.64,0,0,1,4.77,8.89a10,10,0,0,0,2.73.59A7.54,7.54,0,0,1,8.73,10a1.50,1.50,0,0,0,.83,2.8A10,10,0,0,0,10.61,14a7.73,7.73,0,0,1-1.12,1.57A1.50,1.50,0,1,0,10.9,17.16a10.26,10.26,0,0,0,2.80-1.15,7.92,7.92,0,0,1-.70,1.80A1.50,1.50,0,1,0,14.41,19a10.37,10.37,0,0,0,1.04-2.61,7.74,7.74,0,0,1,1.88,.19,1.50,1.50,0,0,0,1.75-1.64,9.87,9.87,0,0,0-.10-2.88,7.59,7.59,0,0,1,1.65-.95,1.50,1.50,0,0,0,.83-2.07,9.82,9.82,0,0,0-2.49-2.34,7.5,7.5,0,0,1,.01-2.79A1.50,1.50,0,0,0,14.18,4.68a10.31,10.31,0,0,0-1.76,.06Z"></path>
</svg>