<svg xmlns="http://www.w3.org/2000/svg" viewBox="0 0 24 24" class="icon icon-octopus-laptop">
  <path d="M2,15H22a1,1,0,0,0,1-1V7A1,1,0,0,0,22,6H2A1,1,0,0,0,1,7V14A1,1,0,0,0,2,15ZM5,12a1,1,0,1,1,1-1A1,1,0,0,1,5,12Zm14,0a1,1,0,1,1,1-1A1,1,0,0,1,19,12Z"></path>
  <path class="octopus" d="M12,6a4,4,0,1,0-4,4,4,4,0,0,0,4-4Zm0,6a2,2,0,1,1,2-2A2,2,0,0,1,12,12ZM5,2A.71,.71,0,0,0,4.73,3,5.91,5.91,0,0,0,7,7.27,.71,.71,0,0,0,8,7,5.91,5.91,0,0,0,9.27,5,.71,.71,0,0,0,9,4ZM2,4A.71,.71,0,0,0,2.73,5,5.91,5.91,0,0,0,5,7.27,.71,.71,0,0,0,6,7,5.91,5.91,0,0,0,7.27,5,.71,.71,0,0,0,7,4Z"></path>
</svg>