<svg xmlns="http://www.w3.org/2000/svg" viewBox="0 0 24 24" class="icon icon-3d-glasses">
  <path d="M3,12H4V13H3V12Zm5,2H6V13H8V14Zm2,0H10V13H12V14Zm2,0H14V13H16V14Zm6,0H20V13H22V14ZM3,14H4V15H3V14Zm18,0H22V15H21V14ZM7,10H5V11H7V10Zm2,0H9V11H11V10Zm2,0H13V11H15V10ZM4,10H2V11H4V10Zm18,0H20V11H22V10ZM21,8H22V9H21V8ZM3,8H4V9H3V8Zm4,2H6V11H5V10Zm12,0H18V11H17V10Zm-2,0H16V11H15V10Zm-8,0H8V11H7V10Zm14,0H22V11H21V10ZM2,12H3V13H2V12ZM20,12H21V13H20V12ZM8,8H6V9H8V8Zm8,0H16V9H18V8ZM4,8H2V9H4V8Zm16,0H20V9H22V8ZM18,6H22V7H18V6ZM6,6H10V7H6V6Z"/>
</svg>