<svg xmlns="http://www.w3.org/2000/svg" viewBox="0 0 24 24" class="icon icon-cephalopod">
  <path d="M13.25,3.78c2.5,3.28,1,8.38,3.75,10.2c0.36,0.48,1.2,0.42,1.78,-0.2c1.92,-2.08,2.22,-6.3,1.77,-9.8c-0.85,0.08,-1.33,0.33,-1.33,0.33c-3.13,-2.73,-9.82,-0.47,-8.84,1.22c1.73,2.67,6.32,0.45,9.16,2.67c-3.85,-1.22,-8.02,-0.05,-9.8,2.68c-1.53,2.67,0.82,7.67,3.43,7.67c2.45,0,3.73,-4.88,2.2,-7.56c-2.63,1.85,-0.83,6.75,1.38,6.75c2.03,0,3.05,-5.1,0.52,-6.75c-2.25,-0.85,-6.07,1.17,-7.62,3.45c3.93,-3.68,11.48,-2.05,9.16,-7.43Z"/>
</svg>