<svg xmlns="http://www.w3.org/2000/svg" class="icon icon-parallel-universe.svg icon-rocket-launch" viewBox="0 0 24 24">
    <path d="M0 0h24v24H0z" fill="none"/>
    <path d="M5.5 2a.5.5 0 0 1 .5 .5V5a5.978 5.978 0 0 0-1 3.094V7a4.978 4.978 0 0 1 1-3V2.5a.5.5 0 0 1 .5-.5h1a.5.5 0 0 1 .5 .5V5a4.978 4.978 0 0 1 1 3v.092A5.978 5.978 0 0 0 5.5 5V2.5A.5.5 0 0 1 6 2h1z"/>
    <path d="M10.5 2a.5.5 0 0 1 .5 .5V8a4.978 4.978 0 0 1 1 3v.882a.5.5 0 0 1-.297.457L12 13a4.978 4.978 0 0 1 1 3v.873a.5.5 0 0 1-.277.447L16.5 19v1a1 1 0 0 1-.117 1H10v-1h5.382l-1-1H9a2.997 2.997 0 0 1-2-2.732V16a2.998 2.998 0 0 1 1-2.25v-1.768A4.978 4.978 0 0 0 10.5 8V2.5a.5.5 0 0 1 .5-.5h1z"/>
    <path d="M13 2a1 1 0 0 1 1 1v6a4.978 4.978 0 0 1 1 3v.873a.5.5 0 0 1-.277.447L16.5 13v1a1 1 0 0 1-.117 1H13v-1h2.382l-1-1H12a2.997 2.997 0 0 1-2-2.732V11a2.998 2.998 0 0 1 1-2.25V2.5A.5.5 0 0 1 12 2h1z"/>
</svg>