<svg xmlns="http://www.w3.org/2000/svg" viewBox="0 0 24 24" class="icon icon-candy-cane">
  <path d="M7.05 2.24a1 1 0 010 1.42 10.018 10.018 0 00-1.32 1.1 1 1 0 11-1.52-1.3 12.022 12.022 0 011.56-1.3 1 1 0 011.28.08zM9.11 4.3a1 1 0 01-.12 1.41A8.014 8.014 0 006.9 7.6a1 1 0 01-1.28.08l-.094-.076a1 1 0 01.216-1.573A10.016 10.016 0 019 4.41a1 1 0 01.12-.11l.095-.076a1 1 0 01.895-.023l.094.076zM11.7 6.89a1 1 0 01-.12 1.41 8.69 8.69 0 00-2.23 2.23 1 1 0 01-1.41-.12l-.076-.095a1 1 0 01.235-1.309 8.692 8.692 0 012.13-2.13 1 1 0 011.28.08l.094.075zM15.32 10.44a8.657 8.657 0 00-2.23 2.24 1 1 0 01-1.41-.12l-.076-.095a1 1 0 01.235-1.309 10.672 10.672 0 012.13-2.13 1 1 0 011.28.08l.094.075a1 1 0 01.057 1.33l-.079.1zM17.38 12.58a8.69 8.69 0 00-2.23 2.24 1 1 0 11-1.52-1.3 10.69 10.69 0 012.13-2.14 1 1 0 011.73.95l-.11.25zm-1.67 3.74a8.014 8.014 0 00-1.1 1.32 1 1 0 01-1.85-.7l.025-.12c.056-.277.167-.54.328-.78a8.014 8.014 0 011.1-1.32 1 1 0 011.43-.11l.09.08c.37.38.4.97.08 1.38l-.1.11zm-1.73 2.89c-.056.14-.123.277-.2.41a1 1 0 01-1.73-.94c.025-.069.057-.136.095-.2a10.016 10.016 0 011.32-1.57 1 1 0 011.43-.11l.09.08c.37.39.4.97.08 1.39l-.1.11z"/>
</svg>