<svg xmlns="http://www.w3.org/2000/svg" class="icon icon-icon-key">
  <path d="M12 6C7.582 6 4 9.582 4 14C4 15.657 4.843 17.099 6 17.931V20H8V18H16V20H18V17.931C19.157 17.099 20 15.657 20 14C20 9.582 16.418 6 12 6ZM12 8C15.309 8 18 10.691 18 14C18 15.065 17.597 16.056 16.908 16.72L12.707 12.518C12.52 12.331 12.266 12.224 12 12.224C11.734 12.224 11.48 12.331 11.293 12.518L7.09299 16.72C6.40299 16.056 6 15.065 6 14C6 10.691 8.69099 8 12 8ZM12 9C10.895 9 10 9.89543 10 11C10 11.5523 10.4477 12 11 12C11.5523 12 12 11.5523 12 11C12 10.4477 11.5523 10 11 10C10.4477 10 10 10.4477 10 11C10 10.895 10.895 10 12 10C13.105 10 14 10.895 14 12C14 11.4477 13.5523 10 13 10C12.4477 10 12 10.4477 12 11C12 10.4477 11.5523 9 11 9C11.5523 9 12 9.55228 12 10C12 9.44772 11.5523 9 11 9C11.5523 9 12 9.55228 12 10C12 9.55228 11.5523 9 11 9C10.4477 9 10 9.44772 10 10C10 9.44772 9.55228 9 9 9C9.55228 9 10 9.55228 10 10C10 9.44772 9.55228 9 9 9C9.55228 9 10 9.55228 10 10C9.55228 9 9 9 12 9Z"/>
</svg>
