<svg xmlns="http://www.w3.org/2000/svg" viewBox="0 0 24 24" class="icon icon-dna">
  <path d="M12 2C6.48 2 2 6.48 2 12s4.48 10 10 10 10-4.48 10-10S17.52 2 12 2zm0 18c-4.41 0-8-3.59-8-8 0-1.85.63-3.55 1.69-4.9L12 22l6.31-6.9C19.37 10.45 20 12.15 20 14c0 4.41-3.59 8-8 8zm0-16c1.85 0 3.55.63 4.9 1.69L2 12l6.9-6.31C10.45 4.63 12.15 4 14 4c4.41 0 8 3.59 8 8 0 1.85-.63 3.55-1.69 4.9L12 2l-6.31 6.9C4.63 7.55 4 5.85 4 4c0-4.41 3.59-8 8-8zm8 8c0-1.85-.63-3.55-1.69-4.9L2 12l6.9 6.31C7.55 19.37 5.85 20 4 20c-4.41 0-8-3.59-8-8 0-1.85.63-3.55 1.69-4.9L12 2l6.31 6.9C19.37 4.63 20 6.33 20 8c0 4.41-3.59 8-8 8z"/>
</svg>