<svg class="icon icon-quantum-teleportation" xmlns="http://www.w3.org/2000/svg" viewBox="0 0 24 24">
    <path d="M12,2A10,10 0 0,0 2,12A10,10 0 0,0 12,22A10,10 0 0,0 22,12A10,10 0 0,0 12,2Z"></path>
    <path d="M7,8.5C7.27614237,8.5 7.5,8.72385763 7.5,9C7.5,9.27614237 7.27614237,9.5 7,9.5C6.72385763,9.5 6.5,9.27614237 6.5,9C6.5,8.72385763 6.72385763,8.5 7,8.5Z" />
    <path d="M17,14.5C17.2761424,14.5 17.5,14.7238576 17.5,15C17.5,15.2761424 17.2761424,15.5 17,15.5C16.7238576,15.5 16.5,15.2761424 16.5,15C16.5,14.7238576 16.7238576,14.5 17,14.5Z" />
    <path d="M12,11.5C12.2761424,11.5 12.5,11.7238576 12.5,12C12.5,12.2761424 12.2761424,12.5 12,12.5C11.7238576,12.5 11.5,12.2761424 11.5,12C11.5,11.7238576 11.7238576,11.5 12,11.5Z" />
    <path d="M12,15.5C12.8284271,15.5 13.5,16.1715729 13.5,17C13.5,17.8284271 12.8284271,18.5 12,18.5C11.1715729,18.5 10.5,17.8284271 10.5,17C10.5,16.1715729 11.1715729,15.5 12,15.5Z" fill="#000000" />
</svg>