<svg xmlns="http://www.w3.org/2000/svg" class="icon icon-desert-camel" viewBox="0 0 24 24">
  <path d="M12 2C6.48 2 2 6.48 2 12H22C22 6.48 17.52 2 12 2ZM12 20C7.4 20 3.73 16.84 2 13.24C2.64 17.57 6.48 21 11 21H13C17.52 21 21.36 17.57 22 13.24C20.27 16.84 16.6 20 12 20Z"></path>
  <circle cx="12" cy="12" r="4"></circle>
  <polygon points="14,7 10,7 12,11"></polygon>
  <polygon points="18,7 14,7 16,11"></polygon>
  <polygon points="14,13 10,13 12,17"></polygon>
  <polygon points="18,13 14,13 16,17"></polygon>
</svg>