<svg xmlns="http://www.w3.org/2000/svg" viewBox="0 0 24 24" class="icon icon-divingmask">
  <path d="M0 0h24v24h-24z" fill="none"/>
  <path d="M3 18c-1.1 0-1.992-.893-1.992-2l-.008-1h2.513a11.48 11.48 0 0 0 .416-2h-2.929v-2h2.9c0-2.21 1.8-4 4-4h2c2.2 0 4 1.79 4 4h2.972v2h-3.028c.02.33.028.663.028 1s-.008.67-.028 1h3.028v1c0 1.105-.887 2-1.992 2h-16zm8.923-2.398c.409-.064.814-.16 1.207-.283l1.168 1.104-1.375 1.577h-2.184l-1.375-1.577 1.167-1.104c.394.123.798.219 1.208.283zm3.077-5.602c1.104 0 2 .897 2 2h-4c0-1.103.895-2 2-2z"/>
</svg>