<svg xmlns="http://www.w3.org/2000/svg" viewBox="0 0 24 24" class="icon icon-torch">
  <path d="M12 1C9.8 1.3 7.6 1.6 5.4 2 5.1 2 4.8 2 4.5 2 3.9 2 3.3 2.7 3 3.3 2.7 3.8 2.5 4.4 2.2 4.9 2.2 6.3 2.2 7.7 2.2 9.1 2.2 10.9 2.1 12.8 2 14.6 2 14.8 2 15 2 15.2 2 16.6 2 18 2 19.4 2 20.1 2.7 20.8 3.3 21 4 21.1 4.8 21.3 5.5 21.3 6.6 21.3 7.7 21.3 8.7 21.3 9.7 21.3 10.6 21.3 11.6 21.3 12.6 20.8 13.4 20.2 14.2 19.2 14.9 18.2 15.6 17.2 16.2 16.1 16.9 15.2 17.4 14.4 17.9 13.6 18.3 12.9 18.8 12.2 18.8 11.2 18.8 10.2 18.8 9.2 18.8 8.2 18.8 7.1 18.8 6.1 18.8 5 18.8 4 19.1 2.8 19.4 1.6 19.8 1 20.2 0.5 20.8 0 21.3 0C22.8 0 24 1.2 24 2.7 24 3.9 23.5 5.2 22.8 6.3 22.5 7.1 22.1 7.9 21.8 8.7 21.4 9.5 21.1 10.3 20.7 11.1 20.1 11.7 19.5 12.3 18.8 12.9 18.2 13.5 17.6 14 17 14.6 16.3 15.1 15.6 15.6 14.9 16.1 14.3 16.6 13.9 17.2 13.8 17.7 14 18.3 14.3 18.8 14.3 19.2 14.3 19.7 14.3 20.1 14.3 20.6 14.3 21 14.3 21.5 14.3 21.9 14.3 22.2 14.3 22.4 14.3 22.7 14.3 23 14.3 23.2 14.3 23.4 14.3 23.7 14.3 23.9 14.3 24 14.1 24 13.8 24 13.5 24 13.3 24 13 24 12.7 24 12.5 24 12.2 24 12C24 11.8 24 11.6 24 11.3 24 11.1 24 10.9 24 10.7 24 10.5 24 10.3 24 10 24 9.8 24 9.6 24 9.3 24 9.1 24 8.9 24 8.7 24 8.5 24 8.3 24 8 24 7.8 24 7.6 24 7.3 24 7.1 24 6.9 24 6.7 24 6.5 24 6.3 24 6C24 5.8 24 5.6 24 5.4 24 5.2 24 5 24 4.8 24 4.6 24 4.4 24 4.1 24 3.9 24 3.7 24 3.5 24 3.3 24 3.1 24 2.8 24 2.6 24 2.4 24 2.1 24 1.9 24 1.7 24 1.5 24 1.3 24 1C23.7 1 23.4 1 23 1 22.5 1 22 1 21.5 1 20.9 1 20.3 1 19.8 1 19.3 1 18.8 1 18.3 1 17.8 1 17.3 1 16.8 1 16.3 1 15.8 1 15.3 1 14.7 1 14.2 1 13.7 1C13.1 1 12.6 1 12 1Z"/>
</svg>