<svg xmlns="http://www.w3.org/2000/svg" class="icon icon-autumnleaf" viewBox="0 0 24 24">
  <path d="M12 2C8.13401 2 5 5.13401 5 9C5 10.6522 5.84285 12.1958 7.34315 13.0711C8.03553 11.9561 9.39258 11.25 11 11.25C13.9043 11.25 16.25 13.5957 16.25 16.5C16.25 17.6522 15.682 18.682 14.8874 19.3879C17.0172 19.7867 18.75 21.5657 18.75 23.75C18.75 23.8565 18.7446 23.9616 18.7344 24H19C21.2091 24 23 22.2091 23 20C23 15.0294 18.9706 11 14 11C11.5118 11 9.32458 12.158 8.11034 14C6.34146 12.7215 4.69349 10.9695 4.34315 9C4.98937 5.13401 7.86429 2 12 2Z"/>
</svg>