<svg xmlns="http://www.w3.org/2000/svg" class="icon icon-wolf-moon" viewBox="0 0 24 24">
    <circle cx="12" cy="8" r="6" fill="#000" />
    <path d="M8.5 12a4 4 0 014-4 4 4 0 014 4v8h-8v-8zm2 4.5a2.5 2.5 0 100-5 2.5 2.5 0 000 5z" fill="#000" />
    <path d="M2 12C2 6.48 6.48 2 12 2s10 4.48 10 10-4.48 10-10 10S2 17.52 2 12z" fill="none" stroke="#000" />
    <ellipse cx="16" cy="12" rx="2" ry="3" fill="#000" />
    <path d="M16 15c1.66 0 2.99-1.34 2.99-3a3 3 0 00-6 0c0 1.66 1.34 3 3 3z" fill="none" stroke="#000" />
</svg>