<svg xmlns="http://www.w3.org/2000/svg" viewBox="0 0 24 24" class="icon icon-melting-candle icon-meteor-shower">

    <!-- Melting Candle -->
    <path fill="none" stroke="currentColor" d="M12 2v6a2 2 0 0 0 2 2h2a2 2 0 0 0 2-2V2"></path>
    <path fill="currentColor" d="M14 8a2 2 0 0 0-2-2v6a2 2 0 0 0 2-2v-2"></path>
    <path fill="none" stroke="currentColor" d="M10 22a6 6 0 1 0 12 0"></path>

    <!-- Meteor Shower -->
    <path fill="currentColor" d="M2 3l3 3-7 9h8l1-1 3 1h2l2-1 1 1h2l4-5 3 1V7l-4-4-4 2-2-1-1 1H6L2 2z"></path>
</svg>