<svg xmlns="http://www.w3.org/2000/svg" class="icon icon-hypnotic-spiral" viewBox="0 0 24 24">
<path fill="none" stroke="currentColor" stroke-width="2" d="M12 2c5.5 0 10 4.5 10 10 0 1.383-.254 2.72-.746 3.895M2.512 10A9.488 9.488 0 0 0 2 12c0 5.5 4.5 10 10 10 .81 0 1.59-.081 2.345-.24M22 12c0-1.768-.289-3.469-.843-5.027M4.547 14.12A9.978 9.978 0 0 0 4 12c0-4.28 2.694-7.902 6.547-9.14M17.74 6.32A9.53 9.53 0 0 0 12 2c-4.32 0-8 2.78-9.24 6.793M10.885 2.428A9.994 9.994 0 0 1 12 2c2.96 0 5.64 1.18 7.493 3.066M2.993 5.543A9.969 9.969 0 0 1 2 12c0 3.853 2.207 7.2 5.506 8.802"></path>
</svg>