<svg xmlns="http://www.w3.org/2000/svg" class="icon icon-seahorse" viewBox="0 0 24 24">
    <path d="M12 2C10.8954 2 10 2.89543 10 4V6C10 7.10457 10.8954 8 12 8H14V10H12C10.8954 10 10 10.8954 10 12V14C10 15.1046 10.8954 16 12 16H14V18H12C10.8954 18 10 18.8954 10 20V22C10 23.1046 10.8954 24 12 24H14C15.1046 24 16 23.1046 16 22V20C16 18.8954 15.1046 18 14 18H12V16H14C15.1046 16 16 15.1046 16 14V12C16 10.8954 15.1046 10 14 10H12V8H14C15.1046 8 16 7.10457 16 6V4C16 2.89543 15.1046 2 14 2H12Z"></path>
</svg>