<svg xmlns="http://www.w3.org/2000/svg" viewBox="0 0 24 24" class="icon icon-data-protection">
    <path d="M12 2C6.48 2 2 6.48 2 12s4.48 10 10 10 10-4.48 10-10S17.52 2 12 2zm0 17c-3.87 0-7-3.13-7-7s3.13-7 7-7 7 3.13 7 7-3.13 7-7 7z"/>
    <path d="M12 7c-2.76 0-5 2.24-5 5s2.24 5 5 5 5-2.24 5-5-2.24-5-5-5zm0 8c-1.66 0-3-1.34-3-3s1.34-3 3-3 3 1.34 3 3-1.34 3-3 3z"/>
    <path d="M4.93 4.93l14.14 14.14-1.41 1.41-2.12-2.12A6.994 6.994 0 0113 21c-3.87 0-7-3.13-7-7 0-1.37.37-2.63 1-3.72L3.51 6.34l1.42-1.41zM13 8h-2v2H9v2h2v2h2v-2h2v-2h-2z"/>
</svg>