<svg xmlns="http://www.w3.org/2000/svg" class="icon icon-shipwreck" viewBox="0 0 24 24">
<path d="M2 22h20v2H2v-2zm14.769-6.894c.183.304.231.639.231.984h-3.651c.142-.675.966-1.182 1.71-1.182h1.71zm1.712-1.25a1.816 1.816 0 00-1.712-.856h-1.708a1.815 1.815 0 00-1.714.859l-7.07 11.805A5.386 5.386 0 016.198 22h11.603a5.386 5.386 0 01-5.32-7.144l7.07-11.805zm-6.548-2.482l3.482 2.29-1.34-2.105a2.726 2.726 0 01-2.142-.184zm-4.372 0c.761 0 1.477.304 2 1l1.455 1.528-1.77-2.77a2.726 2.726 0 00-1.685-.758zm-4.742 6.894c.255-.509.634-.96 1.092-1.429L12 4.666l5.96 9.917a5.443 5.443 0 01-1.899 1.773H7.819zM12 2.666c.96 0 1.593.808 1.593 1.714 0 .304-.082.597-.23.881L12 8.24l-1.363-2.975c-.144-.284-.229-.577-.229-.881C10.408 2.667 11.04 2 12 2z"/>
</svg>