<svg xmlns="http://www.w3.org/2000/svg" class="icon icon-sonar-wave" viewBox="0 0 24 24">
<path d="M0 0h24v24H0z" fill="none"/>
<path d="M20 6.919v2.597a8 8 0 01-1.464 5.38l-1.534-1.28A6 6 0 0018 9.515V6.92a9.5 9.5 0 00-8.55-2.65L9.4 1.07A11.95 11.95 0 0120 6.919zM4.767 5.287L8.414 1.5A9.492 9.492 0 004 6.92v2.596a5.972 5.972 0 003.106 5.255l1.4-1.853A4.002 4.002 0 014 9.516v-2.1a8.5 8.5 0 01.767-2.129zm4.69 15.71l-2-2 1.5-1.5 1.5 1.5a2.5 2.5 0 01-.284.316l.284.684zm2.853-.527L12 16l2 2c2.333-2.333 2.667-5.667 1-8l-1.875 1.317a5.11 5.11 0 00-.346 1.98 4.978 4.978 0 00-1.435-.95L12 14l-1-1-.104-.093a7.35 7.35 0 01-.211 2.682l.315.676zm2-4.366L15.399 16a8.978 8.978 0 01.435-2.04l-2.018 1.42a6.501 6.501 0 00-1.173-.885z"/>
</svg>