<svg xmlns="http://www.w3.org/2000/svg" viewBox="0 0 24 24" class="icon icon-galaxy-cluster.svg icon-satellite-dish"><path d="M12 2C8.13 2 5 5.13 5 9c0 1.606.613 3.13 1.757 4.243l.228.227c.684.685 1.584 1.117 2.522 1.29l-1.432 1.432-1.06-1.06-2.122 2.122 1.415 1.414 2.122-2.122 1.06 1.06-1.433 1.431c-1.191-.949-2.003-2.208-2.42-3.67H2v2h2.07c.416 1.463 1.229 2.72 2.42 3.67l-4.925 4.92 1.414 1.415 4.92-4.924c.95 1.19 2.21 2.002 3.67 2.418V22h2v-2.07c1.46-.416 2.72-1.23 3.67-2.42l4.92 4.923 1.416-1.414-4.924-4.92c1.191-.949 2.003-2.208 2.42-3.67H22v-2h-2.07c-.416-1.462-1.229-2.721-2.42-3.67l1.433-1.432 1.06 1.06 2.122-2.122-1.415-1.414-2.122 2.122-1.06-1.06 1.432-1.432c-.938.173-1.837.604-2.523 1.29l-.227.227C17.87 5.13 15.87 2 12 2zm0 2c3.313 0 6 2.687 6 6s-2.687 6-6 6-6-2.687-6-6 2.687-6 6-6z"/></svg>