<svg xmlns="http://www.w3.org/2000/svg" viewBox="0 0 24 24" class="icon icon-AiRobotics">
    <path d="M12 2C6.48 2 2 6.48 2 12s4.48 10 10 10 10-4.48 10-10S17.52 2 12 2zm0 18c-4.41 0-8-3.59-8-8s3.59-8 8-8 8 3.59 8 8-3.59 8-8 8z"/>
    <path d="M0 0h24v24H0z" fill="none"/>
    <path d="M15 9h.02L15 9.01 15.01 9H15zm-6 .01L9 9l.01-.01L9 9.01zM12 14c1.66 0 2.99-1.34 2.99-3S13.66 8 12 8s-2.99 1.34-2.99 3 1.34 2.99 2.99 2.99zm1-14L4 4v17.17l.59-.58.58-.59H20l.59.58.58.59V4l-9-4zm3 18H9v-2h6v2zM12.5 9h-1V7h1v2z"/>
</svg>