<svg xmlns="http://www.w3.org/2000/svg" viewBox="0 0 24 24" class="icon icon-rockingchair">
  <path d="M12 2c1.11 0 2 .9 2 2 0 .38-.1.74-.29 1.06 0 0 .9.36 2.14.94 1.26.58 2.71 1.37 4.01 2.28C20.38 9.2 22 10.71 22 13.31V20c0 .55-.45 1-1 1h-1c-.55 0-1-.45-1-1v-1H5v1c0 .55-.45 1-1 1H3c-.55 0-1-.45-1-1v-6.69c0-2.6 1.62-4.11 3.14-5.03 1.3-.91 2.75-1.7 4.01-2.28 1.24-.58 2.14-.94 2.14-.94C10.1 4.74 10 4.38 10 4c0-1.1.89-2 2-2zm1 4c-3.31 0-6 2.69-6 6s2.69 6 6 6 6-2.69 6-6-2.69-6-6-6z">
  </path>
</svg>