<svg xmlns="http://www.w3.org/2000/svg" class="icon icon-artificial-intelligence" viewBox="0 0 24 24">
    <path d="M12,0C5.37,0,0,5.37,0,12s5.37,12,12,12s12-5.37,12-12S18.63,0,12,0z M12,4c1.1,0,2,0.9,2,2s-0.9,2-2,2s-2-0.9-2-2  S10.9,4,12,4zM6,9c1.1,0,2,0.9,2,2s-0.9,2-2,2s-2-0.9-2-2S4.9,9,6,9zM18,16c-1.1,0-2-0.9-2-2s0.9-2,2-2s2,0.9,2,2  S19.1,16,18,16zM12,20c-4.41,0-8-3.59-8-8c0-2.21,0.9-4.21,2.34-5.66C7.79,8.9,9.79,8,12,8s4.21,0.9,5.66,2.34  C19.1,11.79,20,13.79,20,16C20,16.79,19.89,17.57,19.71,18.34C17.84,19.74,15.29,20,12,20z"/>
</svg>