<svg xmlns="http://www.w3.org/2000/svg" viewBox="0 0 24 24" class="icon icon-helix">
  <path d="M2 12c0 2.76 1.12 5.26 2.93 7.07C6.74 21.88 9.24 23 12 23s5.26-1.12 7.07-2.93C21.88 17.26 23 14.76 23 12s-1.12-5.26-2.93-7.07C17.26 2.12 14.76 1 12 1S6.74 2.12 4.93 3.93 2 6.24 2 9v3zm15 0c0 1.38-.56 2.63-1.47 3.53s-2.15 1.47-3.53 1.47-2.63-.56-3.53-1.47a4.978 4.978 0 01-1.47-3.53h10zM12 5c-1.38 0-2.63.56-3.53 1.47S7 7 7 8.38v5.23c1.1.32 2.33.39 3.47 0v-3c0-1.38.56-2.63 1.47-3.53S12.62 8 14 8v2l3 .01V8c0-1.38-.56-2.63-1.47-3.53S13.38 5 12 5z"/>
</svg>