<svg xmlns="http://www.w3.org/2000/svg" class="icon icon-chemical-concoction">
  <path d="M12 2C8.13 2 5 5.13 5 9c0 5.25 7 13 7 13s7-7.75 7-13c0-3.87-3.13-7-7-7zm0 9.5c-1.38 0-2.5-1.12-2.5-2.5s1.12-2.5 2.5-2.5 2.5 1.12 2.5 2.5-1.12 2.5-2.5 2.5zM2 9c0-.55.45-1 1-1h2v1H3v1H2V9zm16-1h2c.55 0 1 .45 1 1v1h-1V9h-2V8zM12 22s7-7.75 7-13c0-.55-.45-1-1-1h-2v1h1.07c-.07.36-.13.73-.2 1.12-.66.33-1.43.58-2.24.8.02-.1.03-.2.07-.3.02-.13.03-.25.07-.38h-2c.02.13.05.25.07.38.04.1.05.2.07.3-.81-.22-1.58-.47-2.24-.8-.07-.39-.13-.76-.2-1.12H11v-1H9c-.55 0-1 .45-1 1 0 5.25 7 13 7 13z" />
</svg>