<svg xmlns="http://www.w3.org/2000/svg" viewBox="0 0 24 24" class="icon icon-arctic-fox">
  <path d="M12 2C6.5 2 2 6.5 2 12s4.5 10 10 10 10-4.5 10-10S17.5 2 12 2zm0 18c-4.4 0-8-3.6-8-8s3.6-8 8-8 8 3.6 8 8-3.6 8-8 8z"/>
  <path d="M9.5 7.7c1.3 0 2.5 1 2.5 2.3s-1.2 2.3-2.5 2.3S7 11.3 7 10s1.1-2.3 2.5-2.3m5 0c1.3 0 2.5 1 2.5 2.3s-1.2 2.3-2.5 2.3S12 11.3 12 10s1.2-2.3 2.5-2.3"/>
  <path d="M7.7 16.3c0-1.3 1-2.5 2.3-2.5S12 15 12 16.3s-1 2.5-2.3 2.5S7.7 17.6 7.7 16.3m8.6 0c0-1.3 1-2.5 2.3-2.5s2.3 1.2 2.3 2.5-1 2.5-2.3 2.5-2.3-1.2-2.3-2.5"/>
</svg>