<svg xmlns="http://www.w3.org/2000/svg" viewBox="0 0 24 24" class="icon icon-torn-paper">
    <path d="M2 2h20v20H2z" fill="none"/>
    <path d="M2 9.23c.67-.23 1.35-.23 2 .23V22H2V9.23z"/>
    <path d="M4 11c.67-.67 1.34-.67 2 0V22H4V11z"/>
    <path d="M6 9.23c.67-.23 1.35-.23 2 .23V22H6V9.23z"/>
    <path d="M8 12.56c.67-.56 1.34-.56 2 0V22H8V12.56z"/>
    <path d="M10 10.34c.67-.34 1.34-.34 2 0V22h-2V10.34z"/>
    <path d="M12 13.78c.67-.78 1.34-.78 2 0V22h-2V13.78z"/>
    <path d="M14 11.34c.67-.34 1.34-.34 2 0V22h-2V11.34z"/>
    <path d="M16 12.56c.67-.56 1.34-.56 2 0V22h-2V12.56z"/>
    <path d="M18 9.23c.67-.23 1.35-.23 2 .23V22h-2V9.23z"/>
    <path d="M20 13c.67-.67 1.34-.67 2 0V22h-2V13z"/>
    <path d="M22 2v7.78c-.67-.78-1.34-.78-2 0V2h2z"/>
</svg>