<svg xmlns="http://www.w3.org/2000/svg" class="icon icon-chameleon" viewBox="0 0 24 24">
    <path fill="none" stroke="currentColor" stroke-linecap="round" stroke-linejoin="round" stroke-width="2" d="M12 16a4 4 0 0 1-4-4 4 4 0 0 1 4-4 4 4 0 0 1 4 4 4 4 0 0 1-4 4z"></path>
    <path fill="none" stroke="currentColor" stroke-linecap="round" stroke-linejoin="round" stroke-width="2" d="M12 12v.01"></path>
    <path fill="none" stroke="currentColor" stroke-linecap="round" stroke-linejoin="round" stroke-width="2" d="M16 16l2 2m1-2a2 2 0 0 0-3 0"></path>
    <path fill="none" stroke="currentColor" stroke-linecap="round" stroke-linejoin="round" stroke-width="2" d="M22 12h-4m-2 0a6 6 0 0 0-6 6v2m6-2h4a2 2 0 0 1 2 2v2a2 2 0 0 1-2 2h-4a2 2 0 0 1-2-2v-2a2 2 0 0 1 2-2h4m6 0a6 6 0 0 0-6-6 6 6 0 0 0-6 6"></path>
</svg>