<svg xmlns="http://www.w3.org/2000/svg" viewBox="0 0 24 24" class="icon icon-velociraptor">
  <path d="M21.3,11.7C20.7,12.1,20.1,12.3,19.5,12.5C20.3,11.9,21,11.3,21.6,10.6C22.4,9.7,23,8.7,23.3,7.6C22.1,7.9,21,8.4,20,9
    C19,9.6,18.2,10.4,17.5,11.3C16.8,10.1,15.5,9.1,14,8.4C14.7,7.9,15.5,7.5,16.4,7.2C16,6.3,15.4,5.5,14.7,4.9C14.1,4.4,13.4,4,12.6,3.7
    C12.2,5,12,6.3,12,7.7C11.1,7.1,10.1,6.7,9,6.5C9,7.6,9.2,8.7,9.6,9.7C8.8,9.3,8,8.9,7.1,8.7C6.3,9.6,5.7,10.6,5.4,11.7C4.2,11.3,3,11.1,1.8,11.1
    C1.2,11.8,0.7,12.5,0.4,13.3C1.6,13.7,2.9,14.1,4.3,14.6C5.5,15,6.6,15.4,7.7,15.9C8.8,16.4,9.9,17,11,17.6C12.1,16.1,13.4,14.8,15,13.7
    c1.4,1.1,2.9,2.3,4.3,3.6C19.7,16.4,20.8,15.9,22,15.4C23.4,14.9,24.7,14.5,26,14.1C25.7,13.3,25.2,12.6,24.6,12C23.8,11.7,22.6,11.7,21.3,11.7z
     M9,19.5C8.1,19,7.2,18.4,6.2,17.9C5.3,17.5,4.3,17.1,3.4,16.7C2.5,16.4,1.6,16.1,0.6,15.9C1,16.9,1.6,17.9,2.3,18.8C3.2,19.7,4.2,20.6,5.3,21.3
    C6.2,20.1,7.2,18.9,8.3,17.8C7.2,18.8,6.1,19.7,5,20.5C6.1,21.2,7.3,21.9,8.5,22.4C9.6,21.9,10.7,21.4,11.8,20.8C11,21.6,10.2,22.4,9.3,23
    C9,23.3,8.7,23.6,8.4,23.9C10.5,23.4,12.6,23,14.7,22.6C13.6,22,12.6,21.3,11.5,20.6C10.5,19.9,9.7,19.2,9,18.5C8.3,18.9,7.6,19.2,7,19.4
    C7.7,18.9,8.3,18.4,9,17.8C9.7,18.3,10.4,18.8,11.2,19.3C11.9,19.7,12.7,20.1,13.5,20.5C11.3,19.9,9.2,19.7,7,19.5ZM13,21
    c1.6,0.8,3.2,1.6,5,2.2C16,23.2,14,23,12,22.7C11.9,22,11.7,21.3,11.5,20.6C12.2,20.9,12.8,21.3,13.5,21.6C13.2,21.9,12.9,22.1,12.5,22.4
    C12.1,22.6,11.5,22.8,11,23C13.1,23.4,15.3,23.7,17.5,24C15.7,23.4,14.1,22.7,12.5,22C12.7,21.7,12.8,21.4,13,21Z" />
</svg>