<svg xmlns="http://www.w3.org/2000/svg" viewBox="0 0 24 24" class="icon icon-underground-mole">
  <path fill="none" stroke="currentColor" stroke-width="2" d="M12 22C6.477 22 2 17.523 2 12C2 6.477 6.477 2 12 2C17.523 2 22 6.477 22 12C22 17.523 17.523 22 12 22Z"/>
  <path fill="currentColor" d="M14.5 8C15.3284 8 16 7.32843 16 6.5C16 5.67157 15.3284 5 14.5 5C13.6716 5 13 5.67157 13 6.5C13 7.32843 13.6716 8 14.5 8Z"/>
  <path fill="currentColor" d="M9.5 8C10.3284 8 11 7.32843 11 6.5C11 5.67157 10.3284 5 9.5 5C8.67157 5 8 5.67157 8 6.5C8 7.32843 8.67157 8 9.5 8Z"/>
  <path fill="none" stroke="currentColor" stroke-width="2" d="M6 13H18C19.1046 13 20 13.8954 20 15V17H4V15C4 13.8954 4.89543 13 6 13Z"/>
</svg>