<svg xmlns="http://www.w3.org/2000/svg" viewBox="0 0 24 24" class="icon icon-fingerprint-recognition">
  <path d="M12 2C6.48 2 2 6.48 2 12c0 4.41 2.69 8.15 6.44 9.5.5.13.74-.23.74-.5v-1.73c-2.69-.48-3.99-2.29-3.99-2.29-.46-1.16-1.13-1.47-1.13-1.47-.92-.64 .07-.62 .07-.62 1.02.07 1.56 1.05 1.56 1.05.9 1.57 2.36 1.11 2.94 .85.09-.66.36-1.11 .64-1.37-2.69-.3-5.52-1.36-5.52-6.02 0-1.33 .47-2.42 1.26-3.27-.13-.31-.55-1.54 .12-3.21 0 0 1.03-.33 3.38 1.25A11.56 11.56 0 0112 6.8c1.05 .01 2.1 .14 3.07 .4 2.34-1.58 3.37-1.25 3.37-1.25 .67 1.67 .25 2.9 .12 3.21 .8 .84 1.26 1.94 1.26 3.27 0 4.67-2.84 5.7-5.54 6 .36 .31 .68 .93 .68 1.87v2.78c0 .28 .24 .63 .75 .5C19.31 20.15 22 16.41 22 12 22 6.48 17.52 2 12 2z"/>
  <path d="M16.27 11.81h-1.59v-1.59c0-.44-.36-.79-.79-.79s-.78 .35-.78 .79v1.59h-1.58c-.44 0-.8 .35-.8 .78s.36 .79 .8 .79h1.58v1.57c0 .44 .35 .79 .78 .79s.79-.35.79-.79v-1.57h1.59c.44 0 .79-.35 .79-.79s-.35-.78-.79-.78z"/>
</svg>