<svg xmlns="http://www.w3.org/2000/svg" width="24" height="24" viewBox="0 0 24 24" class="icon icon-electricguitar">
    <path d="M12 2C6.48 2 2 6.48 2 12s4.48 10 10 10 10-4.48 10-10S17.52 2 12 2zm1.91 12.71l-.3.3a.996.996 0 0 1-1.41 0l-.18-.19-2.86 2.86L5 14l2.85-2.85-.18-.18a.996.996 0 0 1 0-1.41l.3-.3a.996.996 0 0 1 1.41 0l1.49 1.49 1.17-1.17-1.48-1.48a.996.996 0 0 1 0-1.41l.3-.3a.996.996 0 0 1 1.41 0l2.87 2.87a.996.996 0 0 1 0 1.41l-2.88 2.88a.993.993 0 0 1-.59.19zM23 14c0-1.1-.9-2-2-2h-4a2 2 0 1 1 0-4h1c1.1 0 2-.9 2-2s-.9-2-2-2h-4c-1.1 0-2 .9-2 2 0 1.66-1.34 3-3 3s-3-1.34-3-3c0-1.1-.9-2-2-2H4c-1.1 0-2 .9-2 2s.9 2 2 2h1c1.1 0 2 .9 2 2s-.9 2-2 2H4c-1.1 0-2 .9-2 2s.9 2 2 2h1c1.1 0 2 .9 2 2s-.9 2-2 2h4c1.1 0 2-.9 2-2 0-1.66 1.34-3 3-3s3 1.34 3 3c0 1.1.9 2 2 2h4c1.1 0 2-.9 2-2s-.9-2-2-2h-1a2 2 0 1 1 0-4h4c1.1 0 2-.9 2-2z"/>
</svg>