<svg xmlns="http://www.w3.org/2000/svg" viewBox="0 0 24 24" class="icon icon-deep-web">
  <path d="M12,2C6.48,2,2,6.48,2,12s4.48,10,10,10s10-4.48,10-10S17.52,2,12,2z M4,12c0-1.32,0.26-2.59,0.74-3.77C4.84,8.29,5,8.15,5,8c0-0.55,0.45-1,1-1s1,0.45,1,1c0,0.15-0.16,0.29-0.74,0.23C7.41,7.61,8.68,7.37,10,7.37s2.59,0.24,3.74,0.86C13.16,8.29,13,8.15,13,8c0-0.55,0.45-1,1-1s1,0.45,1,1c0,0.15-0.16,0.29-0.74,0.23C15.41,7.61,16.68,7.37,18,7.37c1.66,0,3,1.34,3,3c0,1.32-0.67,2.48-1.67,3.12C21.8,13.87,22,14.91,22,16c0,3.31-2.69,6-6,6s-6-2.69-6-6c0-1.09,0.2-2.13,0.67-3.12C4.67,14.48,4,13.32,4,12z"></path>
</svg>