<svg xmlns="http://www.w3.org/2000/svg" viewBox="0 0 24 24" class="icon icon-vase-antique">
    <path d="M12 2C7.565 2 4 5.525 4 10v1.172a4 4 0 0 0 .879 2.565l3.581 5.096c.661.94 1.723 1.667 3.011 1.783V21a1 1 0 0 0 1 1h1a1 1 0 0 0 1-1v-.384c1.288-.116 2.35-.843 3.011-1.784l3.58-5.095A4 4 0 0 0 20 11.172V10c0-4.475-3.565-8-8-8zm0 15c-.628 0-1.24-.145-1.768-.41a3 3 0 0 0 .729-.976l3.543-5.043A3.982 3.982 0 0 1 16 11.172V10c0-2.242-1.739-4-3.874-4S8 7.758 8 10v1.172a3.99 3.99 0 0 1 1.038 2.39l3.543 5.043a3 3 0 0 0 .729.976A3.987 3.987 0 0 1 12 17z"/>
</svg>