<svg xmlns="http://www.w3.org/2000/svg" viewBox="0 0 24 24" class="icon icon-alien.svg* icon-musicnote">
    <path d="M11 0C4.93 0 0 4.93 0 11c0 5.07 3.02 9.37 7.45 11.27-0.45-0.85-1.11-1.65-1.11-3.45 0-2.43 1.72-4.4 3.85-5.02-0.07-0.35-0.11-0.71-0.11-1.09C10.19 7.76 13.24 4 17 4h6c0.55 0 1-0.45 1-1s-0.45-1-1-1h-6C16.07 2 13.59 1.1 11 1.1V0zm3 2c1.32 0 2.53 0.21 3.64 0.57-1.19 0.36-2.27 0.88-3.24 1.53C13.27 2.72 12.16 2 11 2v2c1.26 0 2.41 0.5 3.31 1.33C14.85 4.6 15.89 4 17 4h6c0.55 0 1-0.45 1-1s-0.45-1-1-1h-6c-0.85 0-1.65 0.2-2.39 0.53C13.96 1.5 15.11 1 16.47 1 17.25 1 18 1.87 18 2.77 18 4.06 16.94 5 15.53 5H14c-0.55 0-1-0.45-1-1s0.45-1 1-1h1.53C14.88 3 14 2.12 14 1z"/>
</svg>
