<svg xmlns="http://www.w3.org/2000/svg" viewBox="0 0 24 24" class="icon icon-bitcoinmine">
   <path d="M12,2C6.48,2,2,6.48,2,12s4.48,10,10,10s10-4.48,10-10S17.52,2,12,2z M12,20c-4.41,0-8-3.59-8-8
         s3.59-8,8-8s8,3.59,8,8S16.41,20,12,20z"/>
  <path d="M7.07,15h9.86c-0.78,1.63-2.59,2.75-4.86,2.75S7.85,16.63,7.07,15z"/>
  <path d="M12,6.3c1.56,0,2.93,0.84,3.71,2.12L12,11L8.29,8.42C9.07,7.14,10.44,6.3,12,6.3 M12,4
         C9.24,4,7,6.24,7,9c0,2.69,2.14,4.88,4.84,4.99H12l0.16,0L12.16,14h-0.32v2h0.32v2h2v-2h0.32v-2h-0.32L12,13.99
         l0.16-0.01C14.86,13.88,17,11.69,17,9C17,6.24,14.76,4,12,4L12,4z"/>
</svg>