<svg xmlns="http://www.w3.org/2000/svg" class="icon icon-icon-thunderstorm" viewBox="0 0 24 24">
   <path d="M0 0h24v24H0z" fill="none"/>
   <path d="M5 20.1v-2.07A8 8 0 0113 13V6.006c4.186 0 7.162 2.05 7.694 5.489l1.528 .51A1.992 1.992 0 0120.99 14a2 2 0 01-1.483-2.49l-.031-.137-1.984-.493a4.978 4.978 0 00-2.212.493 4.978 4.978 0 00-4.699-3.996L10 7.01l-.208.012a5.978 5.978 0 00-3.792 1.631V6.125A4.107 4.107 0 000 6.125v10.254a4.119 4.119 0 004.125 4.125h.872a4.002 4.002 0 010-7.884v2.07a2.001 2.001 0 00-1.556 1.855l-.139.272A1.992 1.992 0 015 20zm13 1h2v2h-2v-2zm-6-6h2v2l-.001 1-2 .001v-3z"/>
</svg>
