<svg xmlns="http://www.w3.org/2000/svg" class="icon icon-roboticarm" viewBox="0 0 24 24">
    <path d="M0 0h24v24H0z" fill="none" />
    <path d="M4.5 2a1.5 1.5 0 0 1 1.5 1.5V5H8v2H6v2.5a1.5 1.5 0 0 1-3 0V4a1.5 1.5 0 0 1 1.5-2z" />
    <path d="M8 7v2a1 1 0 0 0 1 1h.5a1.5 1.5 0 0 1 1.5 1.5v8a1.5 1.5 0 0 1-3 0V12H4V2h2v3.5A1.5 1.5 0 0 0 7.5 7H8zm5-2h2a1 1 0 0 1 1 1v.5a2 2 0 0 1-2 2h-1v2h1a2 2 0 0 1 2 2v.5a1 1 0 0 1-1 1h-2v2h2a4 4 0 0 0 4-4v-.5a2 2 0 0 0-2-2h1V7h-1a2 2 0 0 0-2-2v-.5a1 1 0 0 1 1-1h2V2h-2v3z" /> 
</svg>