<svg version="1.0" xmlns="http://www.w3.org/2000/svg" class="icon icon-gramophone-disc.svg icon-data-encryption" viewBox="0 0 1280.000000 1280.000000">
    <g transform="translate(0.000000,1280.000000) scale(0.100000,-0.100000)">
        <path d="M 6400 12790 c-205 -11 -368 -37 -546 -89 -552 -163 -978 -495 -1170 -913 -194 -422 -185 -880 26 -1291 198 -388 567 -702 993 -843 259 -87 
                  790 -77 1044 20 131 50 257 129 368 230 l 91 82 -25 -179 c-34 -245 -53 -377 -77 -537 -233 -1544 24 -3124 685 -4208 314 -514 702 -931 1220 
                  -1305 281 -202 602 -369 928 -484 648 -229 1356 -230 2000 0 322 115 646 282 930 483 115 45 225 95 328 149 l105 54 -6 -6 c-203 -208 -404 -372 
                  -648 -528 -622 -400 -1347 -687 -2095 -830 -761 -146 -1547 -146 -2309 0 -752 144 -1468 434 -2120 863 -176 116 -342 238 -499 365 -141 113 -275 
                  234 -402 360 l-78 77 81 74 c149 137 280 227 439 300 173 80 363 133 557 157 203 24 410 20 613 -16 372 -66 724 -224 1024 -458 236 -183 425 
                  -409 575 -685 195 -359 281 -759 264 -1222 -25 -681 -210 -1316 -577 -1879 -159 -244 -350 -465 -581 -671 -304 -271 -675 -481 -1088 -613 -333 
                  -107 -685 -160 -1045 -157 -670 6 -1314 215 -1920 623 -622 418 -1097 977 -1408 1651 -239 517 -360 1082 -360 1680 0 598 121 1163 360 1680 
                  69 149 137 275 213 395 90 141 184 274 300 425 111 144 230 282 355 395 107 97 216 186 340 260 133 80 274 148 421 201 175 64 359 108 554 
                  130 175 20 351 20 527 0 691 -79 1320 -287 1885 -625 225 -135 427 -298 625 -500 181 -182 338 -395 480 -650 66 -118 123 -243 179 -368 39 
                  -88 73 -179 108 -270 91 -236 145 -487 165 -770 17 -260 -7 -522 -70 -780 l-32 -130 -907 0 -907 0 0 320 0 320 595 0 c382 0 601 3 620 8 
                  211 61 386 261 458 527 45 166 48 345 8 520 -33 149 -109 277 -216 367 -100 84 -218 143 -350 175 l-108 26 -855 0 -855 0 0 415 0 415 630 
                  0 c613 0 629 0 700 20 195 56 339 203 406 415 51 162 46 339 -14 500 -79 212 -242 377 -450 455 l-170 65 -895 0 -895 0 0 -415z m2170 -1670 
                  l0 -415 -2700 0 -2700 0 0 415 0 415 2700 0 2700 0 0 -415z m0 -1215 l0 -390 -2700 0 -2700 0 0 390 0 390 2700 0 2700 0 0 -390z"/>
    </g>
</svg>