<svg xmlns="http://www.w3.org/2000/svg" class="icon icon-asteroid-impact.svg icon-meteor-shower" viewBox="0 0 24 24">
    <path d="M0 0h24v24H0z" fill="none"/>
    <path fill="currentColor" d="M12 19c2.071 0 4-1.66 4-4 0-1.104-.55-2.105-1.412-3.012l7.186-7.188-1.414-1.415-7.186 7.188C14.106 8.55 13.104 8 12 8c-2.071 0-4 1.66-4 4 0 2.34 1.66 4 4 4zm0 2a6 6 0 1 1 0-12 6 6 0 0 1 0 12zm-4.292-3.708l1.5-1.5 1.5 1.5-1.5 1.5-1.5-1.5zm.499-2.125l2 .185v-3.5l-2 3.315zm3-4.667v3.5l2-.185-2-3.315zm.793.793l1.5-1.499-1.5-1.5-1.5 1.499 1.5 1.5zm4.292 2.125l-2 .185v-3.5l2 3.315zm-.793.792l1.5 1.5 1.5-1.5-1.5-1.5-1.5 1.5z"/>
</svg>