<svg xmlns="http://www.w3.org/2000/svg" class="icon icon-aviation-propeller" viewBox="0 0 24 24">
  <path d="M12 2C6.48 2 2 6.48 2 12s4.48 10 10 10 10-4.48 10-10S17.52 2 12 2zm7.46 10h-2.78c-.68-1.25-1.77-2.32-3.02-2.98l1.66-2.88c3.1 1.79 5.22 5.09 5.22 8.86c0 .77-.09 1.52-.26 2.24l-2.38-1.24l-.42-.22zm-4.24 0H9.78C8.53 11.68 7.45 10.6 6.77 9.34l1.66-2.88A9.949 9.949 0 0 0 12 4c.85 0 1.68.1 2.48.32L9.06 7.26l-.38-.02H4.54c.15-.72.38-1.41.68-2.06l2.36 1.22L9 7h.06L6.32 9.68c1.24 .68 2.32 1.76 2.98 3.02v.02h2.78c.68 1.24 1.76 2.32 2.98 3.02L9 16.94v2.78c0 .85-.1 1.68-.3 2.48l2.84-1.58l.46.26v2.38c.62-.3 1.32-.52 2.02-.66v-2.78l2.86 1.6c-.2-.78-.3-1.6-.3-2.44v-2.78l2.88 1.66c-.29-.79-.5-1.62-.66-2.48h-2.76l.24-.46l1.58-2.86c-1.78-.6-3.14-2-3.86-3.78zm-4 2v-4l2 2l-2 2z"/>
</svg>