<svg xmlns="http://www.w3.org/2000/svg" class="icon icon-virtual-reality.svg* icon-forestfire" viewBox="0 0 24 24">
  <path d="M0 0h24v24H0z" fill="none"/>
  <path fill="currentColor" d="M12 3C8 3 4.5 8 4.5 8s3.5 5 7.5 5 7.5-5 7.5-5-4-5-7.5-5zm0 7c-1.105 0-2-.672-2-1.5s.895-1.5 2-1.5 2 .672 2 1.5-.895 1.5-2 1.5zm1 2l.5-.278V10h-3v1.722l.5.278a1.993 1.993 0 0 1 2 0z"/>
  <path fill="currentColor" d="M4.968 22H19.07l-1.02-6.815C17.196 13.45 14.66 12 12 12c-2.66 0-5.197 1.45-5.885 3.185L4.967 22h.002zm2.24-2l.791-5.28C8.227 15.71 9.99 15 12 15c2.01 0 3.774.71 4.006 1.72l.79 5.28C13.672 23.78 10.322 24 7.207 20z"/>
</svg>