<svg xmlns="http://www.w3.org/2000/svg" class="icon icon-davincihelicopter" viewBox="0 0 24 24">
    <path d="M12.9 23.6l1.1-2H9l1.1 2h2.8zM5 19v-1a4 4 0 014-4h6a4 4 0 014 4v1a2 2 0 01-2 2h-2.1l1.7-3H6.4L8.1 21H6a2 2 0 01-2-2v-1a1 1 0 001-1h14a1 1 0 001-1v-2a1 1 0 00-1-1H6a1 1 0 00-1 1v2a1 1 0 001 1h2.7L7.6 18A4 4 0 015 15v-1a1 1 0 00-1 1 4 4 0 004 4h1.4l-1.7 3H4a2 2 0 01-2-2 1 1 0 001-1zM19 3a1 1 0 011 1v8a1 1 0 01-2 0V4a1 1 0 011-1zm-6-2a1 1 0 011 1v10a1 1 0 01-2 0V2a1 1 0 011-1zM7 5a1 1 0 011 1v6a1 1 0 01-2 0V6a1 1 0 011-1z" />
</svg>