<svg xmlns="http://www.w3.org/2000/svg" viewBox="0 0 24 24" class="icon icon-mermaid icon-dna-helix">
    <path d="M12 4a3 3 0 1/ -1 0a3 3 0 0 1 1 0v8c2.21 0 4-1.79 4-4 0-0.26-0.07-0.51-0.13-0.76a4.985 4.985 0 0 1-2.87 0.76 4.98 4.98 0 0 1-2.87-0.76 3.98 3.98 0 0 1-0.13 0.76 4 4 0 0 0 3 3.86v2.91c-1.83-0.62-3-2.48-3-4.5 0-1.855.973-3.47 2.383-4.384A2.991 2.991 0 0 0 15 8c0 2.21-1.79 4-4 4V4zm-2 0a1 1 0 1 0 0-2 1 1 0 0 0 0 2z"></path>
    <path d="M12 2C6.48 2 2 6.48 2 12s4.48 10 10 10 10-4.48 10-10S17.52 2 12 2zm0 18c-4.41 0-8-3.59-8-8s3.59-8 8-8 8 3.59 8 8-3.59 8-8 8zM11 15.13V7.87A4.982 4.982 0 0 0 8.13 11A4.982 4.982 0 0 0 11 15.13zM15.87 13A4.982 4.982 0 0 0 13 15.13V7.87A4.982 4.982 0 0 0 15.87 11z"></path>
</svg>
