<svg xmlns="http://www.w3.org/2000/svg" class="icon icon-feather-duster" viewBox="0 0 24 24">
  <path fill="none" d="M0 0h24v24H0z"/>
  <path d="M2.808 1.393l13.435 2.87-1.233 1.947L2.808 1.392zm16.995 3.006l3.945 3.944-4.752 4.251-.769-.645-.437-.745-1.374-.11-.186 1.332-.271 1.94-1.073.682-.141-1.95-1.944-.226-.528-.64-2.757-.18 11.528-2.47zM4.465 12.37L14.45 8.67l.306 1.018-3.973 3.973-1.176-.24-2.23-2.23-.205-.105-.075-.972-.707-.754zm2.824-2.275l2.02 2.02-.633.052-1.387-2.072zm10.226.605l2.776 2.776-.222.932-3.205-3.204.651-.504zm-12.37 6.599l5.303-2.188-1.94-1.94-3.362.485a1.75 1.75 0 00-1.33 1.33l.45 1.774a1.75 1.75 0 001.88 1.537zM6.25 22a1.75 1.75 0 001.2-.47l1.65-1.65A1.75 1.75 0 0010.45 22H6.25z"/>  
</svg>