<svg id="icon-asteroid.svg-icon-dna" xmlns="http://www.w3.org/2000/svg" viewBox="0 0 512 512" class="icon icon-asteroid.svg icon-dna">
  <path d="M256,0C114.6,0,0,114.6,0,256s114.6,256,256,256s256-114.6,256-256S397.4,0,256,0z M256,480c-123.5,0-224-100.5-224-224
    S132.5,32,256,32s224,100.5,224,224S379.5,480,256,480z"/>
  <path d="M313.6,166.4c-44.8-44.8-117.2-44.8-162,0s-44.8,117.2,0,162c44.8,44.8,117.2,44.8,162,0S358.4,211.2,313.6,166.4z M256,298.2
    c-23.6,0-42.8-19.2-42.8-42.8s19.2-42.8,42.8-42.8s42.8,19.2,42.8,42.8S279.6,298.2,256,298.2z"/>
</svg>