<svg xmlns="http://www.w3.org/2000/svg" class="icon icon-old-telephone" viewBox="0 0 24 24">
  <path d="M22 22h-20v-19h6.405l-.825-1.657-1.08-.725h6.5l-1.08.725-.86 1.657h6.96v19zm-8-20c0 .552-.448 1-1 1s-1-.448-1-1 1-.448 1-1 .448-1 1-1 1 .448 1 1zm2 0c0 .552-.448 1-1 1s-1-.448-1-1 1-.448 1-1 .448-1 1-1 1 .448 1 1zm-2.501 6h-5.499v1.5h6v-1.5zm-.499 1.5v1.5l.499-.5.5-.5h-1zm2.5 0h-1.5v1.5h1.5v-1.5zm2 .5v-.5h-1.5l.5.5h1zm-6 1.5h-5.5v1.5h6v-1.5zm-.5 1.5v1.5l.5-.5.5-.5h-1zm2.5 0h-1.5v1.5h1.5v-1.5zm2 .5v-.5h-1.5l.5.5h1zm-6 1.5h-5.5v1.5h6v-1.5zm-.5 1.5v1l.5-.5.5-.5h-1zm2.5 0h-1v1h1v-1zm1.5-.5v-.5h-1.5l.5.5h1zm-6 1.5h-5.5v1.5h6v-1.5zm-4.5 9h14v-4h-14v4z"></path>
</svg>