<svg xmlns="http://www.w3.org/2000/svg" viewBox="0 0 24 24" class="icon icon-cloudmigration">
    <path d="M20.013 10.726A4.003 4.003 0 0 0 16 7c-0.73 0-1.412 0.195-2 0.529A4.978 4.978 0 0 0 10 7 5 5 0 0 0 5 12a4.993 4.993 0 0 0 3.9-1.906 3 3 0 1 0-1.252.066 2.996 2.996 0 0 0-1.27-.251C3.58 10.91 2 12.36 2 14c0 1.657 1.343 3 3 3h6.5a1 1 0 1 1 0 2H5a5 5 0 0 1-5-5c0-2.389 1.725-4.384 4-4.906V9a6 6 0 0 1 6-6c1.777 0 3.374 0.772 4.469 2.012A6.002 6.002 0 0 1 22 15.5a5.978 5.978 0 0 1-1.987 4.5H17a1 1 0 1 1 0-2h3.013A3.976 3.976 0 0 0 20 15.5a4 4 0 0 0-.987-4.774z"/>
</svg>