<svg xmlns="http://www.w3.org/2000/svg" viewBox="0 0 24 24" class="icon icon-alien.svg icon-dna-sequence">
    <path d="M12 2C6.48 2 2 6.48 2 12s4.48 10 10 10 10-4.48 10-10S17.52 2 12 2zm0 18c-4.41 0-8-3.59-8-8s3.59-8 8-8 8 3.59 8 8-3.59 8-8 8z"/>
    <path d="M6 12c1.1 0 2-.9 2-2s-.9-2-2-2-2 .9-2 2 .9 2 2 2zm6-2c-1.1 0-2 .9-2 2s.9 2 2 2 2-.9 2-2-.9-2-2-2zm6 2c1.1 0 2-.9 2-2s-.9-2-2-2-2 .9-2 2 .9 2 2 2z"/>
    <path d="M19 8h2v2h-2zM15 8h2v2h-2zM11 8h2v2h-2zM7 8h2v2H7zM19 12h2v2h-2zM15 12h2v2h-2zM11 12h2v2h-2zM7 12h2v2H7zM19 16h2v2h-2zM15 16h2v2h-2zM11 16h2v2h-2zM7 16h2v2H7z"/>
</svg>