<svg xmlns="http://www.w3.org/2000/svg" class="icon icon-steam-train" viewBox="0 0 24 24">
    <path d="M0 0h24v24H0V0z" fill="none"/>
    <path d="M21.5 5h-19C1.67 5 0 6.67 0 8.5v7c0 1.83 1.67 3.5 3.5 3.5l1.5 0v1.5c0 1.38 1.12 2.5 2.5 2.5s2.5-1.12 2.5-2.5V19h6v1.5c0 1.38 1.12 2.5 2.5 2.5s2.5-1.12 2.5-2.5v-1.5h1.5c1.93 0 3.5-1.73 3.5-3.5v-7C25 6.67 23.33 5 21.5 5zM9 16c-0.83 0-1.5-0.67-1.5-1.5S8.17 13 9 13s1.5 0.67 1.5 1.5S9.83 16 9 16zm3-7h5v4h-5V9zm7 1.5c0-0.83-0.67-1.5-1.5-1.5s-1.5 0.67-1.5 1.5S17.17 13 18 13s1.5-0.67 1.5-1.5zM9 21c-0.55 0-1-0.45-1-1s0.45-1 1-1 1 0.45 1 1S9.55 21 9 21zm9 0c-0.55 0-1-0.45-1-1s0.45-1 1-1 1 0.45 1 1S18.55 21 18 21zM3.5 16C2.67 16 2 15.33 2 14.5S2.67 13 3.5 13 5 13.67 5 14.5 4.33 16 3.5 16z"/>
</svg>