<svg xmlns="http://www.w3.org/2000/svg" viewBox="0 0 24 24" class="icon icon-digital-compass">
  <path d="M12 2C6.477 2 2 6.477 2 12s4.477 10 10 10 10-4.477 10-10S17.523 2 12 2zm0 18a8 8 0 1 1 0-16 8 8 0 0 1 0 16z" fill="none" stroke-width="2" stroke-linecap="round" stroke-linejoin="round"/>
  <path d="M15.536 8.464a5 5 0 0 1-1.414 1.414l-1.586 3.172a5 5 0 0 1-1.414 1.414 5 5 0 0 1-7.071-7.071 5 5 0 0 1 1.414-1.414l3.172-1.586a5 5 0 0 1 1.414-1.414 5 5 0 0 1 7.077 7.077z" fill="none" stroke-width="2" stroke-linecap="round" stroke-linejoin="round"/>
</svg>