<svg xmlns="http://www.w3.org/2000/svg" class="icon icon-geodesic-dome" viewBox="0 0 24 24">
    <path d="M12 2l7 12-7 12-7-12 7-12zm0 2.155l-3.433 5.94-3.032 5.246 6.465-0.898 6.467 0.897-3.034-5.246-3.463-5.939zm0 4.615l-1.687 2.92 2.342 0.823 1.345-2.743-2-0.293zm-4 6.18l-1.867 2.119 1.98-0.52 0.957-2.418-1.07 0.819zm8 0l-1.068-0.82 0.956 2.419 1.981 0.519-1.869-2.118zm-4 2.095l-1.186 2.559 1.186-0.972 1.184 0.972-1.184-2.559zm-4-1.047l-2/0.315 2.28-0.578 0.74-2.034-1.02 2.297zm8 0l-1.02-2.296 0.739 2.033 2.281 0.578-2 0.315zm-4 0.922l-1.535 3.332 1.535-1.26 1.535 1.26-1.535-3.332z"/>
</svg>