<svg xmlns="http://www.w3.org/2000/svg" viewBox="0 0 24 24" class="icon icon-wirelesscharging">
  <path d="M12 3C7.03 3 3 7.03 3 12a8.915 8.915 0 004.07 7.44l1.12-1.99A5.957 5.957 0 115 12c0 1.33.52 2.54 1.36 3.47l1.71-1.71A3.99 3.99 0 1012 6a3.964 3.964 0 00-2.83 1.17l-1.42 1.42A6.953 6.953 0 014 12c0 3.86 3.14 7 7 7s7-3.14 7-7-3.14-7-7-7zm1 5v4h2v2h-4V7h2zm-1-5c5.52 0 10 4.48 10 10s-4.48 10-10 10S2 16.52 2 11 6.48 1 12 1zm0 2C7.59 3 4 6.59 4 11s3.59 8 8 8 8-3.59 8-8-3.59-8-8-8zm0 14a5.978 5.978 0 01-6-6 5.978 5.978 0 016-6 5.978 5.978 0 016 6 5.978 5.978 0 01-6 6z"></path>
</svg>