<svg xmlns="http://www.w3.org/2000/svg" class="icon icon-settings" viewBox="0 0 24 24">
  <path d="M12 9c1.654 0 3 1.346 3 3s-1.346 3-3 3-3-1.346-3-3 1.346-3 3-3zm0-1a4 4 0 1 0 0 8 4 4 0 0 0 0-8zm-6.481 7.025l-1.489.877c-.64 1.11-.86 2.383-.62 3.627l.050.272 2.6-1.5.231-.133c.65 1.1 1.71 1.97 2.98 2.45l.491 2.74h4l.491-2.74c1.27-.48 2.33-1.35 2.98-2.45l.231.133 2.6 1.5.05-.272c.24-1.244.02-2.517-.62-3.627l-1.489-.877-.231-.132c-.01-.39-.04-.776-.1-1.154l.061-.072 1.33-1.768c.64-1.11.86-2.383.62-3.627l-.05-.271-2.6 1.499-.231.133c-.65-1.1-1.71-1.97-2.98-2.45l-.491-2.741h-4l-.491 2.741c-1.27.48-2.33 1.35-2.98 2.45l-.231-.133-2.6-1.499-.05.271c-.24 1.244-.02 2.517.62 3.627l1.33 1.768-.06.073c-.06.377-.09.763-.1 1.153l-.231.132zm6.481-5.025c1.654 0 3 1.346 3 3s-1.346 3-3 3-3-1.346-3-3 1.346-3 3-3z"/>
</svg>