<svg xmlns="http://www.w3.org/2000/svg" class="icon icon-chameleon.svg* icon-clocktower" viewBox="0 0 32 32">
  <g>
    <path d="M16,0 C7.16,0 0,7.16 0,16 C0,24.84 7.16,32 16,32 C24.84,32 32,24.84 32,16 C32,7.16 24.84,0 16,0 Z M16,30 C8.28,30 2,23.72 2,16 C2,8.28 8.28,2 16,2 C23.72,2 30,8.28 30,16 C30,23.72 23.72,30 16,30 Z"/>
    <path d="M22.71,15 L21.29,15 L16,20.59 L10.71,15 L9.29,16.41 L16,23.12 L22.71,16.41 L21.29,15 Z"/>
    <path d="M11,9 L13,11 L16,8 L19,11 L21,9 L16,4 L11,9 Z"/>
  </g>
</svg>