<svg xmlns="http://www.w3.org/2000/svg" viewBox="0 0 24 24" class="icon icon-keyboard">
  <path d="M0 0h24v24H0z" fill="none"/>
  <path d="M2.808 4.667A1.333 1.333 0 0 1 4.142 3.333h15.716a1.333 1.333 0 0 1 1.333 1.334v10.666a1.333 1.333 0 0 1-1.333 1.334H4.143a1.333 1.333 0 0 1-1.334-1.334V4.667zm11.392 8.666a1.333 1.333 0 1 0 0-2.667 1.333 1.333 0 0 0 0 2.667zM7.475 9.333a1.333 1.333 0 1 0 0-2.666 1.333 1.333 0 0 0 0 2.666zm8.053 0a1.333 1.333 0 1 0 0-2.666 1.333 1.333 0 0 0 0 2.666zM7.475 12.667a1.333 1.333 0 1 0 0-2.667 1.333 1.333 0 0 0 0 2.667zm8.053 0a1.333 1.333 0 1 0 0-2.667 1.333 1.333 0 0 0 0 2.667zm-4.027-1.334a1.333 1.333 0 1 0 0-2.666 1.333 1.333 0 0 0 0 2.666z"/>
</svg>