<svg xmlns="http://www.w3.org/2000/svg" viewBox="0 0 24 24" fill="none" stroke="currentColor" stroke-width="2" stroke-linecap="round" stroke-linejoin="round" class="icon icon-jackal">
  <path d="M12 3a9 9 0 0 1 9 9c0 1.1-.2 2.2-.6 3.2a9 9 0 0 1-3.4 3.4A9 9 0 0 1 12 21a9 9 0 0 1-9-9 9 9 0 0 1 13.8-7.3L12 3z"></path>
  <path d="M14.83 9.17a3.001 3.001 0 0 1 0 4.242l-2.828-2.828a3.001 3.001 0 0 1 0-4.242l2.828 2.828zm-4.242 4.243a3.001 3.001 0 0 1 4.242 0l-2.828 2.828a3.001 3.001 0 0 1-4.242 0l2.828-2.828z"></path>
</svg>