<svg xmlns="http://www.w3.org/2000/svg" xmlns:xlink="http://www.w3.org/1999/xlink" viewBox="0 0 24 24" class="icon icon-puzzle-solution">
  <path d="M0 0h24v24H0z" fill="none"/>
  <path d="M18 13v5a1 1 0 0 1-1 1H7v-2a13.1 13.1 0 0 1 4-2.153V15l6 1.213V13a5.978 5.978 0 0 0 2-.536A5.978 5.978 0 0 0 18 13zm-8 6v2H5a1 1 0 0 1-1-1v-5h2v2a11.1 11.1 0 0 0 2 .251V19zm-2-6v-2a4.978 4.978 0 0 0-2-.535V11a5.978 5.978 0 0 0 2-.536V9a5.978 5.978 0 0 0 2-.536V7c-.532-.158-1-.274-1.5-.408V3a1 1 0 0 1 1-1h6a1 1 0 0 1 1 1v1.007c2.32.367 4 2.242 4 4.693V11l-2 .001V7.692A2.978 2.978 0 0 0 13 5H8a2.978 2.978 0 0 0-2 1.308V8.69a4.978 4.978 0 0 0-2 .535v2.773a4.978 4.978 0 0 0 2-.536v2.773a4.978 4.978 0 0 0 2-.535z"/>
</svg>