<svg xmlns="http://www.w3.org/2000/svg" class="icon icon-sonicwave" viewBox="0 0 24 24">
  <path d="M2,12 C2,14.209139 3.790861,16 6,16 C8.209139,16 10,14.209139 10,12 C10,9.790861 8.209139,8 6,8 C3.790861,8 2,9.790861 2,12 Z"/>
  <path d="M14,12 C14,14.209139 15.790861,16 18,16 C20.209139,16 22,14.209139 22,12 C22,9.790861 20.209139,8 18,8 C15.790861,8 14,9.790861 14,12 Z"/>
  <path d="M4,12 C4,13.6568542 5.34314575,15 7,15 C8.65685425,15 10,13.6568542 10,12 C10,10.3431458 8.65685425,9 7,9 C5.34314575,9 4,10.3431458 4,12 Z"/>
  <path d="M16,12 C16,13.6568542 17.3431458,15 19,15 C20.6568542,15 22,13.6568542 22,12 C22,10.3431458 20.6568542,9 19,9 C17.3431458,9 16,10.3431458 16,12 Z"/>
</svg>