<svg xmlns="http://www.w3.org/2000/svg" class="icon icon-gondola" viewBox="0 0 24 24">
    <path d="M12 12h-2.5v1h2.5v-1zm-4 0h-2.5v1h2.5v-1zm8 0h-2.5v1h2.5v-1zm4 0h-2.5v1h2.5v-1zm-14 6v-5h-1v6h16v-6h-1v5h-14zm15-6h-2.138l-2.244-1.796l.596-.763l3.786 2.559h0zm-4.994-1.655l-.766.569-1.018-.825l.68-.569l1.104.825zm-2.003-1.347l-.766.569-1.02-.823l.682-.569l1.104.823zm-4 3.002h-2.152l-2.241-1.793l.593-.764l3.8 2.557zm-4.863-1.655l-.764.568-1.02-.823l.68-.566l1.104.821zm-2.001-1.35l-.764.568-1.018-.822l.679-.568l1.103.822zm10.918 3.005h-1.741l-2.507-2.003l.938-1.255l3.31 3.258zm-6.082-2.006l-.94 1.253l-2.499 2.003l-1.741-.003l3.311-3.253zm-6.081 2.006h-1.744l-2.503-2.002l.938-1.257l3.309 3.259z"/>
</svg>