<svg xmlns="http://www.w3.org/2000/svg" class="icon icon-waste-management.svg icon-orbit">
  <path d="M8 0C3.582 0 0 3.582 0 8s3.582 8 8 8 8-3.582 8-8-3.582-8-8-8zm0 14c-3.308 0-6-2.692-6-6s2.692-6 6-6 6 2.692 6 6-2.692 6-6 6z"/>
  <path d="M5.917 11.076c-.542-.542-1.42-.542-1.962 0-.542.542-.542 1.42 0 1.962.542.542 1.42.542 1.962 0 .542-.543.542-1.42 0-1.962zM14.083 2.924c-.542-.542-1.42-.542-1.962 0-.543.542-.543 1.42 0 1.962.542.542 1.42.542 1.962 0 .542-.543.542-1.42 0-1.962zM14.083 11.076c-.542-.542-1.42-.542-1.962 0-.543.542-.543 1.42 0 1.962.542.542 1.42.542 1.962 0 .542-.543.542-1.42 0-1.962z"/>
</svg>
