<svg xmlns="http://www.w3.org/2000/svg" class="icon icon-flask-bubbles" viewBox="0 0 24 24">
  <path d="M15 2.176V4a1 1 0 0 0 2 0V2.176A8.993 8.993 0 0 0 12 2C9.347 2.02 6.804 2.909 5 4.897V7a4 4 0 0 0 1.528 3.109l.305 2.691A4.992 4.992 0 0 0 10 16.44V21a1 1 0 0 0 2 0v-4.56a4.992 4.992 0 0 0 3.167-3.64l.305-2.691A4 4 0 0 0 19 7V4.897A8.993 8.993 0 0 0 15 2.176zM11 14.322a2.99 2.99 0 0 1-2-1.528l-.176-.422.176-.666.017-.293 1.983.33-.017.293-.176.666a2.99 2.99 0 0 1-2 1.528A2.983 2.983 0 0 1 8.23 12h7.536a2.99 2.99 0 0 1-2.769 2.322zM12 9a1 1 0 1 1 0-2 1 1 0 0 1 0 2zm-2-4a1 1 0 1 1 0-2 1 1 0 0 1 0 2zm3-3a1 1 0 1 1 0-2 1 1 0 0 1 0 2z" />
</svg>