<svg xmlns="http://www.w3.org/2000/svg" viewBox="0 0 24 24" class="icon icon-recycling-robot">
    <path d="M12 2C6.48 2 2 6.48 2 12s4.48 10 10 10 10-4.48 10-10S17.52 2 12 2zm0 18c-4.41 0-8-3.59-8-8s3.59-8 8-8 8 3.59 8 8-3.59 8-8 8zM6.5 9.5h2v1h-2zm9 0h2v1h-2zM8.5 12a1.5 1.5 0 0 0 1.5 1.5h2.83l-3.33 3.34l1.41 1.41L13.75 15h2.02c.28 0 .5-.22.5-.5V12.5A1.5 1.5 0 0 0 15 11h-3.5a1.5 1.5 0 0 0-3 0zM16 5.5a2.5 2.5 0 0 1 5 0v1a2.5 2.5 0 0 1-2.5 2.45V8.5A1.5 1.5 0 0 0 16 10a1.5 1.5 0 0 0-1.5-1.5v-1A2.5 2.5 0 0 1 16 5.5z"/>
    <polygon points="9,11 15,11 12,7.5"/>
</svg>