<svg xmlns="http://www.w3.org/2000/svg" viewBox="0 0 24 24" class="icon icon-live-chat">
<path d="M12 1C5.9 1 1 5.9 1 12c0 4.8 3 8.8 7 10.4V23l7-4c1.2-.1 2.3-.4 3.4-1 1.1-.6 2-1.4 2.8-2.4 1-1.2 1.6-2.6 1.8-4.2.3-2.6-.7-5.1-2.5-7-1.8-1.9-4.4-3-7.1-3.3-.4 0-.7 0-1 .1zm10 11c-.2 1.6-.8 3-1.7 4.2-.9 1-2 1.8-3.2 2.4-1.1.5-2.3.8-3.5.8l-4 .2v-2.2c1-.2 2-.5 2.9-1 .9-.5 1.7-1.1 2.4-1.8.8-.8 1.4-1.7 1.7-2.7.3-1 .5-2 .6-3 .1-1.1-.2-2.1-.6-3.1-.5-1-1.2-1.8-2-2.6s-1.8-1.2-2.8-1.7c-1.1-.5-2.3-.7-3.5-.7-1.2.1-2.4.4-3.5 1-1 .6-1.9 1.4-2.5 2.4-.8 1-1.3 2.2-1.5 3.5-.2 1.3 0 2.5 .5 3.7.5 1.2 1.3 2.3 2.2 3.2.9 1 2.1 1.8 3.4 2.3v2.3l-4-.2c-1.2 0-2.4-.3-3.5-.8-1.2-.6-2.3-1.4-3.2-2.4C1.8 15 1.2 13.6 1 12c0-1.2.2-2.4.7-3.6.5-1.1 1.3-2.1 2.3-3 1-1 2.2-1.7 3.6-2.2C8.4 2.4 10.2 2 12 2s3.6.4 5.1 1.2c1.5.5 2.7 1.3 3.8 2.3 1 1 1.8 2.2 2.2 3.5.5 1.2.7 2.5.7 3.7 0 1.2-.2 2.3-.6 3.4z"/>
</svg>