<svg xmlns="http://www.w3.org/2000/svg" viewBox="0 0 24 24" class="icon icon-hiking-boot-print">
  <path d="M12 2C6.48 2 2 6.48 2 12s4.48 10 10 10 10-4.48 10-10S17.52 2 12 2zm0 18c-4.41 0-8-3.59-8-8s3.59-8 8-8 8 3.59 8 8-3.59 8-8 8z">
  <path d="M16 13.48L14.632 15l1.368-1.52C15.786 13.345 15.396 13 15 13c-.4 0-.787.35-1 .48L12.632 15l1.368-1.52C13.786 13.345 13.392 13 13 13c-.395 0-.79.345-1 .48L10.63 15l1.37-1.52C11.786 13.345 11.396 13 11 13c-.395 0-.79.345-1 .48L8.632 15l1.368-1.52C9.787 13.345 9.395 13 9 13 7.9 13 7 13.9 7 15s.9 2 2 2c.55 0 1-.45 1-1s-.45-1-1-1c-.55 0-1 .45-1 1s.45 1 1 1c.55 0 1-.45 1-1s-.45-1-1-1c-.55 0-1 .45-1 1s.45 1 1 1c.55 0 1-.45 1-1s-.45-1-1-1c-.55 0-1 .45-1 1s.45 1 1 1 1-.45 1-1s-.45-1-1-1c-.55 0-1 .45-1 1s.45 1 1 1c.55 0 1-.45 1-1s-.45-1-1-1c-.55 0-1 .45-1 1s.45 1 1 1c1.1 0 2-.9 2-2 0-1.1-.9-2-2-2zm-4 2c-.55 0-1 .45-1 1s.45 1 1 1 1-.45 1-1-.45-1-1-1z" />
</svg>