<svg xmlns="http://www.w3.org/2000/svg" class="icon icon-cloud-download" viewBox="0 0 24 24">
    <path d="M0 0h24v24H0z" fill="none"/>
    <path d="M21.35 11.1A6.978 6.978 0 0 0 17 8a6.978 6.978 0 0 0-4.35 1.64A4.978 4.978 0 0 0 7 8c-2.761 0-5 2.686-5 5.996A3.8 3.8 0 0 0 4.4 18H9v-2H4.062a1.001 1.001 0 0 1-.955-1.216C3.27 13.135 4.898 12 6.5 12c.401 0 .778.042 1.141.12a4.982 4.982 0 0 0 .782-1.695C8.626 9.987 8.914 10 9.2 10a4.978 4.978 0 0 0 2.983-1.065A7.103 7.103 0 0 0 15.707 12H17v2h2.641a3.759 3.759 0 0 0 1.272-4.8l.003-.1ZM11 13l-4 4h8l-4-4z"/>
</svg>