<svg xmlns="http://www.w3.org/2000/svg" class="icon icon-unicorn" viewBox="0 0 32 32">
  <path d="M20.5,5.5c-0.8,0-1.5,0.3-2,0.9c-0.5,0.6-0.8,1.4-0.7,2.3L18,13.5l-2.1,2.1l0.7,3.9l3.5-2l1.3,0.3l1.5-2.8l1.5,2.8
    l2.3-0.5l-0.8-1.7l2.8-1.3l-2-3.5l-2.7,0.7L20.5,5.5z M12.1,12.4c-0.7,0.4-1.2,1.1-1.4,1.9c-0.2,0.8-0.1,1.6,0.3,2.3
    c0.4,0.7,1.1,1.2,1.3,2l0.8,4.6l3.5-2l1.3,0.3l-1.5,2.8l1.5,2.8h2.3l-0.8,-1.7l3,-1.3l-3,-1.5l-2.7,0.7l-1,-3.7l0.5,-0.5l-2.5,-2.5
    C13.6,14.6,12.7,13.4,12.1,12.4L12.1,12.4z M20.2,16.8l-1.4,-0.3l-2.1,2.1l-0.4,2.3l2.8,1.6l1.1,-2c0.2,-0.4,0.3,-0.8,0.1,-1.2
    C20.3,17.8,20.2,16.8,20.2,16.8L20.2,16.8z M16.3,22.3l-1.1,2c-0.2,0.4,-0.3,0.8,-0.1,1.2c0.2,0.4,0.6,0.7,1,0.9l1.2,0.6v-2.3
    L16.3,22.3L16.3,22.3z M22.2,26.8l1,-2c0.3,-0.6,0,-1.3,-0.6,-1.6l-1.4,-0.3l0.6,2.3L22.2,24.8L22.2,26.8z M22.2,26.8"/>
</svg>