<svg xmlns="http://www.w3.org/2000/svg" viewBox="0 0 24 24" fill="none" stroke="currentColor" stroke-width="2" stroke-linecap="round" stroke-linejoin="round" class="icon icon-biohazardSuit">
  <path d="M23.9,10.6c-0.6-2.7-2.6-4.8-5.3-5.4C17.1,2.5,14.1,1,10.9,1C7.7,1,4.6,2.5,3.4,5.1C0.8,5.7,0.1,7.7,0.1,10c0,4.3,1.9,8.1,4.9,10.6h0.1l0,0l0,0 c1.2,0.9,2.7,1.6,4.4,2.1v0.2h3.1v-0.2c1.7-0.5,3.2-1.3,4.4-2.2h0.1c3-2.6,4.9-6.3,4.9-10.6C24,10.9,24,10.7,23.9,10.6L23.9,10.6z"/>
  <path d="M12,23c-1.6-0.1-3.3-0.7-4.8-1.6l0,0c-3.4-2.7-5.2-7-5.2-11.6v-0.1c0-1.6,0.3-3.1,1-4.3L12,23L12,23L12,23z"/>
  <path d="M7.9,10c0-2.3,1.8-4,4-4s4,1.8,4,4s-1.8,4-4,4S7.9,12.2,7.9,10L7.9,10L7.9,10z"/>
</svg>