<svg xmlns="http://www.w3.org/2000/svg" class="icon icon-royal-crown" viewBox="0 0 24 24">
    <path d="M12,2C6.489,2,2,6.477,2,12c0,5.522,4.487,10,10,10s10-4.478,10-10C22,6.477,17.511,2,12,2z M12,22c-4.963,0-9-4.037-9-9
        c0-4.963,4.037-9,9-9s9,4.037,9,9C21,17.963,16.963,22,12,22z M7.199,15.66c0.911,0.911,2.097,1.4,3.36,1.398
        c1.265,0.001,2.451-0.487,3.363-1.398c0.911-0.911,1.4-2.097,1.398-3.36c0.001-1.265-0.487-2.451-1.398-3.363
        c-0.911-0.911-2.097-1.4-3.36-1.398C9.296,7.538,7.199,9.634,7.199,12.001C7.2,12.562,7.273,13.119,7.417,13.66L7.199,15.66z
         M12,10.287c0.379,0,0.725,0.154,0.979,0.407C13.3,10.914,13.453,11.257,13.49,11.636l0,0.417c-0.013,0.338-0.137,0.649-0.355,0.893
        C12.931,13.204,12.519,13.467,12,13.667l-0.464-0.865c-0.28-0.52-0.373-1.099-0.271-1.667C11.392,10.554,11.673,10.294,12,10.287z" />
</svg>