<svg xmlns="http://www.w3.org/2000/svg" viewBox="0 0 24 24" class="icon icon-lunar-rover">
  <path d="M12 2a5 5 0 0 1 5 5v1h-2V7a3 3 0 0 0-6 0v1H7V7a5 5 0 0 1 5-5zm6 8a4 4 0 0 1 4 4v5a1 1 0 0 1-1 1h-1a1 1 0 0 1-1-1v-1H3v1a1 1 0 0 1-1 1H1a1 1 0 0 1-1-1v-5a4 4 0 0 1 4-4h14zm-8 4a1 1 0 0 0-.993.883L9 15v2a1 1 0 0 0 .883.993L10 18a1 1 0 0 0 1-1v-2a1 1 0 0 0-1-1zm8 0a1 1 0 0 0-.993.883L17 15v2a1 1 0 0 0 .883.993L18 18a1 1 0 0 0 1-1v-2a1 1 0 0 0-1-1zM2 15a2 2 0 0 0-2 2v1h4v-1a2 2 0 0 0-2-2zm17.586-3H4.414l1.293 1.293a1 1 0 0 0 1.414-1.414l-.793-.793h8.672l-.793.793a1 1 0 0 0 1.414 1.414L19.586 12zM22 17a2 2 0 0 0-2-2h-4v2a2 2 0 0 0 2 2h4v-1a2 2 0 0 0-2-2z"/>
</svg>