<svg xmlns="http://www.w3.org/2000/svg" class="icon icon-mermaids-tail.svg* icon-globe-stand" viewBox="0 0 32 32">
  <path d="M16,0C7.2,0,0,7.2,0,16c0,8.8,7.2,16,16,16s16-7.2,16-16C32,7.2,24.8,0,16,0z M16,30
      c-7.7,0-14-6.3-14-14S8.3,2,16,2s14,6.3,14,14S23.7,30,16,30z" />
  <path d="M17,22c-0.6,0-1-0.4-1-1V9c0-0.6,0.4-1,1-1s1,0.4,1,1v12C18,21.6,17.6,22,17,22z" />
  <path d="M22,18h-4c-0.6,0-1-0.4-1-1s0.4-1,1-1h4c0.6,0,1,0.4,1,1S22.6,18,22,18z" />
  <path d="M18,8c0,0.6-0.4,1-1,1s-1-0.4-1-1s0.4-1,1-1S18,7.4,18,8z" />
  <path d="M15,22c-0.6,0-1-0.4-1-1s0.4-1,1-1s1,0.4,1,1S15.6,22,15,22z" />
</svg>