<svg xmlns="http://www.w3.org/2000/svg" class="icon icon-dna-helix icon-space-rocket" viewBox="0 0 24 24">
    <path d="M0 0h24v24H0z" fill="none"/>
    
    <path d="M21 16V7a4 4 0 0 0-4-4h-9a1 1 0 0 0-1 1v14.758c0 .537.32 1.027.821 1.265l.304.127a1.993 1.993 0 0 0 1.748 0l.304-.127c.501-.238.821-.728.821-1.265V8h1v9a1 1 0 0 0 1 1h1a1 1 0 0 0 1-1v-9h-1v9a1 1 0 0 0 1 1h2a1 1 0 0 0 1-1v-7.356a5.98 5.98 0 0 0 2 .356 4 4 0 0 0 4-4v-3a4 4 0 0 0-4-4h-2a4 4 0 0 0-3 1.354A3.99 3.99 0 0 0 9 2H8a4 4 0 0 0-4 4v9.878a2 2 0 0 0 1 1.73V19a1 1 0 0 1-2 0v-3.087c0-1.05-.595-1.992-1.5-2.445l-1.027-.573 1.541 1.497A3.967 3.967 0 0 0 4 15c0 2.21-1.79 4-4 4v2c2.21 0 4-1.79 4-4a3.981 3.981 0 0 0-1.547-3.193l1.72-1.674-1.068.596c-.895.504-1.5 1.454-1.5 2.524V16c0 1.105-.895 2-2 2v2c1.105 0 2-.895 2-2z" style="fill:currentColor"/>
</svg>