<svg xmlns="http://www.w3.org/2000/svg" viewBox="0 0 24 24" class="icon icon-key-sun">
    <path d="M12 2a1 1 0 011 1v1a1 1 0 01-2 0V3a1 1 0 011-1zm-7.071 4.071a1 1 0 011.414 0l.707-.707a1 1 0 010 1.414l-.707-.707a1 1 0 01-1.414 0zm12.728 0l-.707 .707a1 1 0 110-1.414l.707 .707a1 1 0 010 1.414zm-9.192 9.905a6 6 0 118.485 0l1.414 1.414-1.414 1.414-1.414-1.414a4 4 0 10-5.657 0l-1.414 1.414-1.414-1.414 1.414-1.414zm-.772-6.619a1 1 0 011.414 0l.707-.707a1 1 0 010 1.414l-.707-.707a1 1 0 01-1.414 0zM11 22a1 1 0 01-1-1v-1a1 1 0 012 0v1a1 1 0 01-1 1zm7.071-4.071a1 1 0 01-1.414 0l-.707 .707a1 1 0 011.414 1.414l.707-.707a1 1 0 010-1.414z"/>
</svg>
