<svg xmlns="http://www.w3.org/2000/svg" viewBox="0 0 24 24" class="icon icon-icon-satellite">
  <path d="M0 0h24v24H0z" fill="none"/>
  <path d="M3.055 11H5.07a1.95 1.95 0 0 1 1.746-1.113L8 9a2 2 0 0 1 2-2h4.846a2 2 0 0 1 2 2h2.056a4.055 4.055 0 0 0 4.088-4.143l1.63-.772a4 4 0 0 0-1.516-.28h-2a2 2 0 0 1-2-2V2.727a4 4 0 0 0-.826-.37l-.772 1.543A4.007 4.007 0 0 0 11 7H9a2 2 0 0 1-1.992-1.81L7 5V3a4 4 0 0 0-1.598.315l-.247 1.318A3.992 3.992 0 0 0 2.143 9v2a2 2 0 0 1-2 2h-.087A4 4 0 0 0 1.63 9.772L3.055 11zm0 2a2 2 0 0 1 2-2h.173A3.994 3.994 0 0 0 5 15H3a2 2 0 0 1-2-2v-.155A4.059 4.059 0 0 0 3.055 13zM7 11a2 2 0 0 1 2-2h.2A3.992 3.992 0 0 0 9 15H7a2 2 0 0 1-2-2v-.212A4.02 4.02 0 0 0 7 11zm10 0a2 2 0 0 1 2-2h.121a4.025 4.025 0 0 0 1.21 2H19a2 2 0 0 1-2 2v-.688A3.992 3.992 0 0 0 17 11z"/>
</svg>
