<svg xmlns="http://www.w3.org/2000/svg" class="icon icon-ringed-planet.svg icon-globalInteraction" viewBox="0 0 24 24">
    <path d="M12 2C6.479 2 2 6.479 2 12c0 5.522 4.479 10 10 10 5.522 0 10-4.478 10-10 0-5.521-4.478-10-10-10zm0-2c6.627 0 12 5.373 12 12s-5.373 12-12 12S0 18.627 0 12 5.373 0 12 0zm0 2c-5.523 0-10 4.477-10 10 0 2.395 0 4.929 4.695 4.929 4.696 0 4.696 0 4.909-2.348C12.213 14.581 14.813 12 14.813 12H12zm10.405-.778l-2.81 5.826L22.405 1.222zM1.595 22.778l2.81-5.826L1.595 22.778z"/>
</svg>