<svg xmlns="http://www.w3.org/2000/svg" class="icon icon-childbirth" viewBox="0 0 24 24">
    <path d="M12 2C6.47 2 2 6.47 2 12s4.47 10 10 10 10-4.47 10-10S17.53 2 12 2zm1 14h-2v-2h2v2zm2.31-6.03c-.54-1.35-1.99-2.26-3.63-2.22l-.13.01c-1.38-3.06-4.68-5.04-8.32-4.47.82 2.18 0 4.07-1.65 5.39-.5-.14-1.03-.21-1.58-.21-2.21 0-4 1.79-4 4s1.79 4 4 4 4-1.79 4-4v-.5c0-1.38 1.12-2.5 2.5-2.5h.5c1.93 0 3.5 1.57 3.5 3.5s-1.57 3.5-3.5 3.5-3.5-1.57-3.5-3.5v-.8c-2.48 1.81-4.05 3.16-2.49 5.22l1-1.72c1.14-.72 2.56-.59 3.5.26.94-.85 2.36-.98 3.5-.27l1 1.72c1.56-2.06.01-3.42-2.49-5.22v.8c0 1.93 1.57 3.5 3.5 3.5s3.5-1.57 3.5-3.5-1.57-3.5-3.5-3.5h-.5c-1.38 0-2.5-1.12-2.5-2.5v-.59c1.61-.04 3.04.8 3.65 2.13.24-.04.48-.1.72-.19z">
    </path>
</svg>