<svg xmlns="http://www.w3.org/2000/svg" class="icon icon-basketball-lightbulb" viewBox="0 0 24 24">
  <circle cx="12" cy="12" r="8" fill="#FFA726" />
  <path d="M12 4V2M6 4a6 6 0 0 0 12 0M4 6v4M20 6v4M18 20a6 6 0 0 1-12 0M6 4v4M20 4v4M8 20v2a4 4 0 0 0 8 0v-2" fill="none" stroke="#212121" strokeWidth="2" strokeLinecap="round" strokeLinejoin="round" />
  <path d="M13 6a4.41 4.41 0 0 1-3 .6V8a2 2 0 0 1 2 2v2a2 2 0 0 0 2 2V8a2 2 0 0 0-2-2V6z" fill="#212121" />
  <circle cx="12" cy="4" r="2" fill="#212121" />
</svg>