<svg xmlns="http://www.w3.org/2000/svg" class="icon icon-atomic-nucleus" viewBox="0 0 24 24">
  <circle cx="12" cy="12" r="1" fill="currentColor"/>
  <path d="M12 2C6.477 2 2 6.477 2 12s4.477 10 10 10 10-4.477 10-10S17.523 2 12 2zm5.121 6.464l-.524 3.109a4.992 4.992 0 01-1.72-.857l2.982-1.783a7.963 7.963 0 00-1.15-1.214 7.96 7.96 0 00-1.214-1.15l1.782 2.982a4.992 4.992 0 01-.856-1.72l3.11.524a7.96 7.96 0 00-1.61 3.71l-3.11-.523a4.968 4.968 0 01-.738-2.205L12 4.07a7.967 7.967 0 00-3.71 1.61l.526 3.108a5 5 0 012.204-.738l-.524-3.11a8 8 0 013.71 1.61l-.524 3.11c.391-.074.794-.111 1.204-.111s.813.037 1.204.111l-.524-3.11a7.967 7.967 0 013.71-1.61l-.524 3.108a5 5 0 012.204.738l.526-3.108a7.967 7.967 0 00-1.609-3.71z" fill="currentColor"/>
</svg>