<svg xmlns="http://www.w3.org/2000/svg" class="icon icon-dnaHelix.svg icon-quantum-computing">
  <path fill="none" stroke="currentColor" d="M8 13.5C9.3125 13.5 10.5 15.0375 11 16.5C11.5 15.0375 12.6875 13.5 14 13.5C15.3125 13.5 16.5 15.0375 17 16.5C17.5 15.0375 18.6875 13.5 20 13.5C21.3125 13.5 22.5 15.0375 23 16.5C23.5 15.0375 24.6875 13.5 26 13.5">
  </path>
  <path fill="none" stroke="currentColor" d="M8 20.5C9.3125 19 10.5 17.4625 11 16C11.5 17.4625 12.6875 19 14 20.5C15.3125 19 16.5 17.4625 17 16C17.5 17.4625 18.6875 19 20 20.5C21.3125 19 22.5 17.4625 23 16C23.5 17.4625 24.6875 19 26 20.5">
  </path>
  <circle fill="currentColor" cx="14" cy="26" r="2"></circle>
  <circle fill="currentColor" cx="20" cy="26" r="2"></circle>
  <line x1="14" y1="28" x2="20" y2="28" stroke="currentColor" stroke-width="2">
  </line>
</svg>