<svg xmlns="http://www.w3.org/2000/svg" class="icon icon-cloak.svg* icon-globe-wireframe" viewBox="0 0 24 24">
   <path d="M0 0h24v24H0z" fill="none"/>
   <path d="M12 2a10 10 0 0 1 9.97 11.879L12 22l-9.97-8.121A10 10 0 0 1 12 2zm0 2a8 8 0 0 0-6 12.032L12 20l6-3.968A8 8 0 0 0 12 4z" />
   <path d="M2.808 1.393l18.384 18.384-1.414 1.414-18.384-18.384 1.414-1.414z" />
   <path d="M3.1 4.93l1.515 1.515A9.917 9.917 0 0 1 2 12h2a8 8 0 0 0 3-6.899v-.07zM7.07 3.1A8.008 8.008 0 0 0 12.899 3H13v2a7 7 0 0 1-5.63 6.87L7.06 3.1zM3.1 7.07l1.52 1.52A4.978 4.978 0 0 0 3 11h2a3 3 0 0 1 1-2.07v-.07zM12 22l3.5-3.5a8.932 8.932 0 0 1-1.75-1.104l-1.25-.842-1 1-1-1-.75.5a8.932 8.932 0 0 1-1.699 1.042L12 22z" />
</svg>