<svg xmlns="http://www.w3.org/2000/svg" class="icon icon-vine" viewBox="0 0 24 24">
  <path d="M5.5,24c6.075,0,11-4.925,11-11c0-0.276-0.224-0.5-0.5-0.5s-0.5,0.224-0.5,0.5c0,5.797-4.703,10.5-10.5,10.5S0,18.797,0,13
c0-2.61,0.96-5.176,2.838-7.162c1.876-1.986,4.433-3.375,7.253-3.835V2.002c0-0.553,0.448-1,1-1s1,0.447,1,1v1.591
c2.495,0.423,4.712,1.641,6.369,3.348c1.143,1.177,1.832,2.505,2.226,3.927C21.364,10.736,22,9.43,22,8c0-1.06-0.15-2.082-0.424-3
C21.064,4.88,20.807,4.925,20.5,5C19.5,5,19,5.5,19,6.5S19.5,8,20.5,8C21.327,8,22,8.673,22,9.5c0,1.93-1.57,3.5-3.5,3.5
s-3.5-1.57-3.5-3.5c0-0.827,0.673-1.5,1.5-1.5c0.113,0,0.191-0.042,0.25-0.062c0.25,1.125,0.438,2.291,0.562,3.499
C16.962,14.559,14.609,16,12,16c-3.866,0-7-3.134-7-7s3.134-7,7-7c3.314,0,6,2.686,6,6c0,0.276-0.224,0.5-0.5,0.5S18,9.276,18,9
c0-2.757-2.243-5-5-5S8,6.243,8,9c0,2.757,2.243,5,5,5c2.019,0,3.834-1.132,4.709-3C16.742,11.524,14.927,12,13,12
c-6.075,0-11,4.925-11,11c0,0.276,0.224,0.5,0.5,0.5S5.5,23.276,5.5,24z"/>
</svg>