<svg xmlns="http://www.w3.org/2000/svg" class="icon icon-quill-historic" viewBox="0 0 24 24">
    <path d="M0 0h24v24H0z" fill="none"/>
    <path d="M3 17v2h5l-1.781-2.906L3 17zm14-7.5V14l-1.086-.326a1 1 0 0 0-.682.961V21h-1v-6.316a1.5 1.5 0 0 1 .104-.713l1.902-2.223L17 11.825V9.5l.305-.446.173-.345.261.023.173.345L18 9.5zm-10-.48l1.383 2.098L9.09 12.5h1.887c.15 0 .294-.033.419-.093l1.902-2.223L13 8.02V2H9v8l.76-.014 1.24-1.966zm7.5 10v-8l-1.5 3v5h1.5zm1.5-11H14l4-5h-4v2h-2V2h-4v8h2V8h7v4h-2zM4.5 19H9v2H3a1 1 0 0 1-1-1v-1h2.5v-1h1z"/>
</svg>