<svg xmlns="http://www.w3.org/2000/svg" class="icon icon-volcano.svg icon-rocket-launch" viewBox="0 0 24 24">
    <path d="M0 0h24v24H0z" fill="none"/>
    <path d="M5.884 10.804a7 7 0 014.631-4.63l1.283 1.284a4.5 4.5 0 00-1.284 3.347 4.5 4.5 0 001.284 3.346l-1.284 1.285a7 7 0 01-4.63-4.632z"/>
    <path d="M6.618 4L5 2h4v2h5a1 1 0 011 1v3.867a4.5 4.5 0 00-1-.135V4H4v5.255a4.5 4.5 0 00-1 .252V5a1 1 0 011-1h3.618z"/>
    <path d="M4 14h2v2H4v-2zm2-7h2v2H6V7zM2 17a1 1 0 011-1h1v2H3a1 1 0 01-1-1zm3 1v2h2v-2H5zM11 7h2v2h-2V7zm9 10v-2h-2v2h2zm0-9v2h2V8h-2zm0 3v2h2v-2h-2z"/>
</svg>