<svg xmlns="http://www.w3.org/2000/svg" viewBox="0 0 24 24" class="icon icon-icon-fingerprint">
<path d="M0 0h24v24H0z" fill="none"/>
<path d="M12 1a9 9 0 0 0-8.485 5.671A10.918 10.918 0 0 0 1 11a10.998 10.998 0 0 0 3.877 8.247 9 9 0 0 0 12.138-.617 10.982 10.982 0 0 0 4.975-8.63A10.914 10.914 0 0 0 21 11a9 9 0 0 0-9-10zm0 2a7 7 0 0 1 7 7 8.959 8.959 0 0 1-1.637 5.137L12 21l-5.363-7.863A8.96 8.96 0 0 1 5 10a7 7 0 0 1 7-7zm5 9h1a4.978 4.978 0 0 1-1.429 3.525l-.707-.707A3.99 3.99 0 0 0 18 12zm-6 2a3 3 0 0 0 1.002-5.901L12 8a3 3 0 0 0-1 5.83V19h1v-4zm-3-.2a4.992 4.992 0 0 1 2-.8v-1.168A4.994 4.994 0 0 1 7 11a4.978 4.978 0 0 1 3-4.528A4.978 4.978 0 0 1 6 10a4.992 4.992 0 0 1-.718 2.541l.718.259z"/>
</svg>
