<svg xmlns="http://www.w3.org/2000/svg" class="icon icon-coralreef.svg* icon-umbrella" viewbox="0 0 24 24">
  <path d="M12 2C6.48 2 2 6.48 2 12s4.48 10 10 10 10-4.48 10-10S17.52 2 12 2zm-1 14h2v2h-2v-2zm2.31-2.6l-2.6-1.98 1.37-1.37c.39-.39.39-1.02 0-1.41l-2.83-2.83c-.39-.39-1.02-.39-1.41 0L7.7 7.26l1.44 1.44c.39.39 1.02.39 1.41 0L11 7.84l.55.45 2.6-1.98-1.17-1.17c-.39-.39-1.02-.39-1.41 0L9.17 6.17l-1.41-1.41 2.83-2.83c.39-.39 1.02-.39 1.41 0L12 3.1l1.44-1.44c.39-.39 1.02-.39 1.41 0l4.24 4.24c.39.39.39 1.02 0 1.41L12.31 13.4z"/>
</svg>