<svg xmlns="http://www.w3.org/2000/svg" class="icon icon-quillpen" viewBox="0 0 24 24">
    <path d="M0 0h24v24H0z" fill="none"/>
    <path d="M3.75 3a1.49 1.49 0 011.39 1h1.174a3 3 0 012.978 2.708l.217 1.568a4.5 4.5 0 01.033.232l.006.147H8.5a3 3 0 015.608 1.455l-.713 5.251h4.034a2 2 0 011.984 2.347l-.614 3.537a1.492 1.492 0 01-.55-.316l-.15-.12a2 2 0 01-.978-.941l2.25-3.04 1.102-.293a1 1 0 01.848 1.2L21 17.22V21H3.75a1.5 1.5 0 010-3h1.98L3.74 15.32a3.5 3.5 0 01.128-1.919l.82-2.1h-1.39a1.5 1.5 0 01-1.494-1.51l.006-.155c.066-.848.765-1.49 1.599-1.516H5.92L4.77 5.715a3 3 0 01.055-.526L5 3.75A1.5 1.5 0 013.75 3z"/>
</svg>