<svg xmlns="http://www.w3.org/2000/svg" class="icon icon-quill-ink icon-digital-clock" viewBox="0 0 24 24">
    <path d="M0 0h24v24H0z" fill="none"/>
    <path d="M2 3v18h20V3H2zm2 2h16v14H4V5zm6 14v-2h4v2h-4zm1-10.001a1 1 0 0 1 -1 -1c0 -.648 .121 -1.278 .35 -1.872l.156 -.429a2.5 2.5 0 0 0 -4.506 -1.653 2.5 2.5 0 0 0 4.506 -1.653l-.049 -.221a6 6 0 0 1 5.543 -4.752 6 6 0 0 1 6.65 6.663c0 1.515 -.415 2.916 -1.12 4.001a4.978 4.978 0 0 1 -1.014 1.066 4.978 4.978 0 0 1 -1.4 -.272 1 1 0 0 1 -1.311 -.257 5.992 5.992 0 0 1 -5.349 3.52z"/>
</svg>