<svg xmlns="http://www.w3.org/2000/svg" viewBox="0 0 24 24" class="icon icon-abstract-gear">
<g>
    <path d="M12 14.77c-1.937 0-3.507-1.57-3.507-3.507 0-1.938 1.57-3.508 3.507-3.508 1.938 0 3.508 1.57 3.508 3.508 0 1.937-1.57 3.507-3.508 3.507zm5.44-0.013v-.825l-1.195-.277c-.105-.373-.32-.714-.605-1.007l.377-.884-1.33-1.33-.881.377c-.294-.283-.634-.498-1.007-.603l-.274-1.196h-.821l-.273 1.196c-.373.105-.713.32-1.007.604l-.879-.376-1.33 1.33.373.881c-.282.293-.499.634-.604 1.007l-1.198.278v.821l1.198.278c.105.373.322.714.605 1.007l-.38.884 1.33 1.33.885-.378c.297.286.638.502 1.012.609l.276 1.197h.825l.273-1.197c.373-.107.713-.322 1.007-.605l.877.377 1.332-1.33-.373-.881c.283-.293.497-.634.601-1.007l1.198-.278zm0-0"/>
</g>
</svg>