<svg xmlns="http://www.w3.org/2000/svg" viewBox="0 0 24 24" class="icon icon-language-translation">
	<path d="M0 0h24v24H0V0z" fill="none"/>
	<path d="M12 4C7.58 4 4 7.58 4 12s3.58 8 8 8 8-3.58 8-8-3.58-8-8-8zm0 14c-3.31 0-6-2.69-6-6s2.69-6 6-6 6 2.69 6 6-2.69 6-6 6zm0-9c-1.66 0-3 1.34-3 3s1.34 3 3 3 3-1.34 3-3-1.34-3-3-3zm-1 14h2v-2h-2v2zm2.61-6c-.47 0-.85-.34-.98-.8l-.22-.67h-2.82l-.22.67c-.13.46-.51.8-.98.8-.66 0-1.13-.6-.98-1.2l1.26-4.26c.12-.46.02-.96-.26-1.34-.15-.17-.35-.31-.57-.4C7.82 10.36 8.28 11 9 11h6c.72 0 1.18-.64.82-1.2-.22.09-.42.23-.57.4-.28.38-.38.88-.26 1.34l1.26 4.26c.15.6-.32 1.2-.98 1.2z"/>
</svg>