<svg xmlns="http://www.w3.org/2000/svg" class="icon icon-voidCrawler.svg icon-lightbulb-idea" viewBox="0 0 24 24">
    <path d="M13,2A9,9,0,0,0,4,11h4v6h4v2h6l2-4V11H15A9,9,0,0,0,13,2Z"></path>
    <line x1="12" y1="2" x2="12" y2="3"></line>
    <line x1="12" y1="21" x2="12" y2="23"></line>
    <line x1="4.22" y1="2" x2="5.64" y2="3.64"></line>
    <line x1="18.36" y1="2" x2="19.78" y2="3.64"></line>
    <line x1="1" y1="11" x2="3" y2="11"></line>
    <line x1="21" y1="11" x2="23" y2="11"></line>
    <polyline points="8 8 2 12 8 16"></polyline>
    <polyline points="16 8 22 12 16 16"></polyline>
</svg>