<svg xmlns="http://www.w3.org/2000/svg" viewBox="0 0 24 24" class="icon icon-drum-set">
    <path d="M2.5 7c0 2.5 2.5 4.5 5 4.5s5-2 5-4.5-2.5-4.5-5-4.5-5 2-5 4.5zm9.5 2a6.5 6.5 0 0 1-4-1.5c-.58-.52-1-1.14-1-2A3.5 3.5 0 0 1 10 4V2a8.5 8.5 0 0 0-6 2C2.5 5.5 1.5 7.5 2 9v8c1.5 0 2-1.5 3-2v2l3 1v2a19 19 0 0 0 6 0V16l2-1v2a7.5 7.5 0 0 1-3 1h-1v2h-2v2h8v-2h-2v-2a7.5 7.5 0 0 1-3-1v-2a13.5 13.5 0 0 0 2 0v-1.5c0-.5-.5-1-1-1.5zm4 2c.5 0 1 .5 1 1.5V15a33 33 0 0 1-1 0v-1.5c0-1 .5-1.5 1-1.5zm-1-9a2.5 2.5 0 0 1 0 5 2.5 2.5 0 0 1 0-5z" />
</svg>