<svg xmlns="http://www.w3.org/2000/svg" class="icon icon-spaceexploration" viewBox="0 0 32 32">
    <path d="M16,2 C8.3,2 2,8.3 2,16 C2,23.7 8.3,30 16,30 C23.7,30 30,23.7 30,16 C30,8.3 23.7,2 16,2 Z M16,4 C22.1,4 27,8.9 27,16 C27,23.1 22.1,28 16,28 C9.9,28 5,23.1 5,16 C5,8.9 9.9,4 16,4 Z">
    </path>
    <path d="M10,16 C10,11.6 13.6,8 18,8 C22.4,8 26,11.6 26,16 C26,20.4 22.4,24 18,24 C13.6,24 10,20.4 10,16 Z">
    </path>
    <path d="M18,10 C14.7,10 12,12.7 12,16 C12,19.3 14.7,22 18,22 C21.3,22 24,19.3 24,16 C24,12.7 21.3,10 18,10 Z">
    </path>
</svg>