<svg xmlns="http://www.w3.org/2000/svg" viewBox="0 0 24 24" class="icon icon-laboratory-flask">
  <path d="M12 0C5.4 0 0 5.4 0 12s5.4 12 12 12 12-5.4 12-12S18.6 0 12 0zm0 22C6.5 22 2 17.5 2 12S6.5 2 12 2s10 4.5 10 10-4.5 10-10 10z"></path>
  <path d="M15.5 7c-1.3 0-2.4.8-2.8 2H11.3c-.4-1.2-1.5-2-2.8-2-1.7 0-3 1.3-3 3v1c0 .6.4 1 1 1h10c.6 0 1-.4 1-1v-1c0-1.7-1.3-3-3-3z"></path>
  <path d="M12 12c1.1 0 2-.9 2-2s-.9-2-2-2-2 .9-2 2 .9 2 2 2zm0-3c.6 0 1 .4 1 1s-.4 1-1 1-1-.4-1-1 .5-1 1-1z"></path>
</svg>