<svg xmlns="http://www.w3.org/2000/svg" viewBox="0 0 24 24" fill="none" stroke="currentColor" stroke-width="2" stroke-linecap="round" stroke-linejoin="round" class="icon icon-tools-wrench-hammer">
  <path d="M9.5 11l-1-1 3-3 1 1-3 3zm9.207-6.793a2.828 2.828 0 0 0-4 0l-1.5 1.5 4 4 1.5-1.5a2.829 2.829 0 0 0 0-4z"></path>
  <path d="M14 12l-4 4-.785-.785a1.994 1.994 0 0 0-.211-2.799l1.004-1.004"></path>
  <path d="M14 12l-4 4-3-3 4-4"></path>
  <path d="M7 21H3a2 2 0 0 1-2-2v-4a2 2 0 0 1 2-2h4"></path>
</svg>