<svg xmlns="http://www.w3.org/2000/svg" class="icon icon-secure-shield">
  <path d="M12 2C8.13 2 5 4.58 5 8c0 1.33.26 2.58.74 3.77.1.24.26.47.45.68l6.27 7.55a1 1 0 001.54 0l6.26-7.54c.2-.22.36-.45.46-.7.48-1.18.74-2.43.74-3.76 0-3.42-3.13-6-7-6zm-1 12.7V14h2v1.41a.5.5 0 01-.15.35l-1.7 1.7a.5.5 0 01-.7 0l-1.7-1.7a.5.5 0 01-.15-.35V14h5v.7l-1.45 1.45L11 14.7zm0-5.2V10a1 1 0 001-1V7a1 1 0 00-1-1v-.41a.5.5 0 00-.15-.35l-1.7-1.7a.5.5 0 00-.7 0l-1.7 1.7A.5.5 0 005 5.59V6a1 1 0 00-1 1v2a1 1 0 001 1v.5l1.45 1.45L11 9.5z"/>
</svg>