<svg xmlns="http://www.w3.org/2000/svg" class="icon icon-encrypted-data" viewBox="0 0 512 512">
    <path d="M256,40c141.4,0,256,114.6,256,256S397.4,552,256,552S0,437.4,0,296S114.6,40,256,40 M256,12C119.9,12,12,119.9,12,256S119.9,500,256,500,s244-107.9,244-244S392.1,12,256,12L256,12z"/>
    <path d="M328,256h-56c-8.3,0-15,6.7-15,15v37.8c0,8.3,6.7,15,15,15s15-6.7,15-15V271h26c8.3,0,15-6.7,15-15v-23C343,262.7,336.3,256,328,256z"/>
    <path d="M326,181c-35.5-18-77-0.7-94,33.8c-0.6,1.2-0.4,2.7,0.5,3.7c7.3,7.5,14.5,15,22.5,21.5c1,0.9,2.4,1,3.4,0c17-10,38-3,47,14.5c1,1.9,0.8,4.4-0.4,6.3c-7-1-13.6-4-19-9c-1-1-2.7-1.2-3.7-0.5c-35.5,17.9-47,64-29,99.5c0,0,1.3-0.6,3.6-1.6c2.2,0.9,4.3,1.7,6.5,2.4c0,0-0.7-1.3-1.7-3.6c0.9-2.2,1.8-4.3,2.4-6.5c0,0-1.1,0.7-3.2,1.8c18-35.4,6.6-78.6-20-107.4c6.3-5.9,13.3-11.1,20.5-16.2c35.4,18,78.6,6.6,107.4-20c-5.9,6.3-11.1,13.3-16.2,20.5c-18-35.4-58.6-47.1-94-29z"/>
</svg>