<svg xmlns="http://www.w3.org/2000/svg" class="icon icon-unicycle.svg icon-sand-clock" viewBox="0 0 24 24">
  <path d="M2,7.46v10.08c0,0.28,0.11,0.53,0.29,0.71l1.42,1.42c0.18,0.18,0.43,0.29,0.71,0.29s0.53-0.11,0.71-0.29l1-1h11.14l1,1c0.18,0.18,0.43,0.29,0.71,0.29c0.28,0,0.53-0.11,0.71-0.29l1.42-1.42c0.18-0.18,0.29-0.43,0.29-0.71V7.46c0-0.28-0.11-0.53-0.29-0.71L20.28,5.33c-0.18-0.18-0.43-0.29-0.71-0.29s-0.53,0.11-0.71,0.29l-1,1H7.14l-1-1C5.25,5.14,5,5.04,4.72,5.04s-0.53,0.1-0.71,0.29L2.29,6.75C2.11,6.93,2,7.18,2,7.46z"></path>
  <circle cx="12" cy="12" r="2"></circle>
  <path d="M17.75,2.04c-0.98,0-1.82,0.28-2.55,0.75c-0.71,0.46-1.29,1.08-1.72,1.84c-0.43,0.76-0.65,1.6-0.65,2.47c0,0.87,0.22,1.71,0.65,2.47c0.43,0.76,1,1.37,1.72,1.84s1.57,0.75,2.55,0.75s1.82-0.25,2.55-0.75c0.71-0.47,1.29-1.09,1.72-1.84c0.43-0.76,0.65-1.6,0.65-2.47s-0.22-1.71-0.65-2.47C20.04,3.37,19.46,2.76,18.75,2.29S18.73,2.04,17.75,2.04z"></path>
</svg>