<svg xmlns="http://www.w3.org/2000/svg" viewBox="0 0 24 24" class="icon icon-theater-mask">
  <path d="M12 2C6.48 2 2 6.48 2 12s4.48 10 10 10 10-4.48 10-10S17.52 2 12 2zm0 18c-4.41 0-8-3.59-8-8s3.59-8 8-8 8 3.59 8 8-3.59 8-8 8zm1-13h-2c-.55 0-1 .45-1 1v1c0 .55.45 1 1 1h2c.55 0 1-.45 1-1V8c0-.55-.45-1-1-1zm4.02 1.58c-.14 0-.28-.05-.39-.16C14.58 6.36 13.37 6 12.02 6c-1.6 0-3.05.45-4.34 1.26-.21.15-.52.12-.7-.11-.15-.22-.12-.53.11-.7C8.55 6.05 10.22 5.5 12.02 5.5c1.61 0 3.11.39 4.48 1.12.24.12.32.41.2.65-.07.16-.23.26-.4.26zm-6 .92c-.18 0-.36-.07-.49-.2-.41-.41-1.08-.62-1.77-.62s-1.36.2-1.77.62c-.27.27-.71.27-.98 0-.41-.41-1.08-.62-1.77-.62-.55 0-1 .45-1 1v3c0 .35.1.69.29 .98.41.6 1.07.96 1.82 1.02.13.01.25.03.37.05-.2.11-.38.24-.55.38C2.96 13.25 2 14.85 2 17h20c0-2.15-.96-3.75-2.53-4.77-.17-.14-.35-.27-.55-.38.13-.01.24-.04.37-.04.75-.07 1.41-.42 1.82-1.02.19-.29.29-.63.29-.98v-3c0-.55-.45-1-1-1-.69 0-1.36.21-1.77.62-.27.27-.71.27-.98 0-.41-.41-1.08-.62-1.77-.62s-1.36.21-1.77.62c-.14.13-.31.2-.49.2z"/>
</svg>