<svg xmlns="http://www.w3.org/2000/svg" class="icon icon-interrobang" viewBox="0 0 24 24">
<path d="M11.82 17a2.88 2.88 0 0 0-2.82 2 2.86 2.86 0 0 0 2.82 2 2.87 2.87 0 0 0 2.82-2 2.86 2.86 0 0 0-2.82-2zm5.39-11.64a4.92 4.92 0 0 0-1.8-.34 4.9 4.9 0 0 0-1.78.33L13 6.3v.4a4.26 4.26 0 0 1 .81-.07 4.32 4.32 0 0 1 4.32 4.32c0 1.24-.52 2.48-1.07 3.41a2.5 2.5 0 0 0-.75-1.14 2.42 2.42 0 0 0-1.8-.67 2.6 2.6 0 0 0-2.39 1.53 1 1 0 0 0 0 .2h2.58a3.32 3.32 0 0 1 .23-1.25 1 1 0 0 1 1-.75 1.15 1.15 0 0 1 .9.45 3.46 3.46 0 0 1 .7 1.21l.07.22a6.6 6.6 0 0 1 .6 2.24v.06h2.68c0-1.1-.06-2.29-.6-3.41a7 7 0 0 0-1.47-2.25 4.17 4.17 0 0 1-.83-1.56 3.24 3.24 0 0 1 .05-1.4 3.32 3.32 0 0 1 1.18-1.86z"/>
</svg>