<svg xmlns="http://www.w3.org/2000/svg" class="icon icon-velociraptor.svg icon-data-analytics" viewBox="0 0 24 24">
<path d="M0 0h24v24H0V0z" fill="none"/>
<path d="M7.59 7.83L9 9.25l-1.41 1.41L4.75 9zm6.34-1.41l-2.75 2.75 1.41 1.42 2.75-2.75zm3.32 3.92l-2.75 2.76 1.41 1.41 2.75-2.75zM9.41 14.59l-2.75 2.75 1.41 1.42 2.75-2.75zm6.34-1.41l-2.75 2.75 1.41 1.41 2.75-2.75zM5.18 4.06a1 1 0 0 0-1.41 0L.36 7.45a1 1 0 0 0 0 1.42l2.83 2.83a8 8 0 0 0 11.31 0L20.64 9.9a1 1 0 0 0 0-1.42l-3.41-3.42a1 1 0 0 0-1.41 0l-3.42 3.42a2 2 0 0 1-2.83 0z"/>
</svg>