<svg xmlns="http://www.w3.org/2000/svg" viewBox="0 0 24 24" class="icon icon-book-stack">
  <path d="M2,2H22A1,1,0,0,1,23,3V21a1,1,0,0,1-1,1H2a1,1,0,0,1-1-1V3A1,1,0,0,1,2,2Z"></path>
  <path d="M4,4H20a.5,.5,0,0,1,.5,.5v3a.5,.5,0,0,1-.5,.5H4a.5,.5,0,0,1-.5-.5v-3A.5,.5,0,0,1,4,4Z"></path>
  <path d="M4,9H20a.5,.5,0,0,1,.5,.5v3a.5,.5,0,0,1-.5,.5H4a.5,.5,0,0,1-.5-.5v-3A.5,.5,0,0,1,4,9Z"></path>
  <path d="M4,14H20a.5,.5,0,0,1,.5,.5v3a.5,.5,0,0,1-.5,.5H4a.5,.5,0,0,1-.5-.5v-3A.5,.5,0,0,1,4,14Z"></path>
</svg>