<svg xmlns="http://www.w3.org/2000/svg" viewBox="0 0 24 24" class="icon icon-kiwi">
  <path d="M12 12c-2.8 0-5-2.2-5-5 0-.6.1-1.3.4-1.8l.3-.4c1.3-1.9 3.6-3.2 6.3-3.2 1.7 0 3.2.7 4.3 1.8l.4.4c.3.5.4 1.1.4 1.7 0 2.8-2.2 5-5 5zm0-8c-1.5 0-2.8.7-3.7 1.7l-.2.3-.3.3c-.2.2-.3.5-.5.8.6-.2 1.2-.3 1.9-.3 2.8 0 5 2.2 5 5 0 .7-.1 1.4-.3 2 .3-.2.6-.4.8-.6l.3-.2.3-.3c1-1 1.6-2.3 1.6-3.8s-.7-2.8-1.7-3.7l-.2-.2-.3-.3c-.5-.3-1-.5-1.6-.7z"/>
  <path d="M12 18c-3.3 0-6-2.7-6-6h1c0 2.8 2.2 5 5 5s5-2.2 5-5h1c0 3.3-2.7 6-6 6z"/>
  <path d="M10 16h4v-1h-4v1z"/>
</svg>