<svg xmlns="http://www.w3.org/2000/svg" viewBox="0 0 24 24" class="icon icon-argonaut">
  <path d="M12 2C6.486 2 2 6.486 2 12s4.486 10 10 10 10-4.486 10-10S17.514 2 12 2zm0 18c-4.411 0-8-3.589-8-8s3.589-8 8-8 8 3.589 8 8-3.589 8-8 8z"/>
  <path d="M12 7c-2.757 0-5 2.243-5 5s2.243 5 5 5 5-2.243 5-5-2.243-5-5-5zm0 8c-1.654 0-3-1.346-3-3s1.346-3 3-3 3 1.346 3 3-1.346 3-3 3z"/>
  <path d="M11 10.5V12h2v-1.5c0-.276-.224-.5-.5-.5s-.5.224-.5.5zM14.829 14.171A3.976 3.976 0 0015 12h-2v1.5c0 .604-.271 1.171-.743 1.579-.105.091-.293.07-.372-.053l-.014-.014c-.107-.107-.107-.279 0-.387A1.993 1.993 0 0112 13.5V12h-2c0 .738.199 1.427.529 2.043.16.3.392.464.707.464.194 0 .392-.064.557-.171a.37.37 0 00.171-.329V12h2v1.657c0 .072.028.141.071.191a2.95 2.95 0 00.707.464c.166.107.364.171.557.171a.988.988 0 00.707-.292.999.999 0 00.293-.707z"/>
</svg>