<svg xmlns="http://www.w3.org/2000/svg" viewBox="0 0 24 24" fill="none" stroke="currentColor" stroke-width="2" stroke-linecap="round" stroke-linejoin="round" class="icon icon-phone-call">
  <path d="M22 21c-2.8 2.8-7.2 3-10 0l-2-2c-3 3-8.2 3-11 0 0 0 0 2 3 2h16c3 0 3-2 3-2 1.1 0.3 2.3-0.6 2-2l-1-5c0-1.4-1-2-2-2h-2c-1 0-2 1-2 2 0 3.3 0.7 7 4 7 0 0 1-3 2-5 1-2 0-3.8-1-5-1-1-1-2 0-3l2-2c3-3 2-8 0-11-2-2-5 0-7 2-2 2-1 4 1 6s4 1 6 1c2 0 4-1 5-2s1-4-1-6-4-3-6-1-5 2-7 4c-2.2 2.2-2.2 5.8 0 8l2 2s-0.7 0.3-1 1c-0.3 1-1 2-2 3-1 1-2 2-2 4 0 1.3 0.7 2.6 2 3l5 1c1.4 0.2 2.6-0.8 2-2z"/>
</svg>