<svg xmlns="http://www.w3.org/2000/svg" viewBox="0 0 24 24" class="icon icon-time-spiral">
  <path d="M12 2C6.477 2 2 6.477 2 12s4.477 10 10 10 10-4.477 10-10S17.523 2 12 2zm0 18c-4.415 0-8-3.585-8-8 0-4.415 3.585-8 8-8s8 3.585 8 8-3.585 8-8 8z"/>
  <path d="M12 6a6 6 0 00-6 6h3a3 3 0 013-3z"/>
  <path d="M11 14V9H9v7h4v-2h-2z"/>
  <path d="M17.707 7.293a1 1 0 0 1-1.414-1.414l2-2a1 1 0 1 1 1.414 1.414l-2 2z"/>
  <path d="M4.293 17.707a1 1 0 1 1 1.414-1.414l-2-2a1 1 0 1 1-1.414 1.414l2 2z"/>
</svg>