<svg xmlns="http://www.w3.org/2000/svg" viewBox="0 0 24 24" class="icon icon-thimble">
  <path d="M12 2C6.48 2 2 6.48 2 12s4.48 10 10 10 10-4.48 10-10S17.52 2 12 2zm-1 17H7.5c-1.2 0-2.164-.675-2.604-1.702C4.27 16.493 4 15.02 4 14h3v1.5H6c-.828 0-1.5.67-1.5 1.5S5.172 18 6 18h5v1zm7.5-2h-3c-.828 0-1.5-.67-1.5-1.5S14.672 14 15.5 14h1v-2h-1c-.828 0-1.5-.67-1.5-1.5S13.672 9 14.5 9h3c1.823 0 3.301 1.356 3.823 3.298C22.1 14.325 19.9 16 17 16zm-.978-4.5H14.5c-.414 0-.793.168-1.06.438-.267.271-.44.643-.44 1.062s.173.79 .44 1.06c.267.27.646.44 1.06.44h1.02c1.1 0 2-.9 2-2s-.9-2-2-2zM2 12c0 5.52 4.48 10 10 10s10-4.48 10-10S17.52 2 12 2 2 6.48 2 12zm9-1h4c-.106-.337-.26-.647-.454-.942C14.14 9.703 13.636 9.254 13.2 9l-.693-.693c-.391-.391-.9-.681-1.451-.858C10.854 7.203 10.357 7.1 10 7.1c-2.21 0-4 1.79-4 4v2h4c.828 0 1.5-.67 1.5-1.5S10.828 11 10 11zm4 0h-4c-.828 0-1.5.67-1.5 1.5S9.172 14 10 14h4c1.823 0 3.301 1.356 3.823 3.298C18.73 16.825 16.53 17.1 14.5 17.1h-1v1.5h1c1.896 0 3.638-.925 4.574-2.64C19.87 14.7 17.7 13 14.5 13zM8 12H4c0 1.02.27 2.493.896 3.298C5.336 16.325 6.3 17 7.5 17H8v-5zm6 .5h-4c-.828 0-1.5-.67-1.5-1.5s.672-1.5 1.5-1.5h4c2.21 0 4 1.79 4 4v2h-4c-.828 0-1.5-.67-1.5-1.5s.672-1.5 1.5-1.5zm.5-2h-5c-1.302 0-2.402.63-3.06 1.637C5.63 10.602 4.53 10 3.5 10H2.272C2.6 8.828 3.2 7.792 4 7l1.02 1.02c.292.292.687.06.858-.23l.422-1.687c.074-.297.26-.57.535-.804.272-.234.602-.363.95-.418L9 5c.414 0 .814.154 1.11.44.296.286.44.68.44 1.08l-.01.42c-.055.35-.188.682-.427.96-.24.278-.57.482-.91.598l-1.692.42c-.29.07-.522.27-.62.56l-1.027 2.454h2.017c1.57 0 2.922.9 3.6 2.28.68-.38 1.03-.9 1.5-1.28-.9-.6-1.8-.9-2.8-1.02z"></path>
</svg>