<svg xmlns="http://www.w3.org/2000/svg" viewBox="0 0 24 24" class="icon icon-volcano-dormant">
  <path d="M12 2C6.5 2 2 6.5 2 12c0 1.33.26 2.61.74 3.77.1.24.26.47.45.7l9.8 14.8c.19.28.46.53.78.73.32.2.68.32 1.06.36.04 0 .07.01.11.01.37 0 .73-.06 1.08-.18.35-.12.68-.29.99-.5l9.8-14.8c.2-.23.35-.46.46-.7.47-1.16.73-2.44.73-3.77 0-5.5-4.5-10-10-10zm0 2c3.9 0 7.2 2.91 7.86 6.75C13.53 11.5 8.38 13.78 8.38 13.78l3.62 5.22v1.36l-6-9c.6-1.38 1.72-2.47 3.01-3.16V11l2-3c.67-.95 1.6-1.76 2.8-2.34.4-.19.82-.35 1.25-.49C14.82 4.91 13.5 4 12 4zm-7 8c.01.33.04.65.09.97l6 9.02v1.33c-.31-.11-.61-.25-.9-.41l-9.8-14.8c.2-.58.46-1.13.76-1.65.83.67 1.85 1.11 2.95 1.11zm16 .24c.04-.32.06-.65.06-.98 0-1.1-.24-2.13-.67-3.06.3.53.54 1.1.73 1.7l-9.8 14.81c-.29.16-.59.3-.9.41v-1.35l6-9.02c.06-.32.11-.64.17-.96.1.01.21.02.32.02 1.1 0 2.13-.45 2.86-1.17z"/>
</svg>