<svg class="icon icon-nuclear.svg icon-globe-rotation" xmlns="http://www.w3.org/2000/svg" viewBox="0 0 24 24">
    <path d="M12,2C6.48,2,2,6.48,2,12s4.48,10,10,10s10-4.48,10-10S17.52,2,12,2z M12,22C6.98,22,3,18.02,3,12S6.98,2,12,2c1.33,0,2.58,0.26,3.75,0.68l-1.91,1.91c-0.44-0.11-0.9-0.18-1.39-0.19L15,4.1c1.46,0.36,2.78,1,3.9,1.9l-2.54,2.54 c0.01,0.49,0.08,0.95,0.19,1.39l2.83-2.83c0.9,1.12,1.54,2.44,1.9,3.9H12l2.83,2.83C14.95,15.92,14,16.96,14,18.27c0,1.66,1.34,3,3,3 c1.3,0,2.34-0.95,2.82-2.18L22,20.24C21.25,21.42,17.52,22,12,22z M16,18c-0.55,0-1-0.45-1-1s0.45-1,1-1s1,0.45,1,1 S16.55,18,16,18z"/>
</svg>