<svg xmlns="http://www.w3.org/2000/svg" viewBox="0 0 24 24" class="icon icon-icon-cogwheel">
  <path d="M12 15.5c1.932 0 3.5-1.568 3.5-3.5s-1.568-3.5-3.5-3.5-3.5 1.568-3.5 3.5 1.568 3.5 3.5 3.5zm0-6c1.378 0 2.5 1.122 2.5 2.5s-1.122 2.5-2.5 2.5-2.5-1.122-2.5-2.5 1.122-2.5 2.5-2.5zm7.485-1.014c-.372-.36-.895-.545-1.443-.545-.547 0-1.07.186-1.443.546l-.206.206-.846-.169c-.337-.067-.643-.284-.828-.555l-.499-.744c.401-.595.631-1.309.631-2.092 0-.547-.186-1.07-.546-1.443s-.896-.546-1.443-.546-1.07.186-1.443.546l-.243.243-.822-.131c-.675-.11-1.374.139-1.852.673l-.738.761c-.271-.186-.587-.283-.927-.283-.547 0-1.07.186-1.443.546s-.546.896-.546 1.443c0 .783.23 1.498.63 2.092l-.498.744c-.186.271-.492.488-.828.555l-.847.169-.205-.206c-.373-.36-.896-.546-1.444-.546s-1.07.186-1.443.546-.546.896-.546 1.443.186 1.07.546 1.443l.206.206-.169.846c-.066.337-.282.643-.555.828l-.744.499c-.595-.401-1.309-.631-2.092-.631-.547 0-1.07.186-1.443.546s-.546.896-.546 1.443.186 1.07.546 1.443 1.514 1.443 2.315 1.443h.001c.257 0 .514-.046.774-.14l.744-.374c.186.271.304.599.304.948 0 .547.186 1.07.546 1.443s1.207 1.43 2.007 1.43c.788 0 1.309-.23 2.092-.63l.744.498c.271.186.655.284 1.016.284.547 0 1.07-.186 1.443-.546s.546-.896.546-1.443c0-.349-.118-.677-.305-.948l.745.374c.259.094.516.14.773.14 1.557 0 2.78-1.347 3.222-2.478l.822.132c.675.109 1.374-.139 1.851-.673l.738-.76c.271.186.587.282.927.282.359 0 .697-.096.967-.267 1.444-.898 1.444-2.586 0-3.484zm-1.513 2.505c-1.756 1.171-4.146.652-5.318-1.106-1.171-1.758-.652-4.147 1.106-5.318 1.757-1.171 4.147-.652 5.318 1.106 1.172 1.758.653 4.147-1.106 5.318z"></path>
</svg>
