<svg xmlns="http://www.w3.org/2000/svg" viewBox="0 0 24 24" class="icon icon-neuron-network">
  <path d="M0 0h24v24H0z" fill="none"/>
  <circle cx="12" cy="6" r="2" />
  <circle cx="6" cy="18" r="2" />
  <circle cx="18" cy="18" r="2"/>
  <circle cx="6" cy="6" r="2"/>
  <circle cx="18" cy="6" r="2"/>
  <path d="M18 8v4.764a3 3 0 01-1.2808 2.4936l1.3382 1.3382a5 5 0 000-7.1894l-1.3382 1.3382A3 3 0 0118 8z"/>
  <path d="M11 6H6a3 3 0 00-3 3v2a3 3 0 003 3h5a3 3 0 003-3V9a3 3 0 00-3-3z"/>
  <path d="M7 14v4.764a3 3 0 001.2808 2.4936l1.3382-1.3382a5 5 0 000-7.1894l-1.3382 1.3382A3 3 0 007 14z"/>
  <path d="M17 6h-5a3 3 0 00-3 3v2a3 3 0 003 3h5a3 3 0 003-3V9a3 3 0 00-3-3z"/>
  <path d="M12 8v4.764a3 3 0 001.2808 2.4936l4.0671-4.0671A5 5 0 0014 9.999v-.235z"/>
</svg>