<svg xmlns="http://www.w3.org/2000/svg" class="icon icon-globe-grid" viewBox="0 0 24 24">
  <path d="M12 2C6.48 2 2 6.48 2 12s4.48 10 10 10 10-4.48 10-10S17.52 2 12 2zm7 10h-14c0-1.66.67-3.26 1.76-4.42l1.47 1.47C7.45 9.1 7.22 9.55 7.1 10h4v2h-4c.12.45.35.9.65 1.28l1.25-1.25C10.63 9.77 11.31 10 12 10s1.37-.23 1.94-.63l2.91 2.91C15.56 13.14 14 14.24 12 14.24v-2.18c-1.1 0-2 .9-2 2v2.18c-1.91 0-3.47 1.3-3.88 3H7v2h2.12a4.008 4.008 0 0 1 5.76 0H17v-2h.9c-.2-.68-.9-2.76-2.9-2.76V14c0-1.1-.9-2-2-2h1.73c-.91-.71-1.73-1.72-1.73-2.91 0-.96.49-1.73 1.27-2.42C12.03 9.67 12.49 10 13 10s.97-.33 1.33-.82l1.43 1.43C16.37 8.97 17.16 10 18 10h-4v-2h4c-.12-.45-.35-.9-.65-1.24l-1.43 1.43c-.36-.37-.65-.82-1-1.33l1.96-1.96c1.34 1 3.04 1.6 4.7 1.6v-2zM4.41 3.86l1.49 1.49C4.6 6.5 4 9.18 4 12h2c0-1 .26-1.95.7-2.8L3.7 4.41c-1.34.89-2.3 2.27-2.7 3.86l2.11 2.11C3.34 8.36 2 10.12 2 12h2c0-1.67.67-3.17 1.76-4.24l1.65 1.65C6.6 10.5 6 13.82 6 18v2h2c0-1.66-.26-3.31-.7-4.88L19.59 20.7l1.41-1.41L4.41 3.86z"/>
</svg>