<svg xmlns="http://www.w3.org/2000/svg" class="icon icon-electric-car icon-global-network" viewBox="0 0 24 24">
  <path d="M0 0h24v24H0z" fill="none"/>
  <path d="M3 5h14v14h4V9h-2c-.356 0-.699.074-1.016.209L3 7.24zM3 10v3h18v2a1 1 0 0 1-1 1h-5v2h7a1 1 0 0 0 1-1v-9l-4 2zM4 6v2h6V6H4zm0 13a1 1 0 0 0 1 1h1v-2H4v1zm8 0h4v-2h-4v2zm6 0a1 1 0 0 0 1-1v-1h-2v2zm-12.928-2h2.402a5.972 5.972 0 0 0 2.526 0h2.403l1.8 1a3 3 0 0 1-2.673 2h-3.073a3 3 0 0 1-2.673-2l1.8-1z"/>
  <circle cx="8.5" cy="14.5" r="1.5"/>
  <circle cx="15.5" cy="14.5" r="1.5"/>
</svg>