<svg xmlns="http://www.w3.org/2000/svg" class="icon icon-self-driving-car.svg icon-snowflake" viewBox="0 0 24 24">
  <path fill="none" stroke="currentColor" stroke-linecap="round" stroke-linejoin="round" stroke-width="2" d="M5 13H2v-6a2 2 0 012-2h6.5l2 2H20a2 2 0 012 2v6h-3M5 13a2 2 0 100 4 2 2 0 000-4zm14 0a2 2 0 10-.001 3.999A2 2 0 0019 13z"></path>
  <path fill="none" stroke="currentColor" stroke-linecap="round" stroke-linejoin="round" stroke-width="2" d="M1 1l22 22"></path>
  <path d="M12 1v2m-1-1h2m4 18v2m-1-1h2m-3 4v2m-1-1h2m5-16v2m-1-1h2M2 12h2m-1-1v2m16 0h2m-1-1v2m-4 5h2m-1-1v2m-6-18v2m-1-1h2"></path>
</svg>