<svg xmlns="http://www.w3.org/2000/svg" viewBox="0 0 24 24" class="icon icon-edamame">
  <path d="M12,2C6.48,2,2,6.48,2,12s4.48,10,10,10s10-4.48,10-10S17.52,2,12,2z M7,12.5c0-0.83,0.34-1.58,0.88-2.12C8.42,9.84,9.17,9.5,10,9.5 s1.58,0.34,2.12,0.88C12.66,10.92,13,11.67,13,12.5s-0.34,1.58-0.88,2.12C11.58,15.16,10.83,15.5,10,15.5s-1.58-0.34-2.12-0.88 C7.34,14.08,7,13.33,7,12.5z M14,12.5c0-0.83,0.34-1.58,0.88-2.12C15.42,9.84,16.17,9.5,17,9.5s1.58,0.34,2.12,0.88C19.66,10.92,20,11.67,20,12.5 s-0.34,1.58-0.88,2.12C18.58,15.16,17.83,15.5,17,15.5s-1.58-0.34-2.12-0.88C14.34,14.08,14,13.33,14,12.5z"></path>
</svg>