<svg xmlns="http://www.w3.org/2000/svg" class="icon icon-tornado-swirl" viewBox="0 0 24 24">
    <path d="M0 0h24v24H0z" fill="none"/>
    <path d="M21.605 16.44a10.053 10.053 0 0 1-8.151 7.553 9.935 9.935 0 0 1-3.619.743 9.946 9.946 0 0 1-3.581-.744A10.04 10.04 0 0 1 2 16.678 10.056 10.056 0 0 1 2.936 8.85a9.937 9.937 0 0 1 3.931-2.715 9.934 9.934 0 0 1 7.74 1.877 10.03 10.03 0 0 1 6.997 8.428zm-1.83-.061l1.326-.052c-.067-.598-.177-1 .089-1.465l-1.416.054a992.575 992.575 0 0 0-16.801-.074l1.334.051c-.119.794-.227 1.639-.019 2.486l-1.326-.052 1.447-.13c.745.532 1.491 1.063 2.678 1.336l-1.435.058c.781.893 1.575 1.786 2.868 2.02l-1.43.056c1.02 1.449 2.052 2.873 3.896 3.33l-1.442.052c2.043 1.618 4.12 3.236 7.273 3.467l-1.5.055a11.867 11.867 0 0 0 8.378-7.853l-1.256-.083z"/>
</svg>