<svg xmlns="http://www.w3.org/2000/svg" viewBox="0 0 24 24" class="icon icon-melody"><path d="M4 6v2a1 1 0 0 0 .883 .993L5 9h4.586L13 10.414 14.414 9H20a1 1 0 0 0 .993-.883L21 8V4a1 1 0 0 0-.883-.993L20 3H5a1 1 0 0 0-.993.883L4 4v2zm14-2v2h-4.586l-2 2-2-2H5V4h13zm-3 6v2a1 1 0 0 0 .883 .993L16 11h4.586l1.414 1.414-.708.707L12 22.828l-6.293-6.293a1 1 0 0 0-1.32-.083l-.094.083-.707-.707L4 11H3a1 1 0 0 0-.993.883L2 12v10a1 1 0 0 0 .883.993L3 23h2a1 1 0 0 0 .993-.883L6 22v-8.586l5.293 5.293a1 1 0 0 0 1.32.083l.094-.083L20 14V8a1 1 0 0 0-.883-.993L19 7h-4zm-1 4-6 6L6 13V12h2.828l5.293 5.293.094.083a1 1 0 0 0 1.173 0l.094-.083L19 11.828V11h-2z"></path></svg>