<svg version="1.1" id="icon-fairy-wand" class="icon icon-icon-fairy-wand" xmlns="http://www.w3.org/2000/svg" xmlns:xlink="http://www.w3.org/1999/xlink" x="0px" y="0px" viewBox="0 0 64 64">
    <path d="M32.001,12.963l9.9,9.906l-22.024,3.2l22.024,3.2l-9.9,9.899L32.001,12.963z M32.001,0L26.066,5.938L20.131,0L14.197,5.938
          L8.262,0L2.329,5.938L8.262,11.877L2.329,17.814L8.262,23.752L2.329,29.69L8.262,35.629L2.329,41.566L8.262,47.504L2.329,53.442
          L8.262,59.38L14.197,53.442L20.131,59.38L26.066,53.442L32.001,59.38l5.931-5.938l5.938,5.938l5.931-5.938l5.938,5.938l5.93-5.938
          l-5.93-5.938l5.93-5.931l-5.93-5.938l5.93-5.931l-5.93-5.938l5.93-5.931l-5.93-5.938l5.93-5.931l-5.93-5.938l5.93-5.939L32.001,0z
           M32.001,48.379l-5.938,5.938l-5.931-5.938l5.931-5.938L32.001,48.379z M32.001,36.506l-5.938,5.938l-5.931-5.938l5.931-5.939
          L32.001,36.506z M32.001,24.634l-5.938,5.938l-5.931-5.938l5.931-5.938L32.001,24.634z"></path>
</svg>
