<svg xmlns="http://www.w3.org/2000/svg" viewBox="0 0 24 24" class="icon icon-squid">
    <path d="M7.5,11c1.380,0,2.5,1.12,2.5,2.5s-1.12,2.5-2.5,2.5s-2.5-1.12-2.5-2.5s1.12-2.5,2.5-2.5Z" />
    <path d="M16.5,11c1.380,0,2.5,1.12,2.5,2.5s-1.12,2.5-2.5,2.5s-2.5-1.12-2.5-2.5s1.12-2.5,2.5-2.5Z" />
    <path d="M12,22c1.647,0,3-1.353,3-3H9C9,20.647,10.353,22,12,22Z" />
    <path d="M2,18l2-2l1,1l-2,2l-1-1Z" />
    <path d="M20,16l2,2l-1,1l-2-2l1-1Z" />
    <path d="M15,7l-3-3l-3,3h2v6h2V7H15Z" />
</svg>