<svg xmlns="http://www.w3.org/2000/svg" class="icon icon-graffiti-art" viewBox="0 0 24 24">
    <path d="M12 2C6.48 2 2 6.48 2 12s4.48 10 10 10 10-4.48 10-10S17.52 2 12 2zm0 18c-4.41 0-8-3.59-8-8s3.59-8 8-8 8 3.59 8 8-3.59 8-8 8z"/>
    <path d="M0 0h24v24H0z" fill="none"/>
    <path d="M6.47 10h1.53l.869-2H7.339M13 10h1.53l.867-2h-1.53M16.007 20c1.075 0 2.08-.444 2.727-1.06l-1.427-1.427A1.989 1.989 0 0 1 16.007 18c-.365 0-.729.102-1.04.277l1.407 1.406A2.319 2.319 0 0 1 16.007 20z"/>
    <path d="M16 6c-1.085 0-2 .915-2 2s.915 2 2 2 2-.915 2-2-.915-2-2-2zm-6 0c-1.085 0-2 .915-2 2s.915 2 2 2 2-.915 2-2-.915-2-2-2zm-6 0c-1.085 0-2 .915-2 2s.915 2 2 2 2-.915 2-2-.915-2-2-2z"/>
</svg>