<svg xmlns="http://www.w3.org/2000/svg" viewBox="0 0 24 24" class="icon icon-mobile-sync">
    <path d="M6.5,2h11a.5.5,0,0,1,.5.5v19a.5.5,0,0,1-.5.5h-11a.5.5,0,0,1-.5-.5v-19A.5.5,0,0,1,6.5,2Z"></path>
    <path d="M8,4h8v16H8Z"></path>
    <path d="M18,8a5,5,0,0,1-.2,1.4l1.1.8a6,6,0,0,0,.2-2.2c0-1.4-.8-2.4-2-2.6V4.9l-2.5,2.3,2.3,2.2v-.8c.7.1,1.3,1,1.3,2.1a2.6,2.6,0,0,1-1.8,2.4v.3a3.6,3.6,0,0,0,2.7-1.4l1,1a4.6,4.6,0,0,1-3.7,2.2v2l3.5-3.2L18,11v2.1c1.1-0.3,2-1.5,2-2.8A4,4,0,0,0,18,8Z"></path>
    <path d="M11,14a4.6,4.6,0,0,1,3.6-2.2v-2l-3.5,3.2L14,17v-2.1c-1.1,.3-2,1.5-2,2.8a4,4,0,0,0,.2,1.4L13,17.6a6,6,0,0,1-.2-2.2,2.6,2.6,0,0,1,1.8-2.4v-.3A3.6,3.6,0,0,0,12.3,16l-1-1A5,5,0,0,1,11,14Z"></path>
</svg>