<svg class="icon icon-ancient-pyramid.svg icon-galaxy" xmlns="http://www.w3.org/2000/svg" viewBox="0 0 24 24">
  <!-- Ancient Pyramid Shape -->
  <polygon points="2,22 22,22 12,2" fill="#000" />
  <!-- Galaxy Shape -->
  <path d="M10,2c-1.1,0 -1.8,0.9 -1.8,2c0,1.3 0.7,2.8 1.9,4.1c1.1,1.3 2.8,2.9 5.1,3c2.2,-1.1 3.8,-2.7 3.8,-3.9c0,-1.1 -0.9,-1.8 -2,-1.8c-1.3,0 -2.8,0.7 -4.1,1.8c-1.3,-1.1 -2.9,-2.8 -3,-5.1c1.1,-2.3 2.7,-3.9 3.8,-3.9c1.1,0 2,-0.9 2,-2c-1.1,-0.1 -2.7,0.5 -4,1.8" fill="#000" />
</svg>