<svg xmlns="http://www.w3.org/2000/svg" class="icon icon-alien-life-form" viewBox="0 0 24 24">
    <path d="M12,2C6.48,2,2,6.48,2,12s4.48,10,10,10s10-4.48,10-10S17.52,2,12,2z M12,13.5c-0.83,0-1.5-0.67-1.5-1.5s0.67-1.5,1.5-1.5
    s1.5,0.67,1.5,1.5S12.83,13.5,12,13.5z M10,10.5C9.17,10.5,8.5,9.83,8.5,9s0.67-1.5,1.5-1.5S12,8.17,12,9S11.33,10.5,10,10.5z M14,10.5
    c-0.83,0-1.5-0.67-1.5-1.5s0.67-1.5,1.5-1.5s1.5,0.67,1.5,1.5S14.83,10.5,14,10.5z M17.5,15c1,0,1.5,1,1.5,1.5S18.5,18,17.5,18
    c-1,0-1.5-1-1.5-1.5S16.5,15,17.5,15z"/>
</svg>