<svg xmlns="http://www.w3.org/2000/svg" class="icon icon-award" viewBox="0 0 24 24">
  <path d="M12 2C8.692 2 6 4.692 6 8c0 1.721.707 3.282 1.846 4.4C5.266 14.08 2 16.875 2 20.5 2 21.333 2.667 22 3.5 22h17c.833 0 1.5-.667 1.5-1.5 0-3.625-3.266-6.42-5.846-8.1C17.293 11.282 18 9.721 18 8c0-3.308-2.692-6-6-6zm2 13h-4c-1.104 0-2-.898-2-2h8c0 1.102-.896 2-2 2zm0-4h-4c-.552 0-1-.449-1-1s.448-1 1-1h4c.552 0 1 .449 1 1s-.448 1-1 1zm0-4h-4c-.552 0-1-.449-1-1s.448-1 1-1h4c.552 0 1 .449 1 1s-.448 1-1 1z"/>
</svg>