<svg xmlns="http://www.w3.org/2000/svg" viewBox="0 0 24 24" class="icon icon-rocket-book">
    <path d="M0 0h24v24H0z" fill="none"/>
    <path d="M5 2h4v20H5V2z"/>
    <path d="M17 12h4.707l-1.414 1.414L17 12z"/>
    <path d="M3 22h2v2H3v-2zm3.343-1.657l1.414-1.414 1.414 1.414-1.414 1.414-1.414-1.414zM7.828 18H12v2H7.828l-1.414-1.414L7.828 18zm-2.829-2h-.99l-.737-.737 1.414-1.414.313.313V16z"/>
    <path d="M22.243 1.757c-.967-.966-2.267-1.489-3.536-1.757l-1.715 1.714-1.11-.777-3 3 1.68 1.778-1.215 1.215c-1.795 1.795-1.51 3.333-.779 4.364l-.112.224-3.014 3.015-.01-.01-.223.212c-1.052.63-2.683.936-4.55-.943l-1.14 1.14 2.475 2.485c-.842.205-1.682.317-2.48.42l.01.01-5 5v3h3l1.09-1.09 12.728-12.73 1.41 1.42 2.475-2.49-1.134-1.13c1.874-1.867 2.59-3.498 1.943-4.55l.021-.021 3.069-3.069.224-.113c1.028.724 2.565 1.004 4.36-.792l1.214-1.213 1.79 1.802 3-3-1.724-1.727c-.267-1.267-.782-2.565-1.758-3.54z"/>
</svg>