<svg xmlns="http://www.w3.org/2000/svg" viewBox="0 0 24 24" class="icon icon-infinity-loop">
    <path d="M12 8c-1.657 0-3 1.343-3 3s1.343 3 3 3 3-1.343 3-3-1.343-3-3-3zm9.172 3c-.786 0-1.534.323-2.05.848l-2.122 2.121c-.585.586-1.536.586-2.121 0s-.585-1.536 0-2.121l1.414-1.414c.468-.468.722-1.093.722-1.758s-.254-1.29-.722-1.757c-.586-.585-1.536-.585-2.121 0L12.95 7.05c-.586.585-1.536.585-2.121 0-1.17-1.17-3.071-1.17-4.242 0l-2.828 2.828c-.585.585-.585 1.536 0 2.121.585.585 1.536.585 2.121 0l1.414-1.414c.466-.469 1.09-.723 1.757-.723s1.291.254 1.758.723c.586.585 .586 1.536 0 2.121l-2.828 2.828c-.585.586-.585 1.535 0 2.121.585.585 1.536.585 2.121 0l2.121-2.121c.829-.829 2.15-.829 2.978 0l2.121 2.121c.585.586 1.536.586 2.121 0 .586-.585 .586-1.536 0-2.121l-1.414-1.414c-.468-.466-.723-1.089-.723-1.757 0-.668 .255-1.291 .723-1.758.468-.468 1.089-.722 1.758-.722s1.29.254 1.757.723l2.828 2.828c1.17 1.17 3.071 1.17 4.242 0 .586-.586 .586-1.536 0-2.121l-2.829-2.829C21.707 8.323 20.958 8 20.172 8z"/>
</svg>