<svg xmlns="http://www.w3.org/2000/svg" class="icon icon-trebuchet" viewBox="0 0 24 24">
  <path d="M2 3v2h2V3H2zm4 0v2h2V3H6zm3.03 0l.26-.74A1 1 0 0110 2V1h4v1a1 1 0 01.74.26L18.97 3H22v2h-2.03l-.26.74A1 1 0 0120 6v1h-4V6a1 1 0 01-.74-.26L13.03 5H10v2h2.97l.26.74A1 1 0 0114 8v1h-4V8a1 1 0 01-.74-.26L6.03 7H2V5h2.03l.26-.74A1 1 0 014 4V3h4v2h2.97l.26-.74A1 1 0 0111 3V2h2v1c0 .28.11.53.3.71L13.03 3H14zM2 13v2h2v-2H2zm4 0v2h2v-2H6zm3.03 0l.26-.74A1 1 0 0110 12v-1h4v1a1 1 0 01.74.26L18.97 13H22v2h-2.03l-.26.74A1 1 0 0120 16v1h-4v-1a1 1 0 01-.74-.26L13.03 15H10v2h2.97l.26.74A1 1 0 0114 18v1h-4v-1a1 1 0 01-.74-.26L6.03 17H2v-2h2.03l.26-.74A1 1 0 014 14v-1h4v2h2.97l.26-.74A1 1 0 0111 13v-2h2v1c0 .28.11.53.3.71L13.03 13zM2 23v2h2v-2H2zm4 0v2h2v-2H6z"/>
</svg>