<svg version="1.1" xmlns="http://www.w3.org/2000/svg" xmlns:xlink="http://www.w3.org/1999/xlink" x="0px" y="0px" viewBox="0 0 512 512" style="enable-background:new 0 0 512 512;" xml:space="preserve" class="icon icon-stellar-vortex">
<path d="M256,0C114.509,0,0,114.497,0,255.978c0,141.493,114.497,256.022,256,256.022 c141.49,0,256-114.529,256-256.022C512,114.497,397.49,0,256,0z M256,472.451c-119.275,0-216.495-97.204-216.495-216.451 c0-119.275,97.22-216.495,216.495-216.495s216.495,97.22,216.495,216.495C472.495,375.247,375.275,472.451,256,472.451z"/>
<path d="M256,129.949c-69.689,0-126.029,56.341-126.029,126.029s56.341,126.029,126.029,126.029 c69.689,0,126.029-56.341,126.029-126.029S325.689,129.949,256,129.949z"/>
<path d="M256,297.482c-22.056,0-39.943-17.887-39.943-39.943s17.887-39.943,39.943-39.943 s39.943,17.887,39.943,39.943S278.056,297.482,256,297.482z"/>
</svg>