<svg xmlns="http://www.w3.org/2000/svg" class="icon icon-origami-crane.svg icon-quantum-computer" viewBox="0 0 24 24">
    <path d="M0 0h24v24H0z" fill="none"/>
    <path d="M9 8.482V2a1 1 0 0 1 2 0v6.481l7.622 6.213A4.962 4.962 0 0 1 21 16a4.97 4.97 0 0 1-2 3.837 4.97 4.97 0 0 1-2-.837l-2-.978l1.25-1.082a2.994 2.994 0 0 1-1.405-.217l-1.341 1.16l.693 1.962A6.986 6.986 0 0 0 10.368 19H6a1 1 0 0 1-1-1v-3h3V9H3l6-6zm3.368 9H8v1h4.368a4.962 4.962 0 0 1 1.732-2l-1.732 1zm-7.368 1h2v1H5v-1zm1-12h2v3H6V5z"/>
</svg>
