<svg xmlns="http://www.w3.org/2000/svg" viewBox="0 0 24 24" class="icon icon-virtualrealityheadset">
    <path d="M0 0h24v24H0z" fill="none"/>
    <path fill="currentColor" d="M22 10v4c0 .265-.105 .52-.293 .707l-1.414 1.414C19.568 16.727 18.837 17 18 17h-2v-2h2c.37 0 .729-.214.894-.553l.992-1.992-.992-1.993A1.003 1.003 0 0020 10h-2V8h2c.837 0 1.568.273 2.293.707l1.414 1.414c.188.187.293.442.293.707zM2 10v4c0 .265.105 .52.293 .707l1.414 1.414C4.432 16.727 5.163 17 6 17h2v-2H6c-.37 0-.729-.214-.894-.553L4.114 12.46l.992-1.993A1.003 1.003 0 006 10h2V8H6c-.837 0-1.568.273-2.293.707L2.293 10.293C2.105 10.48 2 10.735 2 11zM8 20.1V19H6c-1.591 0-3.129-.632-4.243-1.757S0 14.772 0 13.182V10c0-1.591.632-3.129 1.757-4.243S4.41 5 6 5h2V3.899a10.103 10.103 0 0116-.141V5h-2c-1.591 0-3.129.632-4.243 1.757S14 8.41 14 10v3.182c0 1.591.632 3.129 1.757 4.243S18.41 19 20 19h2v1.1a10.103 10.103 0 01-14 .042V20.1zM22 3a2 2 0 00-2 2h2V3zM6 3v2H4a2 2 0 002-2zM12 12a2 2 0 100-4 2 2 0 000 4z"/>
</svg>