<svg xmlns="http://www.w3.org/2000/svg" viewBox="0 0 50 50" class="icon icon-icon-puzzle-piece-11">
<path d="M20 5 Q27.5 5 27.5 12.5 Q27.5 20 20 20 Q12.5 20 12.5 30 Q20 30 20 37.5 Q27.5 37.5 27.5 45 Q35 45 35 37.5 Q35 30 42.5 30 Q50 30 50 22.5 Q42.5 22.5 42.5 15 Q35 15 35 7.5 Q27.5 7.5 27.5 0 Q20 0 20 7.5 Q12.5 7.5 12.5 15 Q20 15 20 22.5 Q12.5 22.5 12.5 30 Q20 30 20 37.5 Q12.5 37.5 12.5 45 Q5 45 5 37.5 Q5 30 -2.5 30 Q-10 30 -10 22.5 Q-2.5 22.5 -2.5 15 Q5 15 5 7.5 Q-2.5 7.5 -2.5 0 Q5 0 5 7.5 Q12.5 7.5 12.5 15 Q5 15 5 22.5 Q12.5 22.5 12.5 30 Q5 30 5 37.5 Q12.5 37.5 12.5 45 Q20 45 20 37.5 Q27.5 37.5 27.5 45 Q35 45 35 37.5 Q42.5 37.5 42.5 30 Q35 30 35 22.5 Q42.5 22.5 42.5 15 Q35 15 35 7.5 Q42.5 7.5 42.5 0 Q35 0 35 7.5 Q27.5 7.5 27.5 15 Q35 15 35 22.5 Q27.5 22.5 27.5 30 Q35 30 35 37.5 Q27.5 37.5 27.5 45 Q20 45 20 37.5 Q12.5 37.5 12.5 30 Q20 30 20 22.5 Q12.5 22.5 12.5 15 Q20 15 20 7.5 Q12.5 7.5 12.5 0 Q20 0 20 7.5 Q27.5 7.5 27.5 15 Q20 15 20 22.5 Q27.5 22.5 27.5 30 Q20 30 20 37.5 Q27.5 37.5 27.5 45 Q35 45 35 37.5 Q42.5 37.5 42.5 30 Q35 30 35 22.5 Q42.5 22.5 42.5 15 Q35 15 35 7.5 Q42.5 7.5 42.5 0 Q35 0 35 7.5 Q27.5 7.5 27.5 15 Q35 15 35 22.5 Q27.5 22.5 27.5 30 Q35 30 35 37.5 Q27.5 37.5 27.5 45 Q20 45 20 37.5 Q12.5 37.5 12.5 30 Q20 30 20 22.5 Q12.5 22.5 12.5 15 Q20 15 20 7.5 Q12.5 7.5 12.5 0 Q20 0 20 5 Z"/>
</svg>
