<svg xmlns="http://www.w3.org/2000/svg" viewBox="0 0 24 24" class="icon icon-net">
<path d="M12,2C6.48,2,2,6.48,2,12s4.48,10,10,10s10-4.48,10-10S17.52,2,12,2z M4,12c0-0.73,0.1-1.43,0.29-2.09l1.89,1.89v0.45l-2.07,2.07 C4.01,13.72,4,12.87,4,12z m5.73,6.15l-1.02-1.02c-0.64,0.23-1.33,0.36-2.06,0.36c-0.52,0-1.02-0.07-1.5-0.19l1.1-1.1l4.58-4.58 c0.36-0.36,0.77-0.64,1.25-0.82v2.6L12,14l2,2v-0.91l1.46,1.46c-0.45,0.69-1.07,1.25-1.79,1.64L9.73,18.15L9.73,18.15z M20,12 c0,0.87-0.1,1.72-0.29,2.54l-2-2V12h-1.73l-8-8H12c4.42,0.04,7.96,3.58,8,8L20,12L20,12z m-6.92-2h2.42c0.45-0.88,0.7-1.84,0.7-2.84 c0-1-0.25-1.95-0.69-2.8l-1.72,1.72L13.08,10L13.08,10z m5.32,6.73c-0.37-0.76-0.88-1.43-1.49-2l-1.98,1.98L13,13.91v2.28l1.46,1.46 C14.25,17.64,14.82,18,15.38,18c1.37,0,2.51-0.8,3.07-2h0L18.4,16.73z"/>
</svg>