<svg xmlns="http://www.w3.org/2000/svg" class="icon icon-steam-punk-goggles">

<path fill="none" d="M0 0h24v24H0V0z" />

<path d="M4 18v1.584c0 .953 .659 1.786 1.582 2.108A4.994 4.994 0 0 0 10 21c1.463 0 2.784-.627 3.719-1.695A4.988 4.988 0 0 0 14 21c2.747 0 5-2.153 5-4.831V6.5a1.5 1.5 0 0 0 -1.277 -1.476L17.33 5H4.67l-.025.007a1.494 1.494 0 0 0 -1.252 1.469v9.417l.003 .06a1.5 1.5 0 0 0 .642 1.18c.5.332 .934.656 1.5 .98zM6 7h12v5H6V7zm4 6c1.33 0 2.418 .812 2.95 2H8.55c.532 -1.188 1.62 -2 2.45 -2zm6 0c1.33 0 2.418 .812 2.95 2h-5.9c.532 -1.188 1.62 -2 2.45 -2z" />

</svg>