<svg xmlns="http://www.w3.org/2000/svg" viewBox="0 0 24 24" class="icon icon-biotech">
    <path d="M12 2C6.48 2 2 6.48 2 12s4.48 10 10 10 10-4.48 10-10S17.52 2 12 2zm0 18c-4.41 0-8-3.59-8-8s3.59-8 8-8 8 3.59 8 8-3.59 8-8 8z"/>
    <path d="M10 16.5h4V18h-4zM12.5 2.5V5h-1V2.5h1zm8.66 6.22l-1.41-1.41 1.41-1.41 1.41 1.41-1.41 1.41zM11 2.5v2.5h-1V2.5h1zM5.34 7.72L3.93 6.31l1.41-1.41 1.41 1.41-1.41 1.41zM2.5 12.5h2.5v-1H2.5v1zM11 21.5h1V19h-1v2.5zm7.85-2.09l-1.41 1.41-1.41-1.41 1.41-1.41 1.41 1.41zM12.5 19v2.5h1V19h-1zM21.5 11v1h-2.5v-1H21.5zM3.93 17.66l1.41 1.41-1.41 1.41-1.41-1.41 1.41-1.41z"/>
</svg>