<svg version="1.1" id="icon-professor-hat" class="icon icon-professor-hat" xmlns="http://www.w3.org/2000/svg" xmlns:xlink="http://www.w3.org/1999/xlink" x="0px" y="0px" viewBox="0 0 512 512" style="enable-background:new 0 0 512 512;" xml:space="preserve">
    <path d="M256,0C158.3,0,78.3,44.3,78.3,100v50.6c0,21.7,14.7,40.6,35.3,48.2v85.8c-20.7,7.6-35.3,26.4-35.3,48.2v121.9
        c0,55.7,80,100,176.7,100s176.7-44.3,176.7-100V344.8c0-21.7-14.7-40.6-35.3-48.2v-85.8c20.7-7.6,35.3-26.4,35.3-48.2V100
        C433.7,44.3,353.7,0,256,0z M311.7,200H200c-11.2,0-20,8.8-20,20s8.8,20,20,20h111.7c11.2,0,20-8.8,20-20S323,200,311.7,200z
        M256,440c-48.7,0-88.3-22.5-88.3-50s39.5-50,88.3-50s88.3,22.5,88.3,50S304.7,440,256,440z"/>
</svg>