<svg xmlns="http://www.w3.org/2000/svg" class="icon icon-quantumcomputer-svg icon-ancient-scroll" viewBox="0 0 24 24">
    <path d="M15.9,2h-0.553c-0.346,0-0.694,0.5-0.774,1.122l0.352,0.1L15.9,2z M12.347,0h-0.694v1.773l0.694,0.199V0z M9.253,1.872l0.361-0.1 C9.447,1.5,9.097,2,8.753,2H8.2L9.253,1.872z M17.8,4.027v0.447l-1.8,0.5v5.026h-1.9v2.5v0.5h-1.9v2.5h-3.8v-2.5H6.2V9.499H4.3V4.473 l-1.8-0.5v-0.447l1.971-0.557l1.671-0.476l1.671-0.476l1.671-0.476l1.671-0.476l1.671-0.476l1.971-0.557H17.8L17.8,4.027z M4.3,4.5h1.9 v5.026h1.9v2.5h3.8v-2.5h1.9V4.5h1.9l1.145,0.323l-0.845,0.24l-0.845,0.24l-0.845,0.24l-0.845,0.24l-0.845,0.24l-0.845,0.24 L13.8,6.291l-0.845,0.239L6.1,4.5H4.3V4.5z"/>
    <path d="M3.3,17.963h4.6v4.6H3.3V17.963z M6.6,21.163H4.6v-1.6h2V21.163z"/>
    <path d="M15.7,17.963h4.6v4.6h-4.6V17.963z M19,21.163h-2v-1.6h2V21.163z"/>
</svg>
