<svg xmlns="http://www.w3.org/2000/svg" class="icon icon-sundial.svg* icon-galaxy" viewBox="0 0 24 24">
    <path d="M0 0h24v24H0z" fill="none"/>
    <path d="M5.737 4.669C9.096 3.273 12.904 3.273 16.263 4.669l1.74-1a10 10 0 00-10.012 0l1.739 1zm.685 15.596A9.978 9.977 0 0012 22a9.978 9.977 0 005.578-1.735l1.686 1.74a12 12 0 01-14.513 0l1.686-1.74zM12 20v-8h-2v8a7.963 7.963 0 003.5-.806A7.963 7.963 0 0012 20zm9.535-6h-2.048A8.978 8.978 0 0013 11V9h8v5zm-3.142-6H7.607A4.983 4.984 0 0012 14a4.983 4.983 0 006.393-4H18.393zM13 5V2a10.002 10.002 0 00-2 0v3h2zm-4 1.044V9a6.978 6.978 0 01-1.398-.272l1.123-1.678A4.992 4.992 0 009 6.044z"/>
</svg>