<svg xmlns="http://www.w3.org/2000/svg" class="icon icon-ufo">
    <path d="M8 15c-4.41828 0-7-1.79086-7-4h1a6 6 0 0012 0h1c0 2.20914-2.58172 4-7 4zM0 11h16v1H0v-1zm14.5-3h-13a.5.5 0 000 1h13a.5.5 0 000-1zm-13-2h13a.5.5 0 000-1h-13a.5.5 0 000 1zm10.3858-4.33008a1.5 1.5 0 10-2.5426-1.68384.5.5 0 00-.6712-.74194A3.9838 3.9838 0 008 0c-1.66878 0-3.25866.68176-4.3722 1.94497a.5.5 0 00-.6712.74194A1.5 1.5 0 101.21421 5.66992a.5.5 0 00.6712.74097A3.99 3.99 0 008 6a3.99 3.99 0 006.11459-1.58911.5.5 0 00.6712-.74097z"></path>
</svg>