<svg xmlns="http://www.w3.org/2000/svg" viewBox="0 0 24 24" class="icon icon-handwritten-letter">
    <path d="M2 4H22C22.5304 4 23.0391 4.21071 23.4142 4.58579C23.7893 4.96086 24 5.46957 24 6V18C24 18.5304 23.7893 19.0391 23.4142 19.4142C23.0391 19.7893 22.5304 20 22 20H2C1.46957 20 0.960859 19.7893 0.585786 19.4142C0.210714 19.0391 0 18.5304 0 18V6C0 5.46957 0.210714 4.96086 0.585786 4.58579C0.960859 4.21071 1.46957 4 2 4ZM2 2C0.89543 2 0 2.89543 0 4V18C0 19.1046 0.89543 20 2 20H22C23.1046 20 24 19.1046 24 18V6C24 4.89543 23.1046 4 22 4H2Z" />
    <path d="M5 6H7V8H5V6Z" />
    <path d="M13 12H11V14H13V12Z" />
    <path d="M9 16H11V18H9V16Z" />
</svg>