<svg xmlns="http://www.w3.org/2000/svg" class="icon icon-internetofthings" viewBox="0 0 24 24">
  <path d="M12 2C6.477 2 2 6.477 2 12s4.477 10 10 10 10-4.477 10-10S17.523 2 12 2zm0 2c2.21 0 4 1.79 4 4s-1.79 4-4 4-4-1.79-4-4 1.79-4 4-4zm5 14c2.508-2.5 2.508-6.514 0-9.022C16.323 10.09 15.653 11 15 11c-1.104 0-2-.896-2-2 0-.653.91-1.323 2.022-2.022C17.514 7.492 17.516 11.506 15 14zm-5 1c-1.062 0-2.062-.525-2.669-1.335C8.894 14.106 10 13.104 10 12c0-1.104-.896-2-2-2-.672 0-1.264.387-1.561.961-.06.116-.039.255.015.374l1.086 2.261a3.982 3.982 0 01-.602 3.703A3.977 3.977 0 0010 19zm0 2a5.978 5.978 0 01-4.484-2.018l-1.09-2.273a5.979 5.979 0 01.593-5.913 4.004 4.004 0 011.981-.749c1.301 0 2.399.839 2.939 2.082a4.007 4.007 0 013.777-.064 5.992 5.992 0 01-.567 1.769 5.978 5.978 0 01-3.249 2.165A5.976 5.976 0 0110 21z" />
</svg>
