<svg xmlns="http://www.w3.org/2000/svg" viewBox="0 0 24 24" class="icon icon-hybrid-car">
    <path d="M21.6,16.1c-0.2-1-1.2-1.7-2.3-1.5l-3.5,0.7V10c0-1.1-0.9-2-2-2h-4c-1.1,0-2,0.9-2,2v5.2l-3.5,-0.7c-1,-0.2-2.1,0.5-2.3,1.5L1,18v2c0,1.1,0.9,2,2,2h1c1.1,0,2,-0.9,2,-2v-1h10v1c0,1.1,0.9,2,2,2h1c1.1,0,2,-0.9,2,-2v-2L21.6,16.1z"/>
    <circle cx="7" cy="18" r="2" />
    <circle cx="17" cy="18" r="2"/>
    <path d="M7,6 C10.31,6 13,8.69 13,12C13,10.69 11.31,6 7,6Z"/>
    <path d="M10,7 C13.31,7 16,9.69 16,13C16,11.69 14.31,7 10,7Z"/>
</svg>