<svg xmlns="http://www.w3.org/2000/svg" class="icon icon-paperclip-bent" viewBox="0 0 24 24">
    <path d="M21 12v-2a4 4 0 0 0-4-4H7a4 4 0 0 0-4 4v7a5 5 0 0 0 5 5h11.1a4.9 4.9 0 0 0 3.9-2 4.9 4.9 0 0 0-.9-6.9 4.9 4.9 0 0 0-6.9.9H7v-2h5a3 3 0 0 1 1 .2V10h1a2 2 0 0 1 2 2v1h-4a1 1 0 0 0-1 1v3a1 1 0 0 0 1 1h3v1a2 2 0 0 1-2 2h-1a1 1 0 0 0-1-1 1 1 0 0 0-1 1 2 2 0 0 0 2 2h1a3 3 0 0 0 3-3v-1h1a4 4 0 0 0 .8-7.8 4 4 0 0 0-5.6 0H7a2 2 0 0 1-2-2v-2a2 2 0 0 1 2-2h10a2 2 0 0 1 2 2v2h-2z" fill="currentColor"/>
</svg>