<svg xmlns="http://www.w3.org/2000/svg" class="icon icon-enchilada" viewBox="0 0 24 24">
    <path d="M12 2C6.486 2 2 6.486 2 12s4.486 10 10 10 10-4.486 10-10S17.514 2 12 2zm0 18c-4.411 0-8-3.589-8-8s3.589-8 8-8 8 3.589 8 8-3.589 8-8 8z"/>
    <path d="M9.372 8.675l-.695.695-1.372-1.372.695-.695 1.372 1.372zM12 6.1l1.372 1.372-.695.695-1.372-1.372L12 6.1zm3.372 1.972l-.695-.695L15.9 6l.695.695-1.223 1.377zM12 13c-3.309 0-6-2.691-6-6 0-.352.072-.682.156-1H7.1C7.17 7.953 9.553 10 12 10s4.83-2.047 4.944-2.631l.956-.156C18.928 7.318 19 7.648 19 8 19 11.309 15.309 14 12 14z"/>
</svg>