<svg xmlns="http://www.w3.org/2000/svg" width="24" height="24" class="icon icon-pixels">
  <rect x="1" y="1" width="5" height="5" style="fill:#000;"/>
  <rect x="7" y="1" width="5" height="5" style="fill:#000;"/>
  <rect x="13" y="1" width="5" height="5" style="fill:#000;"/>
  <rect x="19" y="1" width="5" height="5" style="fill:#000;"/>
  <rect x="1" y="7" width="5" height="5" style="fill:#000;"/>
  <rect x="7" y="7" width="5" height="5" style="fill:#000;"/>
  <rect x="13" y="7" width="5" height="5" style="fill:#000;"/>
  <rect x="19" y="7" width="5" height="5" style="fill:#000;"/>
  <rect x="1" y="13" width="5" height="5" style="fill:#000;"/>
  <rect x="7" y="13" width="5" height="5" style="fill:#000;"/>
  <rect x="13" y="13" width="5" height="5" style="fill:#000;"/>
  <rect x="19" y="13" width="5" height="5" style="fill:#000;"/>
  <rect x="1" y="19" width="5" height="5" style="fill:#000;"/>
  <rect x="7" y="19" width="5" height="5" style="fill:#000;"/>
  <rect x="13" y="19" width="5" height="5" style="fill:#000;"/>
  <rect x="19" y="19" width="5" height="5" style="fill:#000;"/>
</svg>