<svg xmlns="http://www.w3.org/2000/svg" class="icon icon-kaleidoscope-pattern" viewBox="0 0 24 24">
  <path d="M22 12c0-.922-.158-1.804-.44-2.647l-.012-.03-.006-.015-.01-.022-.008-.02-.01-.02-.014-.028-.008-.016-.006-.01-.024-.04-.008-.014-.024-.036-.01-.012-.008-.01-.034-.026-.024-.014-.012-.008-.016-.008h-.008a.941.941 0 0 1-.124-.02h-.03l-.013-.006h-.008l-.034-.01-.017-.004h-.02a.603.603 0 0 1-.11-.012h-.054a9.958 9.958 0 0 0-3.83-.777c-1.084-.006-2.154.152-3.167.466l-.08.016-.026.004-.034.01v.004a5.992 5.992 0 0 1-.81.24l-.037.01-.03.008-.04.012-.024.006-.028.01-.03.008-.027.01-.03.01-.026.01-.034.012-.024.01-.032.012-.025.01-.036.014-.024.012-.032.014-.026.014-1.473.694c-.6.28-1.15.628-1.646 1.033l-.032.028-.024.022-.026.024-.02.02-.028.028-.02.02-.028.03-.016.018-.03.036-.012.014-.03.036-.01.014-.026.04-.014.018-.006.012-.008.012-.014.03-.008.016-.02.038-.01.024-.018.04-.01.024-.018.042c-.276.672-.426 1.376-.442 2.1a10 10 0 0 0 .917 4.36l.008.018.01.02.006.018.012.02.008.02.014.028.01.018.01.02.026.04.012.02.024.038.014.024.014.024.036.052.01.014.016.022.014.018.02.022.026.028.02.02.028.03.02.022.028.028.021.02.03.03.02.021.03.03.021.02.033.032.02.022.034.034c.407.4.866.742 1.366 1.017l.06.028.025.012.03.014.028.014.026.012.032.016.024.01.036.018.024.01.036.018.024.012.034.014.026.012.034.016.024.012.037.016.026.012.036.016.03.01.03.014.03.012.03.012.034.014.03.012.032.014.034.014.034.016.07.03c1.02.426 2.106.64 3.2.64h.063a.064.064 0 0 1 .01.006h.024a.61.61 0 0 1 .1.012h.053c1.677.1 3.308-.405 4.61-1.43h.012l.024-.02.014-.014.02-.02.018-.018.02-.018.02-.02.022-.026.018-.018.022-.022.02-.024.022-.024.024-.03.02-.022.024-.03.018-.022.026-.034.02-.024.024-.034.014-.02.01-.014.022-.034.014-.018.02-.03.014-.022.018-.03.012-.02.02-.038.01-.018.018-.038.008-.02.016-.038.01-.018.018-.042.008-.02.015-.04.008-.022.014-.04.008-.024.012-.042a9.997 9.997 0 0 0-.44-3.35h-.012"></path>
</svg>