<svg xmlns="http://www.w3.org/2000/svg" viewBox="0 0 24 24" class="icon icon-fairTrade">
<path d="M0 0h24v24H0z" fill="none"/>
<path d="M18.404 1.639l-4.869 4.827-1.536-1.543 6.406-6.386 3.465 3.445-1.544 1.512zm-1.04 1.086L12 8.062 6.635 2.725l1.543-1.513L2.595 0 0 2.583l6.406 6.385L4.87 10.465l4.868-4.827 4.869 4.827-1.536 1.543 6.406 6.406L24 15.975l-3.466-3.445-1.542 1.512zm-5.173 5.96L12 14.738l-1.19-1.28L2.6 14.738l3.463 3.424-1.542 1.512 6.406 6.406L12 22.373l1.191 1.254 6.406-6.406-1.544-1.513-3.464-3.424zM12 5.33l5.637 5.587-1.19 1.191L12 7.71l-4.445 4.398-1.19-1.19L12 5.329z"/>
</svg>