<svg xmlns="http://www.w3.org/2000/svg" viewBox="0 0 24 24" class="icon icon-holographic-display">
   <path d="M12 2C6.487 2 2 6.487 2 12s4.487 10 10 10 10-4.487 10-10S17.513 2 12 2zm0 18c-4.41 0-8-3.59-8-8s3.59-8 8-8 8 3.59 8 8-3.59 8-8 8z"/>
   <path d="M16.6 7.5l1.4-1.4-1-1-1.4 1.4 1 1zM8.6 8.6L7.2 7.2l-1 1 1.4 1.4 1-1zm2.7-1.6L9.8 9.8l1 1 1.5-1.5-1-1zM12 15c-1.656 0-3-1.343-3-3 0-.883.37-1.68.942-2.236l1.11 1.109c-.194.194-.303.457-.303.742 0 .552.447.998 1 .998s1-.446 1-.998c0-.285-.109-.548-.303-.742l1.11-1.109C14.63 10.32 15 11.117 15 12c0 1.657-1.344 3-3 3z"/>
</svg>