<svg xmlns="http://www.w3.org/2000/svg" viewBox="0 0 24 24" class="icon icon-sports-football">
  <path d="M20.832,2.998c-0.085,0-0.17,0.006-0.255,0.007C14.601,3.064,12,5.838,12,5.838S9.398,3.064,3.421,3.005    C3.336,3.004,3.251,2.998,3.166,2.998C1.412,2.998,0,4.41,0,6.166v11.667C0,19.59,1.412,21,3.166,21c0.086,0,0.172-0.006,0.257-0.007    C9.398,20.936,12,18.162,12,18.162s2.602,2.774,8.579,2.831c0.086,0.001,0.171,0.007,0.257,0.007c1.754,0,3.166-1.41,3.166-3.166    V6.166C24,4.41,22.588,2.998,20.832,2.998z M12,9c1.104,0,2,0.896,2,2s-0.896,2-2,2s-2-0.896-2-2S10.896,9,12,9L12,9z"></path>
</svg>