<svg version="1.1" id="icon-DroneDelivery" class="icon icon-DroneDelivery" xmlns="http://www.w3.org/2000/svg" xmlns:xlink="http://www.w3.org/1999/xlink" x="0px" y="0px"
   viewBox="0 0 48 48" style="enable-background:new 0 0 48 48;" xml:space="preserve">
  <path d="M24,14c0-2.8-2.2-5-5-5s-5,2.2-5,5s2.2,5,5,5S24,16.8,24,14z M35,14c0-2.8-2.2-5-5-5s-5,2.2-5,5s2.2,5,5,5
          S35,16.8,35,14z M19,22h10c1.1,0,2-0.9,2-2s-0.9-2-2-2H19c-1.1,0-2,0.9-2,2S17.9,22,19,22z M42,30H6c-1.1,0-2,0.9-2,2s0.9,2,2,2
          h36c1.1,0,2-0.9,2-2S43.1,30,42,30z"></path>
</svg>