<svg xmlns="http://www.w3.org/2000/svg" class="icon icon-icon-cog" viewBox="0 0 24 24">
    <path d="M19.5 10c-.8 0-1.5-.2-2-.5l-1.3 1.3c-.1 .4-.3.8-.6 1.1v2.9c.7.3 1.5.5 2.5.5 2.2 0 4-1.8 4-4s-1.8-4-4-4zm0-4c-2.2 0-4 1.8-4 4h2c0-1.1.9-2 2-2s2 .9 2 2-.9 2-2 2c-1.1 0-2-.9-2-2h-2c0 2.2 1.8 4 4 4 1.1 0 2-.5 2.7-1.3l1.3 1.3c.3 .6.5 1.4.5 2.2 0 2.2-1.8 4-4 4s-4-1.8-4-4h-2c0 2.8 2.2 5 5 5s5-2.2 5-5c0-1.6-.7-3-1.7-4l1.3-1.3c.6.7 1.5 1.3 2.5 1.3 2.2 0 4-1.8 4-4s-1.8-4-4-4zm-2 1.5c.8 0 1.5 .7 1.5 1.5s-.7 1.5-1.5 1.5-1.5-.7-1.5-1.5 .7-1.5 1.5-1.5zM4.5 10h2c0 1.1 .9 2 2 2s2-.9 2-2-.9-2-2-2-2 .9-2 2h-2c0-2.2 1.8-4 4-4s4 1.8 4 4c0 1.1-.5 2-1.3 2.7l1.3 1.3c1-.7 1.5-1.6 1.5-2.7 0-2.8-2.2-5-5-5S4.5 7.2 4.5 10zm2 7.5c-.8 0-1.5-.7-1.5-1.5s.7-1.5 1.5-1.5 1.5 .7 1.5 1.5-.7 1.5-1.5 1.5zm-2-4c0 1.6 .7 3 1.7 4l-1.3 1.3c-.6-.7-1.4-1.2-2.3-1.2-2.2 0-4 1.8-4 4s1.8 4 4 4 4-1.8 4-4h2c0 2.8-2.2 5-5 5s-5-2.2-5-5c0-1.6 .7-3 1.7-4l.1-.2v-.8c-.6-.3-1.4-.6-2-1z"></path>
</svg>

