<svg xmlns="http://www.w3.org/2000/svg" class="icon icon-flametorch">
    <path fill-rule="evenodd" d="M13.2,0C10.819,0,8.856,0.735,7.32,2.205c-1.536,1.471-2.304,3.439-2.304,5.906v9.772c0,0.665,0.239,1.17,0.717,1.512C6.117,19.805,6.63,20,7.296,20h6.407c0.666,0,1.18-0.195,1.541-0.586c0.361-0.391,0.541-0.847,0.541-1.366V8.111c0-2.469-0.767-4.436-2.304-5.906C15.144,0.735,13.181,0,10.8,0H13.2z m1.703,8.111v10.034h-4.807V8.111c0-2.25,0.741-3.75,2.22-4.498c1.48,0.749,2.22,2.249,2.22,4.498H14.903z"></path>
</svg>