<svg xmlns="http://www.w3.org/2000/svg" class="icon icon-diamond-sparkle" viewBox="0 0 24 24">
    <path d="M12 1L3 9l9 14 9-14-9-8zm0 2.27L17.233 9H6.766L12 3.27zM4 10l7.176 4.12-1.396-8.034L4 10zm10 .22V14.12L19.992 10l-5.992.22z"/>
    <path d="M20.354 3.354a.5.5 0 0 0-.708 0l-.707.707 2.121 2.121.707-.707a.5.5 0 0 0 0-.708l-.414-.414-1.413-1.413.414-.414zm-6.586 2.829a1 1 0 0 0-1.415 0L11.05 7.486l2.121 2.121 1.415-1.415-1.535-1.354.707-.707zm-6.586 2.829l-.707.707a.5.5 0 0 0 0 .708l1.414 1.414-2.121 2.12.707.708a.5.5 0 0 0 .708 0l.707-.707 2.121-2.12-.708-.707a1 1 0 0 0-.707-.282z"/>
</svg>