<svg version="1.1" xmlns="http://www.w3.org/2000/svg" xmlns:xlink="http://www.w3.org/1999/xlink" class="icon icon-mountain-bike" viewBox="0 0 1024 1024">
    <path d="M580, 715c-105, 0 -190, 85 -190, 190c0, 105 85, 190 190, 190c105, 0 190, -85 190, -190C770, 800 685, 715 580, 715zM445, 715c-105, 0 -190, 85 -190, 190c0, 105 85, 190 190, 190c105, 0 190, -85 190, -190C635, 800 550, 715 445, 715zM850,643H746.4L617.5,281.5C607.7,256.3 529.1,244.8 500,267.2L375,370.6L195.4,263.6C171.2,250.7 147.7,267.2 157.4,291.4L306.6,643H152.8C66.925,643 0,709.9 0,795.7S66.925,948.5 152.8,948.5H850c85.87,0 152.8,-66.93 152.8,-152.8S935.9,643 850,643Z"/>
</svg>