<svg xmlns="http://www.w3.org/2000/svg" viewBox="0 0 24 24" class="icon icon-snowflake">
  <path d="M12 1.6V8a1.5 1.5 0 001.78 1.48l3.57-.59 1.63 2.82-2.82 1.63.59 3.57a1.5 1.5 0 00-2.97-.59l-.59-3.57L8.4 13.94l2.82 1.63-.59 3.57A1.5 1.5 0 007.22 17l-3.57-.59-1.63-2.82 2.82-1.63-.59-3.57a1.5 1.5 0 002.97.59l.59 3.57 2.82-1.63-2.82-1.63-.59 3.57a1.5 1.5 0 002.97-.59l3.57.59 1.63-2.82-2.82-1.63.59-3.57A1.5 1.5 0 0012 8V1.6zM3.22 12a1.5 1.5 0 011.78 1.48v.04c0 1.12-1.22 1.79-2.27 1.19l-1.63-2.82 2.82-1.63-.59-3.57c-.08-.84 1.02-1.28 1.66-.77l.59 3.57L8.4 7.06 5.58 5.43A1.5 1.5 0 016.58 2.6l3.57.59 1.63 2.82-2.82 1.63.59 3.57a1.5 1.5 0 01-2.97-.59l-.59-3.57-2.82 1.63L5.58 4.4 2.76 2.77a1.5 1.5 0 01-1.19 2.27l-3.57-.59-1.63-2.82L1.8 4.94V12z"></path>
</svg>