<svg xmlns="http://www.w3.org/2000/svg" viewBox="0 0 24 24" class="icon icon-ribbon">
    <path fill-rule="evenodd" d="M12 2a5 5 0 0 1 5 5v6a5 5 0 0 1-5 5 5 5 0 0 1-5-5V7a5 5 0 0 1 5-5zm0 2a3 3 0 0 0-3 3v6a3 3 0 0 0 3 3 3 3 0 0 0 3-3V7a3 3 0 0 0-3-3zm0 8a2 2 0 1 1 0 4 2 2 0 0 1 0-4z"/>
    <path fill-rule="evenodd" d="M4 15s1-1.5 2-3V7a3 3 0 1 1 6 0v5c1 1.5 2 3 2 3H4zm2-.25A31.63 31.63 0 0 1 8.02 7a2 2 0 1 0-4 0c.01 1.333.484 2.667 1.01 4.056.413.667.778 1.194 1.968 3.693zm4 0A31.63 31.63 0 0 1 12.02 7a2 2 0 1 0-4 0c.01 1.333.484 2.667 1.01 4.056.413.667.778 1.194 1.968 3.693z"/>
</svg>