<svg xmlns="http://www.w3.org/2000/svg" viewBox="0 0 24 24" class="icon icon-intelligent-automobile">
    <path fill="none" stroke="currentColor" stroke-width="2" 
    d="M2 16v6m20-6v6m-15-5h13.5a1.5 1.5 0 01 1.5 1.5v1a1.5 1.5 0 01-1.5 1.5h-13a1.5 1.5 0 01-1.5-1.5v-1a1.5 1.5 0 011.5-1.5h.5m-6-7l1.18-1.68a2 2 0 01 3.32 0l0.4.6a6 6 0 017.2 0l0.4-.6a2 2 0 013.32 0l1.18 1.68v7m-2-2a5 5 0 00-6-3.58A5 5 0 006 14v-2m3 2a5 5 0 00.34-1.66A5 5 0 005 11a5 5 0 010-10 5 5 0 010 10 5 5 0 000 10 5 5 0 200-10z"></path>
</svg>