<svg xmlns="http://www.w3.org/2000/svg" class="icon icon-wheatstalk" viewBox="0 0 24 24">

  <path d="M12,0C5.4,0,0,5.4,0,12s5.4,12,12,12s12-5.4,12-12S18.6,0,12,0z M12,22c-1.7,0-3.4-0.3-5-0.9l1-1.7c1.3
  0.4,2.6,0.6,4,0.6c1.4,0,2.7-0.2,4-0.6l1,1.7C15.4,21.7,13.7,22,12,22z M7.7,18.6l-1-1.7c1.1-0.6,2.2-1.3,3.3-2.1
  l1,1.7C9.8,17.3,8.8,18,7.7,18.6z M12,17.8l-1-1.7c0.7-0.5,1.3-1,2-1.5s1.3-1,2-1.5l1,1.7C14.2,15.8,13.1,16.8,12,17.8z
  M16.3,18.6c-1.1-0.6-2.1-1.3-3.1-2.1l1-1.7c1.1,0.8,2.2,1.5,3.3,2.1L16.3,18.6L16.3,18.6z"></path>

</svg>