<svg xmlns="http://www.w3.org/2000/svg" class="icon icon-microphone-speaker" viewBox="0 0 24 24">
    <path d="M12 1a3 3 0 0 1 3 3v6a3 3 0 0 1-6 0V4a3 3 0 0 1 3-3zm6.8 10.2c-.1-.2-.3-.4-.6-.5 1.6-.4 2.7-1.9 2.6-3.7h-2c.1 1-1 1.8-2 1.8s-2-.8-2-1.8h-2c0 1.8 1.1 3.3 2.7 3.7-.2.1-.4.3-.5.6C8.7 11 7 12.9 7 15v3h10v-3c0-2.1-1.7-4-3.2-4.8zM5 13v4H3v-4h2zm16 0v4h-2v-4h2zM4.2 18v-2H2.3c.2 1.8 1.6 3.2 3.7 3.2h2.6c0-.5.2-1 .6-1.4l-2.7-1.6c-.5 0-1 .4-1 1zm15.6 1.8c.4.4.6.9.6 1.4h2.7c-2.2 0-3.6-1.4-3.7-3.2h-2v2c0 .6-.5 1-1 1l2.7 1.6z"></path>
</svg>