<svg xmlns="http://www.w3.org/2000/svg" viewBox="0 0 24 24" class="icon icon-neuralnetwork">
    <path d="M12 6C10.897 6 10 6.897 10 8C10 9.103 10.897 10 12 10C13.103 10 14 9.103 14 8C14 6.897 13.103 6 12 6ZM4 8C4 6.897 4.897 6 6 6C7.103 6 8 6.897 8 8C8 9.103 7.103 10 6 10C4.897 10 4 9.103 4 8ZM16 6C14.897 6 14 6.897 14 8C14 9.103 14.897 10 16 10C17.103 10 18 9.103 18 8C18 6.897 17.103 6 16 6ZM20 6C18.897 6 18 6.897 18 8C18 9.103 18.897 10 20 10C21.103 10 22 9.103 22 8C22 6.897 21.103 6 20 6ZM6 14C4.897 14 4 14.897 4 16C4 17.103 4.897 18 6 18C7.103 18 8 17.103 8 16C8 14.897 7.103 14 6 14ZM12 14C10.897 14 10 14.897 10 16C10 17.103 10.897 18 12 18C13.103 18 14 17.103 14 16C14 14.897 13.103 14 12 14ZM16 14C14.897 14 14 14.897 14 16C14 17.103 14.897 18 16 18C17.103 18 18 17.103 18 16C18 14.897 17.103 14 16 14ZM20 14C18.897 14 18 14.897 18 16C18 17.103 18.897 18 20 18C21.103 18 22 17.103 22 16C22 14.897 21.103 14 20 14Z"/>
</svg>