<svg version="1.1" id="icon-machine-learning" xmlns="http://www.w3.org/2000/svg" xmlns:xlink="http://www.w3.org/1999/xlink" class="icon icon-machine-learning" viewBox="0 0 32 32">
    <path d="M16 0C7.164 0 0 7.164 0 16s7.164 16 16 16 16-7.164 16-16S24.836 0 16 0zm0 30C8.268 30 2 23.732 2 16S8.268 2 16 2s14 6.268 14 14-6.268 14-14 14zm0-26C9.925 4 4 9.925 4 16s5.925 12 12 12 12-5.925 12-12S22.075 4 16 4zm1 17.901l-4.286-4.774 1.714-1.594 2.57 2.667L23.57 11l1.716 1.594L17 21.901z"></path>
</svg>