<svg xmlns="http://www.w3.org/2000/svg" viewBox="0 0 24 24" class="icon icon-briefcase-with-document">
    <path d="M21 7h-4V6c0-1.1-.9-2-2-2h-4c-1.1 0-2 .9-2 2v1H3c-1.1 0-2 .9-2 2v10c0 1.1.9 2 2 2h18c1.1 0 2-.9 2-2V9c0-1.1-.9-2-2-2zM9 6c0-.55.45-1 1-1h4c.55 0 1 .45 1 1v1H9V6z"/>
    <path d="M5 21v-2h4.5c.28 0 .5-.22.5-.5S9.78 18 9.5 18H5v-2h4.5c.83 0 1.5-.67 1.5-1.5S10.33 13 9.5 13H5v-2h4.5c1.38 0 2.5 1.12 2.5 2.5s-1.12 2.5-2.5 2.5H5v2h4.5c.83 0 1.5.67 1.5 1.5S9.33 21 8.5 21H5z"/>
    <rect x="8" y="11" width="8" height="2"/>
    <rect x="11" y="14" width="2" height="7"/>
</svg>