<svg xmlns="http://www.w3.org/2000/svg" viewBox="0 0 24 24" class="icon icon-volcano">
    <path d="M12 2C6.477 2 2 6.477 2 12c0 4.991 3.657 9.128 8.438 9.878a10.02 10.02 0 003.187.572l-.656-.563A1.994 1.994 0 0112 20c-1.103 0-2-.897-2-2 0-.353.072-.686.186-1H5.199A9.963 9.963 0 014 12C4 7.582 7.582 4 12 4s8 3.582 8 8a9.962 9.962 0 01-1.199 4.813h-2.993c.114.314.186.647.186 1 0 1.103-.897 2-2 2-.365 0-.704-.08-1.02-.219l-.656.563a10.02 10.02 0 003.187-.572C20.343 21.128 24 16.991 24 12c0-5.523-4.477-10-10-10z"></path>
</svg>