<svg xmlns="http://www.w3.org/2000/svg" viewBox="0 0 24 24" fill="none" stroke="currentColor" stroke-width="2" stroke-linecap="round" stroke-linejoin="round" class="icon icon-quill-nib">
  <path d="M22.5 3a1.5 1.5 0 0 1 0 3 1.5 1.5 0 0 1 0-3z"></path>
  <path d="M21 3.5v5a2 2 0 0 1-2 2h-1a2 2 0 0 1-2-2v-5a2 2 0 0 1 2-2h1a2 2 0 0 1 2 2z"></path>
  <path d="M12 1h-2a2 2 0 0 0-2 2v12a2 2 0 0 0 2 2h2a2 2 0 0 0 2-2V3a2 2 0 0 0-2-2z"></path>
  <path d="M11 2.5a.5.5 0 0 1 1 0v10a.5.5 0 0 1-1 0v-10z"></path>
</svg>