<svg xmlns="http://www.w3.org/2000/svg" class="icon icon-bacterialcolony.svg* icon-galactic-nav" viewBox="0 0 24 24">
  <path fill="none" d="M0 0h24v24H0z"/>
  <path d="M13.672,2.114A9.989,9.989,0,0,0,12,2C6.477,2,2,6.477,2,12c0,3.275,1.584,6.165,3.994,7.85l.241.143.124.698a4,4,0,0,0,.217,1.36l1.45.89a3.998,3.998,0,0,0,2.853,1.06l1.516-.553.317,1.2a2.992,2.992,0,0,0,1.369.917L12,22l.359-.035a2.992,2.992,0,0,0,1.369-.917l.316-1.2,1.516,.553a3.997,3.997,0,0,0,2.853-1.06l1.45-.89a4,4,0,0,0,.217-1.36l.124-.698,.241-.143A9.986,9.986,0,0,0,22,12,9.993,9.993,0,0,0,13.672,2.114ZM4.535,18.223A7.998,7.998,0,0,1,4,12C4,8.392,6.825,5.56,10.321,5.138a8.03,8.03,0,0,1,.211,1.927l-.515.75a4,4,0,0,0-.857,1.45L7,10.5a2,2,0,1,0,1.266,2.5l1.25-2.5,1.732-1L12,10l1.752-2,1.732,1,1.25,2.5A1.993,1.993,0,0,0,17,10.5l-2.17-1a4,4,0,0,0-.857-1.45l-.515-.75a8.04,8.04,0,0,1,.211-1.927C17.175,5.56,20,8.392,20,12a7.998,7.998,0,0,1,-.535,2.223l-1.898-1.26a2.987,2.987,0,0,0-1.14-.482L14.8,13.4l-1.8,2.6L12,16,11.473,14.373,10.28,12l-1.825-.15a2.987,2.987,0,0,0-1.14,.482l-1.898,1.26Z"/>
</svg>