<svg xmlns="http://www.w3.org/2000/svg" class="icon icon-icon-star-cloud" viewBox="0 0 24 24">
  <path d="M0 0h24v24H0z" fill="none"/>
  <path d="M7 15a4 4 0 1 0-4-4 5.6 5.6 0 0 0 2.9 4.9 1 1 0 0 0 .9.1 3 3 0 0 1 2.8 2.5 4.5 4.5 0 0 0 1.4-.2 1.5 1.5 0 0 1-.6-1 3 3 0 0 1-2.9-2.3 2 2 0 1 0-1 1.9 5 5 0 0 1 4.9-3.9 3.5 3.5 0 0 1-2.8 2.2 4 4 0 0 0 1-.2 2 2 0 0 1-.1-1.8z"/>
  <path d="M14.8 9l.2.4a1 1 0 0 0 .8.6l.4 0a.5.5 0 0 1 .2.8l-.2.4a1 1 0 0 0 0 1l.3.4a.5.5 0 0 1-.8.6l-.4-.2a1 1 0 0 0-1 0l-.4.2a.5.5 0 0 1-.8-.6l.3-.4a1 1 0 0 0 0-1l-.2-.4a.5.5 0 0 1 .2-.8l.4 0a1 1 0 0 0 .8-.6l.2-.4a.5.5 0 0 1 .8 0z"/>
</svg>
