<svg xmlns="http://www.w3.org/2000/svg" viewBox="0 0 24 24" class="icon icon-dronedelivery"> 
    <path d="M12 1C6.48 1 2 5.48 2 11s4.48 10 10 10 10-4.48 10-10S17.52 1 12 1zm1 14h-2v-2h2v2zm2.07-7.75l-.9.92c-.1.1-.26.1-.36 0l-.88-.9L10.4 9l.9.9c.1.1 .1.26 0 .36l-.92.9h1.18c1.33 0 2.44.9 2.83 2.14.61-.34 1.03-.98 1.03-1.7V8.08c-1.39-.53-2.83-.01-3.64 1.25l1.06 1.06.71-.71-.71.71zm-6.14.71l-.88.9 1.06 1.06 1.28-1.28-.9-.9h1.18L8.14 9.9zm7.14 1.81c.68 0 1.26-.56 1.26-1.26S15.86 9.2 15.14 9.2s-1.26.56-1.26 1.26.56 1.27 1.26 1.27zM15.14 8c1.1 0 2 .9 2 2s-.9 2-2 2-2-.9-2-2.01c0-1.1.89-1.99 2-1.99zM8.86 8c-1.1 0-2 .9-2 2s.9 2 2 2 2-.9 2-2-.9-2-2-2z"/> 
</svg>