<svg xmlns="http://www.w3.org/2000/svg" viewBox="0 0 24 24" class="icon icon-neural-network">
    <path d="M12 22C10.343 22 9 20.657 9 19H15C15 20.657 13.657 22 12 22ZM7.602 18.8C6.379 18.094 5.5 16.668 5.5 15C5.5 11.962 8.962 10 12 10C15.038 10 18.5 11.962 18.5 15C18.5 16.668 17.621 18.094 16.398 18.8C15.169 17.973 13.653 17.5 12 17.5C10.347 17.5 8.831 17.973 7.602 18.8ZM4.312 12.3C3.253 11.33 2.5 9.794 2.5 8C2.5 5.519 5.019 4 7.5 4C9.981 4 12.5 5.519 12.5 8C12.5 9.794 11.747 11.33 10.688 12.3C8.663 11.294 6.337 11.294 4.312 12.3ZM16.5 8C16.5 5.519 14.981 4 12.5 4C10.019 4 7.5 5.519 7.5 8C7.5 9.794 8.253 11.33 9.312 12.3C11.337 11.294 13.663 11.294 15.688 12.3C14.747 11.33 16.5 9.794 16.5 8ZM19.5 8C19.5 9.794 18.747 11.33 17.688 12.3C19.713 11.294 22.039 11.294 24.064 12.3C23.123 11.33 21.5 9.794 21.5 8C21.5 5.519 18.981 4 16.5 4C14.019 4 16.5 5.519 19.5 8Z"></path>
</svg>