<svg xmlns="http://www.w3.org/2000/svg" viewBox="0 0 24 24" class="icon icon-jigsaw-puzzle-piece">
  <path d="M19.2,4H15c-1.1,0-4,0.4-4,1.8v3h5.8c1.6,0,2.2,2.9,2.2,4s-0.6,4-2.2,4H11V14c0-1.4-3.9-1.8-5-1.8H4.8C3.2,12,2.6,9.1,2.6,7s0.6-4,2.2-4h4C10.1,3,14,3.4,14,5v3H8.2C6.6,8,6,5.1,6,3s0.6-4,2.2-4h3.8C14,1,18,1.4,18,3v3h1.2C20.6,6,20,8.9,20,11S19.4,16,18,16h-4.8c-1.4,0-4.2-0.4-4.2-2v-3H4.2C2.6,11,2,13.9,2,16s0.6,4,2.2,4h4c1.1,0,5-0.4,5-2v-3h3.8c1.4,0,4.2,0.4,4.2,2v3h1.2c1.8,0,2.4-2.9,2.4-5S21,6,19.2,4z"/>
</svg>