<svg xmlns="http://www.w3.org/2000/svg" class="icon icon-octopus" viewBox="0 0 24 24">
  <path d="M12,2C6.48,2,2,6.48,2,12c0,2.71,1.08,5.13,2.83,6.9C5.87,20,8.22,22,12,22c3.65,0,5.98-1.81,7.11-3.15C20.71,17.35,22,14.94,22,12c0-5.52-4.48-10-10-10z"/>
  <path d="M6.92,7.75c-0.5,0.65-0.92,1.4-1.27,2.22c0-0.65,0.04-1.28,0.1-1.9l1.17,0.68Z"/>
  <path d="M7.84,14.54c0.72-0.17,1.46-0.27,2.22-0.31l-1.7,1.7c-0.19-0.39-0.36-0.8-0.52-1.2Z"/>
  <path d="M16,14.16c0.73,0.33,1.39,0.77,2,1.28l-1.46-1.46C16.41,13.89,16.2,14.01,16,14.16Z"/>
  <path d="M13.28,5.11c-0.22,0.26-0.42,0.54-0.61,0.83c0.82-0.14,1.67-0.16,2.51-0.05c-0.51-0.47-1.08-0.86-1.72-1.18C13.4,4.81,13.34,4.96,13.28,5.11Z"/>
</svg>