<svg xmlns="http://www.w3.org/2000/svg" viewBox="0 0 24 24" class="icon icon-falcon-rocket">
  <path d="M12 2C6.48 2 2 6.48 2 12c0 1.33.26 2.61.74 3.77.1.24.26.47.45.68v1.44l1.83-1.02c.13.03.27.05.41.07l2.2 1.2v1.32c-1.1.31-1.91 1.33-1.91 2.56 0 1.49 1.2 2.71 2.68 2.95v.79h-2V22h8v-1h-2v-.79c1.48-.24 2.68-1.46 2.68-2.95 0-1.23-.81-2.25-1.91-2.55v-1.32l2.2-1.2c.14-.02.28-.04.41-.07l1.83 1.02v-1.44c.19-.21.35-.44.45-.68.48-1.16.74-2.44.74-3.77 0-5.52-4.48-10-10-10zm2 14h-4v-1h4v1zm-2-9c-1.66 0-3 1.34-3 3s1.34 3 3 3 3-1.34 3-3-1.34-3-3-3zm0 5c-1.1 0-2-.89-2-2s.9-2 2-2 2 .89 2 2-.9 2-2 2z"/>
</svg>