<svg xmlns="http://www.w3.org/2000/svg" viewBox="0 0 24 24" class="icon icon-explorer-helmet">
  <path d="M12 2C6.48 2 2 6.48 2 12c0 5.52 4.48 10 10 10s10-4.48 10-10c0-5.52-4.48-10-10-10zm0 18c-4.41 0-8-3.59-8-8s3.59-8 8-8 8 3.59 8 8-3.59 8-8 8z"/>
  <path d="M7.05 10.14c.5 1.31 1.78 2.14 3.38 1.83 1.47-.28 2.47-1.63 2.24-3.11-.22-1.37-1.43-2.42-2.83-2.42-1.3 0-2.32 0.94-2.69 2.22-.1-.05-.21-.08-.33-.08-.5 0-.91.41-.92.92 0 .33.17.62.41.79z"/>
  <path d="M9.79 14.78c-.76-.24-1.29-.98-1.29-1.8 0-1.07.87-1.94 1.94-1.94s1.94.87 1.94 1.94c0 .82-.53 1.55-1.29 1.8.75.24 1.29.97 1.29 1.79 0 1.07-.87 1.94-1.94 1.94s-1.94-.87-1.94-1.94c0-.83.54-1.56 1.3-1.79z"/>
</svg>