<svg xmlns="http://www.w3.org/2000/svg" class="icon icon-solar-panel.svg icon-sandglass" viewBox="0 0 24 24">
  <g>
    <path d="M21,20H3a2,2,0,0,1,-2,-2V6A2,2,0,0,1,3,4H21a2,2,0,0,1,2,2V18A2,2,0,0,1,21,20Zm-2,-14H5V18H19V6Z"/>
    <path d="M5,14H19V16H5Zm4,-4H15V10H9Zm0,-4H15V6H9Z"/>
    <path d="M12,2a1,1,0,0,0,-1,1V4a1,1,0,0,0,2,0V3A1,1,0,0,0,12,2Zm0,20a1,1,0,0,0,-1,1V24a1,1,0,0,0,2,0V23A1,1,0,0,0,12,22Z"/>
    <path d="M20.3,4.7l-1.3,1.3a1,1,0,1,0,1.4,1.4l1.3,-1.3a1,1,0,0,0,-1.4,-1.4Z"/>
    <path d="M4.7,20.3l1.3,-1.3a1,1,0,1,0,-1.4,-1.4l-1.3,1.3a1,1,0,1,0,1.4,1.4Z"/>
    <path d="M16,8H8A1,1,0,0,0,8,10H16A1,1,0,0,0,16,8ZM12,12A2,2,0,1,0,12,16A2,2,0,0,0,12,12Z"/>
  </g>
</svg>