<svg xmlns="http://www.w3.org/2000/svg" class="icon icon-octopus-silhouette">
    <g id="icon-octopus-silhouette">
        <path d="M47.5,50c-13.2,0-24-10.8-24-24s10.8-24,24-24s24,10.8,24,24S60.7,50,47.5,50z"/>
        <path d="M47.5,39c6.6,0,12-5.4,12-12s-5.4-12-12-12s-12,5.4-12,12S40.9,39,47.5,39z"/>
        <path d="M32.8,29.1c-3.8-4.2-3.1-10.5,1.6-14.3s10.5-3.1,14.3,1.6"/>
        <path d="M62.2,29.1c3.8-4.2,10.1-5.5,14.3-1.6s3.1,10.5-1.6,14.3"/>
        <path d="M32.8,69.9c-3.8,4.2-10.1,5.5-14.3,1.6s-3.1-10.5,1.6-14.3"/>
        <path d="M62.2,69.9c3.8,4.2,10.1,5.5,14.3,1.6s3.1-10.5-1.6-14.3"/>
    </g>
</svg>