<svg xmlns="http://www.w3.org/2000/svg" viewBox="0 0 24 24" class="icon icon-alien-life">

<path d="M12 2C6.48 2 2 6.48 2 12s4.48 10 10 10 10-4.48 10-10S17.52 2 12 2zm-.91 13.09c-.13 0-.26.11-.3.24-1.08 3.32-3.32 5.5-6.71 6.5C5.9 21.98 11.88 22 12 22c.12 0 6.1-.02 6.88-0.18-3.35-1.02-5.66-3.24-6.79-6.73-.04-.13-.17-.2-.29-.2zM21 12h-2c-1.1 0-2-.9-2-2s.9-2 2-2h2c.55 0 1-.45 1-1s-.45-1-1-1h-2c-2.21 0-4 1.79-4 4s1.79 4 4 4h2c.55 0 1-.45 1-1s-.45-1-1-1zm-9-6c-1.66 0-3 1.34-3 3s1.34 3 3 3 3-1.34 3-3-1.34-3-3-3zm-7 0C4.34 6 3 7.34 3 9s1.34 3 3 3 3-1.34 3-3-1.34-3-3-3z"/>
  
</svg>