<svg xmlns="http://www.w3.org/2000/svg" viewBox="0 0 24 24" class="icon icon-underwater-camera">
<path d="M12 2C6.48 2 2 6.48 2 12s4.48 10 10 10 10-4.48 10-10S17.52 2 12 2zm0 18c-4.41 0-8-3.59-8-8s3.59-8 8-8 8 3.59 8 8-3.59 8-8 8zm-1-13h2v2h-2zm-.1 4.25a.885.885 0 0 0-.9.75c-.1.66.39 1.2 1.03 1.2h.03a1 1 0 0 0 1-1v-1.5h-1.16zm6.2 0h-2.14a.885.885 0 0 0-.9.75c-.1.66.39 1.2 1.03 1.2h.03a1 1 0 0 0 1-1v-1.5h1.08zm-8.9 0a1.99 1.99 0 0 0-1.99 2l.01 3c0 1.1.89 2 1.99 2h10.8c1.1 0 2-.9 2-2v-3a2 2 0 0 0-2-2h-10.8zm7.7 5h-4.6v-1h4.6v1z"/>
</svg>