<svg xmlns="http://www.w3.org/2000/svg" class="icon icon-palette-dripping-paint" viewBox="0 0 24 24">
    <path d="M11.986 2.054c4.417 0 8 3.582 8 8 0 4.01-3.06 7.436-7.065 7.95a9.005 9.005 0 0 1 1.482-2.221c1.11-1.318 1.724-2.904 1.724-4.729 0-3.314-2.686-6-6-6-2.52 0-4.652 1.57-5.6 3.83a.273.273 0 0 0 .407.325 7.087 7.087 0 0 1 1.722-1.07C7.476 6.39 9.671 6 11.986 6s4.51.39 6.424 1.139a7.014 7.014 0 0 1 1.435 1.68A7.962 7.962 0 0 1 22 10a8 8 0 1 1-2.534-5.879l-1.66.537.488-1.626 1.66-.537A7.975 7.975 0 0 1 19.986 2a7.8 7.8 0 0 0-1 .056 8.035 8.035 0 0 0-6.97-6 8 8 0 0 0-.03 6zM9 23a1 1 0 1 1 0-2 1 1 0 0 1 0 2zm-6-6a1 1 0 1 1 0-2 1 1 0 0 1 0 2zm3 3a1 1 0 1 1 0-2 1 1 0 0 1 0 2zm5-1a1 1 0 1 1 0-2 1 1 0 0 1 0 2zm3-3a1 1 0 1 1 0-2 1 1 0 0 1 0 2z"></path>
</svg>