<svg xmlns="http://www.w3.org/2000/svg" viewBox="0 0 24 24" class="icon icon-social-impact">
    <path d="M12 2C6.5 2 2 6.5 2 12s4.5 10 10 10 10-4.5 10-10S17.5 2 12 2zm1 14h-2v-2h2v2zm2.07-7.75l-.9.92C13.45 9.9 13 10.5 13 11h-2v-.5c0-.83 .67-1.5 1.5-1.5s1.5 .67 1.5 1.5v.4l1.37 1.37C15.6 12.1 16 12.5 16 13v2h2v-2c0-.83 -.67-1.5 -1.5-1.5s-1.5 .67 -1.5 1.5v.5h-2v-.5c0-1.39 1.07-2.5 2.43-2.5c.4 0 .78 .08 1.14 .23l- .64 -.64c-.36-.36-.86- .59-1.4-.59c-1.1 0 -2 .9-2 2h-2c0-2.2 1.8-4 4-4s4 1.8 4 4v2h2v-2c0-1.39-1.07-2.5 -2.43-2.5z"/>
</svg>