<svg xmlns="http://www.w3.org/2000/svg" viewBox="0 0 24 24" class="icon icon-loch-ness-monster">
  <path d="M21.55,2H17.76A6,6,0,0,0,12,8H11A6,6,0,0,0,5.24,2H2.45A1,1,0,0,0,1.55,4H4.34A4,4,0,0,1,8.29,6,6.91,6.91,0,0,1,7,8H6A4,4,0,0,1,9.71,6a7.08,7.08,0,0,1,1-.06A7.08,7.08,0,0,1,14,6a4,4,0,0,1,3.71,2H21.46A1,1,0,0,0,21.55,2Z"/>
  <path d="M20.3,5.74,22.31,7.7a1,1,0,0,0,.06-1.42l-1-.86A1,1,0,0,0,20.3,5.74Z"/>
  <path d="M4,22a3,3,0,0,0,3-3H1A3,3,0,0,0,4,22Z"/>
  <path d="M20,22a3,3,0,0,0,3-3H17A3,3,0,0,0,20,22Z"/>
  <path d="M12,22a3,3,0,0,0,3-3H9A3,3,0,0,0,12,22Z"/>
  <path d="M13,9H11a1,1,0,0,0,0,2h2a1,1,0,0,0,0-2Z"/>
</svg>