<svg xmlns="http://www.w3.org/2000/svg" viewBox="0 0 24 24" class="icon icon-globe-network">
<path d="M12,2A10,10 0 0,1 22,12A10,10 0 0,1 12,22A10,10 0 0,1 2,12A10,10 0 0,1 12,2M12,4A8,8 0 0,0 4,12A8,8 0 0,0 12,20A8,8 0 0,0 20,12A8,8 0 0,0 12,4M18.42
,12.3A1,1 0 0,1 16.92,12.3A1,1 0 0,1 16.72,12.1A1,1 0 0,1 16.42,12.1A1,1 0 0,1 15.92,12.3A1,1 0 0,1 15.42,12.3A1,1 0 0,1 14.92,12.3A1,1 0 0,1 14.42,12.3A1,1 0 0,1 13.92,12.3A1,1 0 0,1 13.42,12.3A1,1 0 0,1 12.92,12.3A1,1 0 0,1 12.42,12.3A1,1 0 0,1 11.92,12.3A1,1 0 0,1 11.42,12.3A1,1 0 0,1 10.92,12.3A1,1 0 0,1 10.42,12.3A1,1 0 0,1 9.92,12.3A1,1 0 0,1 9.42,12.3A1,1 0 0,1 8.92,12.3A1,1 0 0,1 8.42,12.3A1,1 0 0,1 7.92,12.3A1,1 0 0,1 7.42,12.3A1,1 0 0,1 6.92,12.3A1,1 0 0,1 6.42,12.3A1,1 0 0,1 5.92,12.3A1,1 0 0,1 5.42,12.3A1,1 0 0,1 4.92,12.3A1,1 0 0,1 4.42,12.3A1,1 0 0,1 4.92,12.3A1,1 0 0,1 5.42,12.3A1,1 0 0,1 5.92,12.3A1,1 0 0,1 6.42,12.3A1,1 0 0,1 6.92,12.3A1,1 0 0,1 7.42,12.3A1,1 0 0,1 7.92,12.3A1,1 0 0,1 8.42,12.3A1,1 0 0,1 8.92,12.3A1,1 0 0,1 9.42,12.3A1,1 0 0,1 9.92,12.3A1,1 0 0,1 10.42,12.3A1,1 0 0,1 10.92,12.3A1,1 0 0,1 11.42,12.3A1,1 0 0,1 11.92,12.3A1,1 0 0,1 12.42,12.3A1,1 0 0,1 12.92,12.3A1,1 0 0,1 13.42,12.3A1,1 0 0,1 13.92,12.3A1,1 0 0,1 14.42,12.3A1,1 0 0,1 14.92,12.3A1,1 0 0,1 15.42,12.3A1,1 0 0,1 15.92,12.3A1,1 0 0,1 16.42,12.3A1,1 0 0,1 16.72,12.1A1,1 0 0,1 16.92,12.3A1,1 0 0,1 17.42,12.3A1,1 0 0,1 17.92,12.3A1,1 0 0,1 18.42,12.3Z"></path>
</svg>