<svg xmlns="http://www.w3.org/2000/svg" class="icon icon-adaptive-learning" viewBox="0 0 24 24">
  <path fill="none" d="M0 0h24v24H0z"/>
  <path d="M12 2C6.477 2 2 6.477 2 12s4.477 10 10 10 10-4.477 10-10S17.523 2 12 2zm0 2a8 8 0 016.995 7.75c-.138-.112-.272-.221-.416-.33l-1.83-1.213L16 10l6 .001v2.199l-2.276-.285-.099-.043a8.008 8.008 0 01-5.34 8.68L12 17l-2.255.603a7.992 7.992 0 01-7.136-5.857L2 12l6-.001-.345-.234-1.828-1.212a7.975 7.975 0 01-.42-.331A7.963 7.963 0 0112 4zm0 6l4 2-4 2-4-2 4-2z"/>
</svg>