<svg xmlns="http://www.w3.org/2000/svg" viewBox="0 0 24 24" class="icon icon-cactus-desert">
<path d="M12 2a2 2 0 0 0-2 2v2a2 2 0 0 0-2-2 2 2 0 0 0-2 2v4a2 2 0 0 0 2 2h2a2 2 0 0 0 2-2V4a2 2 0 0 0-2-2zm6 8a2 2 0 0 0-2 2v2a2 2 0 0 0-2-2 2 2 0 0 0-2 2v4a2 2 0 0 0 2 2h2a2 2 0 0 0 2-2v-2a2 2 0 0 0 2 2 2 2 0 0 0 2 2v2a2 2 0 0 0 2-2V10a2 2 0 0 0-2-2zm-8 2a2 2 0 0 0-2 2v4a2 2 0 0 0 2 2h2a2 2 0 0 0 2-2v-4a2 2 0 0 0-2-2zm-6 4a2 2 0 0 0-2 2v4a2 2 0 0 0 2 2h2a2 2 0 0 0 2-2v-4a2 2 0 0 0-2-2zm16 0a2 2 0 0 0-2 2v4a2 2 0 0 0 2 2h2a2 2 0 0 0 2-2v-4a2 2 0 0 0-2-2zm-8 4a2 2 0 0 0-2 2v4a2 2 0 0 0 2 2h2a2 2 0 0 0 2-2v-4a2 2 0 0 0-2-2z"></path>
</svg>