<svg xmlns="http://www.w3.org/2000/svg" class="icon icon-satellite-communication" viewBox="0 0 512 512">
    <path d="M332.5 310.1c-1.2-17.4-3.9-34.7-11.7-49.6 4.9-.5 10-1.6 14.9-2.6 27.7-5.6 50.3-13.1 76.6-25.3 8.2-3.8 16.3-7.9 23-13.1 10-7.8 13.4-21.3 8.2-33.3-5.3-12.3-18.1-19.3-31.4-18.4-48.1 3.5-114.1 14.9-174.7 14.9-36.6 0-78-3.5-115.6-7.9-12-1.4-23.9 6.1-28 17.4-4.3 11.7 0 24.9 9.8 32.2 6.5 5.1 14.3 9.2 21.8 13.1 27.7 12.3 51.5 20.6 83.4 27.4-8.5 16.8-12.3 37.9-14.9 59.2-87.5-17-172-41.2-248.2-70.2-31.7-12.1-34.1-44.4-4.9-65.9 14.9-10.9 35.2-10.9 51.5 1.4 17.4-5.6 41.2-11.7 68.7-16.2 3.9 60.4 23.9 114.6 59.9 163H25c-13.8 0-25 11.7-25 25s11.2 24.9 25 24.9h437c13.8 0 25-11.7 25-24.9 0-13.9-11.2-25-25-25h-91.5c34.1-46.6 52.8-98.3 56.1-156.3zm-181-50.8c10.9 0 19.7-9.3 19.7-20.6 0-84.9-25-159.5-69.4-211.4-18.3-21.3-44.4-38.6-73.8-51C178.5 9 253.5 46.9 301.6 98.5c4.3 5.6 3.9 14-1.4 18.3-5.6 4.3-14.3 3.9-18.9-1.6-51.5-61.7-132.5-97-204.4-79.7-22.1 5.6-41.2 15.4-58.8 27.7-18.1 12.8-31.3 28.8-39.5 46.6-23 49.6 7.9 102.5 51.5 139.6 25.3 21.8 58.4 34.1 93.1 34.1zm170.3 252.4c-8.2 0-15.7-3.5-20.6-10-39.5-54.5-113.1-89.4-195.6-89.4-83.9 0-158 36.2-195.6 91.8-4.9 7.4-14.9 9.8-22.5 4.3-7.4-4.9-9.8-14.9-4.3-22.5 42.9-62.6 127.7-103.4 222.4-103.4 93.5 0 175.9 38.6 219 99.5 5.3 7.4 3.1 18.1-4.3 22.9-2.8 1.9-6.1 2.8-9.8 2.8z"></path>
</svg>