<svg xmlns="http://www.w3.org/2000/svg" class="icon icon-Alpaca-wool" viewBox="0 0 24 24">
    <path d="M12 2C6.486 2 2 6.486 2 12s4.486 10 10 10 10-4.486 10-10S17.514 2 12 2zm0 18c-4.411 0-8-3.589-8-8s3.589-8 8-8 8 3.589 8 8-3.589 8-8 8z"></path>
    <path d="M16 12c-2.967 0-3.862-2.539-3.893-2.643l-1.225-6.074A1 1 0 0 0 10 3H4a1 1 0 1 0 0 2h5.792L11 11v3.586L9.707 16.879A1 1 0 0 0 10 18h4a1 1 0 0 0 .707-1.707L13 14.586V12h3a1 1 0 1 0 0-2h-2c.005.033.032.064.047.095A4.007 4.007 0 0 1 16 12z"></path>
    <path d="M23 1h-7a1 1 0 0 0-1 1v4a1 1 0 0 0 2 0V3h6v18h-6v-2a1 1 0 1 0-2 0v4a1 1 0 0 0 1 1h7a1 1 0 0 0 1-1V2a1 1 0 0 0-1-1z"></path>
</svg>