<svg xmlns="http://www.w3.org/2000/svg" viewBox="0 0 24 24" class="icon icon-acoustic-guitar">
  <path d="M20.679 19.317C19.447 20.549 18.815 20.762 15.636 22.109L8.464 17.939C6.786 16.261 4.322 15.55 2.723 17.146C1.123 18.747 2.15 21.6 4.464 23.278L5.286 24H9.571L12.429 22.857L20.679 19.317Z"/>
  <path d="M8.464 17.939L14.929 12.714C15.453 12.19 15.566 11.232 14.966 10.366C14.586 9.78597 12.031 5.79197 14.286 3.53797C15.965 1.85797 18.531 2.26597 20.317 4.05397C22.054 5.78997 22.733 8.38197 20.679 10.75C18.727 12.702 14.366 10.354 13.571 9.55897C12.733 8.72097 13.136 7.07997 12.823 6.41497C12.616 5.96797 8.464 8.82097 8.464 8.82097L8.464 17.939Z"/>
  <path d="M9.85715 4.42897C10.9182 3.36797 11.8647 3.85797 13.5 5.49997C12.3868 4.38697 10.5874 3.95197 9.85715 4.42897Z"/>
</svg>