<svg xmlns="http://www.w3.org/2000/svg" class="icon icon-rising-phoenix">
  <path d="M10 2a2 2 0 000 4c1.1 0 2 .9 2 2s-.9 2-2 2a2 2 0 000 4c1.1 0 2 .9 2 2s-.9 2-2 2V2z"/>
  <path d="M22 2a2 2 0 000 4c1.1 0 2 .9 2 2s-.9 2-2 2a2 2 0 000 4c1.1 0 2 .9 2 2s-.9 2-2 2V2z"/>
  <path d="M6,26 L18,26 C19.1045695,26 20,26.8954305 20,28 L20,30 C20,31.1045695 19.1045695,32 18,32 L6,32 C4.8954305,32 4,31.1045695 4,30 L4,28 C4,26.8954305 4.8954305,26 6,26 Z M7,14 L13,14 L13,20 L11,20 L11,22 L9,22 L9,20 L7,20 L7,14 Z">
</svg>