<svg xmlns="http://www.w3.org/2000/svg" class="icon icon-tree-roots" viewBox="0 0 32 32">
  <path d="M16.5 22V12h-5l-5 5v1h3.516c.937-.379 1.968-.641 3.025-.763V15H16.5z"/>
  <path d="M16 14h1.984v1.984A7.021 7.021 0 0116 15v-1z"/>
  <path d="M16 20v2c-1.061 0-2.016-.938-2.016-2.016H16z"/>
  <path d="M17 22.016V24h1.984v-1.984H17z"/>
  <path d="M16.5 12V22h-5l5-5v-1h2.016C17.438 15.983 16.87 14.07 16.5 12z"/>
  <path d="M10.5 27.484V29H9.015c1.078-.938 2.047-1.953 2.953-3.016H10.5z"/>
  <path d="M16 20.016V22h-2.016c0-1.078.938-1.984 2.016-1.984z"/>
  <path d="M22.484 29v-1.516h-1.969c.906 1.063 1.875 2.078 2.953 3.016H22.484z"/>
  <path d="M7.516 26.484V28h1.969c-.906-1.062-1.875-2.077-2.953-3.016H7.516z"/>
  <path d="M15.984 24V22.016H14c0 1.078.938 1.984 1.984 1.984z"/>
  <path d="M24 22.016V24h1.984v-1.984H24z"/>
  <path d="M24.484 26.484c-1.078.939-2.047 1.953-2.953 3.016h1.969V26.484z"/>
</svg>