<svg xmlns="http://www.w3.org/2000/svg" class="icon icon-cybernetic-implant" viewBox="0 0 24 24">
  <path d="M12 2C6.48 2 2 6.48 2 12s4.48 10 10 10 10-4.48 10-10S17.52 2 12 2zm0 18c-4.41 0-8-3.59-8-8s3.59-8 8-8 8 3.59 8 8-3.59 8-8 8z"/>
  <path d="M16.5 13c-.28 0-.5-.22-.5-.5V11h-1v1.5c0 .28-.22.5-.5.5s-.5-.22-.5-.5V11h-1v1.5c0 .28-.22.5-.5.5s-.5-.22-.5-.5V11h-1v1.5c0 .28-.22.5-.5.5s-.5-.22-.5-.5V11h-1v1.5c0 .28-.22.5-.5.5s-.5-.22-.5-.5V11H7.5c-.28 0-.5-.22-.5-.5s.22-.5.5-.5H9V8.5c0-.28.22-.5.5-.5s.5.22.5.5V10h1V8.5c0-.28.22-.5.5-.5s.5.22.5.5V10h1V8.5c0-.28.22-.5.5-.5s.5.22.5.5V10h1V8.5c0-.28.22-.5.5-.5s.5.22.5.5V10h1.5c.28 0 .5.22.5.5s-.22.5-.5.5h-1.5v1.5c0 .28-.22.5-.5.5z"/>
</svg>