<svg xmlns="http://www.w3.org/2000/svg" viewBox="0 0 24 24" class="icon icon-octopus-maritime.svg icon-ship-wheel">
    <path d="M12 2C6.48 2 2 6.48 2 12s4.48 10 10 10 10-4.48 10-10S17.52 2 12 2zm3 15l1-1 1-1-1-1-1 1-1 1 1 1zm-6-8V7h2V6h-1V5h-1v1h-1v1h-1v2h2zm8 0h-2V7h-2V6h3v1zm1-5h-4v1h2v2h2V6zm-6.5 6c-2.48 0-4.5-2.02-4.5-4.5S7.52 7.5 10 7.5s4.5 2.02 4.5 4.5-2.02 4.5-4.5 4.5zm0-7c-1.38 0-2.5 1.12-2.5 2.5S8.62 10 10 10s2.5-1.12 2.5-2.5S11.38 5 10 5zm-7 7v2h1v-1h1V11H3zM21 11h-2v1h1v1h1v-2zm-1 5h-2v2h2v-2zM3 16h2v-2H3v2zm17-7h-1v2h2v-2h-1z"></path>
</svg>