<svg xmlns="http://www.w3.org/2000/svg" class="icon icon-virtual-reality icon-carbon-emission" viewBox="0 0 24 24">
    <path d="M0 0h24v24H0z" fill="none"/>
    <path d="M12 2C6.48 2 2 6.48 2 12s4.48 10 10 10 10-4.48 10-10S17.52 2 12 2zm0 2c1.33 0 2.58.26 3.76.74l-1.68 1.68c-.91-.23-1.89-.32-2.95-.32-1.6 0-3.1.39-4.44 1.12l1.72 1.72C9.37 8.35 10.68 8 12 8c4.42 0 8 3.58 8 8 0 1.33-.26 2.58-.74 3.76l1.68 1.68C21.24 19.58 22 16.15 22 12c0-5.52-4.48-10-10-10zm-1 14h2v2h-2v-2zm0-4h2v3h-2v-3z" fill="currentColor">
</svg>