<svg xmlns="http://www.w3.org/2000/svg" class="icon icon-fossil" viewBox="0 0 24 24">
    <path d="M12 2C6.485 2 2 6.485 2 12s4.485 10 10 10 10-4.485 10-10S17.515 2 12 2zm0 18c-.891 0-1.783-.156-2.672-.469l.672-.672c.859-.859.859-2.242 0-3.102-.86-.859-2.244-.859-3.102 0l-1.344 1.344C4.817 15.127 4 13.596 4 12c0-4.411 3.589-8 8-8s8 3.589 8 8-3.589 8-8 8z"/>
    <path d="M12.557 9.172a1.997 1.997 0 01-2.276.732 2 2 0 11-2.235-3.349 1.992 1.992 0 012-.733c.872.159 1.62.783 1.978 1.617.161-.05.326-.072.493-.072 1.103 0 2 .897 2 2 0 .167-.021.331-.062.492l.873.873c.859.859.859 2.242 0 3.102-.86.859-2.244.859-3.102 0l-1.344-1.344c.313.964 1.044 1.777 1.993 2.23.951.452 2.076.504 3.09.03l1.104 1.103a8.01 8.01 0 002.028-2.111l-1.102-1.102c-.474.015-.952-.136-1.361-.446a1.992 1.992 0 01-2.034-.733z"/>
</svg>