<svg xmlns="http://www.w3.org/2000/svg" viewBox="0 0 24 24" class="icon icon-clocktower">
    <path d="M12,2C11.447,2,11,2.447,11,3v6H7c-0.553,0-1,0.447-1,1s0.447,1,1,1h5c0.553,0,1-0.447,1-1V3
        C13,2.447,12.553,2,12,2z" />
    <path d="M21,11H3c-1.65,0-3,1.35-3,3v7c0,1.65,1.35,3,3,3h18c1.65,0,3-1.35,3-3v-7C24,12.35,22.65,11,21,11z
         M12,21c-2.76,0-5-2.24-5-5s2.24-5,5-5s5,2.24,5,5S14.76,21,12,21z" />
    <path d="M12,12c-2.21,0-4,1.79-4,4s1.79,4,4,4s4-1.79,4-4S14.21,12,12,12z M12,18c-1.1,0-2-0.9-2-2s0.9-2,2-2
        s2,0.9,2,2S13.1,18,12,18z" />
</svg>