<svg xmlns="http://www.w3.org/2000/svg" class="icon icon-vintage-phone" viewBox="0 0 24 24">
    <path d="M15.897 2c-1.602 0-3.093.642-4.205 1.803l.478.732c1.054-1.052 2.442-1.654 3.803-1.654s2.736.588 3.766 1.6c1.03-1.027 2.408-1.615 3.766-1.615 1.353 0 2.744.588 3.802 1.654l.478-.732c-1.117-1.161-2.603-1.782-4.205-1.782-1.602 0-3.09.621-4.183 1.802-1.093-1.181-2.58-1.802-4.183-1.802zm-4.897 5.73c-1.602 0-3.09.617-4.183 1.802l.478.732c1.06-1.043 2.448-1.64 3.803-1.64s2.736.582 3.766 1.59c1.027-1.008 2.406-1.596 3.766-1.596 1.354 0 2.744.588 3.803 1.64l.478-.732c-1.093-1.185-2.58-1.802-4.183-1.802-1.602 0-3.09.617-4.186 1.808v-.006zm-4.897 4.543c-1.602 0-3.09 .614-4.183 1.8l.478 .732c1.06-1.045 2.448-1.64 3.803-1.64s2.736 .582 3.766 1.59c1.027-1.008 2.406-1.595 3.766-1.595 1.354 0 2.744 .587 3.803 1.64l.479-.732c-1.093-1.185-2.58-1.8-4.183-1.8-1.602 0-3.09 .614-4.182 1.805v-.005zm.355 2.932c1.166 0 2.3 .423 3.211 1.192l4.588 4.212.942-.655-4.587-4.211c-.811-.772-1.936-1.166-3.154-1.166-1.218 0-2.344 .393-3.157 1.165l-4.587 4.212.941 .655 4.588-4.212c.911-.761 2.045-1.191 3.211-1.191z"/>
</svg>