<svg xmlns="http://www.w3.org/2000/svg" class="icon icon-spilled-ink" viewBox="0 0 24 24">
    <path d="M12 2C6.48 2 2 6.48 2 12c0 1.33.26 2.61.74 3.77.1.24.26.47.45.68.1.11.21.21.33.3l.14.13.15.13c.12.11.25.21.39.3l.16.12.18.11c.13.08.26.15.4.22l.19.1.21.08c.14.06.3.11.45.16l.23.07.24.04c.16.04.32.08.49.11l.26.03.27.01C9.33 18.04 10.65 18 12 18c5.52 0 10-4.48 10-10S17.52 2 12 2zm-1.5 14.5v2h3v-2h-3zm1.5-6c-1.66 0-3 1.34-3 3 0 .14.02.27.04.4l1.96-.49.89 1.78c.09-.05.2-.08.31-.11l.69-2.88H13c1.1 0 2-.9 2-2 0-.59-.26-1.11-.65-1.44-.39-.34-.92-.56-1.47-.56h-.02c-.32 0-.63.07-.92.19-.29.12-.54.29-.76.51s-.41.48-.51.76-.19.6-.19.92z"/>
</svg>