<svg xmlns="http://www.w3.org/2000/svg" viewBox="0 0 24 24" class="icon icon-einstein">
    <path d="M12,2C6.47,2,2,6.47,2,12s4.47,10,10,10s10-4.47,10-10S17.53,2,12,2z M9.29,16.66c-0.39-0.39-1.02-0.39-1.41,0c-0.39,0.39-0.39,1.02,0,1.41c0.39,0.39,1.02,0.39,1.41,0C9.68,17.68,9.68,17.05,9.29,16.66z M7.05,12c0-0.46,0.31-0.85,0.75-0.98c0.1-0.03,0.21-0.04,0.32-0.02c0.71,0.13,1.23,0.73,1.27,1.46c0.01,0.17-0.03,0.34-0.1,0.49c-0.13,0.29-0.38,0.52-0.7,0.65C7.6,13.82,7,14.89,7,16h2c0-0.65,0.26-1.25,0.7-1.7C9.99,13.92,10.07,13,10,12c0-1.1-0.9-2-2-2c-1.1,0-2,0.9-2,2H7.05L7.05,12z M15,16c-0.34,0-0.67-0.09-0.96-0.26c-0.32-0.18-0.56-0.45-0.7-0.77c-0.07-0.16-0.11-0.33-0.11-0.51c0-0.73,0.52-1.33,1.23-1.46c0.11-0.02,0.22-0.01,0.32,0.02c0.44,0.13,0.75,0.52,0.75,0.98l0,0h2C17,11.9,16.1,11,15,11c-1.1,0-2,0.9-2,2c-0.07,1-0.01,1.92,0.3,2.7c0.44,0.45,1.06,0.7,1.7,0.7l0,0h2C17,14.89,16.4,13.82,15,16L15,16L15,16z M14.71,16.66c-0.39,0.39-1.02,0.39-1.41,0c-0.39-0.39-0.39-1.02,0-1.41c0.39-0.39,1.02-0.39,1.41,0S15.1,16.27,14.71,16.66L14.71,16.66z"></path>
</svg>