<svg xmlns="http://www.w3.org/2000/svg" class="icon icon-doublehelix" viewBox="0 0 24 24">
  <path d="M12 2C6.48 2 2 6.48 2 12s4.48 10 10 10 10-4.48 10-10S17.52 2 12 2zm0 2c1.93 0 3.68.79 5 2.55C15.68 6.79 13.93 6 12 6s-3.68.79-5 2.06C8.32 4.79 10.07 4 12 4zm5 16.45c-1.32-1.76-3.07-2.55-5-2.45 2-.1 3.68.69 5 2.45zM8 17.54c-.32-.37-.63-.76-.95-1.16.32.4.63.79.95 1.16zM12 6c-1.93 0-3.68.79-5 2.09.68-.59 1.42-1.08 2.2-1.49.78.41 1.52.9 2.2 1.49C8.32 6.79 10.07 6 12 6zm0 12c-1.93 0-3.68-.79-5-2.09 1.32 1.3 3.07 2.09 5 2.09s3.68-.79 5-2.09c-1.32 1.3-3.07 2.09-5 2.09z"></path>
</svg>