<svg xmlns="http://www.w3.org/2000/svg" class="icon icon-mystic-compass" viewBox="0 0 24 24">
    <path d="M12 2C6.48 2 2 6.48 2 12s4.48 10 10 10 10-4.48 10-10S17.52 2 12 2zm3.59 14.42l-1.59-.58-.59-1.56-4.24-1.65 6.23 2.6-1.71 1.79c-.39.39-1.02.39-1.41 0l-.29-.3zm3-5.27l-7.9-3.25-.3-.05c-.52-.1-1.05.25-1.14.78-.1.48.24 1.06.77 1.14l1.95.37-2.71 2.83-.3-.3c-.39-.39-1.02-.39-1.41 0l-.29.29c-.39.39-.39 1.02 0 1.41l2.83 2.83-.37 1.91c-.08.52.39.93.92.92.44 0 .81-.32.92-.77l.05-.32 6.04-6.05zm-1.27-1.09L4 22h16c1.1 0 2-.9 2-2V6c0-1.1-.9-2-2-2H6C4.89 4 4 4.9 4 6v9.66l5.57-2.29l1.43-1.45-1.43-7.5l6.15 6.16z"></path>
</svg>