<svg xmlns="http://www.w3.org/2000/svg" class="icon icon-digital-matrix" viewBox="0 0 24 24">
  <rect x="2" y="2" width="4" height="4" />
  <rect x="8" y="2" width="4" height="4" />
  <rect x="14" y="2" width="4" height="4" />
  <rect x="20" y="2" width="4" height="4" />
  <rect x="2" y="8" width="4" height="4" />
  <rect x="8" y="8" width="4" height="4" />
  <rect x="14" y="8" width="4" height="4" />
  <rect x="20" y="8" width="4" height="4" />
  <rect x="2" y="14" width="4" height="4" />
  <rect x="8" y="14" width="4" height="4" />
  <rect x="14" y="14" width="4" height="4" />
  <rect x="20" y="14" width="4" height="4" />
  <rect x="2" y="20" width="4" height="4" />
  <rect x="8" y="20" width="4" height="4" />
  <rect x="14" y="20" width="4" height="4" />
  <rect x="20" y="20" width="4" height="4" />
</svg>