<svg xmlns="http://www.w3.org/2000/svg" class="icon icon-medical-drone-delivery" viewBox="0 0 24 24">
  <path d="M12 22H20V20H12V22ZM2 9H22V7H2V9ZM6 20H10V18H6V20ZM9 3H15V1H9V3ZM16.92 5.08L19.08 3L20.5 4.5L18.42 6.58L16.92 5.08ZM7.08 5.08L4.92 3L3.5 4.5L5.58 6.58L7.08 5.08ZM16.92 16.5L18.42 17.92L20.5 15.82L19.08 14.42L16.92 16.5ZM7.08 16.5L5.58 17.92L3.5 15.82L4.92 14.42L7.08 16.5ZM12 10C15.31 10 18 12.69 18 16H6C6 12.69 8.69 10 12 10ZM12 12C10.34 12 9 13.34 9 15H15C15 13.34 13.66 12 12 12Z" />
</svg>