<svg xmlns="http://www.w3.org/2000/svg" class="icon icon-yo-yo" viewBox="0 0 24 24">
  <path d="M11.9 2.1a6 6 0 0 1 6 6c0 4.08-5 10-6 11-.36-.38-1.43-1.44-2.1-2.1.96-1.96 1.9-3.9 2.9-5.9a4 4 0 0 0-1-5.5 4 4 0 0 0-5.5 1c2 1 4 2 5.9 2.9.66-.67 1.7-1.72 2.1-2.1 1-1 2-2 2-3a4 4 0 0 0-7-2 4 4 0 0 0-2 3.4c0 2.15 1.2 4.2 2.1 5.6-.9-.9-1.9-1.9-2.9-2.9a4 4 0 0 0-5.5-1 4 4 0 0 0 1 5.5c1 1 2 2 2.9 2.9-.67.67-1.73 1.72-2.1 2.1-.36.36-1.44 1.42-2.1 2.1-1-1-2.74-2.92-2.74-5a4 4 0 0 0 1-2.4 4 4 0 0 0-2-3.4 4 4 0 0 0-3.4 2 6 6 0 0 1 11.8 0z"/>
  <path d="M12 22c-1 1-2.9 3-4 4-3-3-6-6-9-9 1-1 2-2 3-3 3 3 6 6 9 9 1-1 2.9-3 4-4 3 3 6 6 9 9 1-1 2-2 3-3-3-3-6-6-9-9z"/>
</svg>