<svg version="1.1" id="icon-hexagonal-grid" xmlns="http://www.w3.org/2000/svg" xmlns:xlink="http://www.w3.org/1999/xlink" class="icon icon-hexagonal-grid" viewBox="0 0 128 128">
    <polygon points="32.8,4.8 64,4.8 95.2,32.8 95.2,64 64,92 32.8,64 "/>
    <polygon points="4.8,32.8 36,32.8 67.2,60.8 67.2,92 36,119.2 4.8,92 "/>
    <polygon points="60.8,32.8 92,32.8 123.2,60.8 123.2,92 92,119.2 60.8,92 "/>
    <polygon points="32.8,64 64,64 95.2,92 95.2,123.2 64,151.2 32.8,123.2 "/>
    <polygon points="4.8,92 36,92 67.2,119.2 67.2,150.4 36,177.6 4.8,150.4 "/>
    <polygon points="60.8,92 92,92 123.2,119.2 123.2,150.4 92,177.6 60.8,150.4 "/>
</svg>