<svg xmlns="http://www.w3.org/2000/svg" class="icon icon-3d-printer.svg icon-rocket-launch" viewBox="0 0 24 24">
    <path d="M0 0h24v24H0z" fill="none"/>
    <path d="M5 2a1 1 0 0 1 1 1v4a1 1 0 0 1 1 1v1H8v2h2v-2h4v2h2v-2h-1V8a1 1 0 0 1 1-1V3a1 1 0 0 1 1-1h3v2h-2v4a3 3 0 0 1-3 3h-4v3h2a1 1 0 0 1 1 1v3a1 1 0 0 1-1 1h-4a1 1 0 0 1-1-1v-3a1 1 0 0 1 1-1h2v-3H8a3 3 0 0 1-3-3V4H3V2h2zm14 8a1 1 0 0 0-1 1v2h2v-2a1 1 0 0 0-1-1zm-8 0a1 1 0 0 0-1 1v2h2v-2a1 1 0 0 0-1-1zM2.929 12.929l1.414 1.414A4.987 4.987 0 0 0 2 19l.07-.071l1.414 1.414A4.987 4.987 0 0 0 7.071 19l-1.414-1.414l1.414-1.414A4.987 4.987 0 0 0 2 12.929zm14.142 0l1.414 1.414A4.987 4.987 0 0 0 19 12.929l-1.414 1.414l-1.414-1.414A4.987 4.987 0 0 0 19 7.071l1.414 1.414A4.987 4.987 0 0 0 22 7l-.07.071L22.07 5.657A4.987 4.987 0 0 0 19 7.071l-1.414-1.414l-1.414 1.414A4.987 4.987 0 0 0 12.929 2.929l1.414 1.414A4.987 4.987 0 0 0 12.929 2l-.071.07L11.444.657A4.987 4.987 0 0 0 7.071 2l1.414 1.414L7.071 4.828A4.987 4.987 0 0 0 2 7.071l1.414-1.414L2 7.071a4.987 4.987 0 0 0 2.929 4.858z"/>
</svg>