<svg xmlns="http://www.w3.org/2000/svg" viewBox="0 0 512 512" fill="none" stroke="currentColor" stroke-width="32" stroke-linecap="round" stroke-linejoin="round" class="icon icon-magnetic-field">
   <path d="M462.2,164.2c-45.4,0-88.6,22.6-113.6,57.8c-25.1-35.3-68.2-58-113.7-58c-78.3,0-141.9,63.6-141.9,141.9c0,78.3,63.6,141.9,141.9,141.9c45.5,0,88.6-22.6,113.6-57.8c25.1,35.2,68.2,57.8,113.7,57.8c78.3,0,141.9-63.6,141.9-141.9C604.1,227.9,540.5,164.2,462.2,164.2L462.2,164.2z M227.9,409.9c-32.1,0-58.1-26-58.1-58.1s26-58.1,58.1-58.1s58.1,26,58.1,58.1S260,409.9,227.9,409.9L227.9,409.9z M462.2,409.9c-32.1,0-58.1-26-58.1-58.1s26-58.1,58.1-58.1s58.1,26,58.1,58.1S494.3,409.9,462.2,409.9L462.2,409.9z M227.9,293.7"></path>
</svg>