<svg xmlns="http://www.w3.org/2000/svg" viewBox="0 0 24 24" class="icon icon-melting-clock">
  <path d="M12 2C6.48 2 2 6.48 2 12s4.48 10 10 10 10-4.48 10-10S17.52 2 12 2zm0 18c-4.42 0-8-3.58-8-8s3.58-8 8-8 8 3.58 8 8-3.58 8-8 8z"/>
  <path d="M12.5 7H11v6l5.25 3.15.75-1.23-4.5-2.67z"/>
  <path d="M11 1h2v2h-2zm4.25 1.45l1.13 1.13-1.08-.46-.05-1.67zm-6.69 0l1.67.05-.46 1.08-1.21-1.13zM1 12h2c0-4.97 4.03-9 9-9V1C6.48 1 1 6.48 1 12zm18.5-1c.35 0 .69.07 1 .09V10h-2c0 4.97-4.03 9-9 9v2c5.52 0 10-4.48 10-10zm-.25-6.45l1.13 1.13-1.67-.05.54-1.08zM7.05 2.95l1.08.46-1.13-1.13-.46 1.67zm14.2 5.94V8c-.31-.02-.64-.05-1-.05h2zm-16 0V8c-.36.02-.69.04-1 .05h2z"/>
</svg>