<svg xmlns="http://www.w3.org/2000/svg" viewBox="0 0 24 24" class="icon icon-icon-satellite">
  <path d="M0 0h24v24H0z" fill="none"/>
  <path d="M12 4a4 4 0 0 1 4 4 4 4 0 0 1-1 2.5l-2.9-.8a1.981 1.981 0 0 0-1.1-.1L7 8a1.981 1.981 0 0 0-1 .27V6a4 4 0 0 1 4-4 4 4 0 0 1 2 .6 4 4 0 0 1 2-.6zm0 2a2 2 0 0 0-1 .3V8a1.981 1.981 0 0 0 1-1.7zm1.45 8.032l-1.962-.393a4.002 4.002 0 0 1-7.978-2.223l1.5 .302a2 2 0 0 0 2.682.914l.309-.132-3.13-7.1a4.004 4.004 0 0 1 2.323 2.06l1.964.393a4.002 4.002 0 0 1 7.313 2.942l-1.5-.302a2 2 0 0 0-1.226 2.537l.02 .066 1 .133a4.002 4.002 0 0 1-0 2.717z"/>
</svg>
