<svg xmlns="http://www.w3.org/2000/svg" viewBox="0 0 24 24" class="icon icon-eco-friendly">
    <path d="M12.018 2.012a1.51 1.51 0 0 0-.04 2.99 1.51 1.51 0 1 0 .04-2.99zm9.396 6.147a1.395 1.395 0 1 0-1.982 1.962 1.395 1.395 0 0 0 1.982-1.962zM2.65 15.839a1.332 1.332 0 1 0 1.9 1.877 1.332 1.332 0 0 0-1.9-1.877zm17.132.045a1.275 1.275 0 1 0-1.813 1.803 1.274 1.274 0 0 0 1.813-1.803zM12.01 22.098a1.196 1.196 0 1 0 0-2.392 1.196 1.196 0 0 0 0 2.392zM4.338 8.839a1.158 1.158 0 1 0 .01-2.316 1.158 1.158 0 0 0-.01 2.316zm7.015-5.57a1.09 1.09 0 1 0-.033-2.18A1.09 1.09 0 0 0 11.353 3.27zm-4.672 14.98a1.03 1.03 0 1 0-1.458-1.457 1.03 1.03 0 0 0 1.458 1.457zm9.4 4.038a.97 .97 0 1 0-1.382-1.372.97 .97 0 0 0 1.382 1.372zM21.36 19.384a.918 .918 0 1 0-1.306-1.295.918 .918 0 0 0 1.306 1.296zm-9.4-14.08a.863 .863 0 1 0-.028-1.725.863 .863 0 0 0 .028 1.725z"></path>
    <path d="M12.01 23.7c6.47 0 11.69-5.23 11.69-11.7S18.48 0 12.01 0 0 5.23 0 11.7s5.23 11.69 12.01 11.69zm0-.99C5.89 22.71 1.01 17.82 1.01 11.7S5.89 .68 12.01 .68 22.99 5.58 22.99 11.7s-4.88 11.02-10.98 11.02z"></path>
</svg>