<svg xmlns="http://www.w3.org/2000/svg" class="icon icon-virtual-reality.svg icon-global-network" viewBox="0 0 24 24">
    <path d="M12 2C6.48 2 2 6.48 2 12s4.48 10 10 10 10-4.48 10-10S17.52 2 12 2zm0 18c-4.41 0-8-3.59-8-8s3.59-8 8-8 8 3.59 8 8-3.59 8-8 8zm-2-13.5v2.67c0 .53.67 .81 1.07 .42l2-2.34c.19-.22.5-.31.8-.27L13 7v2c0 .55-.45 1-1 1h-4c-.55 0-1-.45-1-1V6.5c0-.28-.22-.5-.5-.5s-.5.22-.5.5zm9.02 1.64c-.14-.17-.35-.26-.57-.26h-1.94l4.14 1.94c.44-.45.7-1.04.7-1.68v-1c0-.22-.08-.42-.22-.58z"/>
</svg>