<svg xmlns="http://www.w3.org/2000/svg" viewBox="0 0 24 24" class="icon icon-chained-link">
<path d="M0 0h24v24H0z" fill="none"/>
<path d="M4.12 21.498l1.414-1.414a8 8 0 001.372-10.364l.804-.805a6 6 0 018.486 8.492l1.06 1.06a8 8 0 01-11.314 11.313l-1.418 1.414a9.932 9.932 0 01-1.405-8.685zM4.93 12.787l1.414-1.413a4 4 0 015.657 0l-.829.827a6 6 0 00-8.485-8.498l-.807.805a8 8 0 013.05 8.279zm10.606-6.417l-1.412-1.415a4 4 0 00-5.656 0l.828.828a6 6 0 018.483 8.498l.805-.804a8 8 0 00-3.05-8.28V6.37zm-2.828 2.828l-1.414 1.414a4 4 0 010-5.658l-.827-.827a6 6 0 00-8.486 8.498l.805-.807a8 8 0 0110.364-1.372l1.415-1.414a9.932 9.932 0 00-1.403-8.687V9.19z"/>
</svg>