<svg xmlns="http://www.w3.org/2000/svg" class="icon icon-gear-wheel" viewBox="0 0 24 24">
  <path d="M12 9c1.656 0 3 1.344 3 3s-1.344 3-3 3-3-1.344-3-3 1.344-3 3-3zm7.406 1.906c-.266-.781-.688-1.484-1.219-2.031l.719-.719-2.781-2.781-.719 .719c-.547-.531-1.25-.953-2.031-1.219l-.375-1.031h-3.562l-.375 1.031c-.781.266-1.484.688-2.031 1.219l-.719-.719-2.781 2.781.719 .719c-.531.547-.953 1.25-1.219 2.031l-1.031.375v3.562l1.031 .375c.266 .781 .688 1.484 1.219 2.031l-.719 .719 2.781 2.781 .719-.719c.547 .531 1.25 .953 2.031 1.219l.375 1.031h3.562l.375-1.031c.781-.266 1.484-.688 2.031-1.219l.719 .719 2.781-2.781-.719-.719c.531-.547 .953-1.25 1.219-2.031l1.031-.375v-3.562l-1.031-.375zm-1.875 2.188l1.219 .469v1.875l-1.219 .469c-.234 .703-.609 1.36-1.094 1.938l.688 .688-2.094 2.094-.688-.688c-.578 .484-1.235 .859-1.938 1.094l-.469 1.219h-1.875l-.469-1.219c-.703-.234-1.359-.609-1.938-1.094l-.688 .688-2.094-2.094 .688-.688c-.484-.578-.859-1.234-1.094-1.938L4.47 12.75v-1.875l1.219-.469c.234-.703 .609-1.359 1.094-1.938l-.688-.688 2.094-2.094 .688 .688c.578-.484 1.234-.859 1.938-1.094l.469-1.219h1.875l.469 1.219c.703 .235 1.359 .61 1.938 1.094l.688-.688 2.094 2.094-.688 .688c.484 .579 .859 1.235 1.094 1.938l1.188 .437"/>
</svg>