<svg xmlns="http://www.w3.org/2000/svg" class="icon icon-metal-gear" viewBox="0 0 24 24">
  <path d="M12 2C6.47738 2 2 6.47738 2 12C2 17.5226 6.47738 22 12 22C17.5226 22 22 17.5226 22 12C22 6.47738 17.5226 2 12 2ZM9.28906 16.7109C8.89783 16.7109 8.23828 16.4677 8.23828 15.9766C8.23828 15.7031 8.48151 15.3438 8.64974 15.1221C9.11068 14.5111 9.90551 14.1687 10.5213 14.1687H13.8412C14.581 14.1687 16.1085 14.489 16.3289 15.2631C16.3721 15.4182 16.4658 15.5476 16.6178 15.6365C17.0914 15.9159 17.5 16.1938 17.5 16.6334C17.5 16.9684 17.2318 17.2376 16.8968 17.2376H9.28906V16.7109Z" />
</svg>