<svg xmlns="http://www.w3.org/2000/svg" viewBox="0 0 64 64" class="icon icon-steampunk-gear.svg* icon-satellite">
  <path d="M32,34a6,6,0,1,1,6-6A6.007,6.007,0,0,1,32,34ZM48.687,39.362A37.674,37.674,0,0,0,32,40a37.674,37.674,0,0,0-16.687-2.258,30.606,30.606,0,0,1,6.394-8.552,11.978,11.978,0,0,0,5.846.553,11.978,11.978,0,0,0,5.846-.553,30.606,30.606,0,0,1,6.394,8.552Z"/>
  <path d="M32,10a22,22,0,0,0-22,22,22.443,22.443,0,0,0,2.175,10H15.5A6.657,6.657,0,0,1,22,42a6.583,6.583,0,0,1,.874,3.257A30.032,30.032,0,0,1,10.132,52H31.632A51.741,51.741,0,0,0,32,42h8a6.72,6.72,0,0,1-.593,3.527A29.625,29.625,0,0,1,54,46,22.192,22.192,0,0,0,52,32A22,22,0,0,0,32,10ZM8,56A6,6,0,1,0,6,66,5.99,5.99,0,0,0,8,56Z"/>
  <path d="M71.2,52.8a4,4,0,1,0-4,4A4.005,4.005,0,0,0,71.2,52.8Z"/>
  <path d="M19.5,3A19.5,19.5,0,0,0,0,22.5,19.382,19.382,0,0,0,2.55,30H11.5a10.721,10.721,0,0,1-.088-1.5,11,11,0,0,1,22,0,10.138,10.138,0,0,1-.377,2.75A19.68,19.68,0,0,0,30.694,22.5,19.5,19.5,0,0,0,19.5,3Z"/>
</svg>
