<svg xmlns="http://www.w3.org/2000/svg" viewBox="0 0 512 512" class="icon icon-JavaScript">
  <path d="M0,51V460a12,12,0,0,0,12,12H499a12,12,0,0,0,12-12V51a12,12,0,0,0-12-12H12A12,12,0,0,0,0,51ZM188.28,354.47c-40.71,0-55.93-21.38-66.7-40.76l36.82-22.49c8.85,15.31,17.7,29,30.73,29,13.85,0,23.11-7.65,23.11-35.91V184.59H261V299.74C261,331.86,224.45,354.47,188.28,354.47ZM357.62,374c-51.66,0-92-32.24-102.8-76.23l39.47-22.22c7.65,16.57,20.58,30.73,43.46,30.73,24.72,0,39.48-11.63,39.48-27.56,0-19.25-16.57-27.3-43.46-39.48-30.73-13.85-63.45-27.3-63.45-73.56,0-40.76,33.29-68.81,81.5-68.81,33.93,0,61.59,11.64,77.24,43.46l-36.82,24.72c-6.42-12.34-16.57-20.58-32.23-20.58-17.7,0-29,10.48-29,24.72,0,17.7,11.63,25.75,36.8,37.59c32.24,14.87,66.7,29.73,66.7,76.23C454.16,345.16,417.6,374,357.62,374Z">
  </path>
</svg>