<svg xmlns="http://www.w3.org/2000/svg" class="icon icon-dna-replication">
  <path d="M2 2.5C2 1.67 2.67 1 3.5 1H6c1.38 0 2.5 1.12 2.5 2.5v2c-1.61 0-3.11.91-4 2.5 1.22 1.11 2.78 1.83 4.5 2V12c0 1.38-1.12 2.5-2.5 2.5H3.5c-.83 0-1.5-.67-1.5-1.5V8c1.61 0 3.11-.91 4-2.5C5.78 4.39 4.22 3.67 2.5 4V2.5z"/>
  <path d="M8 2.5C8 1.67 7.33 1 6.5 1h-3C2.12 1 1 2.12 1 3.5v2C2.61 5.91 4.11 7 5 8.5 3.78 9.61 2.22 10.33 1 10v2.5c0 .83 .67 1.5 1.5 1.5h3c1.38 0 2.5-1.12 2.5-2.5v-2c-1.61 0-3.11-.91-4-2.5C6.22 4.39 7.78 3.67 9 4V2.5z"/>
</svg>