<svg xmlns="http://www.w3.org/2000/svg" viewBox="0 0 24 24" class="icon icon-icon-rocketship">
    <path d="M0 0h24v24H0z" fill="none"/>
    <path d="M3 13c0 1.5 .5 3 1.353 4.618l1.347 1.982c.124.18 .372.291 .544 .284l2.170-.051c.306-.007.55-.23.613-.514l.632-2.890-1.516-1.515c-3.16-.924-5.526-3.29-6.45-6.45L6.29 7.835L3.5 8.5l-.45-.45c-.708-.955-1.017-2.108-.925-3.315l.263-.24C3.5 2 7.5 3 12 3c4.418 0 8-2 8-2v8s-2 3.582-2 7.985c-.68 1.876-2.162 3-4 3s-3.518-1.851-2.998-4.5l1.5-1.5v-2c-1.5 0-3 1.5-3 3h-2v-2.185L5.694 14.25 4.958 16.4c-.016.123-.083.305-.319.41l-1.085 .492c-.262 .119-.583 .055-.783-.147C1.5 16 2 14.5 2 13h1zm10-7H9v1h4V6z"/>
</svg>
