<svg xmlns="http://www.w3.org/2000/svg" class="icon icon-ai-brain">
    <path d="M5 13H3a2 2 0 01-2-2V7a2 2 0 012-2h2a2 2 0 012 2v1a2 2 0 01-2 2zm14 0h2a2 2 0 002-2V7a2 2 0 00-2-2h-2a2 2 0 00-2 2v1a2 2 0 002 2z"></path>
    <path d="M17 5a10 10 0 00-10 10c0 3.866 1.582 7.343 4.001 9.65A3.955 3.955 0 0110 28a3.955 3.955 0 01-1.001-2.35C5.582 22.343 4 18.866 4 15A10 10 0 0014 5h3zm0 2h-3a8 8 0 00-7.75 10c.724-1.175 1.71-2.11 2.917-2.758C7.519 13.32 9.694 13 12 13s4.481.32 6.833.242c1.206.648 2.193 1.582 2.917 2.758A7.963 7.963 0 0017 7z"></path>
</svg>