<svg xmlns="http://www.w3.org/2000/svg" viewBox="0 0 24 24" class="icon icon-spaghetti-junction">
    <path d="M7 10v4a1 1 0 01-2 0v-4a1 1 0 012 0zm5-2v6a1 1 0 01-2 0v-6a1 1 0 012 0zm5 4v2a1 1 0 01-2 0v-2a1 1 0 012 0zm5 0v2a1 1 0 01-2 0v-2a1 1 0 012 0zM7 20v-4a1 1 0 012 0v4a1 1 0 01-2 0zm5-6v-4a1 1 0 012 0v4a1 1 0 01-2 0zm5 2v-4a1 1 0 012 0v4a1 1 0 01-2 0zM7 4v-2a1 1 0 012 0v2a1 1 0 01-2 0zm10 0v-2a1 1 0 012 0v2a1 1 0 01-2 0zM12 6V4a1 1 0 012 0v2a1 1 0 01-2 0zm-5 8v-2a1 1 0 012 0v2a1 1 0 01-2 0zm10 0v-2a1 1 0 012 0v2a1 1 0 01-2 0z"/>
</svg>