<svg xmlns="http://www.w3.org/2000/svg" class="icon icon-glowing-nebula" viewBox="0 0 24 24">
    <path fill="none" stroke="currentColor" stroke-linecap="round" stroke-linejoin="round" stroke-width="2" d="M12 3C7.03 3 3 7.03 3 12 3 16.97 7.03 21 12 21C16.97 21 21 16.97 21 12C21 7.03 16.97 3 12 3ZM21 12H12M3 12H12M12 21V12M12 3V12">
    </path>
    <path fill="currentColor" d="M12,3C10.8,3,9.21,3.6,8.83,5.11C8.44,6.63,9.81,7.99,11.33,8.37C12.85,8.76,14.4,7.39,14.79,5.87C15.17,4.35,13.2,3,12,3Z">
    </path>
</svg>