<svg xmlns="http://www.w3.org/2000/svg" class="icon icon-artificial-intelligence icon-alien" viewBox="0 0 24 24">
<path d="M0 0h24v24H0z" fill="none"/>
<path d="M12 2C6.447 2 2 6.446 2 12c0 1.33.26 2.61.736 3.77.2.484.65 1.16 1.197 1.646l.007.008a8.717 8.717 0 0 0 1.37 1.278 13.074 13.074 0 0 0 1.129.81C6.914 19.926 9.421 20 12 20s5.086-.075 7.561-1.479a13.074 13.074 0 0 0 1.13-.81 8.717 8.717 0 0 0 1.37-1.278l.007-.007a4.786 4.786 0 0 0 1.197-1.647A9.956 9.956 0 0 0 22 12c0-5.554-4.447-10-10-10zm2 10h2v2h-2v-2zm-6 0h2v2H8v-2zm3-7a1 1 0 0 1 2 0v1a1 1 0 0 1-2 0V5zm0 12a3.5 3.5 0 0 1-3.5-3.5 1 1 0 1 1 2 0 1.5 1.5 0 0 0 3 0 1 1 0 0 1 2 0A3.5 3.5 0 0 1 12 17z" />
</svg>