<svg xmlns="http://www.w3.org/2000/svg" viewBox="0 0 24 24" class="icon icon-speedometer">
  <path d="M0 0h24v24H0z" fill="none"/>
  <path d="M4.788 15.028l-.81 1.444a9.979 9.979 0 0 0 7.733 4.366c5.522 0 10-4.477 10-10 0-4.075-2.451-7.545-5.9-9.265l.35.626C18.324 5.38 20.5 7.984 20.5 11.426S18.324 17.472 16.271 18.938a9.933 9.933 0 0 0-3.576.58l-1.703.872-1.687-.125-3.517-4.267zm2.648-2.806l1.932 2.348 1.25 -.075a7.949 7.949 0 0 1 1.65-.15 7.967 7.967 0 0 1 3.144 .672l-1.82-3.148a3.982 3.982 0 0 0 1.236-3.653 4 4 0 1 0-7.392 0c.187 .873 .71 1.654 1.4 2.307l-1.5 1.8z"/>
</svg>
