<svg xmlns="http://www.w3.org/2000/svg" viewBox="0 0 24 24" class="icon icon-space-rover">
    <path d="M0 0h24v24H0z" fill="none"></path>
    <path d="M5 8.999V4a1 1 0 011-1h2.322a1 1 0 010 2H6v3.999L13 13v2h5v1.178a1.978 1.978 0 01-.883.681l-1.417.945v3.696a.5.5 0 01-.305.458l-1.055.352a1.5 1.5 0 01-1.185 0l-1.055-.352a.5.5 0 01-.305-.459v-3.695l-1.417-.944a1.978 1.978 0 01-.883-.682V15h-5v-2l8-4.001V4H9a1 1 0 01-1-1V2a1 1 0 011-1h2.5L13 1l.5-.5L14 1h2.5a1 1 0 011 1v1a1 1 0 01-1 1h-2.322a1 1 0 010-2H15v3.999L7 13v2H2v1a1 1 0 01-1 1H1a1 1 0 01-1-1v-1h2v-2L5 8.999z"></path>
</svg>