<svg xmlns="http://www.w3.org/2000/svg" class="icon icon-energyhive" viewBox="0 0 24 24">
    <path d="M0 0h24v24H0z" fill="none"/>
    <path d="M13 2v2.06A8.26 8.26 0 0119.94 7H22v1.337a8.25 8.25 0 01-7 10.296v3.367h2v2H9v-2h2v-3.364A8.27 8.27 0 012.06 9H0V7h2.06A8.26 8.26 0 019 4.06V2h4zm-1.94 7c.588 0 1.118.075 1.61.213l1.582-3.296A6.274 6.274 0 0011.06 5h-1.12A6.273 6.273 0 007.333 5.917l1.582 3.296c.493-.138 1.023-.213 1.61-.213zm0 2C10.403 11 9 12.464 9 14.197V16h4v-1.803C13 12.464 11.597 11 11.06 11z" />
</svg>