<svg xmlns="http://www.w3.org/2000/svg" class="icon icon-icon-key" viewBox="0 0 24 24">
  <path d="M20.5 8C19 8 18 9 17.5 9.5 16.55 8.613 15.35 8 14 8 10.69 8 8 10.69 8 14S10.69 20 14 20C15.35 20 16.55 19.387 17.5 18.5 18 19 19 20 20.5 20 22.43 20 24 18.43 24 16.5S22.43 13 20.5 13 18 14.57 18 16.5 19 18 20.5 18 22 16.5 22 14.5 21 13 20.5 13 20 14 20.5 14 22 12.5 22 10.5 20.5 8 20.5 8ZM14 12C12.34 12 11 13.34 11 15S12.34 18 14 18 17 16.66 17 15 15.66 12 14 12ZM3 22L4 23 6 21 5 20 3 22Z"></path>
</svg>
