<svg xmlns="http://www.w3.org/2000/svg" class="icon icon-Blockchain" viewBox="0 0 24 24">
  <path d="M12 2C6.48 2 2 6.48 2 12s4.48 10 10 10 10-4.48 10-10S17.52 2 12 2zm0 18c-4.41 0-8-3.59-8-8s3.59-8 8-8 8 3.59 8 8-3.59 8-8 8z"/>
  <path d="M6.92 11.07C7.4 10.59 8.16 10.59 8.64 11.07s.48 1.24 0 1.73-1.24.48-1.73 0-.47-1.24 0-1.73zM12 15.5c-1.94 0-3.5-1.56-3.5-3.5s1.56-3.5 3.5-3.5 3.5 1.56 3.5 3.5-1.56 3.5-3.5 3.5z"/>
  <path d="M17.07 12.93c-.46-.48-.46-1.24 0-1.73s1.24-.48 1.73 0 .46 1.25 0 1.73-1.25.47-1.73 0z"/>
</svg>