<svg xmlns="http://www.w3.org/2000/svg" class="icon icon-anchor-maritime">
  <path d="M12 2a7 7 0 017 7 7 7 0 01-7 7 7 7 0 01-7-7 7 7 0 017-7zm0 13a6 6 0 100-12 6 6 0 000 12zm-1-1h2v2h-2v-2zM4 7a8 8 0 0114 0v1h1a1 1 0 110 2h-1v1a1 1 0 112 0v-1h1a1 1 0 110 2h-1v14a1 1 0 01-2 0V11a1 1 0 11-2 0v1H8v-1a1 1 0 110-2h1V8H8a1 1 0 110-2h1V7a8 8 0 01-5 .17V11h-.5a.5.5 0 01-.5.5H2a2 2 0 11.03-4h1.47c-.3-1.11-.77-2.14-1.38-3.07a10.02 10.02 0 004.07 2.07 7.98 7.98 0 01-1.19-4.5zM2 11h1v2H2v-2zm9-6v3H9V5h2zm4 2a1 1 0 000-2 1 1 0 000 2z"/>
</svg>