<svg xmlns="http://www.w3.org/2000/svg" viewBox="0 0 24 24" class="icon icon-icon-umbrella-shield">
  <path d="M12 2A10 10 0 0 0 2 12c0 1.33.26 2.61.74 3.77.1.24.26.47.45.68l3.7 3.7a1 1 0 0 0 1.41 0l1.14-1.14a1 1 0 0 0 0-1.41v-1.83a3.99 3.99 0 0 1 .89-.15c.33 0 .66.02.98.07a1 1 0 0 0 1.16-.97c.07-.58.8-.98 1.36-.95a1 1 0 0 0 1-.76 6 6 0 0 0 2.49-.32 1 1 0 0 0 .7-1.03V6.82c-.28-.14-.65-.23-1.07-.34A10.05 10.05 0 0 0 12 2zM6.47 13.12a1 1 0 0 0-1.38-.24C4.6 13.23 4 13.85 4 14.62V16l2.59-2.59a1 1 0 0 0 .29-.7v-.59zm2.52 2.97l-2.89 2.89a1 1 0 0 0 .7 1.7 1 1 0 0 0 .7-.29l2.2-2.2a1 1 0 0 0-.71-1.71v.61zm3-3.44a3 3 0 1 1 2 0v-11a8 8 0 1 1-2 0v11z"/>
</svg>
