<svg xmlns="http://www.w3.org/2000/svg" class="icon icon-astrology" viewBox="0 0 24 24">
  <path d="M12 24C5.372 24 0 18.628 0 12S5.372 0 12 0s12 5.372 12 12-5.372 12-12 12zm0-22C6.486 2 2 6.486 2 12s4.486 10 10 10 10-4.486 10-10-4.486-10-10-10zm0 8a2 2 0 11-.001 3.999A2 2 0 0112 10zm-4.243-2.828a4.968 4.968 0 010-7.07 4.968 4.968 0 017.071 0 4.968 4.968 0 010 7.07 4.968 4.968 0 01-7.07 0zM14.828 12.414a4.968 4.968 0 010 7.071 4.968 4.968 0 01-7.071 0 4.968 4.968 0 010-7.071 4.968 4.968 0 017.071 0z"></path>
</svg>