<svg xmlns="http://www.w3.org/2000/svg" class="icon icon-noisy-neighbor" viewBox="0 0 24 24">
    <path d="M12 2C6.486 2 2 6.486 2 12s4.486 10 10 10s10-4.486 10-10S17.514 2 12 2zm0 18c-4.411 0-8-3.589-8-8s3.589-8 8-8s8 3.589 8 8s-3.589 8-8 8z"/>
    <path d="M13 14h-2v-2h2v2zm0-4h-2V7h2v3z"/>
    <path d="M17.707 7.293l-4-4l-1.414 1.414L15.586 7H8a.997.997 0 0 0-.707.293l-1 1A.997.997 0 0 0 6 9v6a.997.997 0 0 0 1.293.707l1-1A.997.997 0 0 0 8 14h7.586l-3.293 3.293l1.414 1.414l4-4a.999.999 0 0 0 0-1.414z"/>
</svg>