<svg xmlns="http://www.w3.org/2000/svg" viewBox="0 0 24 24" class="icon icon-harpsichord">
<path d="M21.4,18.6h-4.6V5.4h4.6V18.6z M16.7,16.8h3.2v-1.6h-3.2V16.8z 
M16.7,13.3h3.2v-1.6h-3.2V13.3z M16.7,9.7h3.2V8.1h-3.2V9.7z 
M2.6,18.6V5.4h5.3v1.6H4.1v1.6h3.2v1.7H4.1v1.6h3.8v1.7H4.1v1.6h3.8
v1.7H4.1V18.6H2.6z M7.9,16.8H4.7v-1.6h3.2V16.8z M7.9,13.3H4.7v-1.6h3.1V13.3z 
M7.9,9.8H4.7V8.1h3.1V9.8z M13.8,18.6H9.3v-3.6h1.4v2.1h2.7V18.6L13.8,18.6z 
M11.6,14.9h-2.2v-2.1h2.2V14.9z M11.6,12.7h-2.2V5.4h2.2V12.7z"></path>
</svg>