<svg xmlns="http://www.w3.org/2000/svg" viewBox="0 0 24 24" class="icon icon-telescope-view">
    <path d="M12 2a10 10 0 0 0-10 10a10 10 0 1 0 20 0a10 10 0 0 0-10 -10zm0 18a8 8 0 1 1 0-16a8 8 0 0 1 0 16z"/>
    <path d="M12 0a1 1 0 0 0 -1 1v3a1 1 0 0 0 2 0v-3a1 1 0 0 0 -1 -1z"/>
    <path d="M12 20a1 1 0 0 0 -1 1v3a1 1 0 0 0 2 0v-3a1 1 0 0 0 -1 -1z"/>
    <path d="M2 12a1 1 0 0 0 1 1h3a1 1 0 0 0 0 -2h-3a1 1 0 0 0 -1 1z"/>
    <path d="M18 12a1 1 0 0 0 1 1h3a1 1 0 0 0 0 -2h-3a1 1 0 0 0 -1 1z"/>
</svg>