<svg xmlns="http://www.w3.org/2000/svg" width="24" height="24" viewBox="0 0 24 24" class="icon icon-porcupine">
<path d="M12,0C5.4,0,0,5.4,0,12s5.4,12,12,12s12-5.4,12-12S18.6,0,12,0z M14.6,15.8c-0.1,0.2-0.3,0.2-0.6,0.3c-0.2,0.1-0.5,0.1-0.7,
0c-0.3-0.1-0.5-0.3-0.8-0.4c-0.1-0.1-0.1-0.1-0.3-0.1c-0.2,0-0.5,0-0.7,0c-0.8-0.1-1.6-0.2-2.3-0.5c-0.3-0.1-0.5-0.3-0.7-0.5
c-0.3-0.3-0.3-0.8-0.1-1.1c0.2-0.2,0.5-0.3,0.7-0.3c0.1,0,0.1,0,0.2,0c0.4,0,0.7,0.2,1,0.4c0.3,0.2,0.7,0.3,1,0.5c0.5,0.2,1.1,0.3,1.6,
0.4c0.4,0.1,0.9,0.1,1.3,0c0.3-0.1,0.6-0.3,0.7-0.6c0.1-0.2,0.1-0.5,0-0.7c-0.1-0.2-0.3-0.4-0.6-0.5c-0.4-0.2-0.8-0.3-1.3-0.4c-0.5-0.1-1-0.3-1.5-0.6
c-0.4-0.2-0.7-0.5-0.9-0.9c-0.1-0.2-0.1-0.4-0.1-0.7c0-0.2,0.1-0.5,0.3-0.7c0.1-0.2,0.3-0.4,0.6-0.5c0.3-0.1,0.7-0.1,1-0.1c0.2,0,0.5,0,0.7,0.1
c0.4,0.1,0.7,0.3,0.9,0.7c0.2,0.2,0.3,0.5,0.3,0.8c0,0.2-0.1,0.5-0.2,0.7c-0.2,0.2-0.4,0.4-0.7,0.5c-0.1,0-0.1,0-0.2,0c-0.2,0-0.4-0.1-0.6-0.2
c-0.3-0.1-0.6-0.2-1-0.3c-0.5-0.1-1-0.2-1.5-0.4c-0.6-0.1-1.2-0.2-1.8,0c-0.6,0.2-0.9,0.8-0.8,1.5c0,0.4,0.2,0.8,0.5,1.1c0.2,0.2,0.5,0.3,0.8,0.4
c1,0.3,2.1,0.5,3.1,0.5c0.1,0,0.1,0,0.2,0c0.2,0,0.4,0,0.6,0c0.3,0,0.6-0.1,0.9-0.2c0.4-0.2,0.8-0.4,1.2-0.8c0.3-0.3,0.5-0.7,0.4-1.1s-0.2-0.8-0.5-1
c-0.3-0.3-0.7-0.5-1.1-0.7c-0.7-0.3-1.4-0.5-2.1-0.7c-0.8-0.2-1.6-0.6-2.2-1.2c-0.5-0.5-0.8-1.2-0.7-1.9c0-0.4,0.1-0.9,0.4-1.2c0.3-0.3,0.7-0.5,1.2-0.6
c0.5-0.1,0.9-0.1,1.4,0.1c1.1,0.4,2.1,1,3.1,1.6c0.9,0.5,1.9,0.9,2.8,1.6c0.8,0.6,1.5,1.3,1.8,2.2c0.2,0.7,0.1,1.4-0.2,2c-0.2,0.5-0.5,1-0.9,1.4
c-0.4,0.3-0.9,0.6-1.3,0.9c-0.3,0.2-0.7,0.3-1.1,0.4c-0.1,0-0.2,0.1-0.3,0.1c-0.1,0-0.2,0.1-0.4,0.2c-0.1,0.1-0.2,0.2-0.2,0.4c0,0.2,0,0.4,0.1,0.7c0,0,0,0,0.1,0z"/>
</svg>