<svg xmlns="http://www.w3.org/2000/svg" class="icon icon-dna-sequencer">
  <path d="M10 22C14.4183 22 18 18.4183 18 14C18 9.58172 14.4183 6 10 6C5.58172 6 2 9.58172 2 14C2 18.4183 5.58172 22 10 22Z"/>
  <path d="M22 10C22 14.4183 25.5817 18 30 18C34.4183 18 38 14.4183 38 10C38 5.58172 34.4183 2 30 2C25.5817 2 22 5.58172 22 10Z"/>
  <path d="M10 38C14.4183 38 18 34.4183 18 30C18 25.5817 14.4183 22 10 22C5.58172 22 2 25.5817 2 30C2 34.4183 5.58172 38 10 38Z"/>
  <path d="M22 30C22 34.4183 25.5817 38 30 38C34.4183 38 38 34.4183 38 30C38 25.5817 34.4183 22 30 22C25.5817 22 22 25.5817 22 30Z"/>
</svg>