<svg xmlns="http://www.w3.org/2000/svg" class="icon icon-telescope-galaxy" viewBox="0 0 24 24">
  <path fill="none" d="M0 0h24v24H0z"></path>
  <path d="M12 17.09c2.93 0 5.33 2.387 5.33 5.31H6.67c.005-2.924 2.404-5.31 5.33-5.31zm5.707-2.51c.123.733.193 1.5.193 2.27v1.65h2.663c.008-.537-.02-1.069-.077-1.59-.15-.282-.626-.637-1.19-1.006-1.117-.73-2.48-1.197-3.59-1.324zm-11.414 0c-1.11.127-2.473.594-3.59 1.324-.564.369-1.04.725-1.19 1.008-.057.52-.085 1.052-.077 1.588h2.663v-1.65c0-.77.07-1.537.194-2.27zM2 8.238v1.274h.989l1.527 2.69v-3.24H2v-.724h2V7.238h.667s.333.724 1 1.724h2c.667-1 1-1.724 1-1.724h.667v1.524h2v-.724h.667s.333.724 1 1.724h2c.667-1 1-1.724 1-1.724h.667v1.524h2v-.724h.667s.333.724 1 1.724h2c.667-1 1-1.724 1-1.724H22v1.274h-2v3.24l1.527-2.691H22V8.238h-2v-.862l-1.014 2.03-1.3-2.276-1.027 2.108-1.726-2.862h-1.866l-1 1.658-1-1.658H9.037l-1.726 2.862-1.027-2.108-1.3 2.276L4 7.376v.862H2zm10 4.762c-.667 0-1.333-.095-1.941-.267l-2.205-3.211 2.352-1.53v-1h1.793v1l2.267 1.473-2.023 3.416c-.314.121-.643.119-.243.119zm5.707-2.51c.123.733.193 1.5.193 2.27v1.65h2.663c.008-.537-.020-1.069-.077-1.59-.15-.282-.626-.637-1.19-1.006-1.117-.73-2.48-1.197-3.59-1.324zm-11.414 0c-1.11.127-2.473.594-3.59 1.324-.564.369-1.04.725-1.19 1.008-.057.52-.085 1.052-.077 1.588h2.663v-1.65c0-.77.069-1.537.194-2.27z"/>
</svg>