<svg xmlns="http://www.w3.org/2000/svg" class="icon icon-star-fireworks" viewBox="0 0 24 24">
  <path fill="none" d="M0 0h24v24H0z"/>
  <path d="M9.172 11l2.828 2.828-3.536 3.536L5.664 14.828 9.172 11zm2.121-2.121l1.415-1.415a1 1 0 0 1 1.414 0l1.414 1.414a1 1 0 0 1 0 1.415l-1.415 1.414a1 1 0 0 1-1.414 0L11 11V9.172zm4.949 6.364L22 22l-5.535-2.172-1.414-1.414-2.828-2.829 3.536-3.536 2.828 2.828zm-2 2l1.829 1.828-2.12.828 .29-2.657zm-8.071-8.485l-2.12-.828L7.798 9l1.353 1.353a4 4 0 0 1 .755 4.29 1 1 0 0 1-.82.653 4 4 0 0 1-2.898-1.51l-1.976-.988 1.447-1.343a4 4 0 0 1 4.486-.76 1 1 0 0 1 .676.741 4 4 0 0 1-1.02 2.996l-.988 1.976 1.638 1.686a4 4 0 0 1 4.333.768 1 1 0 0 1 .59.922 4 4 0 0 1-.924 3.13l-1.638 1.932.988 1.976a4 4 0 0 1 2.064-1.11 1 1 0 0 1 .917 1.104 4 4 0 0 1-.976 3.084L12 22l-3.536-3.536L4.929 22l-1.463-1.463a4 4 0 0 1 1.16-2.522 1 1 0 0 1 1.066-.157 4 4 0 0 1 2.976.722l1.952-1.263-1.682-1.536a4 4 0 0 1 .881-4.66 1 1 0 0 1 .98-.225 4 4 0 0 1 2.877 2.315l1.976-.988-1.638-1.433a4 4 0 0 1 .657-4.003 1 1 0 0 1 1.11-.416 4 4 0 0 1 3.993 1.268l1.457-1.34-1.219-2.152a4 4 0 0 1 2.334-.892 1 1 0 0 1 .988.741 4 4 0 0 1-1.4 3.567L22 12l-3.536 3.536L13.464 22l-2.12-2.121L9.798 16l3.253-3.253z" />
</svg>
