<svg xmlns="http://www.w3.org/2000/svg" class="icon icon-icon-satellite" viewBox="0 0 24 24">
    <path d="M0 0h24v24H0z" fill="none"/>
    <path d="M4 10.4V4a1 1 0 0 1 1-1h6.4L12 4.6 9.4 7.2 13.8 11.6 23 2.395 21.605 1 12.4 10.2l2.185 2.186L20 16c.564-.56 1-.56 1.5 0s .439 1.44 0 2c-.439.56-1.44 .56-2 0s-.56-1.435 0-2l-3.785-3.787zM15.803 8.6l2.6-2.6c-.2-.6-.8-1.2-1.3-1.3l-2.6 2.6 1.3 1.3zM3 13c.565-.56 1-.56 1.5 0s .44 1.437 0 2-.935 .56-1.5 0-1.44-.937-1.5-2 .935-1.44 1.5-2zm0 5a1.5 1.5 0 1 0 0 3 1.5 1.5 0 0 0 0-3zm8-2a1.5 1.5 0 1 1 0 3 1.5 1.5 0 0 1 0-3zM9 3a1.5 1.5 0 1 0 0 3 1.5 1.5 0 0 0 0-3zM3.5 3h3V2h-3v1z" />
</svg>
