<svg xmlns="http://www.w3.org/2000/svg" viewBox="0 0 24 24" class="icon icon-jackfruit">
  <path d="M12,2C6.48,2,2,6.48,2,12s4.48,10,10,10s10-4.48,10-10S17.52,2,12,2Zm0,18c-4.41,0-8-3.59-8-8s3.59-8,8-8s8,3.59,8,8  S16.41,20,12,20Z"/>
  <path d="M12.5,7h-1v1h1V7Zm1-2h-3v3h3V5Zm1,2h1V7h-1V6Zm-4,3h-1v1h1V9Zm2,0h-3v3h3V9Zm4,0h-1v1h1V9Zm-6,2h-1v1h1v-1Zm4,0h3v-3h-3V11Z  m-2,1h-1v1h1v-1Zm2,0h3v-3h-3v3Zm-4,2h-1v1h1v-1Zm2,0h-3v3h3v-1Zm4,0h1v-1h-1v1Zm-6,1h-1v1h1v-1Zm4,0h3v-3h-3v3Zm-2,2h-1v1h1v-1Zm2,0h-3  v3h3v-1Zm4,0h1v-1h-1v1Z"/>
</svg>