<svg xmlns="http://www.w3.org/2000/svg" viewBox="0 0 24 24" class="icon icon-telephone-waves">
    <path d="M23.897,15.092c-2.599-2.6-11.72-11.721-14.303-9.139C7.125,7.525,8.676,9.077,8.676,9.077S3.221,16.532,1.72,17.034c-1.502,0.5-1.002,1.001-1.002,1.001S1.822,23.395,4.605,20.611s4.92-4.555,4.92-4.555S14.658,12.71,17.238,15.29C19.819,17.87,23.897,15.092,23.897,15.092z"/>
    <path d="M19.638,9.49c-0.3,0-0.552,0.252-0.552,0.552s0.252,0.552,0.552,0.552s0.552-0.252,0.552-0.552S19.938,9.49,19.638,9.49z"/>
    <path d="M20.838,8.29c-0.3,0-0.552,0.252-0.552,0.552s0.252,0.552,0.552,0.552s0.552-0.252,0.552-0.552S21.138,8.29,20.838,8.29z"/>
</svg>