<svg xmlns="http://www.w3.org/2000/svg" class="icon icon-alchemistlab">
    <g id="Layer_1">
        <path d="M17.5,12.5h-7c-1.381,0-2.5-1.119-2.5-2.5V7c0-1.381,1.119-2.5,2.5-2.5h7c1.381,
          0,2.5,1.119,2.5,2.5V10C20,11.381,18.881,12.5,17.5,12.5z"/>
        <path d="M12.5,8h3c0.276,0,0.5,0.224,0.5,0.5s-0.224,0.5-0.5,0.5h-3c-0.276,0-0.5-0.224-0.5-0.5S12.224,8,12.5,8z"/>
        <path d="M11.5,4h1c0.276,0,0.5,0.224,0.5,0.5S12.776,5,12.5,5h-1C11.224,5,11,4.776,11,4.5S11.224,4,11.5,4z"/>
        <path d="M14.5,4h1c0.276,0,0.5,0.224,0.5,0.5S15.776,5,15.5,5h-1C14.224,5,14,4.776,14,4.5S14.224,4,14.5,4z"/>
        <path d="M21,16.5c0,1.381-1.119,2.5-2.5,2.5h-7c-1.381,0-2.5-1.119-2.5-2.5V11c0-1.381,1.119-2.5,2.5-2.5h7c1.381,
          0,2.5,1.119,2.5,2.5V16.5z"/>
        <path d="M15.5,13h3c0.276,0,0.5,0.224,0.5,0.5S18.776,14,18.5,14h-3c-0.276,0-0.5-0.224-0.5-0.5S15.224,13,15.5,13z"/>
        <path d="M14.5,9h1c0.276,0,0.5,0.224,0.5,0.5S15.776,10,15.5,10h-1C14.224,10,14,9.776,14,9.5S14.224,9,14.5,9z"/>
        <path d="M11.5,9h1c0.276,0,0.5,0.224,0.5,0.5S12.776,10,12.5,10h-1C11.224,10,11,9.776,11,9.5S11.224,9,11.5,9z"/>
    </g>
</svg>