<svg xmlns="http://www.w3.org/2000/svg" viewBox="0 0 24 24" fill="none" stroke="currentColor" stroke-width="2" stroke-linecap="round" stroke-linejoin="round" class="icon icon-artistPalette">
<path d="M22 19.5A6.5 6.5 0 0115.5 23H8c-9 0-9-9-9-9 0-2.88 1.368-4.832 3-6.5a7.653 7.653 0 013-2.5c4-2 7.581-1.5 9.5 3 .503 1.19.437 4.408-1.5 6-2.497 2.07-.204 5.392 2 6.5 2.639 1.339 4.25 1.31 5.5 0z"></path>
<circle cx="11.5" cy="9.5" r=".5"></circle>
<circle cx="15.5" cy="7.5" r=".5"></circle>
<circle cx="17" cy="10.5" r=".5" fill="black"></circle>
<circle cx="16.165" cy="13.5" r=".5"></circle>
</svg>