<?xml version="1.0" encoding="UTF-8"?>
<svg xmlns="http://www.w3.org/2000/svg" viewBox="0 0 24 24" class="icon icon-thermometer-snowflake icon-space-shuttle">
  <path d="M0 0h24v24H0z" fill="none"/>
  <path d="M14 22V8a4 4 0 0 0 -8 0v14a4 4 0 1 0 8 0v-8H2V8a6 6 0 0 1 12 0v14a6 6 0 0 1 -12 0v-6H6v6a3.978 3.978 0 0 0 -3 0a4 4 0 0 0 6 0" fill="#6cb7eb"/>
  <path d="M16 11V9a4 4 0 1 1 8 0v6a4 4 0 1 1 -8 0V11" fill="#6cb7eb"/>
  <path d="M3.6 4L5 5.4l2-2V0H5v2.6l-2 2z" fill="#ff3333"/>
  <path d="M3 7.4l1.4-1.4 2 2V4H5v4.6l-2-2z" fill="#ff3333"/>
  <path d="M9.4 3L8 1.6l-2 2V0h2v2.6l2-2z" fill="#ff3333"/>
  <path d="M3 3h1V2H3v1z" fill="#6cb7eb"/>
  <path d="M2 2h1V1H2v1z" fill="#6cb7eb"/>
</svg>