<svg xmlns="http://www.w3.org/2000/svg" class="icon icon-lumberjack" viewBox="0 0 24 24">
  <path d="M12 18c-3.31 0-6-2.69-6-6s2.69-6 6-6 6 2.69 6 6-2.69 6-6 6zm0-10c-2.21 0-4 1.79-4 4s1.79 4 4 4 4-1.79 4-4-1.79-4-4-4z"></path>
  <path d="M10 16h4v2h-4z"></path>
  <path d="M12 14h2v2h-2z"></path>
  <path d="M15.39 4.56L13 7h3c.55 0 1 .45 1 1v2c0 .55-.45 1-1 1h-1v2h-2V7h-1V5h-2v2H9v2H7v-2H6v2H4c-.55 0-1-.45-1-1V8c0-.55.45-1 1-1h3l-2.39-2.44c-.38-.38-.58-.88-.58-1.41V2c0-.55.45-1 1-1h8c.55 0 1 .45 1 1v1.15c0 .53-.2 1.03-.61 1.41z"></path>
</svg>