<svg xmlns="http://www.w3.org/2000/svg" class="icon icon-flying-hotairballoon.svg icon-telescope" viewBox="0 0 24 24">
  <path fill="none" stroke="currentColor" stroke-width="2" d="M8 2a4 4 0 0 1 8 0v18m-2 0a6 6 0 1 1 -6 0m6 0h6m-8 0H2m10-7v7m-8-7a8 8 0 1 1 8 0Z"/>
  <path fill="currentColor" d="M18.5 19h-2l-1-1h4zM6 10c-3.314 0-6 2.686-6 6s2.686 6 6 6 6-2.686 6-6-2.686-6-6-6zm0 10c-2.206 0-4-1.794-4-4 0-2.205 1.794-4 4-4 2.205 0 4 1.795 4 4 0 2.206-1.795 4-4 4zm-2.5-4c0-1.377 1.123-2.5 2.5-2.5V12h2v2h-2v2h-2v-2zm2.5-4.5c-1.379 0-2.5 1.122-2.5 2.5h-2v2h2v2h2v-2h2v-2h-2c0-1.378-1.121-2.5-2.5-2.5z"></path>
</svg>