<svg xmlns="http://www.w3.org/2000/svg" class="icon icon-fossil-fuel" viewBox="0 0 24 24">
<path d="M0 0h24v24H0z" fill="none"/>
<path d="M13 2C6.924 2 2 6.924 2 13c0 1.572.386 3.051 1.064 4.329l1.482-1.185C4.895 14.704 5.338 13.862 6 13c1-2.667 3.667-4 7-4 1.34 0 2.602.32 3.71.915l1.311-1.68C15.53 7.27 14.32 7 13 7c-3.305 0-6.173 1.653-7.858 4.142C4.27 10.653 3 8.934 3 7a9 9 0 0118 0c0 .684-.132 1.34-.377 1.96l1.513 1.314C23.456 9.69 24 8.415 24 7 24 3.14 19.866 0 15 0L13 2zm4.595 19.404l-1.3-1.653C15.319 20.18 14.18 21 13 21H4a1 1 0 01-1-1v-6a1 1 0 011-1h9c2.121 0 3.895-1.353 4.373-3.198l1.961 1.573C20.33 13.657 21 11.421 21 9a6 6 0 00-.749-3l1.265-1.58C22.969 6.308 24 8.527 24 11a9 9 0 01-6 8.482v.902l-1.16-1.753-1.245 1.773zM5 19h6.582A2.978 2.978 0 0111 18h-1a2 2 0 01-2-2v-1H5v4z"/>
</svg>