<svg xmlns="http://www.w3.org/2000/svg" class="icon icon-tools" viewBox="0 0 24 24">
  <path d="M0 0h24v24H0z" fill="none"/>
  <path d="M8.66 4l-1.63-.94a1 1 0 0 1-.08-1.58l2.12-2.12a1 1 0 0 1 1.41 0l1.69 1.7-2.12 2.12L8.66 4zm11.71 2.12l-2.12-2.12a1 1 0 0 0-1.42 0l-1.71 1.71 2.12 2.12 1.47-1.47a1 1 0 0 1 1.66.76v3.17l1.61 1.61a1 1 0 0 1-1.42 1.42l-1.61-1.61H13.09a1 1 0 0 1-.76-1.65l1.47 1.47-2.12-2.13-.7.7V18a1 1 0 1 1-2 0v-3.72l-2.12-2.12-1.27 1.27a1 1 0 0 0 1.42 1.42l1.27-1.27V14a1 1 0 0 1 2 0v4a1 1 0 0 1-2 0v-1H4a1 1 0 1 1 0-2h2.57A4.002 4.002 0 0 1 16 17v1a3 3 0 0 1-6 0v-3.59a4.978 4.978 0 0 0-1-2.28V20a5 5 0 0 0 10 0v-5.59a1.977 1.977 0 0 1-2 .29V20a3 3 0 0 1-6 0v-1.95l4 4H20a1 1 0 0 1 0 2h-4.01v.01a6 6 0 1 0-2.45-5.22A5.976 5.976 0 0 0 18 20v-3.73a1.992 1.992 0 0 1 .97-2.89l2.37 2.37V6.97a1 1 0 0 0-.64-.91z"/>
</svg>