<svg xmlns="http://www.w3.org/2000/svg" class="icon icon-fountainpen" viewBox="0 0 24 24">
<path d="M12 2l4 4-8 8-4-4 8-8zm3.414 2l-1.414 1.414 8.586 8.586 1.414-1.414-8.586-8.586zm-1.414 1.414l-8.586 8.586 1.414 1.414 8.586-8.586-1.414-1.414zm8.586 8.586l-2.586 2.586-1.414-1.414 2.586-2.586 1.414 1.414zm-5.172 0l-1.414 1.414-2.586 2.586 1.414 1.414 2.586-2.586 1.414-1.414zm-1.414 2.828l-2.586 2.586-1.414-1.414 2.586-2.586 1.414 1.414zm-11.343 4.242l3.181-3.181 1.414 1.414-3.181 3.181h-1.414v-1.414z"/>
</svg>