<svg xmlns="http://www.w3.org/2000/svg" class="icon icon-moonlit-umbrella" viewBox="0 0 24 24">
  <path d="M22.3195,7.4478c-0.8125-2.6562-3.0625-4.9062-5.7188-5.7188C16.0938,1.6773,15.0625,2,14,2c-1.0625,0-2.0938-0.3228-3l0,0
      c-2.6562,0.8125-5.7188,3.0625-5.7188,5.7188c0,0.3187,0,0.625,0.0625,0.9375c2.0625-2.0625,5.4062-3.0625,8.6562-2.4375
      C17.5938,7.4062,20.2573,10.0707,20.2573,13.0463C20.2573,9.8725,17.1274,7.4497,13.7338,7.0415C14.9477,5.1684,14,3,12,3
      c2,1,2.9355,2.4179,1.4663,4.5136C16.0562,7.5136,18.79,9.5141,18.79,12.5141c0-3.625-2.9439-6.55-6.55-6.55
      c3.75,0,6.625,2.9336,6.625,6.6875c0-4.125-3.3438-7.5-7.4688-7.5C16.1562,5.04,19.04,7.9062,19.04,11.4692
      c0-3.89-3.11-7-7-7c3.9,0,7,3.1,7,7C19,8.5473,16.4526,6,13,6c3.4526,0,6,2.5473,6,6"
  />
  <path d="M13,12.9868c-1.5,0-2.75,1.25-2.75,2.7285v5.2695c0,1.5,1.25,2.75,2.75,2.75s2.75-1.25,2.75-2.75v-5.2695
      C15.75,14.2368,14.5,12.9868,13,12.9868z"
  />
</svg>