<svg xmlns="http://www.w3.org/2000/svg" viewBox="0 0 24 24" class="icon icon-alien-encounter.svg icon-abyss">
  <path d="M12 2C6.48 2 2 6.48 2 12s4.48 10 10 10 10-4.48 10-10S17.52 2 12 2zm0 18c-4.41 0-8-3.59-8-8s3.59-8 8-8 8 3.59 8 8-3.59 8-8 8z"/>
  <path d="M5 7C6.1 6.32 7.42 6.72 8 8c.6 1.3.18 2.71-1 3-1.19 0-2-1-2-2 0-.46.35-.89.84-1.01C5.62 7.43 5.3 7 5 7zm14 0c-.3 0-.62.43-.84 1.01-.49.1-.84.53-.84 1.01 0 1-.8 2-2 2-1.18-.29-1.6-1.71-1-3 .57-1.28 1.89-.68 3-.78 1.1-.11 2 .61 2 1z"/>
  <path d="M7.5 10C8.33 9.67 9.24 10.13 10 11c.76-.88 1.67-1.34 2.5-1-1-1.11-2.72-.7-3.5 0-.79-.7-2.51-1.1-3.5 0 1-1.1 2.72-.7 3.5 0zm9 0c.78-.7 2.5-1.1 3.5 0-.98-1.1-2.7-.7-3.5 0-.78-.7-2.5-1.1-3.5 0 .76-.88 1.67-1.34 2.5-1 1-.11 2 .61 2 1z"/>
  <path d="M11.5 14c1.93 0 3.5-1.57 3.5-3.5S13.43 7 11.5 7 8 8.57 8 10.5 9.57 14 11.5 14zm0-5c.83 0 1.5.67 1.5 1.5s-.67 1.5-1.5 1.5-1.5-.67-1.5-1.5.67-1.5 1.5-1.5z"/>
  <path d="M7 18c1.1-.11 2-.89 2-2 0-1.1-.9-2-2-2s-2 .9-2 2 .9 2 2 2z"/>
</svg>