<svg xmlns="http://www.w3.org/2000/svg" class="icon icon-lynx" viewBox="0 0 24 24">
    <path d="M12 2C6.5 2 2 6.5 2 12s4.5 10 10 10 10-4.5 10-10S17.5 2 12 2zM7 16l-1.7 1.7c.3 .5 .7 1 1.2 1.4L9.5 16H7zm10 0h-2.5l3.9 3.9c.5-.4.9-.9 1.2-1.4L17 16zm-5 5c-1.7 0-3.3-.4-4.7-1.2l3.3-3.3 1.4 1.4 1.4-1.4 3.3 3.3c-1.4.8-3 .2-4.7 1.2z"/>
    <path d="M7.7 15.3c.4-.6.9-1.1 1.5-1.5.2-.1.4-.3.6-.4.2-.1.4-.2.6-.4.4-.2.8-.4 1.2-.5.4-.1.8-.2 1.3-.3.5-.1 1-.2 1.5-.2s1 .1 1.4 .2c.4 .1 .7 .3 1 .5.3 .2 .6 .4 .8 .6.2 .2 .4 .4 .6 .7l-1.4 1.4-1.4-1.4-1.4 1.4-1.4-1.4-1.4 1.4-1.4-1.4z"/>
</svg>