<svg xmlns="http://www.w3.org/2000/svg" viewBox="0 0 24 24" class="icon icon-rock-climbing">
    <path d="M12 2C6.48 2 2 6.48 2 12s4.48 10 10 10 10-4.48 10-10S17.52 2 12 2zm0 18c-4.41 0-8-3.59-8-8s3.59-8 8-8 8 3.59 8 8-3.59 8-8 8z"></path>
    <path d="M9.29 6.71a.996.996 0 00-1.41 0L6 8.59 7.41 10 9 8.41 9.59 9 6 12.58 7.41 14 10 11.42 10.59 12l-3.29 3.29a.993.993 0 00-.3.74v4.27c0 .55 .45 1 1 1h.01c.28 0 .51-.11.71-.29l1.19-1.19 1.19 1.19a.996.996 0 001.41 0l4.59-4.59c.38-.38.59-.88.59-1.41 0-.28-.07-.56-.19-.8l-1.2-3 c-.18-.45-.73-.64-1.18-.45l-3.02 1.25l-1.25-1.25a.500.500 0 00-.85.36v2.79z"></path>
</svg>