<svg xmlns="http://www.w3.org/2000/svg" viewBox="0 0 24 24" class="icon icon-quantum-computing.svg icon-meridian">
  <path d="M12 2C6.5 2 2 6.5 2 12s4.5 10 10 10 10-4.5 10-10S17.5 2 12 2zm0 18c-4.4 0-8-3.6-8-8s3.6-8 8-8 8 3.6 8 8-3.6 8-8 8z"></path>
  <path d="M6.2 4.6C3.8 6.4 2.3 9.1 2 12c.3 2.9 2 5.6 4.3 7.4l1.4-1.4c-1.9-1.5-3.2-3.7-3.4-6.1.3-2.3 1.6-4.5 3.5-5.9l-1.6-1.4zm4 1.4c-1.1.9-2 2.2-2.4 3.7.5 1.5 1.4 2.8 2.5 3.6l1.4-1.4c-.7-.6-1.2-1.5-1.4-2.5.2-1 .7-1.9 1.5-2.5L10.2 6zm3.6 0l-1.4 1.4c.8.6 1.3 1.5 1.5 2.5-.2 1-.7 1.9-1.4 2.5l1.4 1.4c1.1-.9 2-2.2 2.4-3.7-.4-1.5-1.3-2.8-2.5-3.6zm4-1.4l-1.6 1.4c1.9 1.5 3.2 3.7 3.5 6.1-.3 2.3-1.6 4.6-3.5 6l1.4 1.4c2.3-1.8 4-4.5 4.3-7.4-.3-2.9-1.8-5.6-4.1-7.5z"></path>
</svg>