<svg xmlns="http://www.w3.org/2000/svg" viewBox="0 0 24 24" class="icon icon-teleportation.svg icon-satellite-dish">
    <path fill="none" stroke="currentColor" stroke-linecap="round" stroke-linejoin="round" stroke-width="2" d="M12 19C16.9706 19 21 14.9706 21 10C21 5.02944 16.9706 1 12 1C7.02944 1 3 5.02944 3 10C3 14.9706 7.02944 19 12 19Z" />
    <path fill="none" stroke="currentColor" stroke-linecap="round" stroke-linejoin="round" stroke-width="2" d="M12 22C13.6569 22 15 20.6569 15 19C15 17.3431 13.6569 16 12 16C10.3431 16 9 17.3431 9 19C9 20.6569 10.3431 22 12 22Z" />
    <path fill="none" stroke="currentColor" stroke-linecap="round" stroke-linejoin="round" stroke-width="2" d="M6.34315 6.34315C4.84285 7.84344 4 9.87827 4 12C4 15.866 7.13401 19 11 19V19C11.6187 19 12.1953 18.917 12.737 18.7632" />
</svg>