<svg xmlns="http://www.w3.org/2000/svg" viewBox="0 0 50 50" class="icon icon-antikythera-mechanism">
    <path d="M25 2.5C39.2107 2.5 50 13.2893 50 27.5C50 41.7107 39.2107 52.5 25 52.5C10.7893 52.5 0 41.7107 0 27.5C0 13.2893 10.7893 2.5 25 2.5Z" stroke="black" stroke-width="2" fill="none"/>
    <path d="M25 37.5C31.8528 37.5 37.5 31.8528 37.5 25C37.5 18.1472 31.8528 12.5 25 12.5C18.1472 12.5 12.5 18.1472 12.5 25C12.5 31.8528 18.1472 37.5 25 37.5Z" stroke="black" stroke-width="2" fill="none"/>
    <path d="M13.5 25C13.5 32.7319 19.7681 39 27.5 39" stroke="black" stroke-width="2" fill="none"/>
    <path d="M36.5 25C36.5 32.7319 30.2319 39 22.5 39" stroke="black" stroke-width="2" fill="none"/>
</svg>