<svg xmlns="http://www.w3.org/2000/svg" viewBox="0 0 24 24" class="icon icon-jet-engine">
  <path d="M12,2C6.48,2,2,6.48,2,12s4.48,10,10,10s10-4.48,10-10S17.52,2,12,2z M12,20c-4.41,0-8-3.59-8-8s3.59-8,8-8 s8,3.59,8,8S16.41,20,12,20z"/>
  <path d="M13.89,8.05c-0.22-0.53-0.77-0.85-1.33-0.81c-0.34,0.03-0.66,0.18-0.9,0.45c-0.45,0.45-0.5,1.19-0.04,1.64 c0.27,0.27,0.66,0.44,1.09,0.47c0.59-0.05,1.13-0.51,1.26-1.1C13.92,8.55,13.92,8.28,13.89,8.05z"/>
  <path d="M17.11,7.25c-0.38-0.33-0.94-0.41-1.43-0.23s-0.79,0.69-0.78,1.2c0.05,0.58,0.53,1.08,1.11,1.2 c0.29-0.03,0.57-0.12,0.81-0.28C17.35,8.64,17.46,7.81,17.11,7.25z"/> 
</svg>