<svg xmlns="http://www.w3.org/2000/svg" viewBox="0 0 24 24" class="icon icon-robotics">
    <path d="M12 2C6.48 2 2 6.48 2 12s4.48 10 10 10 10-4.48 10-10S17.52 2 12 2zm0 18c-4.41 0-8-3.59-8-8s3.59-8 8-8 8 3.59 8 8-3.59 8-8 8zm-2-13.5v6c0 .28-.22.5-.5.5s-.5-.22-.5-.5v-6c0-.28.22-.5.5-.5s.5.22.5.5zm4 0v6c0 .28-.22.5-.5.5s-.5-.22-.5-.5v-6c0-.28.22-.5.5-.5s.5.22.5.5zm2.5 6h-10c-.28 0-.5-.22-.5-.5s.22-.5.5-.5h10c.28 0 .5.22.5.5s-.22.5-.5.5zm0 2h-10c-.28 0-.5-.22-.5-.5s.22-.5.5-.5h10c.28 0 .5.22.5.5s-.22.5-.5.5z"/>
</svg>