<svg xmlns="http://www.w3.org/2000/svg" class="icon icon-nuclear" viewBox="0 0 24 24">
  <path d="M12 2C6.48 2 2 6.48 2 12c0 1.33.26 2.61.74 3.77.1.24.26.47.45.68l7.8-7.8c-.1-.02-.21-.04-.31-.07-1.33-.33-2.37-1.37-2.7-2.7-.03-.1-.05-.21-.07-.31l-7.8 7.8c.2.19.43.35.68.45 1.16.48 2.44.74 3.77.74 5.52 0 10-4.48 10-10 0-1.33-.26-2.61-.74-3.77-.1-.24-.26-.47-.45-.68l-7.8 7.8c.1.02.21.04.31.07 1.33.33 2.37 1.37 2.7 2.7.03.1.05.21.07.31l7.8-7.8c-.2-.19-.43-.35-.68-.45C14.61 2.26 13.33 2 12 2zm0 8c-1.66 0-3 1.34-3 3s1.34 3 3 3 3-1.34 3-3-1.34-3-3-3zm0-6c1.1 0 2 .9 2 2s-.9 2-2 2-2-.9-2-2 .9-2 2-2z"/>
</svg>
