<svg xmlns="http://www.w3.org/2000/svg" class="icon icon-flaming-chili" viewBox="0 0 24 24">
  <path d="M12 2C10.35 2 9 3.35 9 5C9 5.65 9.09 6.26 9.26 6.83C6.60412 7.27329 4 10.1345 4 13.5C4 17.09 7.14 20 10.5 20C13.86 20 16 17.09 16 13.5C16 10.22 13.78 7.73 10.87 7.18C11.54 6.07 12 4.71 12 3.20C12 2.75 12.25 2 12 2Z"></path>
  <path d="M4.5 14C5.33 14 6 14.67 6 15.5C6 16.33 5.33 17 4.5 17C3.67 17 3 16.33 3 15.5C3 14.67 3.67 14 4.5 14Z"></path>
  <path d="M7 15C7 16.11 6.11 17 5 17C3.89 17 3 16.11 3 15H7Z"></path>
  <path d="M5 14V10C5 9.72 5.16 9.46 5.42 9.32C5.68 9.18 5.98 9.2 6.22 9.38L9 11L11.78 9.38C12.02 9.2 12.32 9.18 12.58 9.32C12.84 9.46 13 9.72 13 10V14H5Z"></path>
</svg>