<svg xmlns="http://www.w3.org/2000/svg" viewBox="0 0 24 24" class="icon icon-mind-map">
<path d="M12 2C10.34 2 9 3.34 9 5s1.34 3 3 3 3-1.34 3-3-1.34-3-3-3zm0 14c-1.66 0-3 1.34-3 3s1.34 3 3 3 3-1.34 3-3-1.34-3-3-3zm0-6c-1.66 0-3 1.34-3 3s1.34 3 3 3 3-1.34 3-3-1.34-3-3-3zM2 9c0-1.66 1.34-3 3-3s3 1.34 3 3-1.34 3-3 3-3-1.34-3-3zm20 0c0-1.66-1.34-3-3-3s-3 1.34-3 3 1.34 3 3 3 3-1.34 3-3zM5 22c1.66 0 3-1.34 3-3s-1.34-3-3-3-3 1.34-3 3 1.34 3 3 3zm14 0c1.66 0 3-1.34 3-3s-1.34-3-3-3-3 1.34-3 3 1.34 3 3 3zM8.94 7.06C9.54 6.27 10.71 6 12 6s2.46 .27 3.06 .94L15 10h4c0-1.33-.52-2.61-1.47-3.53-1.19-1.19-2.8-1.91-4.53-1.91C11.4 5 9.79 5.72 8.6 6.91 7.53 8 7 9.33 7 10h2l-.06-2.94zM12 12c-1.33 0-2.67-.5-3.53-1.47-1.19-1.19-1.89-2.78-1.89-4.53C7 4.73 8.02 3 9.06 2H7C5.9 2 5 2.9 5 4h2l-.94.06C5.27 4.54 5 5.71 5 7s.27 2.48 .94 3.06L7 10H3c0 1.33 .52 2.67 1.47 3.53 1.2 1.2 2.79 1.91 4.53 1.91s3.33-.72 4.53-1.94l1.06 1.06c-1.2 1.2-2.77 1.94-4.53 1.94-1.33 0-2.67-.5-3.53-1.47-1.19-1.19-1.89-2.78-1.89-4.53h2l-.94 .06C3.25 11.46 3 12.29 3 13s.25 1.54 .75 2.13L5 16H19c.55 0 1 .45 1 1s-.45 1-1 1h-2c0 1.33-.52 2.67-1.47 3.53-1.2 1.2-2.8 1.94-4.53 1.94s-3.33-.72-4.53-1.94l-1.06 1.06C9.33 21.5 10.65 22 12 22c1.73 0 3.33-.72 4.53-1.94l1.06 1.06c-1.2 1.2-2.77 1.94-4.53 1.94-1.33 0-2.67-.5-3.53-1.47C6 21 5 19.42 5 18h2c0 1.33 .52 2.67 1.47 3.53C9.67 22.5 10.98 23 12 23s2.33-.5 3.53-1.47C16.48 20.67 17 19.33 17 18h-2l.94-.06C16.73 17.46 17 16.29 17 15s-.27-2.46-.94-3.06L16 14v-2h2c1.1 0 2-.9 2-2s-.9-2-2-2h-2.06c.58-1.16 1-2.42 1-3.76 0-1.33-.43-2.59-1-3.75h2.06zM14 16c0 1.33-.52 2.61-1.47 3.53C11.33 20.5 10.03 21 9 21s-2.33-.5-3.53-1.47C4.52 18.67 4 17.35 4 16h2l-.94 .06C5.27 16.54 5 17.71 5 19s.27 2.48 .94 3.06L7 22h10c.55 0 1-.45 1-1s-.45-1-1-1H9c0-1.33 .5-2.67 1.47-3.53C11.67 14.5 12.98 14 14 14z"/>
</svg>