<svg xmlns="http://www.w3.org/2000/svg" viewBox="0 0 24 24" class="icon icon-fingerprint-authorization">
  <path d="M12 2C6.48 2 2 6.48 2 12c0 3.03 1.46 5.743 3.772 7.41A10.936 10.936 0 0112 22c6.065 0 10.998-4.935 10.999-11V11L12 2zm0 18c-1.81 0-3.536-.714-4.887-2.005C9.036 16.53 10.484 16 12 16s2.964.531 4.887 1.995A7.968 7.968 0 0112 20zm6.988-2.25A9.955 9.955 0 0012 10c-1.95 0-3.774.568-5.292 1.53l.022-.022C8.225 9.837 10.04 8.5 12 8.5c2.22 0 4.208.897 5.652 2.341v.022l3.336 3.336A9.976 9.976 0 0018.988 17.75zM12 6.5c-1.31 0-2.554.494-3.536 1.317.98-.317 2.018-.517 3.536-.517 1.76 0 3.39.474 4.854 1.293C14.197 7.24 13.065 6.5 12 6.5z"/>
</svg>