<svg xmlns="http://www.w3.org/2000/svg" viewBox="0 0 24 24" class="icon icon-giant-telescope icon-doughnut">
  <path d="M12 22C17.52 22 22 17.52 22 12S17.52 2 12 2 2 6.48 2 12s4.48 10 10 10z"></path>
  <circle cx="12" cy="12" r="3"></circle>
  
  <path d="M5.942 18.468a1 1 0 1 1 1.132-1.65l-1.5 3a1 1 0 0 1-1.716-1.016l2.084-0.334zM8.904 8.506l-5.776 2.76 2.554 2.554 2.335-1.118 1.192-.57L8.9 8.506zM10.818 6.59l-2.533 2.533 1.415 1.415 2.121-2.12-1.003-1.828zM5.49 14.146a27.633 27.633 0 0 1-1.567-.985l3.373-3.373 1.827 1.004-3.633 3.354zm8.506 3.708l1.826 1.004 2.335-1.118 2.76-5.775-1.115 2.333-1.57 1.192-4.236 2.364zM15.596 10.81l1.414 1.415 2.12-2.122-1.827-1.003-1.707 1.71zm5.85 0.5l-.83 1.73-1.655-.3 1.347-1.347a1.5 1.5 0 0 1 1.138.917zM16.62 16.992l.633 1.265-2.364-4.238 1.19 1.571 0.541 1.402z"/>
</svg>