<svg xmlns="http://www.w3.org/2000/svg" viewBox="0 0 24 24" fill="none" stroke="currentColor" stroke-width="2" stroke-linecap="round" stroke-linejoin="round" class="icon icon-levitating-pyramid.svg* icon-meteor-shower">
  <polygon points="12 2 2 7 12 12 22 7 12 2"/>
  <path d="M12 22V12"/>
  <line x1="9" y1="22" x2="15" y2="22"/>
  <path d="M2 17l1.5-2.5 2.5 1.5L5 12"/>
  <path d="M22 17l-1.5-2.5-2.5 1.5L19 12"/>
  <path d="M15 2a1 1 0 0 1 1-1h4a1 1 0 0 1 1 1v4a1 1 0 0 1-1 1h-4a1 1 0 0 1-1-1V2z"/>
  <path d="M4 20a1 1 0 0 1-1 1H1a1 1 0 0 1-1-1v-3a1 1 0 0 1 1-1h2a1 1 0 0 1 1 1v3z"/>
</svg>