<svg version="1.1" id="icon-microscope-observation" class="icon icon-microscope-observation" xmlns="http://www.w3.org/2000/svg" xmlns:xlink="http://www.w3.org/1999/xlink" x="0px" y="0px" viewBox="0 0 32 32" xml:space="preserve">
 <path d="M15.998,0.002C12.699,0.002,10,2.702,10,6v6H6c-3.302,0-6,2.699-6,6s2.698,6,6,6h6v6c0,3.301,2.699,6,6,6s6-2.699,6-6v-6h6
    c3.301,0,6-2.699,6-6s-2.699-6-6-6h-6V6C22.996,2.702,20.297,0.002,15.998,0.002z M15.998,2.002c2.209,0,4,1.791,4,4v18
    c0,2.209-1.791,4-4,4s-4-1.791-4-4v-18C11.998,3.793,13.789,2.002,15.998,2.002z M6,16.002c-2.209,0-4,1.791-4,4s1.791,4,4,4s4-1.791,4-4
    S8.209,16.002,6,16.002z M26,24.002c-2.209,0-4,1.791-4,4s1.791,4,4,4s4-1.791,4-4S28.209,24.002,26,24.002z"/>
</svg>