<svg version="1.1" xmlns="http://www.w3.org/2000/svg" xmlns:xlink="http://www.w3.org/1999/xlink" x="0px" y="0px" viewBox="0 0 24 24" enable-background="new 0 0 24 24" xml:space="preserve" class="icon icon-databank">
   <path d="M12,2C6.5,2,2,4.33,2,7v10c0,2.67,4.5,5,10,5s10-2.33,10-5V7C22,4.33,17.5,2,12,2z M4,7c0-0.74,1.21-1.41,3-1.83V15H4V7z M20,16.17C18.34,16.53,15.48,17,12,17s-6.34-0.47-8-0.83V6.17C7.96,6.57,10.18,7,12,7s4.04-0.43,6-0.83V16.17L20,16.17z M12,12c1.11,0,2,0.89,2,2s-0.89,2-2,2s-2-0.89-2-2S10.89,12,12,12L12,12L12,12z M17,15v-1.5c0-1.93-1.57-3.5-3.5-3.5S10,11.57,10,13.5V15H17L17,15L17,15z"/>
</svg>