<svg xmlns="http://www.w3.org/2000/svg" class="icon icon-urban-planning" viewBox="0 0 24 24">
    <path d="M13.5 4C16 4 18 6 18 8.5S16 13 13.5 13a3.163 3.163 0 01-2.24-1H4.5C2 12 0 10 0 7.5S2 3 4.5 3h6.76A3.163 3.163 0 0113.5 4zm-9 10h6.24A3.163 3.163 0 0110.5 15C8 15 6 13 6 10.5S8 6 10.5 6a3.163 3.163 0 012.24 1H19.5C22 7 24 9 24 11.5S22 16 19.5 16h-6.76A3.163 3.163 0 0113.5 15c-1.5 0-2.81-.78-3.48-2H4.62a.5.5 0 00-.12 0 .5.5 0 000 1zM22.61 20.2A10.03 10.03 0 0115 22h-6a10.03 10.03 0 01-7.61-3.8.5.5 0 00-.8.6A11.028 11.028 0 009 24h6a11.028 11.028 0 008.41-4.2.5.5 0 00-.8-.6zM6.65 19a8.978 8.978 0 01-2.6-2.61A1.5 1.5 0 014.5 15H9a1.5 1.5 0 010 3H6.65z"/>
    <path d="M15 15.5a1.501 1.501 0 01-2.045-1.39l.15-.86a2.501 2.501 0 00.32-4.76V6.25h1.5v2.25a2.5 2.5 0 00.57 4.76l.15.86A1.5 1.5 0 0115 15.5zM9.5 17H15a2.501 2.501 0 012.5 2.5v.5h-11v-.5A2.501 2.501 0 019.5 17zM4 20h1v2H4v-2z"/>
</svg>