<svg xmlns="http://www.w3.org/2000/svg" viewBox="0 0 24 24" class="icon icon-icon-cog">
    <path d="M9.93 2.21C9.785 2.085 9.609 2.01 9.42 2.01V2C9.23 2 9.055 2.085 8.91 2.21L6.34 4.78C6.11 5.01 5.96 5.33 5.96 5.67V8.33C5.96 8.67 6.11 8.99 6.34 9.22L9.93 12.81C9.785 12.935 9.609 13.01 9.42 13.01C9.23 13.01 9.055 12.935 8.91 12.81L6.34 10.24C6.11 10.01 5.96 9.69 5.96 9.33V6.67C5.96 6.33 6.11 6.01 6.34 5.78L9.93 2.21Z"/>
    <path d="M14.07 21.79C14.215 21.915 14.391 21.99 14.58 21.99C14.77 21.99 14.945 21.915 15.09 21.79L17.66 19.22C17.89 18.99 18.04 18.67 18.04 18.33V15.67C18.04 15.33 17.89 15.01 17.66 14.78L14.07 11.19C14.215 11.065 14.391 10.99 14.58 10.99C14.77 10.99 14.945 11.065 15.09 11.19L17.66 13.76C17.89 13.99 18.04 14.31 18.04 14.67V17.33C18.04 17.67 17.89 17.99 17.66 18.22L14.07 21.79Z"/>
    <path d="M7 12C6.897 12 6.795 11.978 6.7 11.939C5.72 12.852 4.32 13.293 2.7 14.049C2.152 14.319 1.991 15.035 2.361 15.59C2.593 15.916 3.012 16.063 3.42 16.063C4.64 16.063 5.86 15.809 7 15.314C8.14 15.819 9.36 16.073 10.58 16.073C10.988 16.073 11.407 15.916 11.639 15.59C12.009 15.035 11.848 14.319 11.3 14.049C9.68 13.293 8.28 12.852 7.3 11.939C7.205 11.978 7.103 12 7 12Z"/>
</svg>
