<svg xmlns="http://www.w3.org/2000/svg" viewBox="0 0 24 24" class="icon icon-plasma-lamp.svg icon-space-shuttle">
    <path d="M12 2C10.8954 2 10 2.89543 10 4V7H14V4C14 2.89543 13.1046 2 12 2Z"/>
    <path d="M12 9C9.23858 9 7 11.2386 7 14C7 16.7614 9.23858 19 12 19C14.7614 19 17 16.7614 17 14C17 11.2386 14.7614 9 12 9Z"/>
    <path d="M9.17159 4.8284C9.73367 4.26633 10.5129 4 11.3432 4H12.6568C13.4871 4 14.2663 4.26634 14.8284 4.8284C15.3904 5.39053 15.6568 6.1697 15.6568 7H8.34315C8.34315 6.1697 8.60947 5.39053 9.17159 4.8284Z"/>
</svg>