<svg xmlns="http://www.w3.org/2000/svg" viewBox="0 0 24 24" class="icon icon-nuclear-symbol">
    <path d="M12 2C6.48 2 2 6.48 2 12s4.48 10 10 10 10-4.48 10-10S17.52 2 12 2zm0 13c-1.65 0-3-1.35-3-3s1.35-3 3-3 3 1.35 3 3-1.35 3-3 3z"/>
    <path d="M4 12H2c0 1.33.26 2.61.74 3.77.1.24.26.47.41.69L12 22l8.85-5.54c.15-.22.31-.45.41-.69.48-1.16.74-2.44.74-3.77h-2c0 1.1-.37 2.1-1 2.83l-1.52-1.51c.63-.84 1.02-1.87 1.02-3.1 0-2.76-2.24-5-5-5s-5 2.24-5 5c0 1.24.39 2.26 1.02 3.1L5 14.83c-.63-.72-1-1.72-1-2.83z"/>
</svg>