<svg xmlns="http://www.w3.org/2000/svg" viewBox="0 0 24 24" class="icon icon-pinecone">
  <path d="M12 2C6.485 2 2 6.485 2 12s4.485 10 10 10 10-4.485 10-10S17.515 2 12 2zm0 18c-4.41 0-8-3.59-8-8 0-1.66.538-3.204 1.464-4.536.184.623.457 1.23.816 1.816-1.627 1.934-1.408 4.823-.408 7.02 1 2.2 3 3.5 6 3.7V22zm2.697-2.511c.884-.1 1.72-.513 2.303-1.158.58-.645.903-1.432 1.014-2.256C17.212 12.205 16.011 11 14.5 11c-1.381 0-2.5 1.118-2.5 2.5 0 .536.162 1.032.447 1.463.428.649 1.053 1.13 1.75 1.526zm.303-.769a2.49 2.49 0 01-1.638-.187A2.492 2.492 0 0114 13.5c0-.827.671-1.5 1.5-1.5s1.5.673 1.5 1.5c0 .271-.07.526-.197.767zm6.747-5.955c.876-.641 1.447-1.576 1.447-2.622C23 3.35 21.657 2 20 2c-1.346 0-2.5 1.054-2.5 2.5 0 .56.18 1.076.5 1.5 1.62 0 2.924 1.304 2.924 2.924a2.924 2.924 0 01-.923 2.263l.01-.01zm-6.747-5.763V3.5c0-.827-.671-1.5-1.5-1.5s-1.5.673-1.5 1.5v.923c1.13 0 2.049.918 2.049 2.048a2.05 2.05 0 01-.633 1.47l.01-.009z"></path>
</svg>