<svg xmlns="http://www.w3.org/2000/svg" viewBox="0 0 24 24" class="icon icon-magicwand">
  <path d="M2 3L3 2 5 4 4 5zM21.7 11l-1.7-1.7-2.8 2.8L19 13.7zM13 19.7l-1.7-1.7-2.8 2.8L10.3 23zM23 14c0 0.5-0.2 1-0.6 1.4l-1 1L21 17l-1 1-1-1-1-1 1-1 1-1c0.4-0.4 0.6-0.8 0.6-1.4 0-1.1-0.9-2-2-2-0.6 0-1 0.3-1.4 0.6l-5-5C12.7 5 13 4.6 13 4c0-1.1-0.9-2-2-2-0.5 0-1 0.2-1.4 0.6L6 0 5 1 1.4 5.6C1 6 0.8 6.5 0.8 7c0 1.1 0.9 2 2 2 0.6 0 1-0.3 1.4-0.6l5 5c-0.3 0.4-0.6 0.8-0.6 1.4 0 1.1 0.9 2 2 2 0.5 0 1-0.2 1.4-0.6l4.1 4.1V23h1.9l-0.7-1.7z"></path>
</svg>