<svg xmlns="http://www.w3.org/2000/svg" viewBox="0 0 24 24" class="icon icon-nebula">
    <path d="M19.092,14.534c-2.406,0.011 -4.367,1.582 -5.761,3.917c2.616,0.682 5.265,-0.098 7.878,-1.64c1.586,-0.935 2.796,-2.42 3.085,-4.115c0.014,-0.081 -0.042,-0.158 -0.123,-0.18c-0.082,-0.022 -0.169,0.003 -0.231,0.072c-0.443,0.489 -1.445,0.795 -2.848,0.946Z"/>
    <path d="M12.098,12.521c-1.903,0.008 -3.224,1.171 -3.946,2.904c1.94,0.506 3.896,-0.073 5.762,-1.217c1.133,-0.692 1.98,-1.754 2.273,-3.089c0.014,-0.066 -0.017,-0.132 -0.075,-0.17c-0.058,-0.037 -0.132,-0.039 -0.192,-0.009c-0.334,0.209 -2.137,0.787 -3.822,0.581Z"/>
    <path d="M10.015,14.734c-1.428,0.006 -2.52,0.875 -3.473,2.165c1.152,0.378 2.313,0.044 3.385,-0.777c0.648,-0.499 1.15,-1.196 1.423,-2.079c0.016,-0.05 -0.001,-0.102 -0.044,-0.142c-0.043,-0.041 -0.098,-0.056 -0.152,-0.043c-0.374,0.088 -1.94,1.187 -1.139,-0.124Z"/>
</svg>