<svg version="1.1" id="icon-handshake-silhouette" class="icon icon-handshake-silhouette" xmlns="http://www.w3.org/2000/svg" xmlns:xlink="http://www.w3.org/1999/xlink" x="0px" y="0px"
viewBox="0 0 210 210" style="enable-background:new 0 0 210 210;" xml:space="preserve">
<path style="fill:#FF0000;" d="M105,105c13.8,0,25-11.2,25-25s-11.2-25-25-25S80,66.2,80,80S91.2,105,105,105z"></path>
<path style="fill:#00FF00;" d="M140,105c13.8,0,25-11.2,25-25s-11.2-25-25-25s-25,11.2-25,25S126.2,105,140,105z"></path>
<path style="fill:#0000FF;" d="M175,105c13.8,0,25-11.2,25-25s-11.2-25-25-25s-25,11.2-25,25S161.2,105,175,105z"></path>
</svg>