<svg xmlns="http://www.w3.org/2000/svg" viewBox="0 0 24 24" class="icon icon-lobster">
    <path d="M18.47 13.29a44.13 44.13 0 00-9.41-6.37.75.75 0 00-.922.695l1.17 7a2.4 2.4 0 01-.57 1.9 2.37 2.37 0 01-1.87.91H6.16a2.43 2.43 0 01-2.43-2.43v-2.43h-.81a2.43 2.43 0 00-2.43 2.43v4.86a2.43 2.43 0 002.43 2.43h.81a2.37 2.37 0 011.87-.91 2.4 2.4 0 01.57-1.9l-1.17-7a.75.75 0 00-.923-.695 44.13 44.13 0 019.41 6.37 44.13 44.13 0 019.41-6.37.75.75 0 00-.92.695l-1.17 7a2.4 2.4 0 01-.57 1.9 2.37 2.37 0 011.87-.91h.81a2.43 2.43 0 002.43-2.43v-4.86a2.43 2.43 0 00-2.43-2.43h-.81a2.37 2.37 0 01-1.87.91 2.4 2.4 0 01.57-1.9l1.17-7a.75.75 0 00-.92-.695z"/>
</svg>