<svg xmlns="http://www.w3.org/2000/svg" viewBox="0 0 24 24" class="icon icon-worldmap">
  <path d="M12 2C6.48 2 2 6.48 2 12s4.48 10 10 10 10-4.48 10-10S17.52 2 12 2zm0 18c-1.11 0-2.16-.19-3.14-.52a5.994 5.994 0 007.14-5.05c2.45 1.25 2.53 3.37 2.53 3.7 0 .98-.22 1.92-.61 2.76-1.05-.25-2.14-.75-3.14-1.44V20zm3.13-6.8a6.006 6.006 0 00-6.14 0c-.64-.17-1.29-.26-1.96-.28v-.53c0-.98.36-1.91 1.01-2.64 1.37-.14 2.7.29 3.87 1.1.4-.6 .95-1.12 1.59-1.52.73.91 1.16 2.05 1.16 3.25l.47.62zm2.14 1.13c-.37-1.01-.98-1.98-1.72-2.73a8.035 8.035 0 00-3.37-1.7c-.4-.04-.81-.06-1.22-.03A4.92 4.92 0 0012 7.7V4.07c1.57.46 3 .04 4.19-.64 1.16 1.22 1.88 2.95 1.88 4.89 0 .59-.07 1.17-.19 1.73l-.01.02c.84.35 1.63.81 2.33 1.35z"/>
</svg>
