<svg xmlns="http://www.w3.org/2000/svg" viewBox="0 0 24 24" class="icon icon-linkedin">
<path d="M21.53 0H2.47C1.105 0 0 1.105 0 2.465v19.07C0 22.895 1.105 24 2.47 24h19.06c1.365 0 2.47-1.105 2.47-2.465V2.465C24 1.105 22.895 0 21.53 0zm-13.85 19.965H4.29V9.035h3.39v10.93zm-1.695-12.4c-1.08 0-1.755-.695-1.755-1.63 0-.95.7-1.63 1.78-1.63.95 0 1.725.68 1.725 1.63 0 .935-.745 1.63-1.75 1.63zm13.845 12.4h-3.39v-5.945c0-1.49-.53-2.505-1.85-2.505-.965 0-1.535.65-1.785 1.275-.1.235-.125.56-.125 .885v6.29h-3.39s.045-10.2 0-11.24h3.39v1.59c.45-.695 1.26-1.68 3.075-1.68 2.25 0 3.95 1.465 3.95 4.61v6.32z"/>
</svg>
