<svg xmlns="http://www.w3.org/2000/svg" viewBox="0 0 24 24" class="icon money-bag-icon">
<path d="M12 1C7.64 1 4 3.5 4 6.79C4 9.44 6.5 11.4 9.74 12.28C9.12 12.99 8.63 13.86 8.3 14.81C6.4 14.31 4.8 13.31 4.8 12V18.2C4.8 20 7.77 22 12 22C16.23 22 19.2 20 19.2 18.2V12C19.2 13.31 17.6 14.31 15.7 14.81C15.37 13.86 14.88 12.99 14.26 12.28C17.5 11.4 20 9.44 20 6.79C20 3.5 16.36 1 12 1M12 3C15.86 3 18.7 4.92 18.7 6.79C18.7 8.1 16.27 9.44 12 10.46C7.73 9.44 5.3 8.1 5.3 6.79C5.3 4.92 8.14 3 12 3M12 13C13.72 13 15.22 14.29 15.7 16H18.2C17.75 14.81 15.86 13.9 12 13.9C8.14 13.9 6.25 14.81 5.8 16H8.3C8.78 14.29 10.27 13 12 13Z"/>
</svg>