<svg xmlns="http://www.w3.org/2000/svg" class="icon paintbrush-palette-icon" viewBox="0 0 24 24">
    <path d="M3,17C4.5,17 7,18 9,20C7,20.5 5.5,21 3,22C3,19.5 3,18 3,17M21.2,10.2C22,10.9 22,12 21.2,12.7C20.6,13.3 19.8,13.7 19,14.1C17.8,14.7 16.7,15.5 15.5,16.4L13.5,17.5L13.2,17.7L10,19V10C10,8.3 8.7,7 7,7C5.3,7 4,8.3 4,10C4,11.2 4.8,12.2 6,12.7C7.2,13.2 8.3,13.7 9.5,14.1C10.7,13.7 11.8,13.2 13,12.7C14.2,12.2 15,11.2 15,10C15,8.8 14.2,8 13,7.7C13,7 13,6.8 13,6.7C13.5,6.2 14,5.7 14.4,5.2C15.2,4.1 16.7,4.1 17.5,5.2C18.3,6.2 18.3,7.8 17.5,8.8C18.3,8.2 19.2,7.8 20,7.7C21.1,7.8 22,8.7 22,10C22,10.2 21.9,10.4 21.9,10.6C22.1,10.4 22.3,10.2 22.4,10C22.6,10.5 22.4,11 21.8,11.5C23,11.1 23.5,10.3 23.3,9.5C23.1,8.7 22.2,8.2 21,7.9C20.5,8.5 19.8,9 19,9.5C20.2,9.6 21.5,10 21.2,10.2M7,8.5C7.8,8.5 8.5,9.2 8.5,10C8.5,10.8 7.8,11.5 7,11.5C6.2,11.5 5.5,10.8 5.5,10C5.5,9.2 6.2,8.5 7,8.5Z" />
</svg>