<svg xmlns="http://www.w3.org/2000/svg" class="icon paintbrush-icon" viewBox="0 0 24 24">
<path d="M21.742,14.611c-0.957-1.152-2.26-1.866-3.656-2.09c1.641-0.372,2.918-1.66,3.25-3.32C21.617,9.604,22,8.86,22,8V7c0-0.883-0.404-1.775-1.13-2.756C19.727,3.66,18.018,2,15.943,1.156C14.598,0.547,13.057,0,12,0C8.14,0,5.082,2.745,4.323,6.18C3.94,5.723,3.286,5.5,2.5,5.5C1.675,5.5,1,6.175,1,7s0.675,1.5,1.5,1.5c0.286,0,0.552-0.079,0.777-0.21C3.64,10.369,5.778,12,8.5,12H8c0.724,2.028,2.705,3.5,5,3.5s4.276-1.472,5-3.5h1.253c0.897,0.382,1.876,0.586,2.902,0.586c1.34,0,2.522-0.521,3.35-1.368L22,13.562V14.61H21.742z M2.5,7.912C2.225,7.912,2,7.687,2,7.412S2.225,6.912,2.5,6.912s0.5,0.225,0.5,0.5S2.775,7.912,2.5,7.912z"/>
</svg>