<svg xmlns="http://www.w3.org/2000/svg" viewBox="0 0 24 24" class="icon icon-settings">
  <path d="M12 15c1.66 0 2.99-1.34 2.99-3S13.66 9 12 9s-3 1.34-3 3 1.34 3 3 3zm9.447-2.105l1.102-1.9
    c.142-.245.04-.554-.2-.7l-2.56-1.47c-.1-.06-.223-.093-.35-.085l-2.385.18c-.365-.307-.805-.567-1.293-.758
    l-.358-2.467c-.02-.268-.247-.47-.52-.47h-2.24c-.272 0-.498.202-.52.47l-.358 2.468c-.488.19-.927.45-1.292.758
    l-2.385-.18c-.127-.008-.25.025-.35.085l-2.56 1.47c-.24.137-.342.454-.2.7l1.102 1.9c-.04.174-.062.35-.062.53
    0 .18.022.356.062.53l-1.102 1.9c-.142.245-.04.554.2.7l2.56 1.47c.1.06.223.093.35.085l2.385-.18c.365.307.805.567
    1.293.758l.358 2.467c.022.268.248.47.52.47h2.24c.273 0 .5-.202.52-.47l.358-2.468c.488-.19.928-.45 1.293-.758
    l2.385.18c.127.008.25-.025.35-.085l2.56-1.47c.24-.137.342-.454.2-.7l-1.102-1.9c.04-.174.062-.35.062-.53
    0-.18-.022-.356-.062-.53l1.102-1.9zM12 17c-2.76 0-5-2.24-5-5s2.24-5 5-5 5 2.24 5 5-2.24 5-5 5z"/>
</svg>
