<svg xmlns="http://www.w3.org/2000/svg" class="icon icon-shield-off" viewBox="0 0 24 24">
  <path d="M17.882 2.094c-.096-.451-.186-.911-.267-1.372C15.602 .295 14.323 0 12.001 0 9.677 0 8.398 .295 6.385 1.722c-.081 .461-.17 .922-.267 1.372-2.097 .95-3.3 3.23-3.398 5.722v5.999c0 2.895 1.516 5.508 4.457 7.175L12.001 22l5.205-3.014c2.942-1.668 4.458-4.281 4.458-7.175v-6c-.098-2.491-1.302-4.771-3.398-5.721z M10.194 12.532l-1.638-1.896V4.703c-.035.033-.07.065-.102 .102L12.001 7.616l3.944-2.27-1.111 6.43-3.638 1.707z"/>
</svg>
