<svg fill="#000000" xmlns="http://www.w3.org/2000/svg" viewBox="0 0 24 24" class="icon icon-terminal">
  <path d="M0 0h24v24H0z" fill="none"/>
  <path d="M3.929 2.929l1.414 1.414L7.172 3.1l1.415 1.414-1.829 1.828L12 9.243l5.243-5.243 1.414 1.414-6.364 6.364L12 16.97l-1.414-1.415-6.364-6.364 1.414-1.414L7.172 7.05l-1.829-1.828L3.93 2.93zm13.334 9.334L12 18l-1.263-1.263-6.364-6.364 1.414-1.414L5.828 7.05l1.415 1.414 1.829-1.828-1.414-1.414L7.172 3.1l1.414 1.414 2.828-2.829 1.414 1.414-6.364 6.364L12 16.97l5.657-5.657-1.415-1.414 1.829-1.828 1.415 1.414 2.828-2.828-1.414-1.414L20.172 3.1l1.415 1.414L16.758 9.95l-1.414-1.414 1.829-1.828 1.414 1.414 1.414-1.414z" />
</svg>
