<svg xmlns="http://www.w3.org/2000/svg" viewBox="0 0 24 24" class="icon icon-twitter">
   <path d="M23.954 4.569c-.885.389-1.83.654-2.825.774 1.014-.611 1.794-1.574 2.163-2.723-.951.555-2.005.959-3.127 1.184-.896-.959-2.173-1.559-3.591-1.559-2.717 0-4.92 2.203-4.92 4.917 0 .39.044.77.13 1.134-4.09-.205-7.72-2.164-10.15-5.144-.424.724-.666 1.562-.666 2.476 0 1.71.87 3.213 2.188 4.096-.807-.026-1.566-.248-2.228-.616v.062c0 2.385 1.693 4.374 3.946 4.825-.413.111-.849.171-1.296.171-.317 0-.625-.03-.924-.085.626 1.956 2.444 3.377 4.6 3.414-1.68 1.319-3.81 2.105-6.102 2.105-.397 0-.789-.023-1.17-.069 2.179 1.396 4.768 2.209 7.557 2.209 9.059 0 14.007-7.515 14.007-14.015 0-.213-.005-.425-.014-.637.961-.695 1.8-1.562 2.46-2.548z"/>
</svg>
