<svg xmlns="http://www.w3.org/2000/svg" viewBox="0 0 24 24" class="icon icon-upload-cloud">
  <path d="M0 0h24v24H0z" fill="none"/>
  <path d="M18 13a5 5 0 0 0-7.68 4.69l1.82.15a3.001 3.001 0 0 1 5.86 0l2.7.22a4.992 4.992 0 0 0-2.7-4.7700000000000005Z"/>
  <path d="M6.9 16a4.978 4.978 0 0 0 3.529-1.39l.188-.192.177.185a4.992 4.992 0 0 0 7.706-.67h2.98A6.978 6.978 0 0 1 18 20h-2a6.978 6.978 0 0 1-5-2.106A6.978 6.978 0 0 1 6 20H5a5 5 0 0 0 1.9-9.585000000000001 3.001 3.001 0 0 1 0-5.762A5 5 0 0 0 6.9 6H7a4.978 4.978 0 0 0-3.531 1.531A4.978 4.978 0 0 0 2 10a5 5 0 0 0 4.9 6Z"/>
  <path d="M11 13h2v5h-2v-5Z"/>
  <path d="M12 12l-4-4h8l-4 4Z"/>
</svg>
