<svg xmlns="http://www.w3.org/2000/svg" viewBox="0 0 24 24" class="icon icon-users">
    <path 
       d="M16,11c1.66,0 2,-1 2,-2s-0.34,-2 -2,-2c-1.66,0 -3,1 -3,2s1.34,2 3,2Z"
       fill="none"
       stroke="#000"
       stroke-width="2"
       stroke-linecap="round"
       stroke-linejoin="round">
    </path>
    <path 
       d="M8,11c-1.66,0 -2,-1 -2,-2s0.34,-2 2,-2c1.66,0 3,1 3,2s-1.34,2 -3,2Z"
       fill="none"
       stroke="#000"
       stroke-width="2"
       stroke-linejoin="round">
    </path>
    <path 
       d="M6,22v-6a4,4 0 0 1 4,-4h4a4,4 0 0 1 4,4v6"
       fill="none"
       stroke="#000"
       stroke-width="2"
       stroke-linejoin="round">
    </path>
</svg>
