<svg xmlns="http://www.w3.org/2000/svg" viewBox="0 0 24 24" class="icon icon-user">
  <path fill="none" stroke="currentColor" stroke-width="2" d="M4,22 L4,22 L4,22 L20,22 L20,22 L20,22 L14,16 L10,16 L6,16 L8,18 L4,22 Z M8.78947368,17.2105263 L10,15 L14,15 L15.2105263,16.7894737 M12,0 L12,0 L12,0 L12,3 L12,3 L12,3 L12,0 Z M3,9 L3,9 L3,9 L16,9 L16,9 L16,9 L8,18 L8,18 L8,18 Z M12,9 L12,9 L12,6 L12,6 Z M12,6 L12,6 L12,6 L20,6 L20,12.7894737 L20,21 L20,21 L20,21 L16.7894737,17.2105263 L12,12.7894737 M6.21052632,4.78947368 L8,3 L12,7 L16,3 L17.7894737,4.78947368 L12,9.78947368 Z"/>
</svg>
