<svg version="1.1" id="Layer_1" xmlns="http://www.w3.org/2000/svg" xmlns:xlink="http://www.w3.org/1999/xlink" x="0px" y="0px"
	 viewBox="0 0 512 512" class="icon icon-x">
<path style="fill:#FF0000;" d="M462.3,14.8L14.8,462.3c-7.8,7.8-20.5,7.8-28.3,0L14.8,462.3c-7.8-7.8-7.8-20.5,0-28.3L462.3,14.8
	C465.5,11.7,469.8,10,474.3,10s8.8,1.7,11.9,4.8C470.1-5.6,465.5,11.7,462.3,14.8L462.3,14.8z"/>
<path style="fill:#FF0000;" d="M462.3,497.2L14.8,49.7c-7.8-7.8-7.8-20.5,0-28.3L49.7,14.8c7.8-7.8,20.5-7.8,28.3,0L497.2,462.3
	c7.8,7.8,7.8,20.5,0,28.3l-34.9,34.9C482.8,504.9,470.1,504.9,462.3,497.2L462.3,497.2z"/>
</svg>
