<svg xmlns="http://www.w3.org/2000/svg" class="icon icon-youtube" viewBox="0 0 24 24">
    <path fill="none" d="M0 0h24v24H0z"/>
    <path class="icon icon-youtube" d="M10.27 8.72l5.98 3.28L10.27 15.28V8.72zM21.5 7.64s-.87-6.16-3.5-6.84c-1.6-.4-3.4-.4-5.01-.48l-.01-.01c-.1 0-2.23 0-3.83.04-1.6.04-3.41.08-5 .48-2.63.68-3.5 6.84-3.5 6.84S2 9.67 2 11.36v1.32c0 1.68.22 3.68 1.45 5.08 1.4 1.6 3.44 1.56 4.3 1.72 2.06.16 8.25.16 8.25.16s6.19 0 8.25-.16c.87-.16 2.9-.12 4.3-1.72 1.23-1.4 1.45-3.4 1.45-5.08v-1.32c0-1.69.22-3.72.22-3.72z"/>
</svg>
